<svg width="450" height="211" viewBox="0 0 450 211" fill="none" xmlns="http://www.w3.org/2000/svg">
<path d="M107.863 85.9151V63.3051L160.709 93.8161V116.426L107.863 85.9151Z" fill="#40C4AA"/>
<path d="M192.085 75.7022L160.709 93.8161L107.863 63.3051L139.239 45.1895L150.697 51.8043L133.6 61.6753L141.914 66.4743L157.747 57.3333L169.206 63.9481L153.372 73.0892L163.349 78.8484L180.446 68.9775L192.085 75.7022Z" fill="#F3BA26"/>
<path d="M192.085 79.9096L160.709 98.0234L107.863 67.5125L139.239 49.3969L150.697 56.0117L133.6 65.8827L141.914 70.6817L157.747 61.5407L169.206 68.1555L153.372 77.2966L163.349 83.0558L180.446 73.1849L192.085 79.9096Z" fill="#EFFEFA"/>
<path d="M180.446 68.214L169.868 74.3205V63.5691L157.746 56.5698L151.361 60.2563V51.4235L139.238 44.4242L107.199 62.9225V86.2995L160.709 117.195L192.749 98.6966V75.3178L180.446 68.214ZM160.045 115.276L108.527 85.5324V64.4548L160.045 94.1987V115.276ZM109.192 63.3051L139.238 45.9583L149.368 51.8061L132.271 61.6771L141.913 67.245L157.747 58.1039L167.877 63.9517L152.043 73.0928L163.349 79.6209L180.446 69.7499L190.756 75.704L160.709 93.0508L109.192 63.3051Z" fill="#09342E"/>
<path d="M185.909 107.85L203.325 117.84L220.551 46.6828L203.134 36.6914L185.909 107.85Z" fill="#40C4AA"/>
<path d="M222.167 25.7045L239.583 35.6941L220.551 46.6829L203.134 36.6915L222.167 25.7045Z" fill="#F3BA26"/>
<path d="M222.296 30.3547L239.712 40.3444L220.681 51.3331L203.265 41.3417L222.296 30.3547Z" fill="#EFFEFA"/>
<path d="M234.506 42.4171L226.754 44.8139L219.675 85.784L240.323 75.5889L234.506 42.4171Z" fill="#40C4AA"/>
<path d="M241.425 95.8445L227.191 87.4156L240.626 82.0514L241.425 95.8445Z" fill="#40C4AA"/>
<path d="M241.425 96.6168L225.692 87.2986L241.236 81.093L242.129 96.2094L241.425 96.6168ZM228.692 87.5307L240.688 94.6363L240.015 83.0097L228.692 87.5307Z" fill="#09342E"/>
<path d="M235.863 74.1184L219.675 63.9003L221.315 85.7839L237.526 83.0097L235.863 74.1184Z" fill="#40C4AA"/>
<path d="M235.856 76.5437L219.666 66.3238L221.306 88.2074L237.517 85.435L235.856 76.5437Z" fill="#EFFEFA"/>
<path d="M220.706 86.5617L218.913 62.6337L236.462 73.711L238.302 83.5501L220.706 86.5617ZM220.436 65.1652L221.923 85.0063L236.749 82.4694L235.264 74.5259L220.436 65.1652Z" fill="#09342E"/>
<path d="M240.13 35.2423L222.165 24.9374L202.556 36.2592L185.146 108.178L203.327 118.607L219.59 109.218L222.263 96.2501L238.403 86.9301L240.851 96.2767L241.425 96.6168L257.831 87.1409L240.13 35.2423ZM218.498 52.3376L202.888 116.825L186.671 107.522L203.571 37.7101L219.788 47.0124L218.498 52.3376ZM225.576 79.2913C227.591 69.3035 228.922 62.4973 229.53 59.0463C229.809 57.4626 230.049 56.0702 230.251 54.8708C230.467 55.8133 230.72 56.8798 231.012 58.0667C231.765 61.1367 232.415 63.6718 232.947 65.5921L235.094 73.796L225.576 79.2913ZM231.028 39.866L220.55 45.9158L204.466 36.6897L222.167 26.4698L238.251 35.6959L231.028 39.866Z" fill="#09342E"/>
<path d="M328.138 79.8648L328.743 79.2837L312.503 54.8508L289.916 51.9721C289.916 51.9721 269.618 61.1982 269.543 61.4197C269.469 61.6411 263.565 75.8877 263.565 75.8877L264.902 76.6087L277.625 86.6586C278.787 85.7693 280.142 84.864 281.744 83.9393C286.69 81.0854 291.533 79.4006 296.27 78.8869C301.011 78.3749 305.096 79.1101 308.531 81.0924C310.797 82.3998 312.6 83.8064 313.94 85.3122C315.281 86.818 316.475 88.4071 317.522 90.0812L333.306 86.0722C331.951 83.8613 330.225 81.794 328.138 79.8648Z" fill="#40C4AA"/>
<path d="M317.213 90.8429L316.957 90.4337C315.931 88.7951 314.747 87.222 313.442 85.7534C312.156 84.3078 310.391 82.9331 308.198 81.6664C304.907 79.7656 300.917 79.0534 296.341 79.5477C291.716 80.049 286.917 81.7214 282.075 84.5151C280.568 85.3866 279.205 86.2848 278.029 87.1865L277.62 87.5001L264.491 77.1296L262.721 76.1871L262.952 75.6326C264.565 71.7388 268.783 61.5543 268.918 61.1947C269.039 60.8368 269.079 60.7128 289.641 51.368L289.813 51.2901L312.887 54.2308L329.603 79.3776L329.102 79.8595C331.007 81.693 332.608 83.6612 333.873 85.7215L333.97 86.586L317.213 90.8429ZM299.085 78.0649C302.761 78.0649 306.039 78.8852 308.862 80.515C311.18 81.8525 313.054 83.3175 314.436 84.8694C315.683 86.2689 316.822 87.7623 317.825 89.3177L332.252 85.6524C331.015 83.7923 329.483 82.0119 327.688 80.352L327.171 79.8737L327.883 79.1881L312.12 55.4709L290.021 52.6542C282.575 56.0396 271.577 61.0795 270.078 61.8714C269.446 63.4304 265.876 72.0488 264.41 75.5866L265.219 76.0224L277.638 85.8171C278.761 84.9863 280.029 84.1607 281.414 83.3618C286.417 80.4742 291.392 78.7452 296.201 78.2244C297.185 78.1199 298.148 78.0649 299.085 78.0649Z" fill="#09342E"/>
<path d="M282.768 101.85V89.9378L278.692 85.8739L267.724 74.94L262.381 69.6131L253.134 68.5023V91.4365C253.134 91.4365 253.162 91.4595 253.168 91.4631C253.169 96.3879 256.976 101.075 264.675 105.52C270.304 108.769 276.332 111.111 282.766 112.546L294.972 105.499C291.805 104.739 288.782 103.91 285.909 103.01C284.814 102.67 283.79 102.261 282.768 101.85Z" fill="#40C4AA"/>
<path d="M282.876 113.253L282.623 113.196C276.157 111.754 270.006 109.366 264.344 106.098C256.65 101.656 252.671 96.8396 252.51 91.7801L252.505 91.7766L252.471 91.4382V67.7529L262.689 68.9806L283.432 89.6614V101.4C284.258 101.729 285.167 102.082 286.109 102.377C288.958 103.268 291.992 104.103 295.128 104.854L295.638 105.883L282.876 113.253ZM253.802 91.1176L253.835 91.4648C253.837 96.131 257.598 100.666 265.01 104.946C270.482 108.105 276.419 110.424 282.662 111.843L293.211 105.752C290.618 105.1 288.1 104.393 285.714 103.646C284.559 103.284 283.477 102.849 282.523 102.466L282.107 102.298V90.2123L262.078 70.2437L253.803 69.2499V91.1176H253.802Z" fill="#09342E"/>
<path d="M308.531 58.4807C305.096 56.4984 301.011 55.7632 296.271 56.2752C291.533 56.7889 286.69 58.4737 281.744 61.3276C271.464 67.264 270.233 72.4882 278.056 77.0038C280.419 78.3679 283.039 79.4999 285.912 80.3998C288.786 81.2998 291.808 82.1306 294.976 82.8888L282.77 89.936C276.336 88.501 270.307 86.1591 264.679 82.9101C256.615 78.2545 252.771 73.335 253.152 68.1515C253.527 62.968 258.137 57.8235 266.982 52.718C272.513 49.5257 278.414 47.3201 284.687 46.1031C290.96 44.8861 297.178 44.7567 303.341 45.7134C309.506 46.67 315.229 48.6736 320.517 51.7277C326.291 55.0617 330.555 58.9715 333.306 63.4587L317.522 67.4677C316.473 65.7936 315.281 64.2045 313.94 62.6987C312.6 61.1947 310.797 59.7899 308.531 58.4807Z" fill="#F3BA26"/>
<path d="M320.517 56.5267C315.229 53.4744 309.506 51.4708 303.341 50.5124C297.178 49.5558 290.96 49.6869 284.687 50.9021C278.414 52.1192 272.513 54.3247 266.982 57.517C259.694 61.7244 255.329 65.9601 253.791 70.2206V77.0817C255.176 80.763 258.789 84.3078 264.679 87.7073C270.307 90.9563 276.336 93.2983 282.77 94.7332L294.976 87.6861C291.808 86.9261 288.786 86.097 285.912 85.1971C283.039 84.2972 280.419 83.1634 278.056 81.7993C270.234 77.2837 271.464 72.0595 281.746 66.1231C286.692 63.2692 291.535 61.5844 296.272 61.0707C301.013 60.557 305.098 61.2921 308.533 63.2762C310.799 64.5836 312.602 65.9902 313.941 67.496C315.283 69.0018 316.477 70.5909 317.525 72.265L333.31 68.256C330.555 63.7723 326.291 59.8607 320.517 56.5267Z" fill="#EFFEFA"/>
<path d="M333.598 62.7006C330.794 58.3125 326.516 54.4258 320.85 51.1538C315.515 48.0748 309.658 46.0234 303.443 45.0597C297.234 44.096 290.88 44.2289 284.561 45.4548C278.243 46.6806 272.218 48.9323 266.651 52.1458C257.646 57.3452 252.882 62.7147 252.491 68.1055C252.092 73.5387 256.082 78.7134 264.348 83.4876C269.857 86.6675 275.832 88.9971 282.105 90.4497V112.831L282.878 113.253L295.64 105.885L295.642 82.368C295.642 82.368 288.885 80.6372 286.113 79.7692C283.298 78.887 280.699 77.7638 278.39 76.4317C275.248 74.6176 273.653 72.7079 273.653 70.7557C273.653 68.1108 276.488 65.1329 282.079 61.9051C286.92 59.1114 291.719 57.4391 296.345 56.9378C300.919 56.4418 304.908 57.1575 308.202 59.0565C310.397 60.3232 312.159 61.6979 313.445 63.1434C314.712 64.566 315.856 66.0913 316.859 67.6768L316.856 90.0795L317.213 90.843L333.969 86.5878L333.97 63.2745L333.598 62.7006ZM314.436 62.2594C313.056 60.7076 311.181 59.2425 308.864 57.9068C305.319 55.8607 301.062 55.0919 296.2 55.6162C291.39 56.1388 286.415 57.8678 281.413 60.7536C275.296 64.2861 272.323 67.5563 272.323 70.7557C272.323 73.2163 274.141 75.5122 277.724 77.5814C280.118 78.9632 282.807 80.1253 285.714 81.0376C288.102 81.7852 290.618 82.492 293.211 83.144L282.662 89.2345C276.419 87.8172 270.482 85.4983 265.01 82.3379C257.223 77.8418 253.454 73.0852 253.814 68.2047C254.172 63.2781 258.714 58.2629 267.313 53.2973C272.753 50.1564 278.64 47.9562 284.812 46.7604C288.27 46.0907 291.735 45.7541 295.183 45.7541C297.886 45.7541 300.577 45.9614 303.24 46.3742C309.293 47.3131 314.994 49.3096 320.186 52.307C325.506 55.3788 329.559 58.9874 332.252 63.0442L317.825 66.7095C316.82 65.1523 315.681 63.6589 314.436 62.2594Z" fill="#09342E"/>
<path d="M296.271 56.2752L296.269 78.887L286.963 81.0553L276.851 76.4777L273.161 72.0489L274.13 67.512L278.476 63.1186L287.184 58.6154L296.271 56.2752Z" fill="#09342E"/>
<path d="M300.49 56.0467V78.5539L306.248 79.4609V56.9821L300.49 56.0467Z" fill="#09342E"/>
<path d="M313.36 76.8874V99.4974L328.615 108.305V85.6954L313.36 76.8874Z" fill="#40C4AA"/>
<path d="M343.557 43.5349V59.4538L357.345 51.4943L343.557 43.5349Z" fill="#40C4AA"/>
<path d="M372.598 60.3006V82.9106L386.347 90.8488V68.2388L372.598 60.3006Z" fill="#40C4AA"/>
<path d="M328.615 85.6954L313.362 76.8892L357.345 51.4961L343.559 43.5366L356.033 36.3354L398.82 61.0393L386.347 68.2406L372.598 60.3041L328.615 85.6954Z" fill="#F3BA26"/>
<path d="M328.54 90.234L313.287 81.4278L357.271 56.0347L343.485 48.0753L355.958 40.874L398.746 65.5779L386.272 72.7792L372.524 64.8428L328.54 90.234Z" fill="#EFFEFA"/>
<path d="M356.031 35.5665L342.893 43.1522V59.0711L312.696 76.5047V99.8818L328.613 109.072L372.596 83.6776L386.345 91.6158L399.483 84.0319V60.6549L356.031 35.5665ZM344.222 44.6846L356.015 51.4943L344.222 58.3041V44.6846ZM327.95 107.154L314.026 99.1147V78.0389L327.95 86.078V107.154ZM385.683 89.6973L373.262 82.5279V61.4521L385.683 68.6232V89.6973ZM372.598 59.5335L328.615 84.9265L314.69 76.8873L342.895 60.6035L358.674 51.4926L344.888 43.5331L356.033 37.0989L397.492 61.0357L386.347 67.4699L372.598 59.5335Z" fill="#09342E"/>
<path d="M77.2458 46.4313L77.1183 46.2329C73.3892 42.2204 67.731 36.1086 67.428 35.7259C67.1765 35.3699 66.9161 34.9996 60.1364 36.121L59.7609 36.183L55.8334 46.4384L60.8822 63.1864L74.654 66.5133L82.6295 59.436L77.2458 46.4313Z" fill="#09342E"/>
<path d="M63.0755 58.3608L76.1884 50.9062L79.7863 66.3061L67.2758 68.2211L61.4067 62.6301L63.0755 58.3608Z" fill="#40C4AA"/>
<path d="M67.0543 68.9261L60.6272 62.8019L62.5423 57.8984L76.6329 49.8875L80.5958 66.8534L67.0543 68.9261ZM62.1879 62.4565L67.4972 67.516L78.9767 65.7586L75.7437 51.923L63.6069 58.8213L62.1879 62.4565Z" fill="#09342E"/>
<path d="M74.1173 54.1622C74.1297 54.2721 67.7557 58.0348 67.7557 58.0348C67.7557 58.0348 71.5946 60.4334 74.5105 59.0322C77.4265 57.6291 76.0606 54.7132 76.0606 54.7132L74.1173 54.1622Z" fill="#EFFEFA"/>
<path d="M97.0036 115.296L114.774 104.796L97.985 66.1182L80.2148 76.618L97.0036 115.296Z" fill="#F3BA26"/>
<path d="M97.0036 116.068L96.4845 115.769L79.3733 76.3453L98.2967 65.1634L115.617 105.069L97.0036 116.068ZM81.058 76.8927L97.3136 114.343L113.932 104.525L97.6767 67.0749L81.058 76.8927Z" fill="#09342E"/>
<path d="M63.1921 71.5675V95.7736L47.6276 86.7884V20.2641L66.5014 31.1608C82.1581 40.2008 89.9883 51.2729 89.9883 64.3769C89.9883 72.083 86.7286 76.161 80.2148 76.6163L97.0035 115.294L79.3467 105.101L67.1303 73.8421L63.1921 71.5675ZM63.1921 58.0543L66.1081 59.7372C71.5467 62.8764 74.266 61.6717 74.266 56.1198C74.266 51.5404 71.5981 47.7086 66.264 44.6297L63.1921 42.8564V58.0543Z" fill="#40C4AA"/>
<path d="M88.6579 72.9564L98.4934 67.2875L102.928 64.7312L103.415 64.3964C106.29 62.4778 107.76 58.995 107.76 53.877C107.76 40.7731 99.9301 29.701 84.2734 20.6609L65.3995 9.76428L47.6294 20.2641L66.5032 31.1608C82.16 40.2009 89.9901 51.2729 89.9901 64.3769C89.9901 68.7632 88.8953 71.9324 86.7836 73.9697L86.8102 74.021L88.6579 72.9564Z" fill="#F3BA26"/>
<path d="M81.0138 48.6705L98.791 38.1795C94.5765 33.3468 92.6598 30.0677 85.6924 26.0587L65.7538 14.5474L47.9836 25.0472L47.9854 25.049L67.924 36.5586C74.1402 40.587 76.9534 44.3161 81.0138 48.6705Z" fill="#EFFEFA"/>
<path d="M114.774 104.796L101.213 73.5516L83.8588 83.3428L81.1892 77.192C83.6711 76.8767 85.6481 75.9927 87.1574 74.5897L103.305 65.2786L103.785 64.949C106.864 62.8923 108.426 59.1686 108.426 53.877C108.426 40.5799 100.414 29.2103 84.6082 20.0852L65.3978 8.99365L46.9668 19.885V87.1711L63.1975 96.5406L73.0561 90.8186L78.8171 105.561L97.0071 116.068L97.8504 115.57L97.5829 114.956L114.774 104.796ZM65.4013 10.5349L83.9403 21.2384C95.3985 27.8533 102.639 35.6462 105.583 44.4844L88.8669 53.9957C85.7101 45.0849 78.3511 37.2388 66.8344 30.5885L48.9438 20.2588L65.4013 10.5349ZM79.8818 104.645L67.6653 73.3868L62.5279 70.4195V94.6256L48.2919 86.4075V21.4174L66.1701 31.74C81.5346 40.6101 89.324 51.5935 89.324 64.3804C89.324 65.1669 89.2726 65.8915 89.2035 66.5966C89.184 66.7896 89.1699 66.9916 89.1451 67.1794C89.0742 67.7303 88.9679 68.2423 88.8528 68.7401C88.7713 69.0749 88.6845 69.4027 88.5835 69.7145C88.5551 69.803 88.5197 69.8827 88.4896 69.9695C87.9883 71.3956 87.2708 72.579 86.3212 73.4949L86.2965 73.525C84.8084 74.9422 82.7941 75.7731 80.1705 75.9573L79.2351 76.0229L95.5952 113.716L79.8818 104.645Z" fill="#09342E"/>
<path d="M66.5971 44.0557L62.5278 41.7067V58.437L65.7751 60.313C67.8513 61.5105 69.559 62.1075 70.9373 62.1075C71.6423 62.1075 72.2642 61.9517 72.8027 61.6399C74.2359 60.8126 74.9303 59.0074 74.9303 56.1216C74.9303 51.3083 72.126 47.248 66.5971 44.0557ZM72.1384 60.4902C71.0223 61.1314 69.0524 60.6726 66.4394 59.1633L63.8565 57.6717V44.0079L65.9328 45.2054C71.0223 48.1444 73.6016 51.8168 73.6016 56.1216C73.6016 58.4582 73.1092 59.9286 72.1384 60.4902Z" fill="#09342E"/>
<path d="M300.928 192.844V129.188L315.897 137.831V201.486L300.928 192.844Z" fill="#40C4AA"/>
<path d="M300.928 129.188L314.602 121.33L329.571 129.973L315.897 137.831L300.928 129.188Z" fill="#F3BA26"/>
<path d="M301.142 132.859L314.602 125.128L329.571 133.771L315.769 141.272L301.142 132.859Z" fill="#EFFEFA"/>
<path d="M314.604 120.6L300.295 128.823V193.209L315.897 202.218L330.206 193.994V129.608L314.604 120.6ZM315.265 200.391L301.56 192.479V130.285L315.265 138.196V200.391ZM302.196 129.19L314.602 122.061L328.305 129.973L315.899 137.102L302.196 129.19Z" fill="#09342E"/>
<path d="M324.088 199.969L341.504 209.959L358.731 138.802L341.313 128.811L324.088 199.969Z" fill="#40C4AA"/>
<path d="M360.346 117.824L377.762 127.813L358.731 138.802L341.313 128.811L360.346 117.824Z" fill="#F3BA26"/>
<path d="M360.475 122.474L377.891 132.464L358.86 143.452L341.444 133.461L360.475 122.474Z" fill="#EFFEFA"/>
<path d="M372.685 134.536L364.933 136.933L357.854 177.903L378.503 167.708L372.685 134.536Z" fill="#40C4AA"/>
<path d="M379.605 187.964L365.37 179.535L378.806 174.171L379.605 187.964Z" fill="#40C4AA"/>
<path d="M379.605 188.736L363.872 179.418L379.415 173.212L380.308 188.329L379.605 188.736ZM366.871 179.65L378.868 186.756L378.194 175.129L366.871 179.65Z" fill="#09342E"/>
<path d="M374.042 166.238L357.854 156.02L359.494 177.903L375.705 175.129L374.042 166.238Z" fill="#40C4AA"/>
<path d="M374.035 168.663L357.845 158.443L359.485 180.327L375.696 177.554L374.035 168.663Z" fill="#EFFEFA"/>
<path d="M358.885 178.681L357.092 154.753L374.641 165.83L376.481 175.669L358.885 178.681ZM358.616 157.284L360.102 177.126L374.928 174.589L373.443 166.645L358.616 157.284Z" fill="#09342E"/>
<path d="M378.309 127.362L360.344 117.057L340.735 128.379L323.325 200.297L341.506 210.726L357.769 201.337L360.442 188.369L376.582 179.049L379.03 188.396L379.604 188.736L396.011 179.26L378.309 127.362ZM356.677 144.457L341.067 208.944L324.85 199.642L341.75 129.829L357.967 139.132L356.677 144.457ZM363.755 171.411C365.771 161.423 367.101 154.617 367.709 151.166C367.989 149.582 368.228 148.189 368.43 146.99C368.646 147.933 368.899 148.999 369.191 150.186C369.944 153.256 370.594 155.791 371.126 157.711L373.273 165.915L363.755 171.411ZM369.207 131.985L358.729 138.035L342.645 128.809L360.346 118.589L376.43 127.815L369.207 131.985Z" fill="#09342E"/>
<path d="M282.217 198.818L283.122 205.511L300.121 195.479C300.127 195.475 300.132 195.471 300.137 195.468L300.626 195.179L300.621 195.147C303.283 193.452 304.635 190.146 304.635 185.175C304.635 181.111 303.834 177.342 302.233 173.869C300.63 170.395 298.043 167.081 294.468 163.928L275.832 170.394L260.267 179.035L277.363 188.904L282.217 198.818Z" fill="#F3BA26"/>
<path d="M282.599 206.591L281.573 199.014L276.856 189.381L258.919 179.026L275.51 169.816L294.619 163.177L294.909 163.433C298.532 166.633 301.2 170.05 302.837 173.595C304.472 177.14 305.301 181.037 305.301 185.181C305.301 190.111 303.974 193.563 301.358 195.455L301.363 195.487L300.476 196.045L282.599 206.591ZM261.617 179.048L277.873 188.431L282.877 198.729L283.648 204.43L300.267 194.589C302.727 193.023 303.974 189.856 303.974 185.177C303.974 181.228 303.186 177.517 301.632 174.149C300.118 170.867 297.657 167.685 294.32 164.684L276.05 171.023L261.617 179.048Z" fill="#09342E"/>
<path d="M271.223 143.791H252.917V163.573H271.223V143.791Z" fill="#09342E"/>
<path d="M274.914 168.296H252.917V190.293H274.914V168.296Z" fill="#09342E"/>
<path d="M280.365 124.116L260.269 112.513L242.501 123.012L260.269 137.806L279.157 162.094L282.454 173.331L287.723 170.218L295.957 165.354L299.487 163.269C299.682 163.171 299.87 163.056 300.054 162.934L300.116 162.897L300.114 162.893C300.428 162.679 300.731 162.441 301.014 162.153C302.669 160.47 303.496 157.761 303.496 154.032C303.496 148.359 301.599 143.086 297.801 138.209C294.006 133.333 288.192 128.634 280.365 124.116Z" fill="#F3BA26"/>
<path d="M282.057 174.337L278.555 162.402L259.745 138.214L241.836 123.323V122.632L260.265 111.742L280.696 123.539C288.562 128.079 294.495 132.878 298.325 137.799C302.197 142.772 304.16 148.234 304.16 154.032C304.16 157.924 303.26 160.813 301.487 162.619C301.324 162.785 301.151 162.941 300.957 163.095L300.449 163.471C300.213 163.623 300.003 163.751 299.785 163.862L282.057 174.337ZM243.649 123.105L260.692 137.296L279.793 161.908L282.849 172.325L299.147 162.698C299.356 162.59 299.522 162.489 299.684 162.381L299.685 162.383L299.739 162.346C300.061 162.124 300.316 161.915 300.541 161.688C302.061 160.142 302.832 157.564 302.832 154.034C302.832 148.538 300.963 143.353 297.276 138.618C293.551 133.831 287.749 129.146 280.032 124.69L260.273 113.282L243.649 123.105Z" fill="#09342E"/>
<path d="M258.065 184.642L272.755 176.009L277.193 191.401L267.628 196.715L254.384 189.372L258.065 184.642Z" fill="#40C4AA"/>
<path d="M267.628 197.473L253.381 189.578L257.727 184.07L273.157 175.003L277.976 191.723L267.628 197.473ZM255.383 189.168L267.628 195.955L276.406 191.076L272.353 177.016L258.51 185.152L255.383 189.168Z" fill="#09342E"/>
<path d="M258.065 157.525L271.223 149.584L278.782 163.173L265.788 170.675L256.93 161.747L258.065 157.525Z" fill="#40C4AA"/>
<path d="M265.678 171.506L256.191 161.944L257.495 157.095L271.471 148.661L279.682 163.423L265.678 171.506ZM257.67 161.55L265.899 169.843L277.883 162.925L270.978 150.508L258.638 157.956L257.67 161.55Z" fill="#09342E"/>
<path d="M271.324 152.482L263.075 157.463C263.075 157.463 266.576 159.954 270.833 159.733C275.088 159.511 275.255 155.249 275.255 155.249L271.324 152.482Z" fill="#EFFEFA"/>
<path d="M273.24 178.5L263.573 184.557C263.573 184.557 269.221 188.965 273.483 186.639C277.745 184.314 273.24 178.5 273.24 178.5Z" fill="#EFFEFA"/>
<path d="M242.499 123.011L262.595 134.614C270.423 139.133 276.236 143.831 280.032 148.708C283.83 153.585 285.728 158.859 285.728 164.532C285.728 168.263 284.899 170.969 283.246 172.654C281.589 174.337 279.409 174.776 276.704 173.974V174.429C280.278 177.584 282.865 180.899 284.468 184.371C286.07 187.843 286.87 191.613 286.87 195.677C286.87 201.714 284.907 205.335 280.98 206.542C277.053 207.748 271.701 206.393 264.921 202.48L242.501 189.535V123.011H242.499ZM258.065 157.525L262.753 160.232C264.987 161.522 266.712 161.988 267.934 161.63C269.157 161.276 269.766 160.048 269.766 157.956C269.766 154.227 267.325 150.949 262.437 148.127L258.064 145.603L258.065 157.525ZM258.065 170.675V184.644L263.543 187.806C268.402 190.612 270.833 189.65 270.833 184.917C270.833 182.702 270.183 180.63 268.882 178.695C267.582 176.762 265.695 175.079 263.226 173.655L258.065 170.675Z" fill="#40C4AA"/>
<path d="M280.032 152.767C280.204 152.987 280.349 153.212 280.514 153.433L297.361 143.272C293.561 138.584 287.909 134.06 280.364 129.704L260.267 118.1L243.81 127.824L262.595 138.671C270.424 143.19 276.236 147.89 280.032 152.767Z" fill="#EFFEFA"/>
<path d="M278 207.626C274.349 207.626 269.857 206.097 264.588 203.055L241.835 189.919V122.632L242.495 122.242L262.928 134.038C270.796 138.579 276.727 143.378 280.557 148.299C284.429 153.272 286.392 158.734 286.392 164.532C286.392 168.424 285.492 171.313 283.719 173.118C282.268 174.594 280.447 175.212 278.287 174.977C281.333 177.87 283.611 180.929 285.071 184.091C286.706 187.636 287.535 191.533 287.535 195.677C287.535 202.012 285.395 205.881 281.175 207.176C280.199 207.475 279.141 207.624 278 207.626ZM243.163 189.152L265.253 201.904C271.832 205.704 277.056 207.047 280.783 205.906C284.431 204.786 286.204 201.44 286.204 195.677C286.204 191.728 285.416 188.017 283.862 184.649C282.303 181.273 279.745 178.001 276.263 174.927L276.038 174.729V173.083L276.891 173.336C279.363 174.07 281.288 173.696 282.771 172.188C284.291 170.64 285.063 168.064 285.063 164.534C285.063 159.038 283.195 153.853 279.508 149.118C275.782 144.331 269.981 139.645 262.264 135.19L243.165 124.162V189.152H243.163ZM267.963 190.038C266.702 190.038 265.129 189.487 263.21 188.38L257.401 185.025V169.524L263.559 173.078C266.105 174.546 268.082 176.311 269.435 178.321C270.804 180.359 271.499 182.577 271.499 184.915C271.499 187.324 270.874 188.906 269.641 189.618C269.155 189.898 268.599 190.038 267.963 190.038ZM258.73 184.259L263.874 187.23C266.245 188.6 268.011 189.025 268.974 188.47C269.766 188.013 270.168 186.818 270.168 184.917C270.168 182.849 269.55 180.879 268.331 179.065C267.093 177.223 265.263 175.597 262.895 174.231L258.73 171.827V184.259ZM267.065 162.413C265.814 162.413 264.282 161.883 262.42 160.808L257.399 157.908V144.453L262.769 147.553C267.851 150.489 270.429 153.988 270.429 157.958C270.429 160.374 269.651 161.827 268.117 162.271C267.793 162.363 267.442 162.413 267.065 162.413ZM258.73 157.143L263.086 159.658C265.148 160.847 266.718 161.3 267.749 160.994C268.085 160.897 269.104 160.601 269.104 157.958C269.104 154.498 266.749 151.385 262.108 148.705L258.732 146.756L258.73 157.143Z" fill="#09342E"/>
<path d="M282.112 180.19L299.925 169.816L296.166 165.232L283.545 172.325L279.68 174.342L276.702 174.428L282.112 180.19Z" fill="#09342E"/>
<path d="M286.204 189.739L303.973 179.016L304.637 185.177L303.973 191.122L300.609 195.551L284.11 204.963C284.11 204.963 286.546 201.087 286.546 200.701C286.546 200.313 287.211 194.003 287.211 194.003L286.204 189.739Z" fill="#09342E"/>
<path d="M208.339 140.322L208.211 140.124C204.482 136.111 198.824 129.999 198.521 129.617C198.269 129.261 198.009 128.89 191.229 130.012L190.854 130.074L186.926 140.329L191.975 157.077L205.747 160.404L213.722 153.327L208.339 140.322Z" fill="#09342E"/>
<path d="M194.169 152.252L207.281 144.797L210.879 160.197L198.369 162.112L192.5 156.521L194.169 152.252Z" fill="#40C4AA"/>
<path d="M198.147 162.817L191.72 156.693L193.635 151.789L207.726 143.778L211.689 160.744L198.147 162.817ZM193.281 156.347L198.59 161.407L210.07 159.65L206.837 145.814L194.7 152.712L193.281 156.347Z" fill="#09342E"/>
<path d="M205.21 148.053C205.223 148.163 198.849 151.926 198.849 151.926C198.849 151.926 202.688 154.324 205.604 152.923C208.519 151.52 207.154 148.604 207.154 148.604L205.21 148.053Z" fill="#EFFEFA"/>
<path d="M228.097 209.187L245.867 198.687L229.078 160.009L211.308 170.509L228.097 209.187Z" fill="#F3BA26"/>
<path d="M228.097 209.959L227.578 209.66L210.466 170.236L229.39 159.054L246.71 198.96L228.097 209.959ZM212.151 170.784L228.407 208.234L245.025 198.416L228.77 160.966L212.151 170.784Z" fill="#09342E"/>
<path d="M194.285 165.458V189.664L178.721 180.679V114.155L197.594 125.052C213.251 134.092 221.081 145.164 221.081 158.268C221.081 165.974 217.822 170.052 211.308 170.507L228.097 209.185L210.44 198.991L198.223 167.733L194.285 165.458ZM194.285 151.945L197.201 153.628C202.64 156.767 205.359 155.563 205.359 150.011C205.359 145.431 202.691 141.599 197.357 138.52L194.285 136.747V151.945Z" fill="#40C4AA"/>
<path d="M219.751 166.847L229.586 161.178L234.021 158.622L234.508 158.287C237.383 156.369 238.853 152.886 238.853 147.768C238.853 134.664 231.023 123.592 215.366 114.552L196.493 103.655L178.722 114.155L197.596 125.052C213.253 134.092 221.083 145.164 221.083 158.268C221.083 162.654 219.988 165.823 217.877 167.861L217.903 167.912L219.751 166.847Z" fill="#F3BA26"/>
<path d="M212.107 142.561L229.884 132.07C225.67 127.238 223.753 123.959 216.785 119.95L196.847 108.438L179.077 118.938L179.078 118.94L199.017 130.45C205.233 134.478 208.046 138.207 212.107 142.561Z" fill="#EFFEFA"/>
<path d="M245.867 198.687L232.306 167.442L214.952 177.234L212.282 171.083C214.764 170.768 216.741 169.884 218.25 168.481L234.398 159.169L234.878 158.84C237.957 156.783 239.519 153.059 239.519 147.768C239.519 134.471 231.507 123.101 215.701 113.976L196.491 102.885L178.06 113.776V181.062L194.291 190.432L204.149 184.709L209.91 199.452L228.1 209.959L228.943 209.461L228.676 208.847L245.867 198.687ZM196.494 104.426L215.033 115.129C226.492 121.744 233.732 129.537 236.676 138.375L219.96 147.887C216.803 138.976 209.444 131.13 197.927 124.479L180.037 114.15L196.494 104.426ZM210.975 198.536L198.758 167.278L193.621 164.31V188.517L179.385 180.298V115.308L197.263 125.631C212.628 134.501 220.417 145.484 220.417 158.271C220.417 159.058 220.366 159.782 220.297 160.487C220.277 160.681 220.263 160.882 220.238 161.07C220.167 161.621 220.061 162.133 219.946 162.631C219.864 162.966 219.777 163.294 219.676 163.605C219.648 163.694 219.613 163.774 219.583 163.86C219.081 165.286 218.364 166.47 217.414 167.386L217.389 167.416C215.901 168.833 213.887 169.664 211.264 169.848L210.328 169.914L226.688 207.606L210.975 198.536Z" fill="#09342E"/>
<path d="M197.69 137.947L193.621 135.598V152.328L196.868 154.204C198.944 155.401 200.652 155.998 202.03 155.998C202.735 155.998 203.357 155.843 203.896 155.531C205.329 154.703 206.023 152.898 206.023 150.012C206.023 145.199 203.219 141.139 197.69 137.947ZM203.231 154.381C202.115 155.022 200.145 154.563 197.532 153.054L194.949 151.563V137.899L197.026 139.096C202.115 142.035 204.695 145.708 204.695 150.012C204.695 152.349 204.202 153.819 203.231 154.381Z" fill="#09342E"/>
<path d="M105.137 178.034V155.424L157.983 185.935V208.545L105.137 178.034Z" fill="#40C4AA"/>
<path d="M189.359 167.821L157.983 185.935L105.137 155.424L136.512 137.309L147.97 143.924L130.873 153.795L139.187 158.594L155.021 149.453L166.479 156.067L150.645 165.208L160.623 170.968L177.72 161.097L189.359 167.821Z" fill="#F3BA26"/>
<path d="M189.359 172.029L157.983 190.143L105.137 159.632L136.512 141.516L147.97 148.131L130.873 158.002L139.187 162.801L155.021 153.66L166.479 160.275L150.645 169.416L160.623 175.175L177.72 165.304L189.359 172.029Z" fill="#EFFEFA"/>
<path d="M177.72 160.333L167.142 166.44V155.688L155.019 148.689L148.635 152.376V143.543L136.512 136.543L104.472 155.042V178.419L157.983 209.314L190.023 190.816V167.437L177.72 160.333ZM157.319 207.396L105.801 177.652V156.574L157.319 186.318V207.396ZM106.465 155.424L136.512 138.078L146.642 143.925L129.545 153.796L139.187 159.364L155.021 150.223L165.151 156.071L149.317 165.212L160.623 171.74L177.72 161.869L188.03 167.823L157.983 185.17L106.465 155.424Z" fill="#09342E"/>
<path d="M98.8195 154.229C94.1675 149.09 88.775 140.276 87.2408 138.257L62.3385 148.162L65.6495 159.614L70.6629 166.233V175.774C73.5806 179.066 76.392 181.815 79.0953 184.019C81.6304 186.09 84.7554 188.205 88.4242 190.361L89.9016 205.49L107.217 194.2C107.665 193.968 108.079 193.688 108.476 193.38L108.591 193.305L108.588 193.289C109 192.955 109.394 192.593 109.746 192.172C111.629 189.934 112.57 186.674 112.57 182.391C112.57 177.73 111.569 173.284 109.562 169.055C107.555 164.824 103.975 159.882 98.8195 154.229Z" fill="#F3BA26"/>
<path d="M89.3454 206.645L87.7954 190.761C84.1974 188.632 81.1291 186.538 78.6755 184.535C75.9615 182.32 73.0988 179.521 70.1669 176.215L69.9986 176.026V166.454L65.0118 159.799L61.5325 147.767L87.4641 137.453L87.7705 137.853C88.2152 138.439 88.9646 139.561 89.9106 140.983C92.3375 144.626 96.0046 150.128 99.3138 153.783C104.49 159.46 108.14 164.502 110.161 168.768C112.198 173.064 113.233 177.647 113.233 182.389C113.233 186.813 112.232 190.248 110.253 192.599C109.987 192.916 109.681 193.226 109.321 193.537L109.335 193.594L108.953 193.86C108.416 194.266 107.969 194.556 107.52 194.788L89.3454 206.645ZM71.3273 175.523C74.1529 178.694 76.9058 181.379 79.5152 183.505C81.9847 185.521 85.0938 187.635 88.7609 189.789L89.0514 189.961L90.4562 204.337L106.852 193.645C107.286 193.417 107.665 193.171 108.065 192.857L108.166 192.776C108.605 192.421 108.946 192.094 109.236 191.746C111.006 189.642 111.904 186.496 111.904 182.393C111.904 177.851 110.914 173.457 108.96 169.34C106.995 165.193 103.418 160.259 98.3289 154.679L98.3271 154.677C94.9559 150.952 91.2552 145.4 88.8051 141.724C88.0611 140.608 87.441 139.679 87.007 139.068L63.1446 148.558L66.2536 159.313L71.3273 166.01V175.523Z" fill="#09342E"/>
<path d="M52.9476 170.656L69.5256 160.832L84.1407 177.44L82.4789 192.831L66.3138 191.39L56.682 179.654L52.9476 170.656Z" fill="#F3BA26"/>
<path d="M83.0689 193.55L65.9772 192.028L56.0673 179.909L52.2833 170.788V170.279L69.6602 159.981L84.8333 177.222L83.0689 193.55ZM66.6522 190.754L81.8908 192.111L83.4497 177.661L69.3927 161.685L53.7838 170.936L57.2595 179.312L66.6522 190.754Z" fill="#09342E"/>
<path d="M73.1892 141.215L94.8213 149.761L94.8514 149.774L112.567 138.259C106.127 131.233 99.8134 125.934 93.6219 122.358C86.6102 118.31 81.099 116.908 77.0883 118.152C76.6985 118.272 76.3443 118.439 75.9935 118.607L75.9758 118.597L75.9014 118.644C75.3681 118.91 74.8686 119.22 74.4239 119.599L57.5962 130.473L59.2295 135.697L73.1892 141.215Z" fill="#F3BA26"/>
<path d="M94.9292 150.514L94.6139 150.394L58.6873 136.2L56.8077 130.193L74.0606 119.045C74.4468 118.708 74.9747 118.366 75.6019 118.053L75.9491 117.828L76.0129 117.863C76.2928 117.734 76.5797 117.613 76.888 117.518C81.0723 116.223 86.8085 117.659 93.9513 121.782C100.173 125.373 106.6 130.765 113.054 137.809L113.342 138.126L113.094 138.705L94.9292 150.514ZM73.4335 140.597L94.7786 149.028L111.546 138.129C105.364 131.468 99.2251 126.358 93.2905 122.932C86.4772 118.999 81.0883 117.608 77.2866 118.786C76.9305 118.898 76.6046 119.05 76.2839 119.206L75.9597 119.362L75.9579 119.36C75.492 119.621 75.1537 119.853 74.8543 120.108L58.3809 130.76L59.7679 135.198L73.4335 140.597Z" fill="#09342E"/>
<path d="M94.8514 193.906C94.8514 198.189 93.9107 201.451 92.0276 203.687C90.1444 205.922 87.4304 206.939 83.8838 206.734C80.3372 206.528 76.1759 205.047 71.4017 202.292C67.4193 199.993 64.0764 197.74 61.3784 195.536C58.6768 193.332 55.8654 190.583 52.9459 187.291V170.658C56.0301 174.265 59.2348 177.542 62.5635 180.487C65.8922 183.433 68.9481 185.707 71.7312 187.314C74.1316 188.699 75.8925 189.236 77.0103 188.919C78.1299 188.606 78.688 187.691 78.688 186.179C78.688 185.234 78.463 184.278 78.013 183.309C77.5613 182.34 76.8385 181.206 75.8429 179.907C74.8455 178.609 72.1917 175.595 67.8852 170.871C63.9825 166.57 61.056 162.897 59.1073 159.848C57.1551 156.801 55.7095 153.761 54.7706 150.73C53.8281 147.697 53.3569 144.48 53.3569 141.079C53.3569 134.716 55.364 130.914 59.3712 129.669C63.3819 128.425 68.8932 129.826 75.9049 133.874C82.0964 137.449 88.4118 142.75 94.8496 149.775L89.8982 161.328C84.3055 155.138 79.4763 150.868 75.4124 148.521C73.3114 147.308 71.7825 146.852 70.8277 147.152C69.8746 147.451 69.3945 148.231 69.3945 149.49C69.3945 150.845 70.0022 152.408 71.2174 154.179C72.4309 155.951 75.7242 159.806 81.099 165.744C86.2541 171.397 89.8361 176.339 91.8397 180.568C93.8504 184.797 94.8514 189.243 94.8514 193.906Z" fill="#40C4AA"/>
<path d="M94.1834 127.679C87.1717 123.631 81.6605 122.23 77.6497 123.474C77.26 123.594 76.9057 123.761 76.5549 123.929L76.5372 123.918L76.461 123.966C75.9278 124.232 75.4282 124.542 74.9836 124.921L58.1559 135.795L58.163 135.818C58.7068 135.481 59.2843 135.187 59.9345 134.985C63.9452 133.741 69.4564 135.143 76.4681 139.191C82.6596 142.766 88.9751 148.066 95.4128 155.092L108.584 146.532L111.094 141.412C104.657 134.39 100.377 131.254 94.1834 127.679Z" fill="#EFFEFA"/>
<path d="M67.0685 169.95L54.8185 176.899C54.8185 176.899 55.4155 179.089 60.5281 183.296C65.6425 187.504 66.6452 187.518 66.6452 187.518L77.0919 181.408L67.0685 169.95Z" fill="#EFFEFA"/>
<path d="M106.662 164.031L89.1328 174.655C87.1611 171.774 84.6526 168.651 81.5967 165.299C80.4098 163.988 79.3398 162.794 78.3566 161.685L85.1468 157.29C86.4276 158.566 87.7509 159.956 89.1203 161.462L89.7882 162.194L108.147 150.261L113.346 138.128L112.675 137.396L94.954 148.914C88.6297 142.078 82.3354 136.818 76.2378 133.298C69.0951 129.174 63.3588 127.738 59.1745 129.034C54.8732 130.37 52.6925 134.423 52.6925 141.079C52.6925 144.533 53.1779 147.848 54.1345 150.927C55.0876 154.002 56.5721 157.125 58.5456 160.208C60.5014 163.267 63.4775 167.005 67.3926 171.319C71.6726 176.013 74.337 179.039 75.3148 180.313C76.2768 181.567 76.9801 182.671 77.4106 183.59C77.8163 184.467 78.0235 185.339 78.0235 186.18C78.0235 187.764 77.3415 188.138 76.8277 188.281C76.19 188.467 74.8436 188.343 72.0623 186.74C69.3271 185.16 66.2783 182.889 63.0028 179.989C59.7219 177.085 56.5084 173.801 53.4507 170.226L53.0875 169.801L52.2815 170.279V187.541L52.4498 187.73C55.3799 191.036 58.2427 193.835 60.9584 196.049C63.676 198.269 67.079 200.563 71.0703 202.868C75.9136 205.663 80.2113 207.189 83.8465 207.398C84.1548 207.416 84.4577 207.424 84.7535 207.424C88.0716 207.424 90.6882 206.314 92.5376 204.113C92.7219 203.894 92.8902 203.656 93.0567 203.417L93.0496 203.437L110.253 192.598L111.546 189.482L113.13 179.891L110.442 171.099L106.662 164.031ZM92.9823 181.601C92.9398 181.5 92.9008 181.397 92.8583 181.296L92.9238 181.39L92.9823 181.601ZM95.218 189.574L95.2197 189.76C95.2002 189.61 95.1665 189.461 95.1453 189.312L95.218 189.574ZM91.5208 203.26C89.767 205.345 87.2815 206.266 83.9245 206.071C80.4983 205.873 76.399 204.409 71.7364 201.717C67.8054 199.447 64.4643 197.194 61.8017 195.02C59.1922 192.893 56.4392 190.209 53.6137 187.038V172.435C56.3577 175.539 59.2152 178.409 62.1276 180.984C65.4705 183.943 68.5902 186.267 71.4016 187.892C73.988 189.387 75.8765 189.934 77.1927 189.56C78.1794 189.284 79.3557 188.473 79.3557 186.18C79.3557 185.144 79.1077 184.083 78.6188 183.03C78.1493 182.022 77.3946 180.836 76.3742 179.505C75.3609 178.182 72.7444 175.213 68.3794 170.426C64.5157 166.167 61.5855 162.49 59.6687 159.492C57.759 156.509 56.3241 153.496 55.4082 150.534C54.4906 147.58 54.0247 144.401 54.0247 141.079C54.0247 134.988 55.8387 131.463 59.5731 130.303C63.3766 129.123 68.7655 130.517 75.577 134.448C81.5878 137.919 87.8094 143.118 94.0736 149.906L89.6979 160.116C84.3709 154.309 79.6817 150.217 75.7489 147.945C73.4601 146.624 71.786 146.156 70.6327 146.516C69.7682 146.789 68.7354 147.524 68.7354 149.488C68.7354 150.973 69.3873 152.679 70.6752 154.553C71.9153 156.364 75.1661 160.169 80.6135 166.19C85.7031 171.771 89.2798 176.704 91.2444 180.852C93.1984 184.969 94.1887 189.36 94.1887 193.904C94.1869 198.009 93.2905 201.155 91.5208 203.26ZM95.1914 197.872C95.2232 197.688 95.2569 197.504 95.2835 197.314L95.287 197.626L95.1914 197.872Z" fill="#09342E"/>
<path d="M167.309 136.903L160.886 143.326L167.309 149.748L173.731 143.326L167.309 136.903Z" fill="#09342E"/>
<path d="M235.973 110.635L230.264 116.345L235.973 122.054L241.683 116.345L235.973 110.635Z" fill="#09342E"/>
<path d="M39.5791 5.99579L42.6199 11.5559L48.18 14.5967L42.6199 17.6366L39.5791 23.1966L36.5382 17.6366L30.9781 14.5967L36.5382 11.5559L39.5791 5.99579Z" fill="#09342E"/>
<path d="M40.5783 152.892L43.6192 158.452L49.1793 161.493L43.6192 164.533L40.5783 170.093L37.5375 164.533L31.9774 161.493L37.5375 158.452L40.5783 152.892Z" fill="#09342E"/>
<path d="M107.531 17.9873L110.572 23.5474L116.132 26.5882L110.572 29.6281L107.531 35.1881L104.49 29.6281L98.9301 26.5882L104.49 23.5474L107.531 17.9873Z" fill="#09342E"/>
<path d="M385.335 30.9781L388.376 36.5382L393.936 39.579L388.376 42.6189L385.335 48.1789L382.294 42.6189L376.734 39.579L382.294 36.5382L385.335 30.9781Z" fill="#09342E"/>
<path d="M315.277 107.924L317.22 111.477L320.773 113.42L317.22 115.363L315.277 118.916L313.334 115.363L309.781 113.42L313.334 111.477L315.277 107.924Z" fill="#09342E"/>
<path d="M405.713 175.876L408.186 180.398L412.708 182.871L408.186 185.344L405.713 189.866L403.24 185.344L398.718 182.871L403.24 180.398L405.713 175.876Z" fill="#09342E"/>
<path d="M392.223 185.869L394.166 189.422L397.719 191.365L394.166 193.308L392.223 196.861L390.28 193.308L386.727 191.365L390.28 189.422L392.223 185.869Z" fill="#09342E"/>
<path d="M401.216 161.886L403.513 166.085L407.712 168.381L403.513 170.677L401.216 174.876L398.92 170.677L394.721 168.381L398.92 166.085L401.216 161.886Z" fill="#09342E"/>
<path d="M91.9351 9.99292L93.7016 13.2231L96.9315 14.9897L93.7016 16.7557L91.9351 19.9859L90.1686 16.7557L86.9386 14.9897L90.1686 13.2231L91.9351 9.99292Z" fill="#09342E"/>
<path d="M45.9675 135.904L47.7341 139.134L50.964 140.901L47.7341 142.667L45.9675 145.897L44.2011 142.667L40.9711 140.901L44.2011 139.134L45.9675 135.904Z" fill="#09342E"/>
<path d="M198.86 23.983L200.626 27.2132L203.856 28.9798L200.626 30.7458L198.86 33.976L197.093 30.7458L193.863 28.9798L197.093 27.2132L198.86 23.983Z" fill="#09342E"/>
<path d="M133.905 123.912L135.672 127.143L138.902 128.909L135.672 130.675L133.905 133.905L132.139 130.675L128.909 128.909L132.139 127.143L133.905 123.912Z" fill="#09342E"/>
<path d="M171.879 59.9577C169.124 59.9577 166.882 57.7162 166.882 54.9612C166.882 52.2061 169.124 49.9647 171.879 49.9647C174.634 49.9647 176.875 52.2061 176.875 54.9612C176.875 57.7162 174.634 59.9577 171.879 59.9577ZM171.879 50.964C169.674 50.964 167.881 52.7577 167.881 54.9612C167.881 57.1656 169.674 58.9584 171.879 58.9584C174.083 58.9584 175.876 57.1656 175.876 54.9612C175.876 52.7567 174.083 50.964 171.879 50.964Z" fill="#09342E" stroke="#09342E" stroke-miterlimit="10"/>
<path d="M382.73 126.91C379.974 126.91 377.733 124.669 377.733 121.914C377.733 119.159 379.974 116.917 382.73 116.917C385.485 116.917 387.726 119.159 387.726 121.914C387.726 124.669 385.485 126.91 382.73 126.91ZM382.73 117.917C380.525 117.917 378.732 119.71 378.732 121.914C378.732 124.118 380.525 125.911 382.73 125.911C384.934 125.911 386.727 124.118 386.727 121.914C386.727 119.709 384.934 117.917 382.73 117.917Z" fill="#09342E" stroke="#09342E" stroke-miterlimit="10"/>
<path d="M166.882 130.907C164.127 130.907 161.886 128.666 161.886 125.911C161.886 123.156 164.127 120.915 166.882 120.915C169.637 120.915 171.879 123.156 171.879 125.911C171.879 128.666 169.637 130.907 166.882 130.907ZM166.882 121.914C164.678 121.914 162.885 123.708 162.885 125.911C162.885 128.115 164.678 129.908 166.882 129.908C169.087 129.908 170.879 128.115 170.879 125.911C170.879 123.707 169.087 121.914 166.882 121.914Z" fill="#09342E" stroke="#09342E" stroke-miterlimit="10"/>
<path d="M183.87 53.9619C180.013 53.9619 176.875 50.8239 176.875 46.9668C176.875 43.1097 180.013 39.9717 183.87 39.9717C187.727 39.9717 190.865 43.1097 190.865 46.9668C190.865 50.8239 187.727 53.9619 183.87 53.9619ZM183.87 41.3708C180.784 41.3708 178.274 43.882 178.274 46.9668C178.274 50.053 180.784 52.5628 183.87 52.5628C186.956 52.5628 189.466 50.053 189.466 46.9668C189.466 43.8806 186.956 41.3708 183.87 41.3708Z" fill="#09342E" stroke="#09342E" stroke-miterlimit="10"/>
<path d="M256.819 50.964C252.961 50.964 249.823 47.826 249.823 43.9689C249.823 40.1119 252.961 36.9739 256.819 36.9739C260.676 36.9739 263.814 40.1119 263.814 43.9689C263.814 47.826 260.676 50.964 256.819 50.964ZM256.819 38.3729C253.732 38.3729 251.223 40.8841 251.223 43.9689C251.223 47.0552 253.732 49.565 256.819 49.565C259.905 49.565 262.415 47.0552 262.415 43.9689C262.415 40.8827 259.905 38.3729 256.819 38.3729Z" fill="#09342E" stroke="#09342E" stroke-miterlimit="10"/>
<path d="M369.739 119.915C365.882 119.915 362.744 116.777 362.744 112.92C362.744 109.063 365.882 105.925 369.739 105.925C373.596 105.925 376.734 109.063 376.734 112.92C376.734 116.777 373.596 119.915 369.739 119.915ZM369.739 107.324C366.652 107.324 364.143 109.835 364.143 112.92C364.143 116.006 366.652 118.516 369.739 118.516C372.825 118.516 375.335 116.006 375.335 112.92C375.335 109.834 372.825 107.324 369.739 107.324Z" fill="#09342E" stroke="#09342E" stroke-miterlimit="10"/>
<path d="M186.868 65.9534C184.664 65.9534 182.871 64.1603 182.871 61.9562C182.871 59.7522 184.664 57.959 186.868 57.959C189.072 57.959 190.865 59.7522 190.865 61.9562C190.865 64.1603 189.072 65.9534 186.868 65.9534ZM186.868 58.7585C185.104 58.7585 183.67 60.1935 183.67 61.9562C183.67 63.7198 185.104 65.154 186.868 65.154C188.631 65.154 190.066 63.7198 190.066 61.9562C190.066 60.1927 188.631 58.7585 186.868 58.7585Z" fill="#09342E" stroke="#09342E" stroke-miterlimit="10"/>
<path d="M375.734 101.928C373.53 101.928 371.737 100.135 371.737 97.9308C371.737 95.7267 373.53 93.9336 375.734 93.9336C377.939 93.9336 379.732 95.7267 379.732 97.9308C379.732 100.135 377.939 101.928 375.734 101.928ZM375.734 94.733C373.971 94.733 372.537 96.168 372.537 97.9308C372.537 99.6943 373.971 101.129 375.734 101.129C377.498 101.129 378.932 99.6943 378.932 97.9308C378.932 96.1672 377.498 94.733 375.734 94.733Z" fill="#09342E" stroke="#09342E" stroke-miterlimit="10"/>
<path d="M250.323 33.976C252.807 33.976 254.82 31.9627 254.82 29.4792C254.82 26.9957 252.807 24.9824 250.323 24.9824C247.84 24.9824 245.826 26.9957 245.826 29.4792C245.826 31.9627 247.84 33.976 250.323 33.976Z" fill="#09342E"/>
<path d="M120.415 137.903C122.898 137.903 124.912 135.889 124.912 133.406C124.912 130.922 122.898 128.909 120.415 128.909C117.931 128.909 115.918 130.922 115.918 133.406C115.918 135.889 117.931 137.903 120.415 137.903Z" fill="#09342E"/>
<path d="M297.29 126.91C299.773 126.91 301.787 124.897 301.787 122.414C301.787 119.93 299.773 117.917 297.29 117.917C294.806 117.917 292.793 119.93 292.793 122.414C292.793 124.897 294.806 126.91 297.29 126.91Z" fill="#09342E"/>
<path d="M161.561 23.8141L151.707 23.2765L150.591 15.8078L146.83 23.0117L137.387 22.4981L144.532 27.4126L140.955 34.2698L148.749 30.3136L153.217 33.3864L152.474 28.4229L161.561 23.8141Z" fill="#FFFBD1"/>
<path d="M308.92 15.4112L307.947 7.02209L303.504 15.3032L291.596 15.0664L299.768 22.2643L296.362 28.6138L303.334 25.4051L310.845 32.0194L309.737 22.4612L324.392 15.719L308.92 15.4112Z" fill="#FFFBD1"/>
<path d="M11.6496 160.516L16.4542 158.654L21.4877 162.255L20.9501 156.914L31.2448 152.927L20.5054 152.49L19.9118 146.585L16.5052 152.327L7.07288 151.944L13.8541 156.796L11.6496 160.516Z" fill="#FFFBD1"/>
<path d="M429.267 56.606L428.254 51.4157L425.147 55.9865L418.569 54.9982L423.331 58.6586L420.496 62.8286L426.707 61.2538L430.787 64.3895L430.01 60.4173L439.176 58.096L429.267 56.606Z" fill="#FFFBD1"/>
<path d="M6.65429 164.744L16.1486 161.067L24.09 166.747L23.2406 158.32L41.6076 151.208L22.4471 150.429L21.3879 139.901L15.3162 150.139L0 149.517L11.0122 157.394L6.65429 164.744ZM7.073 151.944L16.5063 152.327L19.9129 146.585L20.5065 152.49L31.2459 152.927L20.9512 156.914L21.4888 162.255L16.4554 158.654L11.6508 160.516L13.8562 156.796L7.073 151.944Z" fill="#09342E"/>
<path d="M310.829 13.3096L309.288 0L302.237 13.1377L285.798 12.812L297.081 22.7479L291.46 33.2235L302.965 27.9303L313.61 37.3056L312.041 23.7552L333.756 13.7643L310.829 13.3096ZM310.845 32.0194L303.335 25.4061L296.362 28.6148L299.768 22.2653L291.596 15.0674L303.505 15.3032L307.948 7.02205L308.921 15.4121L324.392 15.7189L309.737 22.4611L310.845 32.0194Z" fill="#09342E"/>
<path d="M169.643 22.1114L153.563 21.236L151.735 8.99365L145.57 20.8023L129.908 19.9509L141.76 28.1032L135.968 39.1983L148.584 32.7968L156.061 37.9422L154.819 29.6341L169.643 22.1114ZM148.749 30.3136L140.954 34.2688L144.532 27.4126L137.387 22.4981L146.829 23.0108L150.59 15.8069L151.706 23.2766L161.56 23.8132L152.473 28.4229L153.216 33.3864L148.749 30.3136Z" fill="#09342E"/>
<path d="M431.077 54.7153L429.37 45.9675L424.133 53.6721L410.71 51.6535L420.426 59.1242L415.558 66.2852L426.226 63.5831L433.969 69.5369L432.497 61.9942L450 57.5603L431.077 54.7153ZM430.787 64.3895L426.707 61.2537L420.496 62.8276L423.331 58.6576L418.57 54.9972L425.148 55.9854L428.255 51.4147L429.268 56.605L439.177 58.0949L430.011 60.4173L430.787 64.3895Z" fill="#09342E"/>
</svg>
