<svg width="1024" height="420" viewBox="0 0 1024 420" fill="none" xmlns="http://www.w3.org/2000/svg">
<g clip-path="url(#clip0_526_42573)">
<path d="M481.477 305.212C476.794 306.026 470.903 304.722 465.949 304.538C466.281 303.173 466.071 301.676 465.301 300.494C464.163 298.744 461.879 297.833 459.848 298.315C462.999 293.597 462.763 286.865 459.27 282.384C457.432 280.02 455.217 278.541 452.863 277.832C456.574 277.421 460.469 278.217 463.761 280.02C468.96 282.883 472.706 288.012 474.571 293.649C474.404 293.133 479.455 294.017 479.884 294.227C481.862 295.181 482.974 296.678 483.849 298.621C485.757 302.84 485.362 304.547 481.477 305.212Z" stroke="black"/>
<path d="M575.66 295.496C575.503 296.748 574.164 297.457 572.991 297.912C564.605 301.168 555.624 302.892 546.626 302.98C547.563 307.374 544.578 311.838 540.691 314.088C536.805 316.329 532.192 316.845 527.728 317.318C528.262 319.769 526.958 322.193 524.953 323.786C522.887 321.519 519.439 320.443 516.524 321.502C519.64 319.48 522.879 317.335 524.664 314.079C526.459 310.823 526.205 306.122 523.124 304.057C520.156 302.07 516.007 303.339 513.25 305.615C513.206 302.621 510.545 300.004 507.569 299.662C504.593 299.321 501.582 301.01 499.98 303.549C498.387 306.079 498.09 309.3 498.799 312.206C495.919 307.462 491.735 303.523 486.833 300.932C489.669 301.501 492.435 302.455 495.017 303.75C497.197 298.927 500.33 294.384 504.716 291.417C505.136 291.128 505.556 290.857 505.985 290.585C508.97 288.73 512.156 287.434 515.727 287.907C518.878 288.327 521.837 289.955 523.92 292.354C525.715 294.428 526.406 296.809 527.063 299.417C527.185 299.908 527.518 300.739 527.903 301.037C529.163 299.251 529.724 296.975 532.052 296.205C534.196 295.496 536.542 295.89 538.748 296.039C540.656 296.17 542.521 296.03 544.429 295.881C553.27 295.198 562.005 293.605 570.846 292.861C572.947 292.686 575.923 293.404 575.66 295.496Z" stroke="black"/>
<path d="M522.276 325.265C523.23 324.942 524.149 324.434 524.954 323.786C522.888 321.519 519.439 320.442 516.525 321.502C519.641 319.48 522.88 317.335 524.665 314.079C526.46 310.823 526.206 306.122 523.125 304.057C520.157 302.07 516.008 303.339 513.251 305.615C513.207 302.621 510.546 300.004 507.57 299.662C504.594 299.321 501.583 301.01 499.981 303.549C498.388 306.079 498.091 309.3 498.8 312.206C495.92 307.461 491.736 303.523 486.834 300.932C484.427 300.433 481.958 300.214 479.508 300.275C479.455 300.278 479.402 300.28 479.35 300.282C479.245 300.286 479.14 300.29 479.035 300.301H479C478.549 300.354 478.097 300.406 477.644 300.459C477.191 300.511 476.737 300.564 476.286 300.617C474.938 300.888 473.66 301.369 472.566 302.192C470.623 303.663 469.538 306.499 470.693 308.643C464.338 306.674 456.968 308.468 452.233 313.151C452.103 313.279 451.974 313.411 451.845 313.542C451.181 314.218 450.506 314.904 449.642 315.278C448.749 315.672 447.733 315.698 446.753 315.698C444.535 315.713 442.315 315.685 440.094 315.657C434.313 315.584 428.531 315.512 422.796 316.188C414.857 317.134 406.847 319.672 400.904 325.02C407.075 326.228 413.412 326.185 419.688 326.027C428.121 325.811 436.564 325.387 445.007 324.962C467.34 323.84 489.672 322.718 511.816 325.449C511.926 325.463 512.037 325.477 512.148 325.491C515.538 325.918 519.046 326.359 522.276 325.265Z" stroke="black"/>
<path d="M478.999 300.301C478.089 300.336 477.169 300.424 476.285 300.617C476.716 300.566 477.15 300.516 477.583 300.466C478.056 300.411 478.529 300.356 478.999 300.301Z" stroke="black"/>
<path d="M494.199 311.615C492.424 312.095 490.639 312.597 489.008 313.446C487.377 314.295 485.893 315.525 485.041 317.154C485.288 314.96 486.382 312.861 488.078 311.445C489.773 310.03 492.058 309.327 494.249 309.6C495.906 309.807 497.793 310.652 498.658 312.135C497.023 311.473 496.006 311.127 494.199 311.615Z" stroke="black"/>
<path d="M417.886 321.616C416.754 318.548 414.055 316.105 410.888 315.284C407.722 314.463 404.177 315.288 401.697 317.42C400.469 318.476 399.456 319.971 399.555 321.587C398.189 320.823 396.411 320.864 395.081 321.689C393.752 322.515 392.927 324.091 393.006 325.653C391.714 324.849 390.213 324.211 388.707 324.424C387.201 324.638 385.718 325.979 385.877 327.492C394.648 327.492 403.419 327.492 412.189 327.492C417.531 327.492 422.872 327.492 428.215 327.492C429.322 327.492 430.953 327.801 432.027 327.492C433.57 327.048 432.898 326.451 431.845 325.431C430.293 323.927 428.341 322.459 426.305 321.728C425.588 321.47 417.628 320.916 417.886 321.616Z" stroke="black"/>
<path d="M465.948 304.538C465.606 304.529 465.274 304.52 464.941 304.52C459.619 304.503 454.297 304.713 449.002 305.308C437.342 306.612 425.736 309.72 414.05 308.652C412.448 308.503 410.374 307.689 410.619 306.096C410.794 305.011 412.011 304.459 413.07 304.162C415.871 303.383 418.786 303.015 421.692 303.076C423.731 295.732 433.185 291.54 440.003 294.962C438.489 289.22 441.588 282.786 446.726 279.81C448.617 278.716 450.709 278.077 452.862 277.832C455.216 278.541 457.431 280.02 459.269 282.384C462.762 286.865 462.998 293.597 459.847 298.314C461.878 297.833 464.162 298.743 465.3 300.494C466.07 301.676 466.281 303.173 465.948 304.538Z" stroke="black"/>
<path d="M497.34 302.918L496.968 302.449C494.784 299.69 490.275 299.159 487.508 301.329L487.237 300.985C490.038 298.786 494.512 299.191 496.946 301.757C497.538 292.254 505.849 283.759 515.368 283.066C518.38 282.844 521.027 283.406 523.019 284.684C527.471 287.542 528.363 293.628 526.85 298.802C530.597 292.818 534.452 290.215 538.597 290.864C540.312 291.132 541.849 291.99 543.335 292.82C543.97 293.174 544.628 293.542 545.287 293.856C551.957 297.027 560.198 295.29 566.215 294.021L566.306 294.448C560.228 295.73 551.903 297.486 545.099 294.251C544.427 293.931 543.764 293.561 543.121 293.202C541.669 292.391 540.168 291.552 538.529 291.297C534.099 290.607 529.962 293.881 525.89 301.311L525.501 301.111C528.086 295.734 527.775 288.257 522.782 285.051C520.368 283.502 517.436 283.352 515.399 283.502C505.911 284.193 497.649 292.81 497.358 302.319L497.34 302.918Z" fill="black"/>
<path d="M533.07 318.511C530.758 318.511 528.45 317.946 526.43 316.793L526.647 316.413C531.157 318.984 537.155 318.535 541.232 315.315C545.308 312.097 547.136 306.366 545.679 301.381L545.313 300.129L546.068 301.193C547.668 303.448 552.312 304.856 555.045 305.253C558.109 305.696 561.239 305.063 563.326 304.548C565.234 304.078 567.413 303.412 569.106 302.041C570.873 300.609 571.819 298.481 571.513 296.618L571.945 296.548C572.275 298.562 571.269 300.852 569.381 302.381C567.621 303.806 565.386 304.492 563.431 304.974C561.309 305.498 558.124 306.141 554.982 305.686C552.465 305.321 548.357 304.105 546.325 302.151C547.381 307.081 545.475 312.524 541.504 315.66C539.116 317.544 536.091 318.511 533.07 318.511Z" fill="black"/>
<path d="M482.569 297.216C482.492 295.114 481.311 293.023 479.41 291.622C477.51 290.22 475.162 289.709 473.133 290.257L472.746 290.361L472.867 289.98C473.512 287.961 473.028 285.552 471.572 283.534C470.411 281.926 468.654 280.532 466.198 279.273C463.838 278.061 459.338 276.338 455.73 278.396L455.512 278.016C459.301 275.851 463.959 277.631 466.399 278.882C468.916 280.175 470.725 281.613 471.926 283.277C473.378 285.288 473.911 287.677 473.388 289.748C475.457 289.32 477.777 289.876 479.67 291.27C481.677 292.748 482.924 294.966 483.008 297.198L482.569 297.216Z" fill="black"/>
<path d="M480.805 316.262L480.373 316.197C480.799 313.341 482.777 310.732 485.41 309.549C488.047 308.367 491.309 308.622 493.726 310.204C493.895 310.314 494.107 310.424 494.239 310.396C494.227 310.387 494.214 310.38 494.206 310.377C494.219 310.381 494.266 310.378 494.307 310.344C494.349 310.308 494.361 310.261 494.359 310.244L493.926 310.309C493.897 310.109 494.009 309.996 494.114 309.958C494.309 309.892 494.551 310.036 494.656 310.214C494.755 310.381 494.727 310.569 494.587 310.693C494.202 311.037 493.663 310.685 493.487 310.57C491.191 309.069 488.092 308.825 485.591 309.949C483.088 311.072 481.21 313.55 480.805 316.262Z" fill="black"/>
<path d="M553.854 297.602L553.55 297.288C557.854 293.134 563.186 290.131 568.969 288.607C572.021 287.802 574.437 287.666 576.567 288.172C579.305 288.825 581.527 290.734 582.227 293.032L581.808 293.16C581.152 291.007 579.055 289.216 576.466 288.598C574.405 288.108 572.061 288.244 569.081 289.03C563.37 290.536 558.105 293.501 553.854 297.602Z" fill="black"/>
<path d="M403.515 305.63L403.312 305.243C408.942 302.288 415.64 301.598 421.752 303.33C420.785 299.783 422.252 295.633 425.272 293.528C428.266 291.438 432.623 291.476 435.615 293.562C435.234 288.756 436.473 284.428 439.046 281.628C441.928 278.489 447.469 277.1 451.124 280.032L450.85 280.374C447.389 277.594 442.118 278.932 439.369 281.924C436.794 284.727 435.601 289.131 436.095 294.007L436.148 294.523L435.742 294.201C432.896 291.944 428.502 291.809 425.523 293.888C422.544 295.965 421.152 300.135 422.286 303.586L422.418 303.985L422.016 303.863C415.909 302.021 409.164 302.665 403.515 305.63Z" fill="black"/>
<path d="M505.963 335.356L505.867 335.083C504.772 331.987 501.846 329.361 498.039 328.06C494.571 326.875 490.759 326.789 487.156 326.803C483.505 326.816 479.776 326.917 476.172 327.015C464.407 327.337 452.24 327.669 440.622 324.99L440.72 324.564C452.283 327.231 464.422 326.899 476.159 326.578C479.767 326.48 483.498 326.377 487.154 326.365C490.796 326.342 494.648 326.439 498.181 327.646C502.004 328.953 504.972 331.566 506.181 334.671C511.661 330.962 519.299 330.856 524.867 334.441L524.63 334.808C519.128 331.267 511.549 331.423 506.199 335.19L505.963 335.356Z" fill="black"/>
<path d="M444.485 317.373L444.187 317.053C447.251 314.197 450.725 310.96 454.979 309.421C458.663 308.087 463.931 308.187 467.084 311.436L467.193 310.096L467.629 310.132L467.438 312.496L467.096 312.098C464.129 308.64 458.812 308.499 455.126 309.833C450.958 311.341 447.519 314.546 444.485 317.373Z" fill="black"/>
<path d="M521.019 315.506C520.941 315.506 520.863 315.505 520.786 315.501L520.803 315.064C522.429 315.146 524.085 314.43 525.364 313.139C526.739 311.75 527.505 309.849 527.413 308.053C527.233 304.554 524.091 301.325 520.408 300.857C516.907 300.407 513.156 302.26 511.083 305.454C510.817 305.865 510.57 306.306 510.353 306.694L509.971 306.48C510.192 306.087 510.443 305.639 510.717 305.216C512.88 301.883 516.796 299.958 520.464 300.423C524.412 300.925 527.657 304.267 527.851 308.031C527.95 309.946 527.137 311.971 525.676 313.445C524.371 314.764 522.686 315.506 521.019 315.506Z" fill="black"/>
<path d="M380.918 333.713C380.303 333.713 379.688 333.658 379.08 333.522C377.252 333.112 375.199 331.667 375.014 329.461C374.886 327.948 375.652 326.397 377.355 324.72C378.153 323.936 379.13 323.123 380.342 323.032C380.625 323.011 380.926 323.026 381.218 323.041C381.914 323.079 382.569 323.111 382.931 322.66C383.141 322.396 383.185 322.029 383.23 321.642C383.241 321.551 383.251 321.46 383.264 321.371C383.637 318.782 386.117 317.013 388.374 316.606C390.453 316.229 392.774 316.648 395.47 317.883C395.783 318.027 396.105 318.175 396.399 318.121C396.72 318.065 396.981 317.778 397.232 317.502L397.277 317.452C399.406 315.12 402.68 313.857 405.828 314.15C408.973 314.446 411.957 316.299 413.616 318.987L413.243 319.216C411.655 316.643 408.797 314.868 405.787 314.586C402.777 314.3 399.638 315.516 397.6 317.748L397.556 317.796C397.269 318.111 396.943 318.469 396.476 318.552C396.044 318.631 395.646 318.445 395.291 318.281C392.676 317.082 390.438 316.672 388.452 317.036C386.35 317.416 384.043 319.049 383.699 321.432C383.686 321.518 383.676 321.605 383.665 321.692C383.614 322.124 383.561 322.57 383.273 322.932C382.773 323.559 381.973 323.517 381.196 323.478C380.919 323.463 380.632 323.451 380.375 323.467C379.304 323.547 378.403 324.303 377.662 325.031C376.058 326.611 375.334 328.047 375.45 329.423C375.609 331.321 377.445 332.706 379.176 333.093C381.074 333.519 383.108 333.103 384.903 332.736L400.409 329.566L400.498 329.995L384.991 333.165C383.714 333.428 382.318 333.713 380.918 333.713Z" fill="black"/>
<path d="M436.069 325.962L435.642 325.867C436.158 323.561 434.593 321.276 432.781 320.21C431.092 319.215 428.895 318.83 426.066 319.017C423.131 319.217 419.904 320.629 419.758 323.253L419.321 323.229C419.483 320.324 422.81 318.801 426.036 318.581C428.955 318.381 431.234 318.792 433.003 319.832C434.952 320.978 436.631 323.452 436.069 325.962Z" fill="black"/>
<path d="M241.767 301.236C241.341 302.163 240.347 302.67 239.393 303.035C234.476 304.929 229.045 304.807 223.79 304.442C221.179 304.259 218.568 304.023 215.964 303.766C215.829 301.973 215.504 300.221 214.808 298.571C213.421 295.243 210.127 292.43 206.543 292.788C211.203 287.574 212.839 279.687 210.148 273.235C207.449 266.782 200.307 262.332 193.374 263.259C186.448 264.192 180.591 270.78 180.97 277.76C177.101 274.933 171.074 275.704 168.051 279.424C167.659 275.075 165.068 270.793 161.017 269.163C160.388 268.913 159.732 268.737 159.062 268.642C159.11 268.609 159.157 268.582 159.211 268.554C163.337 266.404 168.903 267.574 171.818 271.206C172.292 268.284 173.902 265.66 175.85 263.434C183.979 254.135 198.812 251.537 209.613 257.523C220.421 263.516 226.082 277.462 222.505 289.292C226.245 287.398 230.878 287.384 234.625 289.258C238.379 291.131 241.152 294.838 241.889 298.963C242.031 299.721 242.092 300.533 241.767 301.236Z" stroke="black"/>
<path d="M215.964 303.765C208.152 302.987 200.354 302.013 192.508 301.736C182.627 301.384 172.731 302.135 162.843 302.318C153.712 302.48 144.568 302.162 135.464 301.351C134.057 301.229 132.59 301.073 131.372 300.343C130.162 299.606 129.276 298.124 129.702 296.765C130.534 294.08 141.592 295.622 143.296 292.159C145.082 288.554 140.902 284.476 145.941 281.405C148.349 279.944 151.372 280.154 154.172 280.411C152.874 276.001 155.031 270.84 159.062 268.642C159.732 268.737 160.388 268.913 161.017 269.163C165.068 270.793 167.659 275.074 168.051 279.423C171.074 275.703 177.101 274.932 180.969 277.759C180.591 270.779 186.448 264.192 193.374 263.258C200.307 262.332 207.449 266.782 210.147 273.234C212.839 279.687 211.203 287.573 206.543 292.788C210.127 292.429 213.421 295.243 214.808 298.571C215.504 300.221 215.829 301.973 215.964 303.765Z" stroke="black"/>
<path d="M149.03 296.453C152.316 297.345 155.192 299.65 156.779 302.662C156.373 301.891 139.782 302.891 137.804 302.774C133.932 302.544 128.533 303.344 126.961 298.956C123.485 289.253 136.291 289.874 139.27 297.744C142.337 296.244 145.65 295.534 149.03 296.453Z" stroke="black"/>
<path d="M198.61 292.473C200.588 291.796 202.679 291.454 204.768 291.465C203.803 290.569 202.441 290.193 201.124 290.189C200.07 290.185 198.675 290.893 197.708 290.757C196.188 290.544 196.936 290.636 195.786 289.408C195.786 289.408 192.89 282.255 186.353 282.255C192.344 284.636 195.425 290.728 195.768 294.444C196.453 293.428 197.471 292.862 198.61 292.473Z" stroke="black"/>
<path d="M227.798 294.875C226.43 293.702 221.418 296.265 220.243 297.019C218.143 298.367 217.113 300.436 215.394 302.008C211.139 296.35 223.42 291.121 227.798 294.875Z" stroke="black"/>
<path d="M225.056 313.89C216.02 313.874 206.783 311.952 198.319 314.963C197.435 313.06 197.625 310.699 198.805 308.968C200.012 307.202 201.605 306.645 202.794 305.225C203.738 305.842 204.844 306.546 205.966 307.574C205.518 304.844 208.75 302.438 211.399 303.234C214.055 304.03 215.521 307.208 214.928 309.91C217.305 308.131 220.895 309.003 223.017 311.081C223.847 311.901 224.509 312.858 225.056 313.89Z" stroke="black"/>
<path d="M232.916 312.918C232.128 313.403 231.182 313.55 230.256 313.651C228.532 313.837 226.801 313.9 225.056 313.89C224.509 312.859 223.847 311.902 223.017 311.081C220.895 309.003 217.305 308.132 214.928 309.91C215.521 307.208 214.056 304.031 211.399 303.235C208.75 302.438 205.517 304.844 205.966 307.574C204.844 306.546 203.738 305.842 202.794 305.225C202.982 304.994 203.163 304.736 203.331 304.451C205.025 301.547 204.771 299.735 208.845 298.927C210.088 298.683 211.386 298.615 212.605 298.932C216.223 299.872 218.132 303.723 219.585 307.164C220.068 305.16 222.891 304.575 224.683 305.593C226.475 306.618 227.447 308.608 228.31 310.476C228.547 309.426 229.742 308.885 230.816 308.784C232.195 308.648 233.89 309.233 234.134 310.598C234.295 311.511 233.705 312.427 232.916 312.918Z" stroke="black"/>
<path d="M219.203 288.215L218.909 288.048L219.981 286.018L220.014 286.035C224.281 277.395 224.661 265.124 216.985 257.463C211.633 252.121 203.021 250.038 195.047 252.153C187.895 254.052 181.234 259.217 176.771 266.325L176.485 266.145C180.992 258.965 187.726 253.746 194.959 251.826C203.048 249.68 211.787 251.798 217.223 257.223C225.638 265.62 224.523 279.458 219.203 288.215Z" fill="black"/>
<path d="M239.37 300.743C239.273 300.743 239.177 300.74 239.08 300.733L239.104 300.396C240.31 300.481 241.565 299.982 242.526 299.028C243.486 298.074 243.994 296.83 243.918 295.615C243.859 294.68 243.502 293.682 242.826 292.566C240.686 289.028 236.799 286.572 232.685 286.157C228.569 285.744 224.272 287.373 221.468 290.411L221.219 290.182C224.095 287.067 228.5 285.397 232.72 285.821C236.937 286.246 240.921 288.764 243.116 292.39C243.821 293.555 244.193 294.603 244.255 295.594C244.338 296.906 243.795 298.244 242.765 299.268C241.81 300.215 240.588 300.743 239.37 300.743Z" fill="black"/>
<path d="M218.118 287.893L218.953 285.034L219.19 285.103C221.533 280.19 222.376 274.89 221.565 270.044C220.599 264.277 217.236 259.222 212.568 256.522C207.582 253.638 201.193 253.692 196.667 256.658L196.482 256.375C201.111 253.341 207.644 253.282 212.737 256.23C217.491 258.979 220.916 264.123 221.898 269.988C222.787 275.3 221.719 281.146 218.889 286.449L218.118 287.893Z" fill="black"/>
<path d="M196.312 291.548L196.386 291.209C197.035 288.243 196.408 285.316 194.709 283.379C192.81 281.216 189.48 280.595 187.281 281.993L187.1 281.708C189.43 280.224 192.959 280.873 194.963 283.156C196.669 285.1 197.34 287.991 196.784 290.946C199.156 289.809 201.82 288.572 204.62 288.252C207.85 287.884 210.901 288.93 212.582 290.98L212.321 291.194C210.711 289.231 207.774 288.232 204.658 288.588C201.794 288.914 199.047 290.234 196.624 291.398L196.312 291.548Z" fill="black"/>
<path d="M239.595 315.278L239.404 315C239.865 314.683 240.314 314.323 240.48 313.836C240.623 313.416 240.544 312.941 240.437 312.49C240.137 311.229 239.336 308.95 237.338 307.853C235.488 306.837 233.249 307.14 231.085 307.433L230.651 307.491C230.219 307.548 229.779 307.561 229.476 307.268C229.276 307.077 229.205 306.811 229.143 306.576L229.123 306.501C228.453 304.035 225.93 302.683 223.794 302.241C222.61 301.996 220.913 301.877 219.554 302.704C218.4 303.406 217.585 305.032 218.212 306.335L217.907 306.482C217.179 304.965 218.104 303.191 219.379 302.416C220.832 301.531 222.62 301.653 223.863 301.91C226.098 302.374 228.739 303.799 229.449 306.412L229.47 306.489C229.526 306.7 229.579 306.898 229.71 307.024C229.91 307.217 230.26 307.201 230.606 307.155L231.039 307.097C233.259 306.797 235.554 306.486 237.501 307.555C239.614 308.716 240.454 311.096 240.766 312.411C240.885 312.912 240.971 313.444 240.8 313.945C240.602 314.526 240.104 314.929 239.595 315.278Z" fill="black"/>
<path d="M176.288 271.826C176.136 271.826 175.933 271.746 175.701 271.448C173.264 268.313 170.618 266.355 167.833 265.628C164.867 264.852 160.935 265.64 159.158 268.643L158.867 268.47C160.731 265.322 164.832 264.493 167.919 265.3C170.777 266.047 173.485 268.045 175.967 271.24C175.998 271.28 176.033 271.319 176.067 271.354C176.09 271.21 176.194 271.152 176.277 271.146C176.435 271.14 176.583 271.291 176.624 271.444C176.663 271.587 176.605 271.719 176.476 271.782C176.429 271.805 176.365 271.826 176.288 271.826ZM176.082 271.37C176.146 271.431 176.212 271.477 176.268 271.486C176.265 271.483 176.261 271.479 176.257 271.477C176.269 271.484 176.304 271.49 176.341 271.473C176.381 271.455 176.399 271.421 176.401 271.408L176.082 271.37Z" fill="black"/>
<path d="M166.132 279.348C165.954 276.691 167.796 273.998 170.611 272.8C172.829 271.856 175.533 271.76 178.65 272.513C179.327 269.04 181.991 265.822 185.99 263.664C190.624 261.162 195.798 260.719 199.827 262.48C204.488 264.516 207.278 269.77 206.046 274.192L205.72 274.102C206.908 269.835 204.204 264.761 199.692 262.79C195.757 261.07 190.695 261.507 186.151 263.961C182.176 266.107 179.551 269.31 178.95 272.749L178.919 272.928L178.742 272.884C175.627 272.103 172.936 272.18 170.744 273.112C168.102 274.236 166.304 276.849 166.469 279.326L166.132 279.348Z" fill="black"/>
<path d="M132.735 291.961L132.443 291.79C133.187 290.521 134.537 289.642 136.148 289.377C137.6 289.139 139.017 289.441 140.095 290.213C139.677 286.973 139.489 282.91 141.249 279.388C142.899 276.086 146.898 273.349 150.737 274.486C154.028 275.461 155.919 278.738 157.393 281.911L157.399 281.708L157.568 281.7L157.737 281.704L157.693 283.386L157.39 282.715C155.9 279.416 154.027 275.813 150.641 274.81C146.976 273.723 143.139 276.361 141.552 279.539C139.757 283.13 140.039 287.326 140.486 290.58L140.547 291.025L140.207 290.731C139.173 289.834 137.713 289.462 136.203 289.711C134.692 289.959 133.428 290.78 132.735 291.961Z" fill="black"/>
<path d="M197.28 318.448C196.023 318.448 194.766 318.248 193.826 317.432C192 315.848 192.394 312.89 193.595 310.661C194.535 308.916 195.676 307.7 196.988 307.046C198.635 306.225 200.616 306.396 201.807 307.46L201.583 307.712C200.49 306.737 198.664 306.588 197.139 307.348C195.891 307.971 194.799 309.14 193.893 310.822C192.755 312.932 192.362 315.715 194.048 317.177C195.239 318.211 197.044 318.17 198.639 318.05C202.545 317.756 206.493 317.329 210.373 316.778L210.42 317.113C206.533 317.664 202.578 318.094 198.664 318.388C198.214 318.421 197.747 318.448 197.28 318.448Z" fill="black"/>
<path d="M161.835 304.165L161.779 303.801C161.275 300.549 160.13 298.191 158.376 296.79C156.503 295.293 153.758 294.777 150.844 295.371C148.211 295.908 145.805 297.201 143.477 298.451L143.317 298.153C145.666 296.891 148.094 295.586 150.776 295.039C153.787 294.424 156.636 294.967 158.587 296.526C160.343 297.928 161.508 300.236 162.054 303.389L162.182 303.24L162.439 303.459L161.835 304.165Z" fill="black"/>
<path d="M128.697 299.866C127.027 299.866 125.345 299.128 124.277 297.842C122.887 296.168 122.599 293.642 123.575 291.697C123.948 290.956 124.465 290.348 125.073 289.94C126.23 289.164 127.889 289.014 129.627 289.529C132.56 290.398 135.016 292.855 135.884 295.788L135.56 295.884C134.723 293.059 132.357 290.691 129.531 289.853C127.889 289.368 126.333 289.501 125.261 290.221C124.702 290.597 124.223 291.159 123.877 291.849C122.958 293.677 123.23 296.052 124.537 297.626C125.845 299.199 128.131 299.903 130.095 299.334L130.189 299.658C129.704 299.799 129.201 299.866 128.697 299.866Z" fill="black"/>
<path d="M198.228 401.204C201.477 401.124 204.88 401.002 207.695 399.38C210.51 397.758 212.443 394.107 211.041 391.176C209.725 388.422 206.273 387.529 203.233 387.24C197.943 386.736 192.57 387.106 187.398 388.328C187.955 384.049 184.542 379.654 180.259 379.133C175.975 378.613 171.609 382.063 171.125 386.351C172.316 383.117 171.232 379.326 168.926 376.766C166.62 374.206 163.269 372.769 159.872 372.195C156.411 371.61 152.386 372.064 150.179 374.793C149.034 376.208 148.55 378.027 148.001 379.764C144.654 390.349 134.5 402.418 152.372 402.34C167.65 402.271 182.954 401.582 198.228 401.204Z" stroke="black"/>
<path d="M156.454 389.55C153.693 385.019 145.701 384.13 142.574 388.749C144.733 382.178 145.907 375.003 143.955 368.369C142.01 361.735 136.328 355.862 129.425 355.402C122.529 354.95 115.521 361.466 116.886 368.242C110.887 361.838 101.546 358.751 92.9122 360.298C105.451 353.038 112.45 337.324 109.459 323.143C107.673 314.667 101.547 305.795 93.6264 300.486C98.3963 300.773 103.078 301.915 107.411 304.018C115.133 307.771 121.275 314.779 124.132 322.858C125.378 326.373 126.981 332.047 125.672 335.754C124.498 339.087 121.022 340.587 120.022 344.214C124.975 338.357 133.164 336.198 140.489 338.309C147.829 340.429 153.733 346.198 157.408 352.896C163.597 364.171 163.668 378.972 156.454 389.55Z" stroke="black"/>
<path d="M158.446 398.485C156.406 399.803 153.898 400.144 151.494 400.462C137.979 402.224 123.988 403.954 110.926 400.049C107.878 399.145 104.688 397.923 101.617 398.724C99.9981 399.153 98.5767 400.105 97.1484 400.978C80.174 411.374 57.5961 411.89 40.1686 402.264C37.1452 400.597 34.1848 398.613 30.7965 397.987C27.5906 397.392 24.3052 398.05 21.1071 398.638C-2.2082 402.891 -26.2774 402.954 -49.617 398.844C-50.5533 398.677 -51.5294 398.479 -52.2514 397.868C-54.616 395.844 -52.1398 392.059 -49.5928 390.274C-39.5618 383.219 -26.8325 380.1 -14.6747 381.718C-16.0399 374.679 -11.5086 367.474 -5.31813 363.855C0.863663 360.236 8.33975 359.57 15.5054 359.808C15.3075 353.205 18.7355 346.611 24.2507 342.984C29.7659 339.357 37.178 338.818 43.1541 341.611C47.1381 328.049 55.1848 315.36 67.0331 307.646C74.8421 302.566 84.3888 299.924 93.6261 300.488C101.546 305.797 107.672 314.67 109.458 323.144C112.451 337.326 105.451 353.039 92.9119 360.3C101.546 358.752 110.887 361.84 116.886 368.244C115.521 361.466 122.528 354.952 129.424 355.404C136.329 355.864 142.011 361.737 143.955 368.371C145.907 375.005 144.733 382.179 142.574 388.75C156.155 374.958 157.771 390.433 158.128 389.98C159.429 390.163 160.707 391.02 161.143 392.282C161.93 394.573 160.493 397.169 158.446 398.485Z" stroke="black"/>
<path d="M12.1665 374.96C19.436 374.805 26.4063 380.412 27.8138 387.545C32.5552 386.521 37.7782 388.119 41.1345 391.621C44.4908 395.124 45.8655 400.41 44.6413 405.103C12.5573 400.492 -20.1604 410.041 -52.393 406.617C-56.6753 406.162 -61.8239 404.707 -62.8113 400.515C-63.5177 397.517 -61.6363 394.544 -59.5985 392.234C-52.0031 383.627 -41.2165 378.795 -29.8532 378.061C-18.0845 377.3 -12.367 381.364 -3.05537 387.907C-0.995058 381.01 4.50199 375.124 12.1665 374.96Z" stroke="black"/>
<path d="M171.822 413.294C170.417 415.428 168.348 416.112 166.372 416.486C165.202 416.711 164.023 416.851 162.842 416.946C162.786 416.758 162.739 416.581 162.683 416.403C160.735 410.044 155.033 404.464 148.375 404.482C143.927 404.501 139.873 406.889 136.155 409.342C135.359 409.865 134.292 410.4 133.533 409.828C133.12 409.51 132.961 408.976 132.784 408.489C132.203 406.944 131.136 405.82 129.797 405.081C131.904 404.65 134.039 404.8 136.155 404.697C136.717 404.668 137.316 404.594 137.719 404.013C138.132 403.404 138.196 402.459 138.347 401.616C138.834 398.863 140.482 396.859 142.261 395.95C144.04 395.041 145.969 395.06 147.842 395.116C152.73 395.276 155.679 397.307 159.734 400.81C163.367 403.956 169.023 401.878 171.964 405.314C173.526 407.151 173.226 411.168 171.822 413.294Z" stroke="black"/>
<path d="M162.841 416.945C160.089 417.161 157.326 417.095 154.573 417.021C145.124 416.777 135.686 416.534 126.237 416.29C124.682 416.243 122.669 415.635 122.463 413.293C122.378 412.348 122.65 411.411 122.996 410.615C124.316 407.591 126.667 405.924 129.008 405.268C129.27 405.193 129.532 405.137 129.794 405.081C131.134 405.821 132.201 406.944 132.781 408.489C132.96 408.976 133.119 409.509 133.53 409.828C134.288 410.4 135.356 409.865 136.152 409.341C139.87 406.888 143.925 404.5 148.373 404.481C155.031 404.462 160.733 410.044 162.681 416.402C162.739 416.58 162.785 416.758 162.841 416.945Z" stroke="black"/>
<path d="M78.0144 369.183C79.6632 364.27 84.6985 360.708 89.8809 360.789C84.6994 363.876 80.8356 369.099 79.3977 374.956C76.5351 374.27 75.2806 371.006 73.3059 368.824C70.1735 365.362 65.3906 364.846 61.0988 364.002C66.8491 360.668 76.2195 361.407 78.0144 369.183Z" stroke="black"/>
<path d="M160.891 371.31L160.459 371.307C160.507 363.346 159.128 356.397 156.36 350.654C153.093 343.873 147.672 338.642 141.487 336.303C134.56 333.684 126.742 334.823 121.576 339.207C119.336 341.107 117.655 343.521 116.714 346.186L116.306 346.043C117.272 343.305 118.998 340.828 121.296 338.878C126.581 334.393 134.567 333.223 141.641 335.9C147.929 338.276 153.435 343.587 156.751 350.466C159.547 356.268 160.941 363.282 160.891 371.31Z" fill="black"/>
<path d="M157.619 373.332L157.804 370.859L158.234 370.891L158.169 371.769C162.127 365.677 163.301 357.7 161.218 350.744C159.058 343.529 153.368 337.321 146.369 334.542C143.166 333.269 139.486 332.578 135.432 332.489C130.524 332.387 125.685 333.131 121.042 334.72L120.902 334.311C125.595 332.706 130.494 331.95 135.441 332.057C139.547 332.147 143.278 332.848 146.529 334.14C153.647 336.968 159.434 343.282 161.631 350.621C163.828 357.958 162.464 366.415 158.07 372.689L157.619 373.332Z" fill="black"/>
<path d="M206.796 395.759C206.382 395.759 205.968 395.745 205.553 395.72L205.58 395.289C207.466 395.407 209.355 395.25 211.197 394.823C211.654 394.717 212.175 394.577 212.55 394.26C212.946 393.925 213.206 393.36 213.282 392.668C213.461 391.046 212.676 389.298 211.182 387.99C209.9 386.867 208.333 386.175 206.372 385.484C204.024 384.654 201.241 383.802 198.332 383.876C195.346 383.938 192.672 385.031 191 386.876L190.653 387.259L190.624 386.742C190.443 383.406 189.396 380.156 187.596 377.344C187.265 376.826 186.89 376.303 186.381 375.984C185.715 375.567 184.851 375.518 184.179 375.531C177.7 375.607 171.674 380.653 170.463 387.019L170.039 386.938C171.287 380.377 177.496 375.177 184.174 375.099C184.906 375.087 185.849 375.141 186.611 375.617C187.193 375.982 187.603 376.551 187.961 377.11C189.712 379.847 190.767 382.991 191.025 386.229C192.786 384.514 195.416 383.504 198.325 383.442C201.29 383.372 204.133 384.233 206.517 385.076C208.525 385.785 210.135 386.497 211.469 387.664C213.068 389.066 213.907 390.954 213.713 392.715C213.652 393.282 213.448 394.068 212.83 394.59C212.383 394.969 211.803 395.126 211.297 395.244C209.817 395.586 208.308 395.759 206.796 395.759Z" fill="black"/>
<path d="M134.118 405.484L133.687 405.447C134.249 399.063 139.2 393.428 145.458 392.049C146.939 391.723 148.184 391.703 149.267 391.988C150.54 392.324 151.627 393.1 152.433 393.738C154.684 395.523 156.593 397.768 157.998 400.275L158.227 400.213L158.516 401.264L158.114 401.418C156.704 398.586 154.647 396.047 152.165 394.079C151.392 393.466 150.352 392.723 149.158 392.407C148.142 392.139 146.964 392.16 145.552 392.471C139.474 393.811 134.664 399.284 134.118 405.484Z" fill="black"/>
<path d="M79.8776 369.974L79.4462 369.943C79.6424 366.442 77.7438 362.896 74.7229 361.118C71.7021 359.338 67.6783 359.402 64.7153 361.271C63.3675 362.12 62.2443 363.296 61.1584 364.432L60.8463 364.133C61.9504 362.978 63.0925 361.783 64.4845 360.904C67.5832 358.951 71.7851 358.886 74.9434 360.744C77.7412 362.392 79.6173 365.491 79.8655 368.722L79.9891 368.733L79.8776 369.974Z" fill="black"/>
<path d="M11.5249 365.561L11.0935 365.535C11.4091 359.636 11.7359 353.535 13.9804 347.91C16.4954 341.611 21.2187 337.157 26.6146 335.996C29.8196 335.306 33.4093 336.052 36.2193 337.992C38.2078 339.364 39.5972 341.203 40.2232 343.259C41.5572 332.989 43.8639 324.97 47.4494 318.104C52.0715 309.25 58.9674 302.559 66.8697 299.263C75.8148 295.532 86.1647 296.473 93.2405 301.657L92.9854 302.006C86.0273 296.908 75.8424 295.987 67.0366 299.661C59.2277 302.919 52.4069 309.54 47.8324 318.302C44.1311 325.391 41.8002 333.725 40.499 344.53L40.3096 346.103L40.071 344.536C39.7018 342.112 38.2476 339.915 35.9737 338.347C33.2598 336.474 29.7954 335.753 26.7053 336.418C21.4495 337.549 16.843 341.905 14.3815 348.071C12.4708 352.857 11.965 358.02 11.6607 363.106L11.6866 363.108L11.5249 365.561Z" fill="black"/>
<path d="M20.074 396.714L19.8199 396.551C16.3987 394.342 11.9002 393.851 8.08049 395.265L7.93005 394.859C11.7818 393.434 16.301 393.885 19.8017 396.029C21.3329 390.4 26.5922 386.063 32.4229 385.667C32.8111 385.64 33.2235 385.578 33.329 385.311C33.3342 385.299 33.3446 385.271 33.2996 385.219C33.227 385.137 33.1094 385.108 33.0774 385.115L32.6815 385.103C32.6754 384.928 32.7584 384.784 32.9045 384.719C33.125 384.618 33.4137 384.731 33.5823 384.891C33.7544 385.055 33.8097 385.272 33.731 385.471C33.5097 386.027 32.7956 386.075 32.4523 386.099C26.7063 386.489 21.5309 390.831 20.1475 396.422L20.074 396.714Z" fill="black"/>
<path d="M153.924 390.809L153.056 387.794L153.471 387.674L153.889 389.127C154.345 387.175 154.686 385.144 154.339 383.197C153.979 381.181 152.604 378.899 150.343 378.349C147.642 377.685 145.001 379.716 143.246 381.295L142.18 382.255L142.917 381.024C146.887 374.384 147.342 365.894 144.105 358.868C142.354 355.066 139.732 352.327 136.724 351.156C134.715 350.373 132.267 350.179 129.45 350.573C124.676 351.244 120.532 353.314 117.78 356.399C114.69 359.866 113.508 364.694 114.769 368.7L114.357 368.83C113.05 364.681 114.268 359.689 117.457 356.112C120.277 352.95 124.515 350.831 129.389 350.145C132.28 349.739 134.801 349.943 136.882 350.752C139.995 351.965 142.7 354.783 144.499 358.687C147.623 365.468 147.368 373.587 143.892 380.172C145.663 378.733 148.006 377.331 150.448 377.928C152.897 378.525 154.382 380.967 154.766 383.121C155.176 385.417 154.671 387.791 154.12 390.025L153.924 390.809Z" fill="black"/>
<path d="M7.77894 365.899C5.34686 358.641 5.47568 351.267 8.14379 345.135C11.1171 338.301 17.4078 333.375 24.1689 332.588C31.4712 331.742 38.9378 336.172 41.1771 342.679L40.7681 342.819C38.592 336.496 31.3251 332.192 24.2191 333.017C17.6076 333.788 11.4534 338.612 8.53977 345.307C5.91488 351.341 5.79038 358.605 8.18788 365.762L7.77894 365.899Z" fill="black"/>
<path d="M51.0781 377.992L50.4348 377.109C48.4342 374.363 45.2162 372.626 41.8244 372.464C38.4275 372.308 35.0599 373.718 32.8042 376.257L32.4817 375.97C34.8221 373.334 38.3254 371.874 41.8443 372.032C45.0831 372.188 48.1705 373.726 50.2602 376.19C50.0657 373.98 51.1179 371.506 53.2326 369.273C57.4449 364.821 63.8282 362.632 69.8881 363.562L69.8223 363.989C63.8999 363.08 57.6636 365.219 53.5473 369.569C52.4657 370.711 50.0345 373.715 50.8196 376.93L51.0781 377.992Z" fill="black"/>
<path d="M203.436 399.277L203.339 398.857C206.03 398.234 208.731 397.523 211.366 396.74C213.012 396.252 214.842 395.608 215.708 394.134C216.244 393.225 216.394 392.028 216.152 390.578C215.614 387.372 213.495 384.241 210.185 381.764C208.22 380.293 205.166 378.573 201.782 378.715C196.411 378.943 192.333 383.577 188.931 387.903L188.591 387.636C192.052 383.234 196.209 378.518 201.763 378.282C205.268 378.142 208.422 379.905 210.443 381.418C213.843 383.963 216.021 387.191 216.577 390.508C216.837 392.062 216.67 393.355 216.081 394.354C215.134 395.962 213.214 396.643 211.488 397.154C208.846 397.939 206.137 398.654 203.436 399.277Z" fill="black"/>
<path d="M-2.76066 387.725C-4.09645 382.567 -1.71711 376.628 3.02429 373.282C7.22791 370.314 13.127 369.386 18.803 370.803C20.8253 371.306 22.2683 371.986 23.3438 372.944C24.409 373.892 25.239 375.222 25.8822 377.009C26.9604 380.009 27.1895 383.377 26.5246 386.494L26.1027 386.404C26.7494 383.364 26.5264 380.081 25.475 377.156C24.8577 375.437 24.0666 374.165 23.0568 373.267C22.0348 372.358 20.6498 371.708 18.6975 371.222C13.1434 369.839 7.37662 370.74 3.27242 373.636C-1.32545 376.881 -3.63476 382.629 -2.34306 387.618L-2.76066 387.725Z" fill="black"/>
<path d="M44.4989 404.359L44.1323 404.134L45.4283 401.473L45.5277 401.521C46.1087 399.883 46.2929 398.047 46.0335 396.208C45.6263 393.319 44.1746 390.746 42.0478 389.144C39.9217 387.541 37.0461 386.858 34.1576 387.264C31.269 387.671 28.6951 389.123 27.0921 391.25L26.748 390.989C28.4184 388.772 31.0961 387.258 34.097 386.835C37.0928 386.411 40.0903 387.126 42.308 388.798C44.5257 390.467 46.0396 393.146 46.4624 396.146C46.8851 399.149 46.1701 402.142 44.4989 404.359Z" fill="black"/>
<path d="M-1.59853 385.208C-1.95214 382.241 -0.832503 379.111 1.32118 377.041C3.46276 374.981 6.64532 373.794 11.0513 373.413C12.3473 373.301 14.0488 373.212 15.7088 373.522C20.2721 374.377 24.0131 378.338 24.6036 382.943L24.1748 382.999C23.6076 378.575 20.0136 374.768 15.6292 373.947C14.0211 373.645 12.3568 373.733 11.0884 373.843C6.78538 374.217 3.68756 375.364 1.62034 377.354C-0.438245 379.332 -1.50774 382.323 -1.16969 385.158L-1.59853 385.208Z" fill="black"/>
<path d="M388.401 231.667C388.453 233.891 387.922 236.179 386.565 237.937C386.022 238.636 385.389 239.218 384.677 239.708C381.833 241.66 377.838 241.958 374.244 242.074C365.905 242.332 357.554 242.604 349.214 242.875C346.163 242.966 341.858 245.047 343.397 247.697C344.961 250.386 351.245 249.43 350.456 252.442C332.356 256.024 313.455 255.506 295.588 250.942C292.007 250.037 287.973 248.486 286.874 244.97C286.408 243.483 286.564 241.854 285.995 240.406C286.253 240.082 286.473 239.747 286.666 239.385C290.377 232.39 284.197 221.686 278.043 218.506C275.807 217.355 273.066 216.709 270.791 217.807C268.204 219.048 267.092 222.061 265.722 224.581C265.334 225.28 264.856 226.004 264.094 226.237C263.227 226.495 262.323 226.017 261.443 225.81C258.625 225.112 255.729 227.271 254.578 229.948C253.622 232.184 253.583 234.692 253.699 237.149C240.887 238.442 228.152 239.864 216 236.115C222.464 232.184 230.312 230.582 237.81 231.668C240.486 232.056 244.377 231.9 244.507 229.199C244.611 227.027 241.96 226.005 240.085 224.906C235.651 222.307 234.229 215.688 237.203 211.499C239.723 207.956 244.908 206.806 248.812 208.539H248.825C249.549 208.863 250.221 209.276 250.829 209.794C247.687 200.188 257.616 189.767 267.7 190.336C277.797 190.892 285.994 199.852 288.295 209.691C289.343 203.51 297.629 201.119 303.472 203.407C318.858 209.432 328.877 233.815 348.722 227.906C357.513 225.295 363.745 216.284 373.596 217.125C380.993 217.756 388.233 223.936 388.401 231.667Z" stroke="black"/>
<path d="M401.458 235.016C401.058 236.231 400.528 237.46 399.558 238.3C398.316 239.386 396.571 239.644 394.943 239.774C391.517 240.046 388.103 239.955 384.677 239.71C385.389 239.218 386.022 238.636 386.565 237.939C387.922 236.181 388.453 233.892 388.401 231.668C388.233 223.937 380.993 217.757 373.598 217.124C363.746 216.284 357.515 225.295 348.724 227.906C328.879 233.814 318.86 209.431 303.474 203.407C297.631 201.118 289.344 203.511 288.297 209.69C285.996 199.851 277.799 190.892 267.702 190.336C257.618 189.767 247.689 200.187 250.831 209.793C250.223 209.276 249.55 208.862 248.827 208.539H248.814C245.156 199.101 253.404 184.686 260.967 180.277C271.452 173.8 286.437 175.972 294.658 185.164C296.442 178.157 303.876 173.386 311.09 173.684C318.317 173.981 324.924 178.726 328.505 184.996C332.086 191.279 332.9 198.856 331.892 206.018C337.89 203.497 345.686 208.255 346.191 214.745C354.84 203.859 370.095 197.925 383.348 202.152C396.598 206.393 405.816 221.815 401.458 235.016Z" stroke="black"/>
<path d="M286.667 239.386C286.474 239.748 286.254 240.085 285.996 240.407C285.996 240.394 285.996 240.369 285.983 240.356C284.741 237.318 280.914 236.425 277.644 236.18C269.719 235.585 261.703 236.348 253.701 237.149C253.584 234.693 253.624 232.185 254.58 229.948C255.731 227.272 258.627 225.113 261.445 225.811C262.325 226.017 263.229 226.496 264.096 226.237C264.858 226.005 265.336 225.28 265.724 224.582C267.094 222.061 268.206 219.049 270.792 217.808C273.068 216.709 275.808 217.356 278.045 218.506C284.198 221.687 290.378 232.392 286.667 239.386Z" stroke="black"/>
<path d="M380.935 242.191C380.392 243.855 380.515 245.832 379.341 247.131C377.629 249.022 374.591 248.175 372.068 247.804C367.776 247.175 363.235 248.512 359.97 251.367C359.056 252.165 358.193 253.18 358.131 254.391C358.052 255.924 359.334 257.26 360.785 257.76C362.235 258.261 363.819 258.117 365.346 257.967C372.08 257.306 396.924 258.724 398.67 250.623C400.373 242.724 384.514 231.232 380.935 242.191Z" stroke="black"/>
<path d="M352.536 227.689C345.167 227.689 338.479 224.721 334.557 222.539C328.891 219.384 323.785 215.206 318.848 211.165C316.861 209.538 314.805 207.856 312.742 206.265C309.593 203.836 305.877 201.225 301.599 200.99C299.233 200.864 296.695 201.781 294.978 203.393C293.656 204.635 292.95 206.142 292.938 207.752L292.48 207.778C291.116 196.977 282.095 187.945 271.944 187.216C266.705 186.84 261.144 188.996 257.066 192.98C253.319 196.642 251.301 201.414 251.528 206.074L251.069 206.097C250.836 201.306 252.905 196.406 256.745 192.652C260.917 188.576 266.607 186.378 271.978 186.759C281.86 187.468 290.691 195.875 292.693 206.203C293.011 205.053 293.678 203.986 294.664 203.059C296.469 201.363 299.137 200.395 301.623 200.532C305.823 200.763 309.584 203.249 313.022 205.903C315.09 207.497 317.148 209.182 319.139 210.811C324.06 214.839 329.15 219.004 334.78 222.138C340.083 225.09 350.504 229.497 360.72 225.853C361.662 225.517 362.955 224.94 363.32 223.816L363.758 223.958C363.33 225.274 361.908 225.917 360.875 226.285C358.073 227.284 355.258 227.689 352.536 227.689Z" fill="black"/>
<path d="M239.897 229.153C235.764 229.153 232.099 227.649 229.963 225.042C227.182 221.647 227.189 216.334 229.982 212.949C232.773 209.563 237.985 208.542 241.849 210.623L241.631 211.028C237.955 209.046 232.995 210.019 230.337 213.242C227.68 216.465 227.672 221.52 230.318 224.752C232.524 227.443 236.447 228.907 240.82 228.668C242.67 228.567 244.765 227.858 245.099 226.173L245.549 226.263C245.165 228.205 242.868 229.016 240.845 229.127C240.527 229.144 240.211 229.153 239.897 229.153Z" fill="black"/>
<path d="M317.373 260.104C310.908 260.104 304.454 259.768 298.102 259.436C295.302 259.289 291.819 259.106 289.274 257.118C288.635 256.62 287.879 255.813 287.904 254.8C287.933 253.688 288.845 252.899 289.699 252.248L295.665 247.681L295.945 248.046L289.978 252.613C289.209 253.201 288.388 253.903 288.365 254.812C288.344 255.634 289.002 256.324 289.557 256.757C291.805 258.513 294.768 258.802 298.126 258.978C311.606 259.683 325.543 260.409 339.048 257.884L339.133 258.336C331.951 259.677 324.655 260.104 317.373 260.104Z" fill="black"/>
<path d="M386.482 237.54L386.274 237.131C389.586 235.45 391.733 231.539 391.618 227.399C391.517 223.766 389.814 220.036 386.824 216.899C385.207 215.201 382.631 213.135 379.543 212.93C377.732 212.808 375.771 213.308 373.381 214.503C368.522 216.93 364.321 220.84 361.551 225.513L361.156 225.277C363.97 220.53 368.239 216.558 373.175 214.091C375.642 212.859 377.676 212.342 379.573 212.47C382.809 212.685 385.483 214.825 387.157 216.581C390.225 219.802 391.972 223.639 392.077 227.386C392.198 231.7 389.949 235.781 386.482 237.54Z" fill="black"/>
<path d="M250.337 193.172L249.878 193.147C250.055 189.88 250.98 186.5 252.555 183.372C257.006 174.525 266.699 168.646 276.124 169.053C285.974 169.49 295.1 177.115 296.901 186.413L296.449 186.501C294.688 177.401 285.75 169.939 276.102 169.513C266.865 169.114 257.339 174.888 252.964 183.579C251.419 186.649 250.511 189.967 250.337 193.172Z" fill="black"/>
<path d="M327.899 208.147L327.514 207.898C330.201 203.441 333.425 197.501 334.517 191.092C335.642 184.492 334.287 178.194 330.8 173.813C327.086 169.147 320.639 166.68 314.759 167.679C308.878 168.676 303.605 173.131 301.638 178.761C301.504 179.144 301.124 180.429 301.857 180.898L301.609 181.285C300.621 180.651 300.997 179.203 301.204 178.61C303.225 172.826 308.641 168.252 314.682 167.226C320.722 166.199 327.345 168.734 331.16 173.528C334.728 178.011 336.118 184.441 334.971 191.169C334.124 196.137 332.019 200.814 329.863 204.749L330.132 204.937L327.899 208.147Z" fill="black"/>
<path d="M324.829 194.701L324.437 194.462C325.511 192.695 326.317 190.782 326.833 188.778C327.906 184.601 327.522 180.55 325.753 177.37C323.771 173.813 319.851 171.562 316.194 171.904C312.252 172.271 308.908 175.951 309.179 179.625L308.721 179.659C308.427 175.679 311.899 171.843 316.152 171.446C320.038 171.085 324.055 173.376 326.154 177.147C327.981 180.43 328.38 184.601 327.277 188.892C326.752 190.941 325.927 192.895 324.829 194.701Z" fill="black"/>
<path d="M330.327 208.107C329.904 207.663 329.718 207.12 329.773 206.493C329.886 205.212 331.027 203.835 332.11 203.039C335.362 200.645 338.349 199.447 341.241 199.378C344.744 199.285 347.976 201.139 349.215 203.91C352.689 199.425 358.522 196.768 364.179 197.095C369.977 197.438 375.574 200.925 378.438 205.98L378.038 206.206C375.249 201.284 369.799 197.888 364.152 197.554C358.508 197.222 352.692 199.949 349.341 204.507L349.089 204.851L348.941 204.451C347.783 201.329 344.204 199.772 341.252 199.839C338.458 199.906 335.557 201.074 332.384 203.41C331.385 204.145 330.333 205.397 330.232 206.535C330.189 207.024 330.333 207.447 330.662 207.792L330.327 208.107Z" fill="black"/>
<path d="M397.997 238.153L397.986 237.694C402.07 237.601 405.983 235.23 407.954 231.653C409.183 229.425 409.715 226.737 409.491 223.882C409.06 218.362 405.658 212.87 400.614 209.545C396.022 206.519 390.078 205.122 383.871 205.606L383.835 205.148C390.137 204.65 396.188 206.078 400.867 209.161C406.105 212.613 409.501 218.103 409.949 223.846C410.179 226.792 409.628 229.569 408.356 231.876C406.307 235.593 402.24 238.057 397.997 238.153Z" fill="black"/>
<path d="M358.568 255.175C356.842 252.44 357.888 248.273 360.806 246.256C363.276 244.55 366.798 244.282 370.074 245.534C370.011 243.185 371.013 240.889 372.923 239.035C375.262 236.761 378.618 235.547 381.677 235.858C386.944 236.398 391.892 240.564 394.285 246.47L393.858 246.643C391.529 240.892 386.729 236.839 381.63 236.316C378.701 236.017 375.488 237.183 373.243 239.364C371.334 241.22 370.377 243.528 370.55 245.864L370.578 246.236L370.233 246.093C367.007 244.751 363.495 244.959 361.067 246.636C358.342 248.519 357.356 252.395 358.957 254.93L358.568 255.175Z" fill="black"/>
<path d="M253.104 237.454C250.499 233.58 249.942 228.832 251.684 225.361C252.719 223.302 254.739 221.706 257.089 221.092C258.915 220.615 260.694 220.806 262.15 221.631C261.854 217.096 265.367 212.466 270.036 211.365C274.596 210.287 279.799 212.4 282.688 216.501L282.312 216.764C279.529 212.814 274.523 210.778 270.143 211.812C265.529 212.9 262.099 217.585 262.651 222.041L262.713 222.543L262.294 222.259C260.883 221.305 259.075 221.048 257.207 221.536C255.016 222.108 253.057 223.653 252.097 225.567C250.427 228.893 250.973 233.458 253.487 237.197L253.104 237.454Z" fill="black"/>
<path d="M289.263 240.825C288.737 240.825 288.208 240.756 287.689 240.613C285.646 240.045 283.851 238.35 283.003 236.187L283.432 236.02C284.228 238.05 285.906 239.641 287.813 240.17C289.887 240.749 292.173 240.029 293.369 238.419C294.051 237.502 294.429 236.286 294.493 234.807C294.679 230.458 291.961 225.982 287.729 223.668C283.96 221.608 279.19 221.148 274.296 222.369L274.185 221.924C279.191 220.672 284.08 221.148 287.95 223.265C292.332 225.661 295.146 230.307 294.953 234.827C294.885 236.4 294.476 237.701 293.739 238.694C292.73 240.047 291.024 240.825 289.263 240.825Z" fill="black"/>
</g>
<defs>
<clipPath id="clip0_526_42573">
<rect width="1024" height="420" fill="white"/>
</clipPath>
</defs>
</svg>
