<svg width="550" height="251" viewBox="0 0 550 251" fill="none" xmlns="http://www.w3.org/2000/svg">
<g clip-path="url(#clip0_526_42573)">
<path d="M481.477 138.212C476.794 139.026 470.903 137.722 465.949 137.538C466.281 136.173 466.071 134.676 465.301 133.494C464.163 131.744 461.879 130.833 459.848 131.315C462.999 126.597 462.763 119.865 459.27 115.384C457.432 113.02 455.217 111.541 452.863 110.832C456.574 110.421 460.469 111.217 463.761 113.02C468.96 115.883 472.706 121.012 474.571 126.649C474.404 126.133 479.455 127.017 479.884 127.227C481.862 128.181 482.974 129.678 483.849 131.621C485.757 135.84 485.362 137.547 481.477 138.212Z" stroke="black"/>
<path d="M575.66 128.496C575.503 129.748 574.164 130.457 572.991 130.912C564.605 134.168 555.624 135.892 546.626 135.98C547.563 140.374 544.578 144.838 540.691 147.088C536.805 149.329 532.192 149.845 527.728 150.318C528.262 152.769 526.958 155.193 524.953 156.786C522.887 154.519 519.439 153.443 516.524 154.502C519.64 152.48 522.879 150.335 524.664 147.079C526.459 143.823 526.205 139.122 523.124 137.057C520.156 135.07 516.007 136.339 513.25 138.615C513.206 135.621 510.545 133.004 507.569 132.662C504.593 132.321 501.582 134.01 499.98 136.549C498.387 139.079 498.09 142.3 498.799 145.206C495.919 140.462 491.735 136.523 486.833 133.932C489.669 134.501 492.435 135.455 495.017 136.75C497.197 131.927 500.33 127.384 504.716 124.417C505.136 124.128 505.556 123.857 505.985 123.585C508.97 121.73 512.156 120.434 515.727 120.907C518.878 121.327 521.837 122.955 523.92 125.354C525.715 127.428 526.406 129.809 527.063 132.417C527.185 132.908 527.518 133.739 527.903 134.037C529.163 132.251 529.724 129.975 532.052 129.205C534.196 128.496 536.542 128.89 538.748 129.039C540.656 129.17 542.521 129.03 544.429 128.881C553.27 128.198 562.005 126.605 570.846 125.861C572.947 125.686 575.923 126.404 575.66 128.496Z" stroke="black"/>
<path d="M522.276 158.265C523.23 157.942 524.149 157.434 524.954 156.786C522.888 154.519 519.439 153.442 516.525 154.502C519.641 152.48 522.88 150.335 524.665 147.079C526.46 143.823 526.206 139.122 523.125 137.057C520.157 135.07 516.008 136.339 513.251 138.615C513.207 135.621 510.546 133.004 507.57 132.662C504.594 132.321 501.583 134.01 499.981 136.549C498.388 139.079 498.091 142.3 498.8 145.206C495.92 140.461 491.736 136.523 486.834 133.932C484.427 133.433 481.958 133.214 479.508 133.275C479.455 133.278 479.402 133.28 479.35 133.282C479.245 133.286 479.14 133.29 479.035 133.301H479C478.549 133.354 478.097 133.406 477.644 133.459C477.191 133.511 476.737 133.564 476.286 133.617C474.938 133.888 473.66 134.369 472.566 135.192C470.623 136.663 469.538 139.499 470.693 141.643C464.338 139.674 456.968 141.468 452.233 146.151C452.103 146.279 451.974 146.411 451.845 146.542C451.181 147.218 450.506 147.904 449.642 148.278C448.749 148.672 447.733 148.698 446.753 148.698C444.535 148.713 442.315 148.685 440.094 148.657C434.313 148.584 428.531 148.512 422.796 149.188C414.857 150.134 406.847 152.672 400.904 158.02C407.075 159.228 413.412 159.185 419.688 159.027C428.121 158.811 436.564 158.387 445.007 157.962C467.34 156.84 489.672 155.718 511.816 158.449C511.926 158.463 512.037 158.477 512.148 158.491C515.538 158.918 519.046 159.359 522.276 158.265Z" stroke="black"/>
<path d="M478.999 133.301C478.089 133.336 477.169 133.424 476.285 133.617C476.716 133.566 477.15 133.516 477.583 133.466C478.056 133.411 478.529 133.356 478.999 133.301Z" stroke="black"/>
<path d="M494.199 144.615C492.424 145.095 490.639 145.597 489.008 146.446C487.377 147.295 485.893 148.525 485.041 150.154C485.288 147.96 486.382 145.861 488.078 144.445C489.773 143.03 492.058 142.327 494.249 142.6C495.906 142.807 497.793 143.652 498.658 145.135C497.023 144.473 496.006 144.127 494.199 144.615Z" stroke="black"/>
<path d="M417.886 154.616C416.754 151.548 414.055 149.105 410.888 148.284C407.722 147.463 404.177 148.288 401.697 150.42C400.469 151.476 399.456 152.971 399.555 154.587C398.189 153.823 396.411 153.864 395.081 154.689C393.752 155.515 392.927 157.091 393.006 158.653C391.714 157.849 390.213 157.211 388.707 157.424C387.201 157.638 385.718 158.979 385.877 160.492C394.648 160.492 403.419 160.492 412.189 160.492C417.531 160.492 422.872 160.492 428.215 160.492C429.322 160.492 430.953 160.801 432.027 160.492C433.57 160.048 432.898 159.451 431.845 158.431C430.293 156.927 428.341 155.459 426.305 154.728C425.588 154.47 417.628 153.916 417.886 154.616Z" stroke="black"/>
<path d="M465.948 137.538C465.606 137.529 465.274 137.52 464.941 137.52C459.619 137.503 454.297 137.713 449.002 138.308C437.342 139.612 425.736 142.72 414.05 141.652C412.448 141.503 410.374 140.689 410.619 139.096C410.794 138.011 412.011 137.459 413.07 137.162C415.871 136.383 418.786 136.015 421.692 136.076C423.731 128.732 433.185 124.54 440.003 127.962C438.489 122.22 441.588 115.786 446.726 112.81C448.617 111.716 450.709 111.077 452.862 110.832C455.216 111.541 457.431 113.02 459.269 115.384C462.762 119.865 462.998 126.597 459.847 131.314C461.878 130.833 464.162 131.743 465.3 133.494C466.07 134.676 466.281 136.173 465.948 137.538Z" stroke="black"/>
<path d="M497.34 135.918L496.968 135.449C494.784 132.69 490.275 132.159 487.508 134.329L487.237 133.985C490.038 131.786 494.512 132.191 496.946 134.757C497.538 125.254 505.849 116.759 515.368 116.066C518.38 115.844 521.027 116.406 523.019 117.684C527.471 120.542 528.363 126.628 526.85 131.802C530.597 125.818 534.452 123.215 538.597 123.864C540.312 124.132 541.849 124.99 543.335 125.82C543.97 126.174 544.628 126.542 545.287 126.856C551.957 130.027 560.198 128.29 566.215 127.021L566.306 127.448C560.228 128.73 551.903 130.486 545.099 127.251C544.427 126.931 543.764 126.561 543.121 126.202C541.669 125.391 540.168 124.552 538.529 124.297C534.099 123.607 529.962 126.881 525.89 134.311L525.501 134.111C528.086 128.734 527.775 121.257 522.782 118.051C520.368 116.502 517.436 116.352 515.399 116.502C505.911 117.193 497.649 125.81 497.358 135.319L497.34 135.918Z" fill="black"/>
<path d="M533.07 151.511C530.758 151.511 528.45 150.946 526.43 149.793L526.647 149.413C531.157 151.984 537.155 151.535 541.232 148.315C545.308 145.097 547.136 139.366 545.679 134.381L545.313 133.129L546.068 134.193C547.668 136.448 552.312 137.856 555.045 138.253C558.109 138.696 561.239 138.063 563.326 137.548C565.234 137.078 567.413 136.412 569.106 135.041C570.873 133.609 571.819 131.481 571.513 129.618L571.945 129.548C572.275 131.562 571.269 133.852 569.381 135.381C567.621 136.806 565.386 137.492 563.431 137.974C561.309 138.498 558.124 139.141 554.982 138.686C552.465 138.321 548.357 137.105 546.325 135.151C547.381 140.081 545.475 145.524 541.504 148.66C539.116 150.544 536.091 151.511 533.07 151.511Z" fill="black"/>
<path d="M482.569 130.216C482.492 128.114 481.311 126.023 479.41 124.622C477.51 123.22 475.162 122.709 473.133 123.257L472.746 123.361L472.867 122.98C473.512 120.961 473.028 118.552 471.572 116.534C470.411 114.926 468.654 113.532 466.198 112.273C463.838 111.061 459.338 109.338 455.73 111.396L455.512 111.016C459.301 108.851 463.959 110.631 466.399 111.882C468.916 113.175 470.725 114.613 471.926 116.277C473.378 118.288 473.911 120.677 473.388 122.748C475.457 122.32 477.777 122.876 479.67 124.27C481.677 125.748 482.924 127.966 483.008 130.198L482.569 130.216Z" fill="black"/>
<path d="M480.805 149.262L480.373 149.197C480.799 146.341 482.777 143.732 485.41 142.549C488.047 141.367 491.309 141.622 493.726 143.204C493.895 143.314 494.107 143.424 494.239 143.396C494.227 143.387 494.214 143.38 494.206 143.377C494.219 143.381 494.266 143.378 494.307 143.344C494.349 143.308 494.361 143.261 494.359 143.244L493.926 143.309C493.897 143.109 494.009 142.996 494.114 142.958C494.309 142.892 494.551 143.036 494.656 143.214C494.755 143.381 494.727 143.569 494.587 143.693C494.202 144.037 493.663 143.685 493.487 143.57C491.191 142.069 488.092 141.825 485.591 142.949C483.088 144.072 481.21 146.55 480.805 149.262Z" fill="black"/>
<path d="M403.515 138.63L403.312 138.243C408.942 135.288 415.64 134.598 421.752 136.33C420.785 132.783 422.252 128.633 425.272 126.528C428.266 124.438 432.623 124.476 435.615 126.562C435.234 121.756 436.473 117.428 439.046 114.628C441.928 111.489 447.469 110.1 451.124 113.032L450.85 113.374C447.389 110.594 442.118 111.932 439.369 114.924C436.794 117.727 435.601 122.131 436.095 127.007L436.148 127.523L435.742 127.201C432.896 124.944 428.502 124.809 425.523 126.888C422.544 128.965 421.152 133.135 422.286 136.586L422.418 136.985L422.016 136.863C415.909 135.021 409.164 135.665 403.515 138.63Z" fill="black"/>
<path d="M505.963 168.356L505.867 168.083C504.772 164.987 501.846 162.361 498.039 161.06C494.571 159.875 490.759 159.789 487.156 159.803C483.505 159.816 479.776 159.917 476.172 160.015C464.407 160.337 452.24 160.669 440.622 157.99L440.72 157.564C452.283 160.231 464.422 159.899 476.159 159.578C479.767 159.48 483.498 159.377 487.154 159.365C490.796 159.342 494.648 159.439 498.181 160.646C502.004 161.953 504.972 164.566 506.181 167.671C511.661 163.962 519.299 163.856 524.867 167.441L524.63 167.808C519.128 164.267 511.549 164.423 506.199 168.19L505.963 168.356Z" fill="black"/>
<path d="M444.485 150.373L444.187 150.053C447.251 147.197 450.725 143.96 454.979 142.421C458.663 141.087 463.931 141.187 467.084 144.436L467.193 143.096L467.629 143.132L467.438 145.496L467.096 145.098C464.129 141.64 458.812 141.499 455.126 142.833C450.958 144.341 447.519 147.546 444.485 150.373Z" fill="black"/>
<path d="M521.019 148.506C520.941 148.506 520.863 148.505 520.786 148.501L520.803 148.064C522.429 148.146 524.085 147.43 525.364 146.139C526.739 144.75 527.505 142.849 527.413 141.053C527.233 137.554 524.091 134.325 520.408 133.857C516.907 133.407 513.156 135.26 511.083 138.454C510.817 138.865 510.57 139.306 510.353 139.694L509.971 139.48C510.192 139.087 510.443 138.639 510.717 138.216C512.88 134.883 516.796 132.958 520.464 133.423C524.412 133.925 527.657 137.267 527.851 141.031C527.95 142.946 527.137 144.971 525.676 146.445C524.371 147.764 522.686 148.506 521.019 148.506Z" fill="black"/>
<path d="M380.918 166.713C380.303 166.713 379.688 166.658 379.08 166.522C377.252 166.112 375.199 164.667 375.014 162.461C374.886 160.948 375.652 159.397 377.355 157.72C378.153 156.936 379.13 156.123 380.342 156.032C380.625 156.011 380.926 156.026 381.218 156.041C381.914 156.079 382.569 156.111 382.931 155.66C383.141 155.396 383.185 155.029 383.23 154.642C383.241 154.551 383.251 154.46 383.264 154.371C383.637 151.782 386.117 150.013 388.374 149.606C390.453 149.229 392.774 149.648 395.47 150.883C395.783 151.027 396.105 151.175 396.399 151.121C396.72 151.065 396.981 150.778 397.232 150.502L397.277 150.452C399.406 148.12 402.68 146.857 405.828 147.15C408.973 147.446 411.957 149.299 413.616 151.987L413.243 152.216C411.655 149.643 408.797 147.868 405.787 147.586C402.777 147.3 399.638 148.516 397.6 150.748L397.556 150.796C397.269 151.111 396.943 151.469 396.476 151.552C396.044 151.631 395.646 151.445 395.291 151.281C392.676 150.082 390.438 149.672 388.452 150.036C386.35 150.416 384.043 152.049 383.699 154.432C383.686 154.518 383.676 154.605 383.665 154.692C383.614 155.124 383.561 155.57 383.273 155.932C382.773 156.559 381.973 156.517 381.196 156.478C380.919 156.463 380.632 156.451 380.375 156.467C379.304 156.547 378.403 157.303 377.662 158.031C376.058 159.611 375.334 161.047 375.45 162.423C375.609 164.321 377.445 165.706 379.176 166.093C381.074 166.519 383.108 166.103 384.903 165.736L400.409 162.566L400.498 162.995L384.991 166.165C383.714 166.428 382.318 166.713 380.918 166.713Z" fill="black"/>
<path d="M436.069 158.962L435.642 158.867C436.158 156.561 434.593 154.276 432.781 153.21C431.092 152.215 428.895 151.83 426.066 152.017C423.131 152.217 419.904 153.629 419.758 156.253L419.321 156.229C419.483 153.324 422.81 151.801 426.036 151.581C428.955 151.381 431.234 151.792 433.003 152.832C434.952 153.978 436.631 156.452 436.069 158.962Z" fill="black"/>
<path d="M241.767 134.236C241.341 135.163 240.347 135.67 239.393 136.035C234.476 137.929 229.045 137.807 223.79 137.442C221.179 137.259 218.568 137.023 215.964 136.766C215.829 134.973 215.504 133.221 214.808 131.571C213.421 128.243 210.127 125.43 206.543 125.788C211.203 120.574 212.839 112.687 210.148 106.235C207.449 99.7824 200.307 95.332 193.374 96.2586C186.448 97.192 180.591 103.78 180.97 110.76C177.101 107.933 171.074 108.704 168.051 112.424C167.659 108.075 165.068 103.793 161.017 102.163C160.388 101.913 159.732 101.737 159.062 101.642C159.11 101.609 159.157 101.582 159.211 101.554C163.337 99.4037 168.903 100.574 171.818 104.206C172.292 101.284 173.902 98.6597 175.85 96.4345C183.979 87.1346 198.812 84.5374 209.613 90.5231C220.421 96.5156 226.082 110.462 222.505 122.292C226.245 120.398 230.878 120.384 234.625 122.258C238.379 124.131 241.152 127.838 241.889 131.963C242.031 132.721 242.092 133.533 241.767 134.236Z" stroke="black"/>
<path d="M215.964 136.765C208.152 135.987 200.354 135.013 192.508 134.736C182.627 134.384 172.731 135.135 162.843 135.318C153.712 135.48 144.568 135.162 135.464 134.351C134.057 134.229 132.59 134.073 131.372 133.343C130.162 132.606 129.276 131.124 129.702 129.765C130.534 127.08 141.592 128.622 143.296 125.159C145.082 121.554 140.902 117.476 145.941 114.405C148.349 112.944 151.372 113.154 154.172 113.411C152.874 109.001 155.031 103.84 159.062 101.642C159.732 101.737 160.388 101.913 161.017 102.163C165.068 103.793 167.659 108.074 168.051 112.423C171.074 108.703 177.101 107.932 180.969 110.759C180.591 103.779 186.448 97.1916 193.374 96.2582C200.307 95.3316 207.449 99.7821 210.147 106.234C212.839 112.687 211.203 120.573 206.543 125.788C210.127 125.429 213.421 128.243 214.808 131.571C215.504 133.221 215.829 134.973 215.964 136.765Z" stroke="black"/>
<path d="M149.03 129.453C152.316 130.345 155.192 132.65 156.779 135.662C156.373 134.891 139.782 135.891 137.804 135.774C133.932 135.544 128.533 136.344 126.961 131.956C123.485 122.253 136.291 122.874 139.27 130.744C142.337 129.244 145.65 128.534 149.03 129.453Z" stroke="black"/>
<path d="M198.61 125.473C200.588 124.796 202.679 124.454 204.768 124.465C203.803 123.569 202.441 123.193 201.124 123.189C200.07 123.185 198.675 123.893 197.708 123.757C196.188 123.544 196.936 123.636 195.786 122.408C195.786 122.408 192.89 115.255 186.353 115.255C192.344 117.636 195.425 123.728 195.768 127.444C196.453 126.428 197.471 125.862 198.61 125.473Z" stroke="black"/>
<path d="M227.798 127.875C226.43 126.702 221.418 129.265 220.243 130.019C218.143 131.367 217.113 133.436 215.394 135.008C211.139 129.35 223.42 124.121 227.798 127.875Z" stroke="black"/>
<path d="M225.056 146.89C216.02 146.874 206.783 144.952 198.319 147.963C197.435 146.06 197.625 143.699 198.805 141.968C200.012 140.202 201.605 139.645 202.794 138.225C203.738 138.842 204.844 139.546 205.966 140.574C205.518 137.844 208.75 135.438 211.399 136.234C214.055 137.03 215.521 140.208 214.928 142.91C217.305 141.131 220.895 142.003 223.017 144.081C223.847 144.901 224.509 145.858 225.056 146.89Z" stroke="black"/>
<path d="M232.916 145.918C232.128 146.403 231.182 146.55 230.256 146.651C228.532 146.837 226.801 146.9 225.056 146.89C224.509 145.859 223.847 144.902 223.017 144.081C220.895 142.003 217.305 141.132 214.928 142.91C215.521 140.208 214.056 137.031 211.399 136.235C208.75 135.438 205.517 137.844 205.966 140.574C204.844 139.546 203.738 138.842 202.794 138.225C202.982 137.994 203.163 137.736 203.331 137.451C205.025 134.547 204.771 132.735 208.845 131.927C210.088 131.683 211.386 131.615 212.605 131.932C216.223 132.872 218.132 136.723 219.585 140.164C220.068 138.16 222.891 137.575 224.683 138.593C226.475 139.618 227.447 141.608 228.31 143.476C228.547 142.426 229.742 141.885 230.816 141.784C232.195 141.648 233.89 142.233 234.134 143.598C234.295 144.511 233.705 145.427 232.916 145.918Z" stroke="black"/>
<path d="M219.203 121.215L218.909 121.048L219.981 119.018L220.014 119.035C224.281 110.395 224.661 98.1239 216.985 90.4628C211.633 85.1209 203.021 83.0378 195.047 85.1534C187.895 87.0519 181.234 92.2173 176.771 99.3251L176.485 99.1452C180.992 91.965 187.726 86.7462 194.959 84.8261C203.048 82.68 211.787 84.7977 217.223 90.2234C225.638 98.6203 224.523 112.458 219.203 121.215Z" fill="black"/>
<path d="M239.37 133.743C239.273 133.743 239.177 133.74 239.08 133.733L239.104 133.396C240.31 133.481 241.565 132.982 242.526 132.028C243.486 131.074 243.994 129.83 243.918 128.615C243.859 127.68 243.502 126.682 242.826 125.566C240.686 122.028 236.799 119.572 232.685 119.157C228.569 118.744 224.272 120.373 221.468 123.411L221.219 123.182C224.095 120.067 228.5 118.397 232.72 118.821C236.937 119.246 240.921 121.764 243.116 125.39C243.821 126.555 244.193 127.603 244.255 128.594C244.338 129.906 243.795 131.244 242.765 132.268C241.81 133.215 240.588 133.743 239.37 133.743Z" fill="black"/>
<path d="M218.118 120.893L218.953 118.034L219.19 118.103C221.533 113.19 222.376 107.89 221.565 103.044C220.599 97.277 217.236 92.2219 212.568 89.5219C207.582 86.6379 201.193 86.692 196.667 89.6578L196.482 89.3751C201.111 86.341 207.644 86.2821 212.737 89.2297C217.491 91.9791 220.916 97.1227 221.898 102.988C222.787 108.3 221.719 114.146 218.889 119.449L218.118 120.893Z" fill="black"/>
<path d="M196.312 124.548L196.386 124.209C197.035 121.243 196.408 118.316 194.709 116.379C192.81 114.216 189.48 113.595 187.281 114.993L187.1 114.708C189.43 113.224 192.959 113.873 194.963 116.156C196.669 118.1 197.34 120.991 196.784 123.946C199.156 122.809 201.82 121.572 204.62 121.252C207.85 120.884 210.901 121.93 212.582 123.98L212.321 124.194C210.711 122.231 207.774 121.232 204.658 121.588C201.794 121.914 199.047 123.234 196.624 124.398L196.312 124.548Z" fill="black"/>
<path d="M239.595 148.278L239.404 148C239.865 147.683 240.314 147.323 240.48 146.836C240.623 146.416 240.544 145.941 240.437 145.49C240.137 144.229 239.336 141.95 237.338 140.853C235.488 139.837 233.249 140.14 231.085 140.433L230.651 140.491C230.219 140.548 229.779 140.561 229.476 140.268C229.276 140.077 229.205 139.811 229.143 139.576L229.123 139.501C228.453 137.035 225.93 135.683 223.794 135.241C222.61 134.996 220.913 134.877 219.554 135.704C218.4 136.406 217.585 138.032 218.212 139.335L217.907 139.482C217.179 137.965 218.104 136.191 219.379 135.416C220.832 134.531 222.62 134.653 223.863 134.91C226.098 135.374 228.739 136.799 229.449 139.412L229.47 139.489C229.526 139.7 229.579 139.898 229.71 140.024C229.91 140.217 230.26 140.201 230.606 140.155L231.039 140.097C233.259 139.797 235.554 139.486 237.501 140.555C239.614 141.716 240.454 144.096 240.766 145.411C240.885 145.912 240.971 146.444 240.8 146.945C240.602 147.526 240.104 147.929 239.595 148.278Z" fill="black"/>
<path d="M176.288 104.826C176.136 104.826 175.933 104.746 175.701 104.448C173.264 101.313 170.618 99.3546 167.833 98.6275C164.867 97.8524 160.935 98.6397 159.158 101.643L158.867 101.47C160.731 98.3225 164.832 97.4933 167.919 98.3002C170.777 99.0469 173.485 101.045 175.967 104.24C175.998 104.28 176.033 104.319 176.067 104.354C176.09 104.21 176.194 104.152 176.277 104.146C176.435 104.14 176.583 104.291 176.624 104.444C176.663 104.587 176.605 104.719 176.476 104.782C176.429 104.805 176.365 104.826 176.288 104.826ZM176.082 104.37C176.146 104.431 176.212 104.477 176.268 104.486C176.265 104.483 176.261 104.479 176.257 104.477C176.269 104.484 176.304 104.49 176.341 104.473C176.381 104.455 176.399 104.421 176.401 104.408L176.082 104.37Z" fill="black"/>
<path d="M166.132 112.348C165.954 109.691 167.796 106.998 170.611 105.8C172.829 104.856 175.533 104.76 178.65 105.513C179.327 102.04 181.991 98.8225 185.99 96.6636C190.624 94.1617 195.798 93.7187 199.827 95.4799C204.488 97.5158 207.278 102.77 206.046 107.192L205.72 107.102C206.908 102.835 204.204 97.7606 199.692 95.7897C195.757 94.0704 190.695 94.5073 186.151 96.9612C182.176 99.1072 179.551 102.31 178.95 105.749L178.919 105.928L178.742 105.884C175.627 105.103 172.936 105.18 170.744 106.112C168.102 107.236 166.304 109.849 166.469 112.326L166.132 112.348Z" fill="black"/>
<path d="M132.735 124.961L132.443 124.79C133.187 123.521 134.537 122.642 136.148 122.377C137.6 122.139 139.017 122.441 140.095 123.213C139.677 119.973 139.489 115.91 141.249 112.388C142.899 109.086 146.898 106.349 150.737 107.486C154.028 108.461 155.919 111.738 157.393 114.911L157.399 114.708L157.568 114.7L157.737 114.704L157.693 116.386L157.39 115.715C155.9 112.416 154.027 108.813 150.641 107.81C146.976 106.723 143.139 109.361 141.552 112.539C139.757 116.13 140.039 120.326 140.486 123.58L140.547 124.025L140.207 123.731C139.173 122.834 137.713 122.462 136.203 122.711C134.692 122.959 133.428 123.78 132.735 124.961Z" fill="black"/>
<path d="M197.28 151.448C196.023 151.448 194.766 151.248 193.826 150.432C192 148.848 192.394 145.89 193.595 143.661C194.535 141.916 195.676 140.7 196.988 140.046C198.635 139.225 200.616 139.396 201.807 140.46L201.583 140.712C200.49 139.737 198.664 139.588 197.139 140.348C195.891 140.971 194.799 142.14 193.893 143.822C192.755 145.932 192.362 148.715 194.048 150.177C195.239 151.211 197.044 151.17 198.639 151.05C202.545 150.756 206.493 150.329 210.373 149.778L210.42 150.113C206.533 150.664 202.578 151.094 198.664 151.388C198.214 151.421 197.747 151.448 197.28 151.448Z" fill="black"/>
<path d="M161.835 137.165L161.779 136.801C161.275 133.549 160.13 131.191 158.376 129.79C156.503 128.293 153.758 127.777 150.844 128.371C148.211 128.908 145.805 130.201 143.477 131.451L143.317 131.153C145.666 129.891 148.094 128.586 150.776 128.039C153.787 127.424 156.636 127.967 158.587 129.526C160.343 130.928 161.508 133.236 162.054 136.389L162.182 136.24L162.439 136.459L161.835 137.165Z" fill="black"/>
<path d="M128.697 132.866C127.027 132.866 125.345 132.128 124.277 130.842C122.887 129.168 122.599 126.642 123.575 124.697C123.948 123.956 124.465 123.348 125.073 122.94C126.23 122.164 127.889 122.014 129.627 122.529C132.56 123.398 135.016 125.855 135.884 128.788L135.56 128.884C134.723 126.059 132.357 123.691 129.531 122.853C127.889 122.368 126.333 122.501 125.261 123.221C124.702 123.597 124.223 124.159 123.877 124.849C122.958 126.677 123.23 129.052 124.537 130.626C125.845 132.199 128.131 132.903 130.095 132.334L130.189 132.658C129.704 132.799 129.201 132.866 128.697 132.866Z" fill="black"/>
<path d="M198.228 234.204C201.477 234.124 204.88 234.002 207.695 232.38C210.51 230.758 212.443 227.107 211.041 224.176C209.725 221.422 206.273 220.529 203.233 220.24C197.943 219.736 192.57 220.106 187.398 221.328C187.955 217.049 184.542 212.654 180.259 212.133C175.975 211.613 171.609 215.063 171.125 219.351C172.316 216.117 171.232 212.326 168.926 209.766C166.62 207.206 163.269 205.769 159.872 205.195C156.411 204.61 152.386 205.064 150.179 207.793C149.034 209.208 148.55 211.027 148.001 212.764C144.654 223.349 134.5 235.418 152.372 235.34C167.65 235.271 182.954 234.582 198.228 234.204Z" stroke="black"/>
<path d="M156.454 222.55C153.693 218.019 145.701 217.13 142.574 221.749C144.733 215.178 145.907 208.003 143.955 201.369C142.01 194.735 136.328 188.862 129.425 188.402C122.529 187.95 115.521 194.466 116.886 201.242C110.887 194.838 101.546 191.751 92.9122 193.298C105.451 186.038 112.45 170.324 109.459 156.143C107.673 147.667 101.547 138.795 93.6264 133.486C98.3963 133.773 103.078 134.915 107.411 137.018C115.133 140.771 121.275 147.779 124.132 155.858C125.378 159.373 126.981 165.047 125.672 168.754C124.498 172.087 121.022 173.587 120.022 177.214C124.975 171.357 133.164 169.198 140.489 171.309C147.829 173.429 153.733 179.198 157.408 185.896C163.597 197.171 163.668 211.972 156.454 222.55Z" stroke="black"/>
<path d="M158.446 231.485C156.406 232.803 153.898 233.144 151.494 233.462C137.979 235.224 123.988 236.954 110.926 233.049C107.878 232.145 104.688 230.923 101.617 231.724C99.9981 232.153 98.5767 233.105 97.1484 233.978C80.174 244.374 57.5961 244.89 40.1686 235.264C37.1452 233.597 34.1848 231.613 30.7965 230.987C27.5906 230.392 24.3052 231.05 21.1071 231.638C-2.2082 235.891 -26.2774 235.954 -49.617 231.844C-50.5533 231.677 -51.5294 231.479 -52.2514 230.868C-54.616 228.844 -52.1398 225.059 -49.5928 223.274C-39.5618 216.219 -26.8325 213.1 -14.6747 214.718C-16.0399 207.679 -11.5086 200.474 -5.31813 196.855C0.863663 193.236 8.33975 192.57 15.5054 192.808C15.3075 186.205 18.7355 179.611 24.2507 175.984C29.7659 172.357 37.178 171.818 43.1541 174.611C47.1381 161.049 55.1848 148.36 67.0331 140.646C74.8421 135.566 84.3888 132.924 93.6261 133.488C101.546 138.797 107.672 147.67 109.458 156.144C112.451 170.326 105.451 186.039 92.9119 193.3C101.546 191.752 110.887 194.84 116.886 201.244C115.521 194.466 122.528 187.952 129.424 188.404C136.329 188.864 142.011 194.737 143.955 201.371C145.907 208.005 144.733 215.179 142.574 221.75C156.155 207.958 157.771 223.433 158.128 222.98C159.429 223.163 160.707 224.02 161.143 225.282C161.93 227.573 160.493 230.169 158.446 231.485Z" stroke="black"/>
<path d="M12.1665 207.96C19.436 207.805 26.4063 213.412 27.8138 220.545C32.5552 219.521 37.7782 221.119 41.1345 224.621C44.4908 228.124 45.8655 233.41 44.6413 238.103C12.5573 233.492 -20.1604 243.041 -52.393 239.617C-56.6753 239.162 -61.8239 237.707 -62.8113 233.515C-63.5177 230.517 -61.6363 227.544 -59.5985 225.234C-52.0031 216.627 -41.2165 211.795 -29.8532 211.061C-18.0845 210.3 -12.367 214.364 -3.05537 220.907C-0.995058 214.01 4.50199 208.124 12.1665 207.96Z" stroke="black"/>
<path d="M171.822 246.294C170.417 248.428 168.348 249.112 166.372 249.486C165.202 249.711 164.023 249.851 162.842 249.946C162.786 249.758 162.739 249.581 162.683 249.403C160.735 243.044 155.033 237.464 148.375 237.482C143.927 237.501 139.873 239.889 136.155 242.342C135.359 242.865 134.292 243.4 133.533 242.828C133.12 242.51 132.961 241.976 132.784 241.489C132.203 239.944 131.136 238.82 129.797 238.081C131.904 237.65 134.039 237.8 136.155 237.697C136.717 237.668 137.316 237.594 137.719 237.013C138.132 236.404 138.196 235.459 138.347 234.616C138.834 231.863 140.482 229.859 142.261 228.95C144.04 228.041 145.969 228.06 147.842 228.116C152.73 228.276 155.679 230.307 159.734 233.81C163.367 236.956 169.023 234.878 171.964 238.314C173.526 240.151 173.226 244.168 171.822 246.294Z" stroke="black"/>
<path d="M162.841 249.945C160.089 250.161 157.326 250.095 154.573 250.021C145.124 249.777 135.686 249.534 126.237 249.29C124.682 249.243 122.669 248.635 122.463 246.293C122.378 245.348 122.65 244.411 122.996 243.615C124.316 240.591 126.667 238.924 129.008 238.268C129.27 238.193 129.532 238.137 129.794 238.081C131.134 238.821 132.201 239.944 132.781 241.489C132.96 241.976 133.119 242.509 133.53 242.828C134.288 243.4 135.356 242.865 136.152 242.341C139.87 239.888 143.925 237.5 148.373 237.481C155.031 237.462 160.733 243.044 162.681 249.402C162.739 249.58 162.785 249.758 162.841 249.945Z" stroke="black"/>
<path d="M78.0144 202.183C79.6632 197.27 84.6985 193.708 89.8809 193.789C84.6994 196.876 80.8356 202.099 79.3977 207.956C76.5351 207.27 75.2806 204.006 73.3059 201.824C70.1735 198.362 65.3906 197.846 61.0988 197.002C66.8491 193.668 76.2195 194.407 78.0144 202.183Z" stroke="black"/>
<path d="M160.891 204.31L160.459 204.307C160.507 196.346 159.128 189.397 156.36 183.654C153.093 176.873 147.672 171.642 141.487 169.303C134.56 166.684 126.742 167.823 121.576 172.207C119.336 174.107 117.655 176.521 116.714 179.186L116.306 179.043C117.272 176.305 118.998 173.828 121.296 171.878C126.581 167.393 134.567 166.223 141.641 168.9C147.929 171.276 153.435 176.587 156.751 183.466C159.547 189.268 160.941 196.282 160.891 204.31Z" fill="black"/>
<path d="M157.619 206.332L157.804 203.859L158.234 203.891L158.169 204.769C162.127 198.677 163.301 190.7 161.218 183.744C159.058 176.529 153.368 170.321 146.369 167.542C143.166 166.269 139.486 165.578 135.432 165.489C130.524 165.387 125.685 166.131 121.042 167.72L120.902 167.311C125.595 165.706 130.494 164.95 135.441 165.057C139.547 165.147 143.278 165.848 146.529 167.14C153.647 169.968 159.434 176.282 161.631 183.621C163.828 190.958 162.464 199.415 158.07 205.689L157.619 206.332Z" fill="black"/>
<path d="M206.796 228.759C206.382 228.759 205.968 228.745 205.553 228.72L205.58 228.289C207.466 228.407 209.355 228.25 211.197 227.823C211.654 227.717 212.175 227.577 212.55 227.26C212.946 226.925 213.206 226.36 213.282 225.668C213.461 224.046 212.676 222.298 211.182 220.99C209.9 219.867 208.333 219.175 206.372 218.484C204.024 217.654 201.241 216.802 198.332 216.876C195.346 216.938 192.672 218.031 191 219.876L190.653 220.259L190.624 219.742C190.443 216.406 189.396 213.156 187.596 210.344C187.265 209.826 186.89 209.303 186.381 208.984C185.715 208.567 184.851 208.518 184.179 208.531C177.7 208.607 171.674 213.653 170.463 220.019L170.039 219.938C171.287 213.377 177.496 208.177 184.174 208.099C184.906 208.087 185.849 208.141 186.611 208.617C187.193 208.982 187.603 209.551 187.961 210.11C189.712 212.847 190.767 215.991 191.025 219.229C192.786 217.514 195.416 216.504 198.325 216.442C201.29 216.372 204.133 217.233 206.517 218.076C208.525 218.785 210.135 219.497 211.469 220.664C213.068 222.066 213.907 223.954 213.713 225.715C213.652 226.282 213.448 227.068 212.83 227.59C212.383 227.969 211.803 228.126 211.297 228.244C209.817 228.586 208.308 228.759 206.796 228.759Z" fill="black"/>
<path d="M134.118 238.484L133.687 238.447C134.249 232.063 139.2 226.428 145.458 225.049C146.939 224.723 148.184 224.703 149.267 224.988C150.54 225.324 151.627 226.1 152.433 226.738C154.684 228.523 156.593 230.768 157.998 233.275L158.227 233.213L158.516 234.264L158.114 234.418C156.704 231.586 154.647 229.047 152.165 227.079C151.392 226.466 150.352 225.723 149.158 225.407C148.142 225.139 146.964 225.16 145.552 225.471C139.474 226.811 134.664 232.284 134.118 238.484Z" fill="black"/>
<path d="M79.8776 202.974L79.4462 202.943C79.6424 199.442 77.7438 195.896 74.7229 194.118C71.7021 192.338 67.6783 192.402 64.7153 194.271C63.3675 195.12 62.2443 196.296 61.1584 197.432L60.8463 197.133C61.9504 195.978 63.0925 194.783 64.4845 193.904C67.5832 191.951 71.7851 191.886 74.9434 193.744C77.7412 195.392 79.6173 198.491 79.8655 201.722L79.9891 201.733L79.8776 202.974Z" fill="black"/>
<path d="M11.5249 198.561L11.0935 198.535C11.4091 192.636 11.7359 186.535 13.9804 180.91C16.4954 174.611 21.2187 170.157 26.6146 168.996C29.8196 168.306 33.4093 169.052 36.2193 170.992C38.2078 172.364 39.5972 174.203 40.2232 176.259C41.5572 165.989 43.8639 157.97 47.4494 151.104C52.0715 142.25 58.9674 135.559 66.8697 132.263C75.8148 128.532 86.1647 129.473 93.2405 134.657L92.9854 135.006C86.0273 129.908 75.8424 128.987 67.0366 132.661C59.2277 135.919 52.4069 142.54 47.8324 151.302C44.1311 158.391 41.8002 166.725 40.499 177.53L40.3096 179.103L40.071 177.536C39.7018 175.112 38.2476 172.915 35.9737 171.347C33.2598 169.474 29.7954 168.753 26.7053 169.418C21.4495 170.549 16.843 174.905 14.3815 181.071C12.4708 185.857 11.965 191.02 11.6607 196.106L11.6866 196.108L11.5249 198.561Z" fill="black"/>
<path d="M20.074 229.714L19.8199 229.551C16.3987 227.342 11.9002 226.851 8.08049 228.265L7.93005 227.859C11.7818 226.434 16.301 226.885 19.8017 229.029C21.3329 223.4 26.5922 219.063 32.4229 218.667C32.8111 218.64 33.2235 218.578 33.329 218.311C33.3342 218.299 33.3446 218.271 33.2996 218.219C33.227 218.137 33.1094 218.108 33.0774 218.115L32.6815 218.103C32.6754 217.928 32.7584 217.784 32.9045 217.719C33.125 217.618 33.4137 217.731 33.5823 217.891C33.7544 218.055 33.8097 218.272 33.731 218.471C33.5097 219.027 32.7956 219.075 32.4523 219.099C26.7063 219.489 21.5309 223.831 20.1475 229.422L20.074 229.714Z" fill="black"/>
<path d="M153.924 223.809L153.056 220.794L153.471 220.674L153.889 222.127C154.345 220.175 154.686 218.144 154.339 216.197C153.979 214.181 152.604 211.899 150.343 211.349C147.642 210.685 145.001 212.716 143.246 214.295L142.18 215.255L142.917 214.024C146.887 207.384 147.342 198.894 144.105 191.868C142.354 188.066 139.732 185.327 136.724 184.156C134.715 183.373 132.267 183.179 129.45 183.573C124.676 184.244 120.532 186.314 117.78 189.399C114.69 192.866 113.508 197.694 114.769 201.7L114.357 201.83C113.05 197.681 114.268 192.689 117.457 189.112C120.277 185.95 124.515 183.831 129.389 183.145C132.28 182.739 134.801 182.943 136.882 183.752C139.995 184.965 142.7 187.783 144.499 191.687C147.623 198.468 147.368 206.587 143.892 213.172C145.663 211.733 148.006 210.331 150.448 210.928C152.897 211.525 154.382 213.967 154.766 216.121C155.176 218.417 154.671 220.791 154.12 223.025L153.924 223.809Z" fill="black"/>
<path d="M7.77894 198.899C5.34686 191.641 5.47568 184.267 8.14379 178.135C11.1171 171.301 17.4078 166.375 24.1689 165.588C31.4712 164.742 38.9378 169.172 41.1771 175.679L40.7681 175.819C38.592 169.496 31.3251 165.192 24.2191 166.017C17.6076 166.788 11.4534 171.612 8.53977 178.307C5.91488 184.341 5.79038 191.605 8.18788 198.762L7.77894 198.899Z" fill="black"/>
<path d="M51.0781 210.992L50.4348 210.109C48.4342 207.363 45.2162 205.626 41.8244 205.464C38.4275 205.308 35.0599 206.718 32.8042 209.257L32.4817 208.97C34.8221 206.334 38.3254 204.874 41.8443 205.032C45.0831 205.188 48.1705 206.726 50.2602 209.19C50.0657 206.98 51.1179 204.506 53.2326 202.273C57.4449 197.821 63.8282 195.632 69.8881 196.562L69.8223 196.989C63.8999 196.08 57.6636 198.219 53.5473 202.569C52.4657 203.711 50.0345 206.715 50.8196 209.93L51.0781 210.992Z" fill="black"/>
<path d="M203.436 232.277L203.339 231.857C206.03 231.234 208.731 230.523 211.366 229.74C213.012 229.252 214.842 228.608 215.708 227.134C216.244 226.225 216.394 225.028 216.152 223.578C215.614 220.372 213.495 217.241 210.185 214.764C208.22 213.293 205.166 211.573 201.782 211.715C196.411 211.943 192.333 216.577 188.931 220.903L188.591 220.636C192.052 216.234 196.209 211.518 201.763 211.282C205.268 211.142 208.422 212.905 210.443 214.418C213.843 216.963 216.021 220.191 216.577 223.508C216.837 225.062 216.67 226.355 216.081 227.354C215.134 228.962 213.214 229.643 211.488 230.154C208.846 230.939 206.137 231.654 203.436 232.277Z" fill="black"/>
<path d="M-2.76066 220.725C-4.09645 215.567 -1.71711 209.628 3.02429 206.282C7.22791 203.314 13.127 202.386 18.803 203.803C20.8253 204.306 22.2683 204.986 23.3438 205.944C24.409 206.892 25.239 208.222 25.8822 210.009C26.9604 213.009 27.1895 216.377 26.5246 219.494L26.1027 219.404C26.7494 216.364 26.5264 213.081 25.475 210.156C24.8577 208.437 24.0666 207.165 23.0568 206.267C22.0348 205.358 20.6498 204.708 18.6975 204.222C13.1434 202.839 7.37662 203.74 3.27242 206.636C-1.32545 209.881 -3.63476 215.629 -2.34306 220.618L-2.76066 220.725Z" fill="black"/>
<path d="M44.4989 237.359L44.1323 237.134L45.4283 234.473L45.5277 234.521C46.1087 232.883 46.2929 231.047 46.0335 229.208C45.6263 226.319 44.1746 223.746 42.0478 222.144C39.9217 220.541 37.0461 219.858 34.1576 220.264C31.269 220.671 28.6951 222.123 27.0921 224.25L26.748 223.989C28.4184 221.772 31.0961 220.258 34.097 219.835C37.0928 219.411 40.0903 220.126 42.308 221.798C44.5257 223.467 46.0396 226.146 46.4624 229.146C46.8851 232.149 46.1701 235.142 44.4989 237.359Z" fill="black"/>
<path d="M-1.59853 218.208C-1.95214 215.241 -0.832503 212.111 1.32118 210.041C3.46276 207.981 6.64532 206.794 11.0513 206.413C12.3473 206.301 14.0488 206.212 15.7088 206.522C20.2721 207.377 24.0131 211.338 24.6036 215.943L24.1748 215.999C23.6076 211.575 20.0136 207.768 15.6292 206.947C14.0211 206.645 12.3568 206.733 11.0884 206.843C6.78538 207.217 3.68756 208.364 1.62034 210.354C-0.438245 212.332 -1.50774 215.323 -1.16969 218.158L-1.59853 218.208Z" fill="black"/>
<path d="M388.401 64.667C388.453 66.891 387.922 69.1793 386.565 70.9374C386.022 71.6358 385.389 72.2176 384.677 72.7083C381.833 74.6603 377.838 74.9581 374.244 75.0739C365.905 75.3321 357.554 75.6041 349.214 75.8752C346.163 75.9662 341.858 78.0469 343.397 80.6973C344.961 83.3863 351.245 82.4296 350.456 85.4422C332.356 89.0235 313.455 88.5061 295.588 83.9423C292.007 83.0371 287.973 81.4858 286.874 77.9697C286.408 76.4827 286.564 74.8542 285.995 73.4059C286.253 73.0824 286.473 72.7469 286.666 72.3849C290.377 65.3903 284.197 54.6856 278.043 51.5058C275.807 50.3552 273.066 49.7091 270.791 50.8074C268.204 52.048 267.092 55.0606 265.722 57.5814C265.334 58.2799 264.856 59.004 264.094 59.2365C263.227 59.4948 262.323 59.0169 261.443 58.8101C258.625 58.1117 255.729 60.2713 254.578 62.9475C253.622 65.1844 253.583 67.6924 253.699 70.1489C240.887 71.4419 228.152 72.8636 216 69.115C222.464 65.1844 230.312 63.5816 237.81 64.6679C240.486 65.0557 244.377 64.9004 244.507 62.1985C244.611 60.0269 241.96 59.005 240.085 57.9058C235.651 55.3069 234.229 48.6881 237.203 44.4993C239.723 40.9565 244.908 39.8059 248.812 41.5391H248.825C249.549 41.8626 250.221 42.2762 250.829 42.7936C247.687 33.1881 257.616 22.7674 267.7 23.3363C277.797 23.8923 285.994 32.8517 288.295 42.6906C289.343 36.5103 297.629 34.119 303.472 36.4074C318.858 42.4324 328.877 66.8147 348.722 60.9064C357.513 58.2945 363.745 49.2836 373.596 50.1245C380.993 50.7559 388.233 56.9363 388.401 64.667Z" stroke="black"/>
<path d="M401.458 68.0162C401.058 69.2311 400.528 70.4598 399.558 71.2998C398.316 72.3861 396.571 72.6443 394.943 72.7739C391.517 73.0459 388.103 72.955 384.677 72.7096C385.389 72.2179 386.022 71.6362 386.565 70.9386C387.922 69.1806 388.453 66.8922 388.401 64.6682C388.233 56.9366 380.993 50.7571 373.598 50.1239C363.746 49.284 357.515 58.2949 348.724 60.9058C328.879 66.8141 318.86 42.4309 303.474 36.4068C297.631 34.1184 289.344 36.5106 288.297 42.6901C285.996 32.8511 277.799 23.8917 267.702 23.3357C257.618 22.7668 247.689 33.1875 250.831 42.793C250.223 42.2756 249.55 41.862 248.827 41.5385H248.814C245.156 32.1012 253.404 17.6856 260.967 13.2771C271.452 6.79988 286.437 8.97151 294.658 18.1644C296.442 11.1569 303.876 6.38633 311.09 6.68409C318.317 6.98093 324.924 11.7258 328.505 17.9962C332.086 24.2795 332.9 31.8558 331.892 39.0177C337.89 36.4968 345.686 41.2546 346.191 47.7446C354.84 36.8589 370.095 30.9249 383.348 35.1523C396.598 39.3926 405.816 54.8155 401.458 68.0162Z" stroke="black"/>
<path d="M286.667 72.3862C286.474 72.7483 286.254 73.0847 285.996 73.4073C285.996 73.3944 285.996 73.3687 285.983 73.3558C284.741 70.3176 280.914 69.4252 277.644 69.1798C269.719 68.5852 261.703 69.348 253.701 70.1494C253.584 67.6929 253.624 65.1849 254.58 62.948C255.731 60.2718 258.627 58.1131 261.445 58.8106C262.325 59.0174 263.229 59.4962 264.096 59.237C264.858 59.0045 265.336 58.2803 265.724 57.5819C267.094 55.0611 268.206 52.0485 270.792 50.8078C273.068 49.7087 275.808 50.3557 278.045 51.5063C284.198 54.687 290.378 65.3916 286.667 72.3862Z" stroke="black"/>
<path d="M380.935 75.1911C380.392 76.8554 380.515 78.8322 379.341 80.1308C377.629 82.0221 374.591 81.1748 372.068 80.8044C367.776 80.1749 363.235 81.5121 359.97 84.3665C359.056 85.1651 358.193 86.1797 358.131 87.391C358.052 88.9239 359.334 90.2601 360.785 90.7601C362.235 91.2609 363.819 91.1167 365.346 90.9669C372.08 90.3061 396.924 91.7241 398.67 83.623C400.373 75.7241 384.514 64.2319 380.935 75.1911Z" stroke="black"/>
<path d="M352.536 60.6887C345.167 60.6887 338.479 57.7212 334.557 55.5386C328.891 52.3836 323.785 48.2058 318.848 44.1649C316.861 42.5382 314.805 40.8555 312.742 39.2647C309.593 36.8358 305.877 34.2249 301.599 33.9896C299.233 33.8637 296.695 34.7809 294.978 36.3928C293.656 37.6353 292.95 39.1425 292.938 40.7517L292.48 40.7783C291.116 29.9772 282.095 20.9451 271.944 20.2164C266.705 19.8396 261.144 21.9956 257.066 25.9804C253.319 29.6417 251.301 34.4142 251.528 39.0745L251.069 39.0975C250.836 34.3057 252.905 29.4056 256.745 25.6523C260.917 21.5765 266.607 19.3782 271.978 19.7587C281.86 20.4682 290.691 28.8753 292.693 39.2031C293.011 38.0535 293.678 36.9856 294.664 36.0592C296.469 34.3627 299.137 33.395 301.623 33.5319C305.823 33.7626 309.584 36.2494 313.022 38.9026C315.09 40.4971 317.148 42.1817 319.139 43.8111C324.06 47.8391 329.15 52.004 334.78 55.1379C340.083 58.0897 350.504 62.4973 360.72 58.8535C361.662 58.5171 362.955 57.94 363.32 56.816L363.758 56.9575C363.33 58.2745 361.908 58.9169 360.875 59.2854C358.073 60.2843 355.258 60.6887 352.536 60.6887Z" fill="black"/>
<path d="M239.897 62.1528C235.764 62.1528 232.099 60.6493 229.963 58.0421C227.182 54.6473 227.189 49.3345 229.982 45.9488C232.773 42.5632 237.985 41.5422 241.849 43.6228L241.631 44.0281C237.955 42.0458 232.995 43.019 230.337 46.242C227.68 49.465 227.672 54.5204 230.318 57.7517C232.524 60.4435 236.447 61.9065 240.82 61.6676C242.67 61.5665 244.765 60.858 245.099 59.1734L245.549 59.2635C245.165 61.2053 242.868 62.0159 240.845 62.1271C240.527 62.1437 240.211 62.1528 239.897 62.1528Z" fill="black"/>
<path d="M317.373 93.1044C310.908 93.1044 304.454 92.768 298.102 92.4362C295.302 92.2892 291.819 92.1063 289.274 90.1185C288.635 89.6204 287.879 88.8126 287.904 87.7998C287.933 86.6878 288.845 85.8993 289.699 85.2477L295.665 80.6812L295.945 81.046L289.978 85.6126C289.209 86.2007 288.388 86.9029 288.365 87.8118C288.344 88.6343 289.002 89.3235 289.557 89.7573C291.805 91.5126 294.768 91.8021 298.126 91.9777C311.606 92.6825 325.543 93.4086 339.048 90.884L339.133 91.3362C331.951 92.677 324.655 93.1044 317.373 93.1044Z" fill="black"/>
<path d="M386.482 70.5398L386.274 70.1309C389.586 68.45 391.733 64.5387 391.618 60.3985C391.517 56.7657 389.814 53.0363 386.824 49.8988C385.207 48.2014 382.631 46.1345 379.543 45.9296C377.732 45.8083 375.771 46.3082 373.381 47.503C368.522 49.9301 364.321 53.8396 361.551 58.5127L361.156 58.2775C363.97 53.5298 368.239 49.5579 373.175 47.0912C375.642 45.8588 377.676 45.3424 379.573 45.4701C382.809 45.6851 385.483 47.8246 387.157 49.5808C390.225 52.802 391.972 56.6389 392.077 60.3857C392.198 64.7004 389.949 68.7808 386.482 70.5398Z" fill="black"/>
<path d="M250.337 26.1716L249.878 26.1468C250.055 22.8797 250.98 19.4996 252.555 16.3722C257.006 7.52488 266.699 1.64597 276.124 2.05309C285.974 2.48962 295.1 10.1147 296.901 19.4132L296.449 19.5005C294.688 10.4014 285.75 2.93902 276.102 2.5126C266.865 2.11375 257.339 7.8879 252.964 16.579C251.419 19.6494 250.511 22.967 250.337 26.1716Z" fill="black"/>
<path d="M327.899 41.1468L327.514 40.8978C330.201 36.4406 333.425 30.501 334.517 24.0918C335.642 17.4924 334.287 11.1944 330.8 6.81347C327.086 2.14673 320.639 -0.319891 314.759 0.679075C308.878 1.6762 303.605 6.13064 301.638 11.7614C301.504 12.1437 301.124 13.4285 301.857 13.8981L301.609 14.285C300.621 13.6509 300.997 12.2035 301.204 11.6098C303.225 5.82646 308.641 1.25161 314.682 0.225992C320.722 -0.800545 327.345 1.7341 331.16 6.52766C334.728 11.0106 336.118 17.4409 334.971 24.169C334.124 29.1372 332.019 33.814 329.863 37.7492L330.132 37.9367L327.899 41.1468Z" fill="black"/>
<path d="M324.829 27.7011L324.437 27.4622C325.511 25.6949 326.317 23.7824 326.833 21.7781C327.906 17.6012 327.522 13.5502 325.753 10.3704C323.771 6.8129 319.851 4.56224 316.194 4.90411C312.252 5.2708 308.908 8.95144 309.179 12.6247L308.721 12.6587C308.427 8.6794 311.899 4.84254 316.152 4.44645C320.038 4.08527 324.055 6.37637 326.154 10.1471C327.981 13.4298 328.38 17.6012 327.277 21.892C326.752 23.9414 325.927 25.8953 324.829 27.7011Z" fill="black"/>
<path d="M330.327 41.107C329.904 40.6632 329.718 40.12 329.773 39.4933C329.886 38.2122 331.027 36.8346 332.11 36.0387C335.362 33.6447 338.349 32.4472 341.241 32.3783C344.744 32.2855 347.976 34.1391 349.215 36.9099C352.689 32.4251 358.522 29.7683 364.179 30.0955C369.977 30.4382 375.574 33.925 378.438 38.9795L378.038 39.2056C375.249 34.2843 369.799 30.8876 364.152 30.554C358.508 30.2223 352.692 32.949 349.341 37.5073L349.089 37.851L348.941 37.4512C347.783 34.3293 344.204 32.7716 341.252 32.8387C338.458 32.9058 335.557 34.0739 332.384 36.41C331.385 37.1452 330.333 38.3969 330.232 39.5346C330.189 40.0245 330.333 40.4472 330.662 40.7918L330.327 41.107Z" fill="black"/>
<path d="M397.997 71.1534L397.986 70.6938C402.07 70.601 405.983 68.23 407.954 64.6532C409.183 62.4246 409.715 59.7374 409.491 56.882C409.06 51.3624 405.658 45.8695 400.614 42.5455C396.022 39.5191 390.078 38.1222 383.871 38.6056L383.835 38.148C390.137 37.6499 396.188 39.078 400.867 42.1613C406.105 45.6131 409.501 51.1033 409.949 56.8462C410.179 59.7916 409.628 62.5689 408.356 64.8756C406.307 68.593 402.24 71.0569 397.997 71.1534Z" fill="black"/>
<path d="M358.568 88.1752C356.842 85.4402 357.888 81.2734 360.806 79.2562C363.276 77.5505 366.798 77.2821 370.074 78.5338C370.011 76.1848 371.013 73.8891 372.923 72.0346C375.262 69.7609 378.618 68.5469 381.677 68.8575C386.944 69.3979 391.892 73.5638 394.285 79.4703L393.858 79.6431C391.529 73.8919 386.729 69.839 381.63 69.3161C378.701 69.0165 375.488 70.1828 373.243 72.3645C371.334 74.22 370.377 76.5276 370.55 78.8637L370.578 79.2359L370.233 79.0926C367.007 77.7508 363.495 77.9585 361.067 79.6357C358.342 81.5188 357.356 85.3951 358.957 87.9298L358.568 88.1752Z" fill="black"/>
<path d="M253.104 70.4541C250.499 66.5795 249.942 61.8319 251.684 58.3608C252.719 56.3022 254.739 54.7059 257.089 54.092C258.915 53.615 260.694 53.8062 262.15 54.6306C261.854 50.0962 265.367 45.4662 270.036 44.3652C274.596 43.2872 279.799 45.4 282.688 49.5006L282.312 49.7644C279.529 45.8135 274.523 43.7779 270.143 44.8118C265.529 45.8999 262.099 50.5851 262.651 55.0413L262.713 55.5431L262.294 55.2592C260.883 54.3052 259.075 54.0479 257.207 54.5359C255.016 55.1084 253.057 56.6533 252.097 58.5667C250.427 61.8926 250.973 66.4582 253.487 70.1968L253.104 70.4541Z" fill="black"/>
<path d="M289.263 73.8254C288.737 73.8254 288.208 73.7564 287.689 73.6131C285.646 73.0451 283.851 71.3496 283.003 69.1871L283.432 69.0199C284.228 71.05 285.906 72.6408 287.813 73.1701C289.887 73.7491 292.173 73.0286 293.369 71.4194C294.051 70.5022 294.429 69.2864 294.493 67.8068C294.679 63.458 291.961 58.9815 287.729 56.6684C283.96 54.6079 279.19 54.1475 274.296 55.3689L274.185 54.9241C279.191 53.6724 284.08 54.1484 287.95 56.2649C292.332 58.6608 295.146 63.3073 294.953 67.827C294.885 69.4003 294.476 70.7007 293.739 71.6942C292.73 73.047 291.024 73.8254 289.263 73.8254Z" fill="black"/>
</g>
<defs>
<clipPath id="clip0_526_42573">
<rect width="550" height="251" fill="white"/>
</clipPath>
</defs>
</svg>
