<svg width="213" height="71" viewBox="0 0 213 71" fill="none" xmlns="http://www.w3.org/2000/svg">
<path d="M197.848 3.0271H15.0612L9.61646 9.98796L14.2842 15.7897C14.4057 25.6228 28.3055 32.8503 39.331 32.8503C40.1326 32.8503 40.9221 32.8031 41.6992 32.7211C41.578 37.48 43.7084 41.9684 47.8006 44.4749C53.4328 47.9242 60.9349 46.4907 65.8505 41.4369C66.8085 43.138 68.3628 44.4328 70.3226 44.9463C73.5097 45.7813 76.8344 44.3063 78.7572 41.5104C82.0068 47.7309 88.6407 51.995 96.3038 51.995C100.852 51.995 105.034 50.4883 108.365 47.9665C108.332 48.0775 108.297 48.188 108.262 48.2986C108.193 48.5163 108.124 48.7345 108.066 48.957C108.053 49.0088 108.04 49.0606 108.027 49.1124C108.015 49.1607 108.003 49.209 107.992 49.2574L110.028 47.8557C110.063 47.3779 110.114 46.8994 110.175 46.4213C110.698 45.9153 111.193 45.3818 111.655 44.8211C112.484 46.9085 113.788 48.9007 115.563 50.627C121.692 56.591 131.078 57.1283 136.527 51.8275C138.521 49.8863 139.708 47.4315 140.115 44.807C140.398 44.9493 140.691 45.0615 140.988 45.1594C140.995 45.203 141.003 45.2465 141.011 45.2901L141.013 45.3012C141.035 45.4179 141.056 45.5345 141.075 45.6513C141.168 46.2474 141.244 46.8443 141.302 47.4411L142.653 47.1053C142.452 46.5318 142.236 45.9656 142.005 45.4077C143.038 45.562 144.098 45.4462 145.086 45.0127C146.357 44.4538 147.3 43.4596 147.855 42.2525C153.343 46.9067 161.108 47.5757 166.376 43.4691C169.068 41.3705 170.647 38.3785 171.089 35.1254C172.377 35.5325 173.828 35.8925 175.362 36.1639C175.373 36.1828 175.385 36.2017 175.397 36.2206L175.433 36.2776L175.434 36.2782L175.434 36.2788C175.483 36.3556 175.531 36.4325 175.577 36.5105C175.754 36.8133 175.92 37.1214 176.075 37.4337L177.173 37.566C176.863 37.1296 176.534 36.7075 176.188 36.3022C180.288 36.9242 184.874 36.8535 188.579 35.2251C195.934 31.9931 199.8 25.7871 201.21 19.0113H207.442L201.478 5.08958L197.848 3.0271Z" fill="white"/>
<path d="M107.349 52.9553C107.494 51.6022 107.737 50.2632 108.066 48.957C108.124 48.7352 108.192 48.5179 108.261 48.3009C108.296 48.1896 108.331 48.0783 108.365 47.9665C105.034 50.4882 100.852 51.9951 96.3038 51.9951C88.6406 51.9951 82.0066 47.7309 78.7571 41.5105C76.8343 44.3062 73.5096 45.7813 70.3223 44.9463C68.3626 44.4327 66.8082 43.138 65.8504 41.437C60.9348 46.4907 53.4326 47.9241 47.8005 44.4749C43.7081 41.9684 41.578 37.4799 41.699 32.7212C40.922 32.8031 40.1325 32.8503 39.3309 32.8503C28.2568 32.8503 14.2832 25.5591 14.2832 15.6598C14.2832 7.66768 15.8388 3.02887 19.4687 0.320984C17.8839 0.644253 16.3326 1.11972 14.8468 1.75278C12.1432 2.91947 9.67707 4.60719 7.63783 6.6917C5.59732 8.7752 3.99383 11.2668 3.00814 13.977C2.01789 16.6842 1.6586 19.6066 1.96573 22.4581C2.27007 25.306 3.22816 28.0766 4.76253 30.4947C6.28449 32.9184 8.3288 35.0075 10.6866 36.6341C15.4127 39.9077 21.354 41.2535 27.0438 40.6154L28.5961 40.4412L28.5782 42.0197C28.543 45.072 29.3117 48.1375 30.9514 50.6469C32.5445 53.1838 35.0501 55.0702 37.8553 56.021C39.8578 56.7192 42.0251 56.8804 44.149 56.6024L42.7057 55.0052L42.5548 54.8393L42.7776 54.8081L46.5647 54.2868L48.6118 50.2308L50.473 54.2971L50.5566 54.3112C51.9231 53.4705 53.1817 52.4454 54.2953 51.29L55.8524 49.6748L56.9584 51.632C57.5785 52.7299 58.4436 53.6684 59.4896 54.2867C60.5264 54.919 61.7471 55.227 62.9543 55.2054C64.1646 55.1789 65.3805 54.8116 66.4532 54.164C67.5316 53.5223 68.4575 52.6052 69.1733 51.5442L70.8232 49.0997L72.1907 51.7243C73.8228 54.8556 76.2451 57.5687 79.167 59.5486C82.081 61.5464 85.5042 62.7657 89.0145 63.1042C92.5286 63.4726 96.1243 62.942 99.3756 61.5926C102.362 60.3449 105.038 58.3913 107.172 55.9659L107.189 54.9954C107.218 54.6195 107.237 54.2457 107.263 53.873C107.284 53.5667 107.309 53.2611 107.349 52.9553Z" fill="#D5F4FD"/>
<path d="M201.737 9.98796C202.515 19.7847 199.153 30.5784 188.579 35.2251C184.874 36.8534 180.288 36.9243 176.188 36.3022C176.858 37.0863 177.46 37.9335 177.999 38.825C178.556 39.7777 179.053 40.7737 179.467 41.8066C179.821 42.6668 180.102 43.5537 180.362 44.4509C184.267 45.5478 188.477 45.6401 192.485 44.76C194.699 44.2633 196.884 43.5329 198.905 42.4692L199.677 42.0951L200.411 41.6559C200.584 41.5494 200.76 41.446 200.936 41.3425C201.253 41.1559 201.57 40.9689 201.874 40.7634C202.03 40.6488 202.186 40.535 202.342 40.4212C203.11 39.862 203.878 39.3017 204.567 38.6441C205.224 38.1076 205.799 37.4886 206.375 36.8693L206.385 36.8587C206.585 36.6438 206.785 36.4289 206.988 36.2174C207.146 36.0129 207.306 35.81 207.467 35.607L207.477 35.5938L207.488 35.5802L207.49 35.5772C208.031 34.893 208.573 34.2078 209.017 33.4546C210.255 31.5367 211.257 29.442 211.82 27.2218C212.399 25.0157 212.717 22.7163 212.531 20.4303C212.359 18.1487 211.799 15.9041 210.893 13.7952C209.848 11.5042 208.343 9.4274 206.501 7.70846C204.662 5.98587 202.495 4.61941 200.168 3.64784C199.055 3.18811 197.908 2.82556 196.74 2.55114C197.874 3.02245 201.478 6.12082 201.737 9.98796Z" fill="#D5F4FD"/>
<path d="M175.577 36.5105C176.107 37.418 176.537 38.3735 176.896 39.345C177.241 40.325 177.517 41.3201 177.713 42.3312C177.868 43.1029 177.963 43.8822 178.039 44.6625L178.024 44.7556C177.613 47.5139 176.447 50.1383 174.636 52.1936C174.184 52.7081 173.691 53.1822 173.173 53.6268C173.106 53.6844 173.038 53.7407 172.969 53.7958C172.638 54.0599 172.287 54.2972 171.937 54.5339L171.734 54.6712C171.661 54.7215 171.587 54.7718 171.514 54.8227C170.342 55.5209 169.079 56.0459 167.768 56.4002C165.129 57.0654 162.316 56.9741 159.697 56.2154C157.489 55.5879 155.426 54.508 153.609 53.1123C153.547 53.0254 153.485 52.9389 153.423 52.8525L153.418 52.8464C153.214 52.5632 153.011 52.2801 152.824 51.9842C152.442 51.3566 152.063 50.7119 151.752 50.0392C151.435 49.3683 151.15 48.673 150.944 47.9492C150.744 47.2256 150.582 46.4736 150.61 45.6961C150.295 46.4169 150.158 47.2218 150.075 48.0227C149.996 48.8285 150.006 49.6444 150.061 50.4605C150.083 50.8435 150.123 51.2242 150.175 51.6041C150.221 51.9506 150.277 52.2966 150.336 52.6431L150.263 52.7996C149.656 54.0954 148.58 55.0699 147.281 55.4618C146.364 55.7519 145.362 55.7358 144.407 55.4654C144.35 54.7645 144.273 54.067 144.167 53.3744C143.987 51.9892 143.674 50.6265 143.33 49.2902C142.97 47.9614 142.525 46.6638 142.004 45.4077C143.037 45.562 144.098 45.4462 145.086 45.0127C146.357 44.4538 147.3 43.4597 147.855 42.2524C153.343 46.9067 161.108 47.5757 166.376 43.4691C169.068 41.3705 170.647 38.3785 171.088 35.1254C172.377 35.5325 173.828 35.8925 175.361 36.1638L175.415 36.2489L175.435 36.2811L175.441 36.2906C175.487 36.3636 175.533 36.4365 175.577 36.5105Z" fill="#D5F4FD"/>
<path d="M141.29 53.4558C141.433 52.1723 141.448 50.8776 141.433 49.5714C141.399 48.2673 141.28 46.9575 141.075 45.6513C141.048 45.4873 141.017 45.3234 140.988 45.1595C140.816 45.1028 140.646 45.0414 140.477 44.972C140.355 44.9215 140.234 44.8669 140.115 44.807C139.708 47.4315 138.521 49.8864 136.527 51.8275C131.078 57.1283 121.692 56.591 115.562 50.627C113.788 48.9007 112.484 46.9085 111.655 44.8211C111.192 45.3818 110.698 45.9153 110.175 46.4213C110.055 47.3515 109.979 48.2825 109.967 49.2088C109.969 50.4612 110.054 51.7043 110.227 52.9311C110.272 53.3262 110.347 53.7199 110.42 54.1117C110.461 54.3276 110.502 54.5428 110.538 54.7573L110.557 54.8394L110.933 55.8092C112.163 58.9744 114.312 61.8204 117.08 63.8653C119.797 65.9668 123.147 67.2087 126.534 67.4443C129.926 67.6385 133.33 66.6818 135.98 64.6615C138.365 62.8504 140.027 60.1937 140.729 57.2528L140.709 57.251C140.956 56.005 141.178 54.7384 141.29 53.4558Z" fill="#D5F4FD"/>
<path fill-rule="evenodd" clip-rule="evenodd" d="M45.1076 58.4686L44.8035 59.725C43.0246 59.9663 41.2031 59.953 39.4262 59.6382C38.94 59.5516 38.4577 59.4395 37.9799 59.3065C37.5933 59.2002 37.2087 59.0844 36.8294 58.9456C35.1786 58.3576 33.6282 57.4944 32.2483 56.4212C30.7433 55.2501 29.4419 53.8271 28.4592 52.2043C28.4159 52.1346 28.3767 52.0633 28.3374 51.9919C28.3055 51.9339 28.2735 51.8759 28.2395 51.8189C26.7324 49.2595 25.9554 46.3522 25.8237 43.446C25.5743 43.4554 25.3249 43.4618 25.0755 43.4651C24.877 43.4676 24.6785 43.4682 24.48 43.4669C24.3076 43.4656 24.1352 43.4628 23.963 43.4584C23.826 43.4549 23.689 43.4505 23.5523 43.4451C22.8246 43.4159 22.0967 43.3621 21.3735 43.2765C20.1919 43.1352 19.0186 42.9154 17.8653 42.6131C17.5093 42.5195 17.1553 42.4179 16.8039 42.3089C16.4114 42.1872 16.022 42.0562 15.6361 41.9166C13.9777 41.3161 12.3904 40.535 10.893 39.6086C10.3519 39.2743 9.81362 38.934 9.29989 38.559C7.56651 37.2944 6.01796 35.7848 4.68565 34.1055C4.04962 33.3035 3.44701 32.4752 2.92568 31.593L2.89631 31.5413C1.91264 29.8836 1.16774 28.0866 0.68059 26.2246C0.37245 25.0476 0.165083 23.8451 0.0673491 22.6361C-0.0189907 21.612 -0.0189907 20.5827 0.0483594 19.5594C0.18787 17.4438 0.644636 15.3518 1.41587 13.3842C2.555 10.46 4.35092 7.81775 6.58082 5.64185C9.73589 2.55657 13.5055 0 21.4315 0C19.1664 0.280846 16.9413 0.860289 14.8469 1.7528C12.143 2.91949 9.67715 4.60721 7.63766 6.69172C5.59715 8.77522 3.99366 11.2668 3.00797 13.977C2.01772 16.6844 1.65869 19.6066 1.96556 22.4581C2.2699 25.306 3.228 28.0766 4.76236 30.4947C6.28458 32.9184 8.32863 35.0077 10.6866 36.6341C15.4128 39.9077 21.3538 41.2536 27.0439 40.6155L28.596 40.4412L28.5782 42.0197C28.543 45.0717 29.3117 48.1375 30.9512 50.6469C32.5443 53.1836 35.0499 55.0702 37.8551 56.021C39.8575 56.7192 42.025 56.8804 44.1484 56.6025L42.7054 55.0055L42.5547 54.8396L42.7774 54.8084L46.5644 54.2872L48.6115 50.2312L50.4728 54.2974L50.5563 54.3115L50.5573 54.3117C51.9235 53.4712 53.1814 52.4465 54.2946 51.2914L55.8518 49.6762L56.9577 51.6333C57.5775 52.7313 58.4427 53.6698 59.4892 54.2881C60.5258 54.9203 61.7464 55.2284 62.9537 55.2068C64.1639 55.1802 65.38 54.8127 66.4528 54.1653C67.5312 53.5234 68.4571 52.6066 69.1727 51.5456L70.8225 49.1012L72.1902 51.7256C73.8221 54.8571 76.2444 57.5701 79.1663 59.55C82.0806 61.5479 85.5035 62.7672 89.0139 63.1056C92.528 63.474 96.1236 62.9434 99.3751 61.594C102.361 60.3462 105.038 58.3928 107.172 55.9672L107.188 54.9957C107.206 54.7648 107.221 54.5348 107.235 54.3053V54.3004C107.263 53.8506 107.291 53.4031 107.349 52.9555C107.494 51.6023 107.736 50.2633 108.065 48.9571C108.124 48.735 108.192 48.5174 108.261 48.3C108.296 48.1891 108.331 48.0781 108.365 47.9667C108.655 47.0091 108.979 46.066 109.387 45.163C109.941 43.9562 110.582 42.7846 111.418 41.7783C110.856 42.9506 110.534 44.202 110.303 45.4478C110.263 45.6693 110.237 45.8914 110.212 46.1134L110.212 46.1141L110.207 46.1554L110.201 46.2075L110.185 46.3441L110.175 46.4211C110.056 47.3512 109.979 48.2823 109.967 49.2087C109.969 50.4612 110.054 51.7041 110.227 52.9309C110.244 53.0766 110.265 53.2221 110.288 53.3675C110.326 53.6101 110.372 53.8522 110.418 54.0935L110.42 54.1041L110.421 54.114C110.462 54.329 110.503 54.5435 110.538 54.7572L110.557 54.8402L110.933 55.81C112.164 58.9753 114.312 61.8213 117.08 63.866C119.797 65.9674 123.147 67.2095 126.534 67.445C129.926 67.6393 133.33 66.6828 135.98 64.6624C138.365 62.8512 140.028 60.1946 140.729 57.2538L144.534 57.5769L140.729 57.2525L140.709 57.2506C140.957 56.0047 141.178 54.7383 141.29 53.4557C141.433 52.1722 141.448 50.8775 141.433 49.5713C141.399 48.2671 141.28 46.9572 141.075 45.6511C141.062 45.5706 141.048 45.4901 141.033 45.4095L141.013 45.2981L140.988 45.1592C140.786 44.0191 140.524 42.8825 140.127 41.7781C140.87 42.9042 141.467 44.1322 141.998 45.3902L142.004 45.4072C142.525 46.6633 142.97 47.9612 143.33 49.2897C143.674 50.626 143.987 51.9887 144.168 53.3738C144.274 54.0664 144.35 54.7637 144.407 55.466C145.362 55.7365 146.364 55.7526 147.281 55.4622C148.581 55.0702 149.656 54.0957 150.263 52.8L150.336 52.6435C150.306 52.4669 150.277 52.2912 150.249 52.1154C150.235 52.0238 150.221 51.9323 150.208 51.8406C150.192 51.7296 150.176 51.6184 150.162 51.5073C150.117 51.1594 150.081 50.8108 150.061 50.4602C150.006 49.6442 149.996 48.8281 150.075 48.0223C150.158 47.2215 150.295 46.4166 150.611 45.6958C150.582 46.4731 150.744 47.2251 150.944 47.9488C151.15 48.6724 151.435 49.368 151.753 50.039C151.855 50.261 151.965 50.4801 152.081 50.6965C152.151 50.8295 152.224 50.9616 152.298 51.0926C152.382 51.2414 152.468 51.3891 152.554 51.5357C152.589 51.5944 152.624 51.6529 152.659 51.7114C152.714 51.8026 152.769 51.8935 152.824 51.984C153.013 52.283 153.219 52.5692 153.425 52.8555C153.486 52.9409 153.548 53.0262 153.609 53.1128C155.426 54.5084 157.489 55.5883 159.697 56.216C162.317 56.9745 165.129 57.0659 167.768 56.4008C169.079 56.0464 170.342 55.5215 171.514 54.8232C171.655 54.7254 171.797 54.6292 171.939 54.5329C172.361 54.2473 172.785 53.9608 173.173 53.6273C173.691 53.1827 174.184 52.7086 174.636 52.1941C176.448 50.1388 177.613 47.5145 178.024 44.7562L178.039 44.663C178.047 44.7522 178.057 44.8417 178.067 44.9312C178.068 44.9392 178.068 44.9472 178.069 44.9552L178.069 44.9567V44.9597C178.084 45.0991 178.099 45.2384 178.111 45.3773C178.099 45.2364 178.084 45.0955 178.069 44.9552L178.069 44.9535C178.068 44.9461 178.068 44.9387 178.067 44.9312C178.057 44.8417 178.047 44.7522 178.039 44.663C178.005 44.3128 177.967 43.9645 177.922 43.6169C177.909 43.5137 177.895 43.4106 177.88 43.3075L177.86 43.1712L177.832 42.9908C177.819 42.9107 177.806 42.8306 177.792 42.7506C177.767 42.6102 177.741 42.47 177.713 42.3301C177.518 41.3199 177.241 40.3248 176.896 39.3447C176.537 38.3732 176.107 37.4176 175.577 36.5102C175.531 36.4316 175.482 36.3544 175.433 36.2771L175.362 36.1636C174.877 35.385 174.332 34.634 173.657 33.9886C174.562 34.5737 175.349 35.3391 176.073 36.156L176.188 36.3021C176.858 37.0862 177.46 37.9334 177.999 38.8248C178.556 39.7776 179.053 40.7737 179.467 41.8059C179.821 42.6665 180.102 43.5533 180.361 44.4519C184.267 45.5488 188.477 45.6412 192.484 44.7611C194.699 44.2646 196.884 43.5342 198.905 42.4702L199.676 42.0961L200.411 41.6569C200.584 41.5504 200.76 41.4469 200.936 41.3435L200.941 41.3403C201.256 41.1545 201.572 40.9687 201.874 40.7644C202.029 40.6502 202.185 40.5368 202.341 40.4232L202.344 40.4206C203.111 39.8618 203.879 39.3024 204.567 38.6451C205.224 38.1087 205.799 37.49 206.375 36.8707L206.385 36.8598C206.585 36.6449 206.785 36.4299 206.988 36.2185C207.149 36.0094 207.313 35.8022 207.477 35.5949L207.488 35.5813L207.49 35.5782C208.031 34.8941 208.573 34.2089 209.017 33.4556C210.255 31.5377 211.256 29.4429 211.82 27.2228C212.398 25.0167 212.717 22.7173 212.531 20.4313C212.359 18.1498 211.799 15.9051 210.893 13.7962C209.847 11.5054 208.342 9.42843 206.501 7.70949C204.662 5.98677 202.495 4.62043 200.168 3.64886C198.224 2.84598 196.177 2.3398 194.098 2.08086L194.107 2.0796L194.107 2.07952C194.336 2.04944 195.197 1.93647 196.427 2.08086C197.025 2.15085 198.493 2.46644 200.337 3.24868C201.62 3.79237 202.845 4.46333 204.003 5.23701C204.093 5.29715 204.181 5.36099 204.27 5.42499L204.273 5.42709L204.373 5.49973L204.445 5.55071C205.26 6.12562 206.046 6.73993 206.772 7.42587C208.543 9.09862 209.99 11.106 211.031 13.3035C211.057 13.3576 211.085 13.4104 211.113 13.4631L211.114 13.4654L211.115 13.4675C211.148 13.529 211.181 13.5904 211.21 13.654C211.63 14.6087 211.969 15.5964 212.244 16.5999C212.586 17.8439 212.827 19.1162 212.934 20.4033C213.143 22.7346 212.838 25.0848 212.267 27.3418C212.073 28.1097 211.82 28.8607 211.541 29.6034C211.218 30.4657 210.852 31.3138 210.427 32.1328C210.176 32.6173 209.911 33.0956 209.628 33.5627C209.588 33.6288 209.548 33.6946 209.508 33.7602C209.064 34.5495 208.519 35.2694 207.973 35.99L207.946 36.0266L207.92 36.061C207.776 36.2519 207.631 36.4428 207.489 36.6354C207.285 36.8564 207.085 37.081 206.885 37.3056C206.304 37.9573 205.722 38.6098 205.056 39.1788C204.41 39.8248 203.687 40.3801 202.963 40.936C202.754 41.097 202.544 41.2581 202.336 41.4215C202.026 41.648 201.702 41.8548 201.377 42.0617L201.374 42.0636C201.203 42.1728 201.032 42.2819 200.863 42.394L200.119 42.8746L199.338 43.2894C198.07 44.0129 196.727 44.5982 195.349 45.09C195.171 45.1531 194.993 45.2156 194.815 45.2768C194.592 45.3535 194.369 45.4277 194.143 45.498C193.683 45.6402 193.222 45.7788 192.756 45.9003C189.107 46.8379 185.236 47.0018 181.488 46.3346C180.836 46.2188 180.188 46.0757 179.546 45.9077C179.401 46.7606 179.196 47.605 178.921 48.4315C178.32 50.2473 177.406 51.9718 176.179 53.4778C175.684 54.0874 175.138 54.6556 174.561 55.1919C174.098 55.6217 173.587 55.9952 173.076 56.3692C172.95 56.4617 172.824 56.5543 172.698 56.6478C171.373 57.5128 169.922 58.1858 168.406 58.656C165.355 59.5569 162.074 59.572 159.004 58.8124C156.499 58.2092 154.157 57.0746 152.062 55.5961C151.781 55.9826 151.471 56.3529 151.119 56.6874C150.313 57.4544 149.333 58.0565 148.272 58.4165C147.21 58.7814 146.065 58.9207 144.957 58.8142C144.553 58.7764 144.157 58.7 143.766 58.6069C142.882 61.9965 140.923 65.159 138.12 67.3603C134.856 69.9518 130.635 71.1421 126.557 70.9865L126.341 70.9856C124.893 70.8999 123.462 70.6531 122.069 70.2762C119.47 69.5711 117.012 68.3867 114.88 66.7714C112.348 64.9216 110.227 62.5195 108.694 59.7753C106.952 61.4782 104.961 62.9254 102.8 64.061C102.345 64.3005 101.885 64.5247 101.417 64.7349C101.343 64.7681 101.27 64.8022 101.196 64.8364L101.189 64.8398C101.064 64.8977 100.94 64.9554 100.813 65.0082C96.9817 66.5949 92.7531 67.2104 88.6363 66.7751C84.508 66.3784 80.4994 64.8697 77.1141 62.511C74.4227 60.6487 72.1216 58.2514 70.3523 55.5149C69.7089 56.1246 68.9962 56.6673 68.2201 57.1197C66.6706 58.0345 64.8567 58.5803 63.004 58.6001C61.1532 58.6161 59.2995 58.1184 57.731 57.1432C56.7633 56.5551 55.9361 55.7882 55.2299 54.9325C54.8623 55.2474 54.486 55.5507 54.0984 55.842L54.3657 55.6224L55.0025 55.0975L55.0018 55.0974L54.3659 55.6218L54.0986 55.8413L51.3977 58.0662C51.4604 58.7381 51.5113 59.3986 51.5607 60.0433C51.609 60.6785 51.6584 61.3003 51.7238 61.8997C51.535 61.7985 51.3374 61.6981 51.1398 61.5978C51.0486 61.5515 50.9574 61.5051 50.8671 61.4587C50.5594 61.301 50.2483 61.1431 49.934 60.9835C49.3903 60.7076 48.8368 60.4266 48.2742 60.1329L44.1849 62.2879L45.1076 58.4686ZM51.2377 59.4374C51.1415 58.9502 51.0472 58.4721 50.9618 58.0008L50.9439 57.9L51.0311 57.8134L53.2999 55.578L50.1487 54.9901L49.9554 54.9543L48.5545 51.8126L46.8601 54.7235L46.7445 54.7328L43.0551 55.0212L45.7704 57.688L45.7476 57.8163L45.1705 61.0363L48.1871 59.7387L48.2884 59.6944L48.369 59.7452C48.796 60.0107 49.2254 60.2869 49.6624 60.5679C50.3127 60.986 50.9796 61.4148 51.6802 61.8353C51.5476 61.0073 51.3904 60.211 51.2377 59.4374Z" fill="#003242"/>
<path d="M50.4491 9.49965C50.3886 9.38575 50.3282 9.27205 50.2584 9.16357C49.0112 7.22522 47.2504 5.57048 45.1476 4.56026C43.0608 3.5576 40.5921 3.23244 38.4985 3.9788C42.782 4.93527 45.7077 7.5325 47.7943 10.7317C48.8235 12.3394 49.6206 14.1053 50.1627 15.9919C50.719 17.8832 50.9843 19.8809 51.0793 22.0719C52.1822 20.1664 52.5898 17.8691 52.4316 15.6093C52.3508 14.5266 52.1283 13.4504 51.79 12.408C52.6863 11.2621 53.8396 10.3053 55.2147 9.68158C56.8124 8.95687 58.6503 8.66281 60.4875 8.78819C64.168 9.02963 67.8538 10.9286 70.189 14.0562C68.2662 10.6655 64.7253 8.12868 60.6807 7.34569C58.662 6.95381 56.5025 7.00253 54.442 7.63862C53.0499 8.0665 51.7297 8.78743 50.5714 9.72338C50.5287 9.64967 50.4889 9.57462 50.4491 9.49965Z" fill="#003242"/>
<path d="M166.113 16.9914C167.596 15.4328 169.454 14.337 171.406 13.6942C175.317 12.4051 179.654 12.8904 183.001 14.9078C179.424 13.3208 175.275 13.4621 171.948 15.0452C170.285 15.833 168.828 16.9846 167.793 18.3952C166.903 19.6099 166.369 21.0047 166.153 22.4408C166.962 23.1847 167.687 24.0139 168.291 24.9185C169.543 26.8098 170.321 29.0111 170.299 31.2107C169.135 29.3467 167.919 27.7353 166.502 26.3576C165.099 24.9772 163.535 23.8265 161.845 22.9276C158.448 21.1568 154.617 20.3189 150.413 21.5742C151.87 19.9025 154.181 18.9827 156.495 18.8395C158.825 18.6943 161.176 19.2787 163.218 20.3595C163.331 20.4189 163.439 20.4877 163.546 20.5563C163.619 20.6032 163.693 20.6501 163.768 20.6939C164.314 19.3143 165.11 18.043 166.113 16.9914Z" fill="#003242"/>
<path d="M104.277 28.4231C108.392 28.2037 112.447 29.8085 115.142 32.6318C112.112 30.1627 108.073 29.2129 104.443 29.8688C102.63 30.1929 100.92 30.9223 99.5473 32.0117C98.3667 32.9503 97.4815 34.1565 96.8941 35.4843C97.4767 36.4132 97.9562 37.4037 98.2993 38.4347C99.0062 40.5868 99.1731 42.9144 98.5695 45.03C97.94 42.9277 97.1954 41.0543 96.1925 39.3544C95.2053 37.6552 94.0006 36.1353 92.6085 34.8252C89.8005 32.2272 86.3282 30.4151 81.9383 30.5244C83.7874 29.2936 86.2609 29.0119 88.5305 29.4793C90.8174 29.9505 92.9298 31.1294 94.6138 32.707C94.6685 32.7581 94.7204 32.8114 94.7713 32.8658C94.8084 32.9056 94.8448 32.9459 94.8812 32.9861L94.8905 32.9965C94.9483 33.0606 95.006 33.1246 95.066 33.1868C95.9603 31.9985 97.0521 30.9695 98.2983 30.2175C100.141 29.1016 102.225 28.5315 104.277 28.4231Z" fill="#003242"/>
<path fill-rule="evenodd" clip-rule="evenodd" d="M50.1485 54.99L53.2997 55.578L51.0309 57.8133L50.9437 57.9L50.9616 58.0008C51.0469 58.472 51.1413 58.9502 51.2375 59.4374C51.3902 60.2109 51.5474 61.0073 51.68 61.8353C50.9791 61.4147 50.3118 60.9856 49.6612 60.5672C49.2246 60.2864 48.7954 60.0105 48.3687 59.7452L48.2882 59.6943L48.1869 59.7386L45.1703 61.0363L45.7474 57.8162L45.7702 57.688L45.6877 57.607L43.0549 55.0212L46.7443 54.7328L46.8599 54.7235L46.9252 54.6113L48.5543 51.8126L49.8764 54.778L49.9552 54.9542L50.1485 54.99ZM43.7073 55.2182L43.707 55.2181L45.8923 57.3081L45.8922 57.3077L43.7073 55.2182ZM48.5988 54.221L48.7897 56.2828L48.7898 56.2828L48.5988 54.221ZM48.459 52.7117L49.4227 55.1417L49.4228 55.1417L48.459 52.7114L48.459 52.7117ZM48.4314 58.3259L48.4313 58.3259L45.6679 60.4951L45.668 60.495L48.4314 58.3259Z" fill="white"/>
</svg>
