<svg width="359" height="140" viewBox="0 0 359 140" fill="none" xmlns="http://www.w3.org/2000/svg">
<path d="M45.3232 91.6589C39.5852 89.9889 33.0582 90.9229 28.2482 94.4699C23.4382 98.0169 20.5872 104.199 21.3992 110.12C17.4262 109.526 13.3562 108.934 9.42018 109.738C5.48518 110.542 1.64619 113.039 0.384188 116.852C0.212188 117.371 0.0901822 117.936 0.242182 118.461C0.590182 119.671 2.09619 120.04 3.34719 120.186C19.1262 122.026 38.7482 122.767 54.0002 117.475C67.6462 112.741 54.0982 94.2119 45.3232 91.6589Z" fill="#A4DFF1"/>
<path d="M336.841 120.525C340.598 120.432 344.534 120.291 347.79 118.415C351.046 116.539 353.282 112.316 351.661 108.926C350.138 105.74 346.146 104.708 342.63 104.373C336.511 103.79 330.297 104.218 324.315 105.632C324.959 100.683 321.011 95.5989 316.057 94.9969C311.102 94.3949 306.053 98.3859 305.493 103.345C306.87 99.6049 305.616 95.2199 302.949 92.2589C300.282 89.2979 296.406 87.6359 292.477 86.9719C288.474 86.2949 283.819 86.8209 281.266 89.9769C279.942 91.6139 279.382 93.7179 278.747 95.7259C274.876 107.969 263.131 121.929 283.803 121.838C301.474 121.758 319.174 120.962 336.841 120.525Z" fill="#E4F9FF"/>
<path d="M288.524 107.045C285.33 101.804 276.087 100.776 272.47 106.118C274.967 98.518 276.325 90.22 274.067 82.547C271.818 74.874 265.246 68.081 257.261 67.549C249.285 67.026 241.18 74.562 242.759 82.4C235.82 74.993 225.016 71.422 215.03 73.212C229.533 64.814 237.628 46.639 234.168 30.237C232.103 20.434 225.017 10.172 215.856 4.03198C221.373 4.36298 226.788 5.68397 231.8 8.11697C240.731 12.458 247.835 20.563 251.14 29.907C252.581 33.973 254.435 40.536 252.921 44.823C251.563 48.678 247.542 50.413 246.386 54.608C252.114 47.834 261.586 45.337 270.058 47.779C278.548 50.23 285.377 56.903 289.627 64.65C296.785 77.691 296.868 94.81 288.524 107.045Z" fill="#E4F9FF"/>
<path d="M290.828 117.38C288.469 118.904 285.568 119.298 282.787 119.666C267.156 121.704 250.973 123.705 235.865 119.189C232.34 118.143 228.65 116.729 225.098 117.656C223.226 118.152 221.582 119.253 219.93 120.263C200.297 132.287 174.183 132.884 154.026 121.75C150.529 119.822 147.105 117.528 143.186 116.803C139.478 116.115 135.678 116.876 131.979 117.556C105.012 122.476 77.1731 122.549 50.1781 117.795C49.0951 117.602 47.9661 117.373 47.1311 116.666C44.3961 114.325 47.2601 109.947 50.2061 107.882C61.8081 99.7219 76.5311 96.1149 90.5931 97.9869C89.0141 89.8449 94.2551 81.5109 101.415 77.3259C108.565 73.1399 117.212 72.3689 125.5 72.6449C125.271 65.0079 129.236 57.3809 135.615 53.1859C141.994 48.9909 150.567 48.3669 157.479 51.5979C162.087 35.9119 171.394 21.2349 185.098 12.3129C194.13 6.43789 205.172 3.38186 215.856 4.03386C225.016 10.1749 232.102 20.4369 234.168 30.2389C237.629 46.6419 229.533 64.8159 215.03 73.2139C225.016 71.4239 235.82 74.9949 242.759 82.4019C241.18 74.5629 249.285 67.0279 257.261 67.5509C265.247 68.0829 271.819 74.8759 274.067 82.5489C276.325 90.2219 274.967 98.5199 272.47 106.12C288.178 90.1679 290.047 108.066 290.46 107.543C291.965 107.754 293.443 108.745 293.948 110.205C294.858 112.855 293.196 115.857 290.828 117.38Z" fill="#A4DFF1"/>
<path d="M121.638 90.1689C130.046 89.9899 138.108 96.4749 139.736 104.725C145.22 103.541 151.261 105.389 155.143 109.44C159.025 113.491 160.615 119.605 159.199 125.033C122.09 119.7 84.2481 130.745 46.9671 126.784C42.0141 126.258 36.0591 124.575 34.9171 119.727C34.1001 116.259 36.2761 112.821 38.6332 110.149C47.4181 100.194 59.8942 94.6049 73.0372 93.7559C86.6492 92.8759 93.2621 97.5759 104.032 105.144C106.415 97.1669 112.773 90.3589 121.638 90.1689Z" fill="#2EBDE5"/>
<path d="M306.299 134.507C304.674 136.976 302.281 137.767 299.996 138.2C298.642 138.46 297.278 138.622 295.913 138.731C295.848 138.514 295.794 138.309 295.729 138.103C293.476 130.749 286.88 124.294 279.18 124.315C274.035 124.337 269.346 127.099 265.046 129.936C264.125 130.542 262.891 131.16 262.013 130.499C261.536 130.131 261.352 129.513 261.147 128.95C260.475 127.163 259.241 125.863 257.692 125.008C260.129 124.51 262.598 124.683 265.046 124.564C265.696 124.531 266.389 124.445 266.855 123.773C267.332 123.069 267.407 121.975 267.581 121C268.144 117.816 270.05 115.498 272.108 114.447C274.166 113.396 276.397 113.418 278.563 113.483C284.217 113.667 287.628 116.017 292.318 120.068C296.52 123.707 303.062 121.303 306.463 125.278C308.27 127.402 307.923 132.048 306.299 134.507Z" fill="#E4F9FF"/>
<path d="M75.6971 122.12C71.0661 119.115 64.9381 118.562 59.8451 120.689C56.5191 122.078 53.5771 124.67 52.3731 128.067C51.1691 131.464 51.9991 135.652 54.8101 137.907C57.2201 139.84 60.5571 140.11 63.6381 139.886C73.3201 139.181 82.7791 134.44 92.3471 136.089C99.7241 137.361 109.028 133.461 97.6591 130.01C93.5341 128.758 89.1341 130.406 85.0211 128.88C81.4101 127.54 78.8661 124.176 75.6971 122.12Z" fill="#A4DFF1"/>
<path d="M295.912 138.731C292.728 138.98 289.533 138.904 286.348 138.818C275.42 138.536 264.503 138.255 253.574 137.973C251.776 137.919 249.448 137.215 249.209 134.507C249.111 133.413 249.426 132.33 249.826 131.409C251.353 127.911 254.072 125.983 256.779 125.225C257.082 125.138 257.386 125.073 257.689 125.008C259.238 125.864 260.473 127.163 261.144 128.95C261.35 129.513 261.534 130.13 262.01 130.499C262.887 131.16 264.122 130.542 265.043 129.936C269.343 127.098 274.033 124.336 279.177 124.315C286.878 124.293 293.473 130.749 295.726 138.103C295.793 138.308 295.847 138.514 295.912 138.731Z" fill="#A4DFF1"/>
<path d="M197.799 83.4889C199.706 77.8059 205.53 73.6859 211.524 73.7799C205.531 77.3509 201.062 83.3909 199.399 90.1659C196.088 89.3729 194.637 85.5969 192.353 83.0729C188.73 79.0689 183.198 78.4729 178.234 77.4959C184.885 73.6399 195.723 74.4949 197.799 83.4889Z" fill="#E4F9FF"/>
<path d="M103.327 114.078C96.9531 108.48 87.8721 106.121 79.5801 107.91C81.7941 104.715 86.2021 103.669 90.0261 104.367C93.8501 105.066 97.2441 107.181 100.532 109.254C99.3611 108.515 102.871 102.644 103.503 102.159C105.082 105.168 103.352 110.68 103.327 114.078Z" fill="#A4DFF1"/>
<path d="M293.656 85.9488L293.156 85.9448C293.212 76.7368 291.617 68.6998 288.415 62.0568C284.636 54.2138 278.366 48.1638 271.213 45.4588C263.201 42.4298 254.158 43.7468 248.183 48.8178C245.592 51.0148 243.648 53.8068 242.559 56.8898L242.088 56.7238C243.205 53.5568 245.201 50.6918 247.859 48.4368C253.972 43.2498 263.209 41.8958 271.391 44.9918C278.663 47.7408 285.032 53.8828 288.867 61.8398C292.101 68.5508 293.713 76.6628 293.656 85.9488Z" fill="#E4F9FF"/>
<path d="M289.871 88.287L290.085 85.426L290.583 85.463L290.508 86.479C295.086 79.433 296.443 70.206 294.034 62.161C291.536 53.816 284.955 46.6361 276.86 43.4211C273.155 41.9491 268.898 41.15 264.209 41.047C258.533 40.929 252.936 41.79 247.566 43.627L247.404 43.1541C252.832 41.2981 258.498 40.424 264.22 40.547C268.969 40.652 273.284 41.462 277.044 42.956C285.277 46.227 291.971 53.53 294.512 62.019C297.053 70.505 295.475 80.286 290.393 87.543L289.871 88.287Z" fill="#E4F9FF"/>
<path d="M346.751 114.228C346.272 114.228 345.793 114.212 345.313 114.182L345.344 113.684C347.526 113.821 349.71 113.639 351.841 113.145C352.37 113.022 352.972 112.86 353.406 112.494C353.864 112.106 354.165 111.453 354.253 110.652C354.459 108.777 353.551 106.755 351.823 105.242C350.341 103.943 348.528 103.143 346.26 102.343C343.544 101.383 340.326 100.398 336.961 100.483C333.507 100.555 330.415 101.82 328.481 103.953L328.079 104.396L328.046 103.798C327.836 99.9399 326.625 96.1809 324.543 92.9279C324.161 92.3289 323.727 91.7239 323.138 91.3549C322.368 90.8729 321.368 90.8169 320.591 90.8319C313.097 90.9199 306.128 96.7559 304.727 104.119L304.237 104.025C305.68 96.4369 312.862 90.4219 320.586 90.3319C321.432 90.3179 322.523 90.3799 323.404 90.9309C324.077 91.3529 324.552 92.0109 324.966 92.6579C326.991 95.8239 328.211 99.4599 328.509 103.205C330.546 101.221 333.588 100.053 336.953 99.9819C340.382 99.9009 343.67 100.897 346.428 101.872C348.75 102.691 350.613 103.515 352.155 104.865C354.005 106.486 354.975 108.67 354.751 110.707C354.68 111.363 354.444 112.272 353.73 112.876C353.213 113.314 352.542 113.496 351.957 113.632C350.245 114.028 348.5 114.228 346.751 114.228Z" fill="#E4F9FF"/>
<path d="M262.689 125.476L262.191 125.433C262.841 118.049 268.568 111.532 275.806 109.936C277.518 109.559 278.959 109.536 280.211 109.866C281.684 110.255 282.941 111.152 283.873 111.89C286.477 113.955 288.684 116.551 290.31 119.451L290.575 119.379L290.909 120.595L290.444 120.773C288.813 117.497 286.434 114.561 283.563 112.284C282.669 111.575 281.466 110.716 280.085 110.351C278.91 110.041 277.547 110.065 275.914 110.425C268.884 111.974 263.321 118.305 262.689 125.476Z" fill="#E4F9FF"/>
<path d="M199.954 84.403L199.455 84.367C199.682 80.318 197.486 76.217 193.992 74.16C190.498 72.101 185.844 72.175 182.417 74.337C180.858 75.319 179.559 76.679 178.303 77.993L177.942 77.647C179.219 76.311 180.54 74.929 182.15 73.913C185.734 71.654 190.594 71.579 194.247 73.728C197.483 75.633 199.653 79.218 199.94 82.955L200.083 82.968L199.954 84.403Z" fill="#E4F9FF"/>
<path d="M120.896 79.2989L120.397 79.2689C120.762 72.4459 121.14 65.3899 123.736 58.8839C126.645 51.5979 132.108 46.4459 138.349 45.1039C142.056 44.3059 146.208 45.1689 149.458 47.4119C151.758 48.9989 153.365 51.1259 154.089 53.5039C155.632 41.6259 158.3 32.3509 162.447 24.4089C167.793 14.1689 175.769 6.42992 184.909 2.61692C195.255 -1.69808 207.226 -0.610092 215.41 5.38691L215.115 5.78992C207.067 -0.106076 195.287 -1.17108 185.102 3.07792C176.07 6.84592 168.181 14.5039 162.89 24.6389C158.609 32.8379 155.913 42.4769 154.408 54.9739L154.189 56.7939L153.913 54.9809C153.486 52.1779 151.804 49.6359 149.174 47.8229C146.035 45.6569 142.028 44.8229 138.454 45.5919C132.375 46.8999 127.047 51.9379 124.2 59.0699C121.99 64.6059 121.405 70.5769 121.053 76.4599L121.083 76.4619L120.896 79.2989Z" fill="#A4DFF1"/>
<path d="M4.38909 117.496C3.73309 117.496 3.09109 117.397 2.51109 117.193C1.30309 116.769 0.462091 115.923 0.142091 114.813C-0.318909 113.21 0.429093 111.564 1.13809 110.464C4.35209 105.478 11.3871 103.503 16.7491 105.987C15.7111 101.534 16.5611 96.5638 19.1131 92.2618C21.7671 87.7888 25.9371 84.5848 30.5541 83.4718C35.1711 82.3618 40.3431 83.3098 44.7431 86.0808C49.1431 88.8528 52.2351 93.1068 53.2251 97.7528L52.7361 97.8558C51.7741 93.3418 48.7631 89.2048 44.4761 86.5038C40.1891 83.8038 35.1581 82.8748 30.6711 83.9568C26.1841 85.0388 22.1281 88.1578 19.5431 92.5158C16.9571 96.8728 16.1631 101.928 17.3641 106.384L17.5131 106.937L17.0071 106.671C11.8131 103.942 4.73809 105.801 1.55809 110.734C0.906091 111.746 0.214094 113.251 0.623094 114.673C0.974094 115.892 1.93409 116.459 2.67709 116.72C4.27309 117.283 6.38509 116.97 7.81309 115.963L8.10109 116.371C7.06609 117.102 5.70009 117.496 4.38909 117.496Z" fill="#A4DFF1"/>
<path d="M99.253 133.501L99.085 131.466L99.583 131.425L99.619 131.857C99.758 131.124 99.514 130.316 99.096 129.744C98.543 128.988 97.67 128.415 96.35 127.939C93.195 126.801 89.597 126.854 86.478 128.085L86.193 128.197L86.14 127.895C85.64 125.047 83.639 122.396 80.192 120.015C77.448 118.119 73.127 115.911 68.172 115.981C63.612 116.072 59.454 118.268 57.321 121.713C56.174 123.565 55.605 125.784 55.72 127.96L55.221 127.987C55.1 125.71 55.695 123.388 56.896 121.449C59.118 117.862 63.435 115.576 68.162 115.481C73.248 115.384 77.671 117.667 80.476 119.603C83.919 121.982 85.969 124.641 86.575 127.512C89.739 126.343 93.345 126.322 96.519 127.467C97.938 127.978 98.884 128.608 99.499 129.447C100.196 130.4 100.471 131.924 99.647 132.991L99.253 133.501Z" fill="#A4DFF1"/>
<path d="M130.784 115.332L130.49 115.143C126.533 112.589 121.33 112.021 116.912 113.656L116.738 113.187C121.193 111.538 126.42 112.06 130.469 114.54C132.24 108.029 138.323 103.013 145.067 102.555C145.516 102.524 145.993 102.452 146.115 102.143C146.121 102.129 146.133 102.097 146.081 102.037C145.997 101.942 145.861 101.908 145.824 101.916L145.366 101.903C145.359 101.7 145.455 101.534 145.624 101.458C145.879 101.342 146.213 101.472 146.408 101.657C146.607 101.847 146.671 102.098 146.58 102.328C146.324 102.971 145.498 103.027 145.101 103.054C138.455 103.506 132.469 108.528 130.869 114.994L130.784 115.332Z" fill="#A4DFF1"/>
<path d="M285.598 108.502L284.594 105.015L285.074 104.876L285.557 106.557C286.084 104.299 286.479 101.95 286.077 99.6978C285.661 97.3658 284.071 94.7258 281.456 94.0898C278.332 93.3218 275.277 95.6718 273.247 97.4978L272.014 98.6078L272.866 97.1838C277.458 89.5038 277.985 79.6848 274.241 71.5578C272.215 67.1608 269.183 63.9928 265.704 62.6378C263.38 61.7328 260.548 61.5078 257.29 61.9638C251.769 62.7398 246.976 65.1338 243.792 68.7028C240.218 72.7118 238.851 78.2968 240.31 82.9298L239.833 83.0798C238.322 78.2818 239.73 72.5078 243.419 68.3708C246.681 64.7128 251.582 62.2618 257.22 61.4688C260.563 60.9988 263.479 61.2348 265.886 62.1708C269.487 63.5738 272.616 66.8328 274.696 71.3488C278.309 79.1918 278.015 88.5818 273.994 96.1988C276.043 94.5348 278.752 92.9128 281.577 93.6028C284.41 94.2938 286.127 97.1178 286.571 99.6098C287.046 102.265 286.462 105.011 285.824 107.595L285.598 108.502Z" fill="#A4DFF1"/>
<path d="M116.563 79.691C113.75 71.296 113.899 62.767 116.985 55.675C120.424 47.77 127.7 42.073 135.52 41.163C143.966 40.184 152.602 45.308 155.192 52.834L154.719 52.996C152.202 45.683 143.797 40.705 135.578 41.659C127.931 42.55 120.813 48.13 117.443 55.874C114.407 62.853 114.263 71.254 117.036 79.532L116.563 79.691Z" fill="#A4DFF1"/>
<path d="M166.644 93.677L165.9 92.656C163.586 89.48 159.864 87.471 155.941 87.283C152.012 87.103 148.117 88.734 145.508 91.67L145.135 91.338C147.842 88.289 151.894 86.601 155.964 86.783C159.71 86.964 163.281 88.743 165.698 91.593C165.473 89.036 166.69 86.175 169.136 83.592C174.008 78.443 181.391 75.911 188.4 76.987L188.324 77.481C181.474 76.429 174.261 78.903 169.5 83.935C168.249 85.256 165.437 88.73 166.345 92.449L166.644 93.677Z" fill="#E4F9FF"/>
<path d="M342.865 118.296L342.752 117.81C345.865 117.09 348.989 116.267 352.036 115.362C353.94 114.797 356.057 114.052 357.059 112.347C357.679 111.296 357.852 109.912 357.572 108.235C356.95 104.526 354.499 100.905 350.671 98.04C348.398 96.339 344.866 94.349 340.951 94.513C334.739 94.777 330.022 100.137 326.088 105.141L325.695 104.832C329.697 99.74 334.506 94.286 340.929 94.013C344.983 93.851 348.632 95.89 350.969 97.64C354.902 100.583 357.421 104.317 358.064 108.154C358.365 109.951 358.171 111.447 357.49 112.602C356.395 114.462 354.174 115.249 352.178 115.841C349.122 116.748 345.988 117.575 342.865 118.296Z" fill="#E4F9FF"/>
<path d="M104.373 104.934C102.828 98.9679 105.58 92.0988 111.064 88.2288C115.926 84.7958 122.749 83.7218 129.314 85.3608C131.653 85.9428 133.322 86.7299 134.566 87.8379C135.798 88.9339 136.758 90.4718 137.502 92.5388C138.749 96.0088 139.014 99.9049 138.245 103.51L137.757 103.406C138.505 99.8898 138.247 96.0919 137.031 92.7089C136.317 90.7209 135.402 89.2498 134.234 88.2108C133.052 87.1598 131.45 86.4078 129.192 85.8458C122.768 84.2468 116.098 85.2888 111.351 88.6378C106.033 92.3908 103.362 99.0398 104.856 104.81L104.373 104.934Z" fill="#2EBDE5"/>
<path d="M159.034 124.173L158.61 123.913L160.109 120.835L160.224 120.891C160.896 118.996 161.109 116.873 160.809 114.746C160.338 111.405 158.659 108.428 156.199 106.576C153.74 104.722 150.414 103.931 147.073 104.401C143.732 104.872 140.755 106.551 138.901 109.011L138.503 108.71C140.435 106.145 143.532 104.394 147.003 103.905C150.468 103.414 153.935 104.242 156.5 106.175C159.065 108.106 160.816 111.204 161.305 114.674C161.794 118.147 160.967 121.609 159.034 124.173Z" fill="#2EBDE5"/>
<path d="M49.05 104.969C48.861 103.226 50.027 101.742 51.315 100.399C53.202 98.4299 55.204 96.5239 57.265 94.7359C59.335 92.9389 61.617 91.1359 64.275 90.1229C68.496 88.5119 73.248 89.0389 77.753 89.8489C80.468 90.3369 83.596 90.9789 86.358 92.4199C89.368 93.9899 91.503 96.3239 92.37 98.9919C92.531 99.4869 92.705 99.7269 92.902 99.7269C92.904 99.7269 92.907 99.7269 92.91 99.7269C92.893 99.7179 92.869 99.6019 92.838 99.5669C92.848 99.5779 92.887 99.6009 92.939 99.5989C92.997 99.5969 93.032 99.5669 93.04 99.5569L92.599 99.3199C92.721 99.0999 92.908 99.0719 93.042 99.1179C93.287 99.2019 93.414 99.5519 93.375 99.8159C93.339 100.057 93.164 100.219 92.927 100.227C92.918 100.227 92.908 100.227 92.899 100.227C92.247 100.227 91.991 99.4439 91.895 99.1459C91.069 96.6039 89.021 94.3729 86.127 92.8629C83.427 91.4539 80.343 90.8219 77.664 90.3409C73.23 89.5439 68.56 89.0239 64.454 90.5899C61.869 91.5759 59.628 93.3479 57.593 95.1129C55.543 96.8919 53.552 98.7869 51.676 100.745C50.471 102.001 49.38 103.376 49.547 104.915L49.05 104.969Z" fill="#2EBDE5"/>
<path d="M105.717 102.024C105.308 98.5919 106.603 94.9718 109.094 92.5768C111.571 90.1948 115.252 88.8219 120.348 88.3809C121.847 88.2509 123.815 88.1489 125.735 88.5069C131.013 89.4959 135.34 94.0779 136.023 99.4039L135.527 99.4679C134.871 94.3519 130.714 89.9478 125.643 88.9988C123.783 88.6488 121.858 88.7508 120.391 88.8788C115.414 89.3108 111.831 90.6378 109.44 92.9388C107.059 95.2268 105.822 98.6868 106.213 101.966L105.717 102.024Z" fill="#2EBDE5"/>
<path d="M41.7961 123.596C37.9281 123.596 34.0351 122.466 30.8581 120.314C29.9761 119.716 28.7771 118.762 28.5601 117.392C28.4281 116.557 28.6811 115.746 28.9741 114.993C31.8981 107.489 40.0821 102.479 48.0891 103.242C48.5661 94.1538 58.8911 86.7218 67.9921 85.6998C76.8641 84.6968 86.3051 90.0858 90.4371 98.4988L89.9881 98.7198C85.9461 90.4888 76.7221 85.2248 68.0481 86.1968C59.0611 87.2078 48.8551 94.5728 48.5781 103.527L48.5701 103.798L48.3001 103.768C40.4221 102.89 32.3171 107.792 29.4401 115.176C29.1731 115.864 28.9411 116.598 29.0551 117.316C29.2421 118.495 30.3341 119.356 31.1401 119.902C35.7661 123.035 41.9501 123.944 47.2821 122.278L47.4311 122.755C45.6181 123.32 43.7101 123.596 41.7961 123.596Z" fill="#2EBDE5"/>
</svg>
