<svg width="54" height="54" viewBox="0 0 54 54" fill="none" xmlns="http://www.w3.org/2000/svg">
<g clip-path="url(#clip0_580_144)">
<mask id="path-1-outside-1_580_144" maskUnits="userSpaceOnUse" x="0" y="0" width="54" height="54" fill="black">
<rect fill="white" width="54" height="54"/>
<path fill-rule="evenodd" clip-rule="evenodd" d="M31.2426 10.7579L27 3L22.7574 10.7579L15.0003 15.0005L15 15L10.7574 22.7579L3 27.0007L10.7574 31.2421L15 39L19.2426 31.2421L26.9994 27.001L22.7574 34.7579L15 39.0007L22.7574 43.2421L27 51L31.2426 43.2421L39 39.0007L31.2426 34.7579L27.0006 27.001L34.7574 31.2421L39 39L43.2426 31.2421L51 27.0007L43.2426 22.7579L39 15L38.9997 15.0005L31.2426 10.7579ZM38.9994 15.001L31.2426 19.2421L27 27L22.7574 19.2421L15.0006 15.001L19.2426 22.7579L26.9997 27.0005L27 27L27.0003 27.0005L34.7574 22.7579L38.9994 15.001Z"/>
</mask>
<path fill-rule="evenodd" clip-rule="evenodd" d="M31.2426 10.7579L27 3L22.7574 10.7579L15.0003 15.0005L15 15L10.7574 22.7579L3 27.0007L10.7574 31.2421L15 39L19.2426 31.2421L26.9994 27.001L22.7574 34.7579L15 39.0007L22.7574 43.2421L27 51L31.2426 43.2421L39 39.0007L31.2426 34.7579L27.0006 27.001L34.7574 31.2421L39 39L43.2426 31.2421L51 27.0007L43.2426 22.7579L39 15L38.9997 15.0005L31.2426 10.7579ZM38.9994 15.001L31.2426 19.2421L27 27L22.7574 19.2421L15.0006 15.001L19.2426 22.7579L26.9997 27.0005L27 27L27.0003 27.0005L34.7574 22.7579L38.9994 15.001Z" fill="#09342E"/>
<path d="M27 3L29.6321 1.56055C29.1059 0.598379 28.0966 -4.66986e-06 27 0C25.9033 4.66991e-06 24.8941 0.598397 24.3679 1.56057L27 3ZM31.2426 10.7579L28.6105 12.1973C28.8858 12.7007 29.2997 13.1146 29.8031 13.3899L31.2426 10.7579ZM22.7574 10.7579L24.197 13.3899C24.7004 13.1146 25.1143 12.7007 25.3896 12.1973L22.7574 10.7579ZM15.0003 15.0005L12.3673 16.4384C12.7488 17.137 13.3923 17.6554 14.1561 17.8793C14.92 18.1033 15.7415 18.0146 16.4399 17.6326L15.0003 15.0005ZM15 15L17.633 13.5622C17.1072 12.5994 16.0979 12.0003 15.0009 12C13.9039 11.9997 12.8942 12.5981 12.3679 13.5606L15 15ZM10.7574 22.7579L12.197 25.3899C12.7004 25.1146 13.1143 24.7007 13.3896 24.1973L10.7574 22.7579ZM3 27.0007L1.56044 24.3687C0.598267 24.8949 -7.64828e-05 25.9042 7.29697e-09 27.0009C7.64974e-05 28.0976 0.59856 29.1068 1.5608 29.633L3 27.0007ZM10.7574 31.2421L13.3896 29.8027C13.1142 29.2992 12.7002 28.8852 12.1966 28.6099L10.7574 31.2421ZM15 39L12.3679 40.4394C12.8941 41.4016 13.9033 42 15 42C16.0966 42 17.1059 41.4016 17.6321 40.4395L15 39ZM19.2426 31.2421L17.8034 28.6099C17.2999 28.8852 16.8859 29.2992 16.6105 29.8027L19.2426 31.2421ZM26.9994 27.001L29.6316 28.4404C30.2707 27.2718 30.0627 25.8217 29.1209 24.8798C28.179 23.9379 26.7289 23.7298 25.5602 24.3688L26.9994 27.001ZM22.7574 34.7579L24.197 37.3899C24.7004 37.1146 25.1143 36.7007 25.3896 36.1973L22.7574 34.7579ZM15 39.0007L13.5604 36.3687C12.5983 36.8949 11.9999 37.9042 12 39.0009C12.0001 40.0976 12.5986 41.1068 13.5608 41.633L15 39.0007ZM22.7574 43.2421L25.3896 41.8027C25.1142 41.2992 24.7002 40.8852 24.1966 40.6099L22.7574 43.2421ZM27 51L24.3679 52.4394C24.8941 53.4016 25.9033 54 27 54C28.0966 54 29.1059 53.4016 29.6321 52.4395L27 51ZM31.2426 43.2421L29.8034 40.6099C29.2999 40.8852 28.8859 41.2992 28.6105 41.8027L31.2426 43.2421ZM39 39.0007L40.4392 41.633C41.4014 41.1068 41.9999 40.0976 42 39.0009C42.0001 37.9042 41.4017 36.8949 40.4396 36.3687L39 39.0007ZM31.2426 34.7579L28.6105 36.1973C28.8858 36.7007 29.2997 37.1146 29.8031 37.3899L31.2426 34.7579ZM27.0006 27.001L28.4398 24.3688C27.271 23.7298 25.821 23.9379 24.8791 24.8798C23.9373 25.8217 23.7293 27.2718 24.3685 28.4405L27.0006 27.001ZM34.7574 31.2421L37.3896 29.8027C37.1142 29.2992 36.7002 28.8852 36.1966 28.6099L34.7574 31.2421ZM39 39L36.3679 40.4394C36.8941 41.4016 37.9033 42 39 42C40.0966 42 41.1059 41.4016 41.6321 40.4395L39 39ZM43.2426 31.2421L41.8034 28.6099C41.2999 28.8852 40.8859 29.2992 40.6105 29.8027L43.2426 31.2421ZM51 27.0007L52.4392 29.633C53.4014 29.1068 53.9999 28.0976 54 27.0009C54.0001 25.9042 53.4017 24.8949 52.4396 24.3687L51 27.0007ZM43.2426 22.7579L40.6105 24.1973C40.8858 24.7007 41.2997 25.1146 41.8031 25.3899L43.2426 22.7579ZM39 15L41.6321 13.5605C41.1064 12.5994 40.0986 12.0011 39.0031 12C37.9076 11.9989 36.8985 12.595 36.3709 13.5551L39 15ZM38.9997 15.0005L37.5601 17.6326C39.0117 18.4265 40.832 17.8954 41.6288 16.4454L38.9997 15.0005ZM38.9994 15.001L41.6316 16.4404C42.2707 15.2718 42.0627 13.8217 41.1209 12.8798C40.179 11.9379 38.7289 11.7298 37.5602 12.3688L38.9994 15.001ZM31.2426 19.2421L29.8034 16.6099C29.2999 16.8852 28.8859 17.2992 28.6105 17.8027L31.2426 19.2421ZM22.7574 19.2421L25.3896 17.8027C25.1142 17.2992 24.7002 16.8852 24.1966 16.6099L22.7574 19.2421ZM15.0006 15.001L16.4398 12.3688C15.271 11.7298 13.8209 11.9379 12.8791 12.8798C11.9373 13.8217 11.7293 15.2718 12.3684 16.4405L15.0006 15.001ZM19.2426 22.7579L16.6105 24.1973C16.8858 24.7007 17.2997 25.1146 17.8031 25.3899L19.2426 22.7579ZM26.9997 27.0005L25.5601 29.6326C26.2588 30.0147 27.0808 30.1034 27.8449 29.879C28.609 29.6547 29.2526 29.1357 29.6337 28.4365L26.9997 27.0005ZM27.0003 27.0005L24.3663 28.4365C24.7474 29.1357 25.391 29.6547 26.1551 29.879C26.9192 30.1034 27.7412 30.0147 28.4399 29.6326L27.0003 27.0005ZM34.7574 22.7579L36.197 25.3899C36.7004 25.1146 37.1143 24.7007 37.3896 24.1973L34.7574 22.7579ZM24.3679 4.43945L28.6105 12.1973L33.8747 9.31842L29.6321 1.56055L24.3679 4.43945ZM25.3896 12.1973L29.6321 4.43943L24.3679 1.56057L20.1253 9.31845L25.3896 12.1973ZM16.4399 17.6326L24.197 13.3899L21.3179 8.12583L13.5607 12.3685L16.4399 17.6326ZM12.367 16.4378L12.3673 16.4384L17.6333 13.5627L17.633 13.5622L12.367 16.4378ZM13.3896 24.1973L17.6321 16.4394L12.3679 13.5606L8.12533 21.3184L13.3896 24.1973ZM4.43956 29.6328L12.197 25.3899L9.31788 20.1258L1.56044 24.3687L4.43956 29.6328ZM12.1966 28.6099L4.4392 24.3685L1.5608 29.633L9.31825 33.8744L12.1966 28.6099ZM17.6321 37.5606L13.3896 29.8027L8.12533 32.6816L12.3679 40.4394L17.6321 37.5606ZM16.6105 29.8027L12.3679 37.5605L17.6321 40.4395L21.8747 32.6816L16.6105 29.8027ZM25.5602 24.3688L17.8034 28.6099L20.6818 33.8744L28.4387 29.6333L25.5602 24.3688ZM25.3896 36.1973L29.6316 28.4404L24.3673 25.5616L20.1253 33.3184L25.3896 36.1973ZM16.4396 41.6328L24.197 37.3899L21.3179 32.1258L13.5604 36.3687L16.4396 41.6328ZM24.1966 40.6099L16.4392 36.3685L13.5608 41.633L21.3183 45.8744L24.1966 40.6099ZM29.6321 49.5606L25.3896 41.8027L20.1253 44.6816L24.3679 52.4394L29.6321 49.5606ZM28.6105 41.8027L24.3679 49.5605L29.6321 52.4395L33.8747 44.6816L28.6105 41.8027ZM37.5608 36.3685L29.8034 40.6099L32.6818 45.8744L40.4392 41.633L37.5608 36.3685ZM29.8031 37.3899L37.5604 41.6328L40.4396 36.3687L32.6822 32.1258L29.8031 37.3899ZM24.3685 28.4405L28.6105 36.1973L33.8747 33.3184L29.6327 25.5616L24.3685 28.4405ZM36.1966 28.6099L28.4398 24.3688L25.5614 29.6333L33.3183 33.8744L36.1966 28.6099ZM41.6321 37.5606L37.3896 29.8027L32.1253 32.6816L36.3679 40.4394L41.6321 37.5606ZM40.6105 29.8027L36.3679 37.5605L41.6321 40.4395L45.8747 32.6816L40.6105 29.8027ZM49.5608 24.3685L41.8034 28.6099L44.6818 33.8744L52.4392 29.633L49.5608 24.3685ZM41.8031 25.3899L49.5604 29.6328L52.4396 24.3687L44.6822 20.1258L41.8031 25.3899ZM36.3679 16.4395L40.6105 24.1973L45.8747 21.3184L41.6321 13.5605L36.3679 16.4395ZM41.6288 16.4454L41.6291 16.4449L36.3709 13.5551L36.3706 13.5557L41.6288 16.4454ZM29.8031 13.3899L37.5601 17.6326L40.4393 12.3685L32.6822 8.12584L29.8031 13.3899ZM37.5602 12.3688L29.8034 16.6099L32.6818 21.8744L40.4387 17.6333L37.5602 12.3688ZM28.6105 17.8027L24.3679 25.5605L29.6321 28.4395L33.8747 20.6816L28.6105 17.8027ZM29.6321 25.5606L25.3896 17.8027L20.1253 20.6816L24.3679 28.4394L29.6321 25.5606ZM24.1966 16.6099L16.4398 12.3688L13.5614 17.6333L21.3183 21.8744L24.1966 16.6099ZM12.3684 16.4405L16.6105 24.1973L21.8747 21.3184L17.6327 13.5616L12.3684 16.4405ZM17.8031 25.3899L25.5601 29.6326L28.4393 24.3685L20.6822 20.1258L17.8031 25.3899ZM29.6337 28.4365L29.634 28.4359L24.366 25.5641L24.3657 25.5646L29.6337 28.4365ZM24.366 28.4359L24.3663 28.4365L29.6343 25.5646L29.634 25.5641L24.366 28.4359ZM28.4399 29.6326L36.197 25.3899L33.3179 20.1258L25.5607 24.3685L28.4399 29.6326ZM37.3896 24.1973L41.6316 16.4404L36.3673 13.5616L32.1253 21.3184L37.3896 24.1973Z" fill="#FFF8BB" mask="url(#path-1-outside-1_580_144)"/>
</g>
<defs>
<clipPath id="clip0_580_144">
<rect width="54" height="54" fill="white"/>
</clipPath>
</defs>
</svg>
