<svg width="20" height="21" viewBox="0 0 20 21" fill="none" xmlns="http://www.w3.org/2000/svg">
<path fill-rule="evenodd" clip-rule="evenodd" d="M9.99908 0.820312C4.47772 0.820312 0 5.41076 0 11.0737C0 15.6031 2.86503 19.4464 6.83876 20.8028C7.33909 20.8965 7.52141 20.58 7.52141 20.3081C7.52141 20.0644 7.51281 19.42 7.5079 18.5645C4.72636 19.1839 4.13948 17.1899 4.13948 17.1899C3.68458 16.0053 3.02895 15.69 3.02895 15.69C2.12101 15.0543 3.09771 15.0669 3.09771 15.0669C4.10142 15.1393 4.62937 16.1237 4.62937 16.1237C5.52135 17.6902 6.97014 17.2377 7.53983 16.9752C7.63069 16.3131 7.88913 15.8611 8.17459 15.605C5.95414 15.3456 3.61952 14.4663 3.61952 10.5375C3.61952 9.41769 4.00934 8.50314 4.64901 7.78622C4.54588 7.5269 4.20272 6.48455 4.74723 5.07274C4.74723 5.07274 5.58641 4.79703 7.49685 6.12324C8.2943 5.89602 9.15007 5.78273 10.0003 5.77832C10.8499 5.78273 11.7051 5.89602 12.5038 6.12324C14.413 4.79703 15.2509 5.07274 15.2509 5.07274C15.7967 6.48455 15.4535 7.5269 15.351 7.78622C15.9919 8.50314 16.3786 9.41769 16.3786 10.5375C16.3786 14.4764 14.0403 15.3432 11.8131 15.5968C12.1716 15.9134 12.4915 16.5391 12.4915 17.4958C12.4915 18.866 12.4792 19.9719 12.4792 20.3081C12.4792 20.5824 12.6597 20.9016 13.1668 20.8015C17.1374 19.4426 20 15.6024 20 11.0737C20 5.41076 15.5222 0.820312 9.99908 0.820312Z" fill="#09342E"/>
</svg>
