<svg width="54" height="54" viewBox="0 0 54 54" fill="none" xmlns="http://www.w3.org/2000/svg">
<path fill-rule="evenodd" clip-rule="evenodd" d="M31.234 11.4808L27.1429 4L23.0518 11.4808L15.5717 15.572L15.5714 15.5714L11.4804 23.0522L4 27.1435L11.4804 31.2335L15.5714 38.7143L19.6625 31.2335L27.1423 27.1438L23.0518 34.6237L15.5714 38.715L23.0518 42.8049L27.1429 50.2857L31.234 42.8049L38.7143 38.715L31.234 34.6237L27.1434 27.1438L34.6233 31.2335L38.7143 38.7143L42.8054 31.2335L50.2857 27.1435L42.8054 23.0522L38.7143 15.5714L38.714 15.572L31.234 11.4808ZM38.7138 15.5724L31.234 19.6621L27.1429 27.1429L23.0518 19.6621L15.572 15.5724L19.6625 23.0522L27.1426 27.1434L27.1429 27.1429L27.1431 27.1434L34.6233 23.0522L38.7138 15.5724Z" fill="#09342E"/>
</svg>
