<svg width="56" height="56" viewBox="0 0 56 56" fill="none" xmlns="http://www.w3.org/2000/svg">
<rect width="56" height="56" fill="white"/>
<path fill-rule="evenodd" clip-rule="evenodd" d="M32.2426 11.7579L28 4L23.7574 11.7579L16.0003 16.0005L16 16L11.7574 23.7579L4 28.0007L11.7574 32.2421L16 40L20.2426 32.2421L27.9994 28.001L23.7574 35.7579L16 40.0007L23.7574 44.2421L28 52L32.2426 44.2421L40 40.0007L32.2426 35.7579L28.0006 28.001L35.7574 32.2421L40 40L44.2426 32.2421L52 28.0007L44.2426 23.7579L40 16L39.9997 16.0005L32.2426 11.7579ZM39.9994 16.001L32.2426 20.2421L28 28L23.7574 20.2421L16.0006 16.001L20.2426 23.7579L27.9997 28.0005L28 28L28.0003 28.0005L35.7574 23.7579L39.9994 16.001Z" fill="#09342E"/>
</svg>
