<svg width="42" height="42" viewBox="0 0 42 42" fill="none" xmlns="http://www.w3.org/2000/svg">
<path d="M20.0942 24.7628L28.1244 29.44V34.8228L20.0942 30.1448V24.7628Z" fill="#7DD4C0"/>
<path d="M36.9554 22.311L32.5817 21.228L28.4231 20.1982C28.4231 20.6871 28.2419 21.192 27.8802 21.7121C27.5178 22.2322 26.9486 22.7163 26.172 23.1645C25.2715 23.6845 24.2825 24.0898 23.2057 24.3803C22.1282 24.6708 21.0915 24.8084 20.0935 24.7932L25.9458 28.2021L28.1237 29.4705L33.0755 30.7921L38.0378 25.7393L36.9554 22.311Z" fill="#F7CE00"/>
<path d="M33.1579 31.0923L27.9896 29.7028L19.8259 24.9481V24.5539C20.7949 24.5677 22.0888 24.4038 23.1359 24.1216C24.1851 23.8388 25.1616 23.4383 26.0379 22.9328C26.7765 22.506 27.3222 22.0441 27.6597 21.5592C27.9882 21.0876 28.1542 20.6297 28.1542 20.1989V19.8558L37.165 22.0869L38.3421 25.8133L33.1579 31.0923ZM28.2282 29.2208L32.994 30.4926L37.7335 25.6667L36.7445 22.5358L28.6667 20.5357C28.6017 20.9721 28.4121 21.4182 28.1009 21.8663C27.7178 22.4168 27.114 22.9321 26.3069 23.3975C25.3905 23.9266 24.3711 24.3443 23.2763 24.6396C22.5156 24.845 21.7659 24.9764 21.0376 25.0318L28.2282 29.2208Z" fill="#09342E"/>
<path d="M41.6839 7.02458L33.6537 2.34729C31.5699 2.48008 29.5269 3.12465 27.5227 4.28169C25.2535 5.59158 23.4706 7.19679 22.1732 9.098C20.8757 10.9992 20.2263 12.9793 20.2263 15.0381C20.2263 16.1392 20.3785 17.0044 20.6835 17.6337C20.855 17.9885 20.9864 18.1842 21.2623 18.4201C21.2616 18.4221 21.3585 18.5204 21.3585 18.5204L29.8582 23.5199L29.881 23.4632L31.4371 21.0177C32.2332 20.0121 31.5063 19.8088 31.9787 18.7022C32.588 17.2755 31.3472 17.3218 31.3472 15.9351C31.3472 15.1557 33.5659 15.1903 33.393 14.6481L34.9048 10.8519L41.6839 7.02458Z" fill="#F7CE00"/>
<path d="M40.1693 17.7402L33.2568 13.6639L32.8508 17.5888L40.159 17.7762C40.179 17.7769 40.1866 17.7506 40.1693 17.7402Z" fill="#7DD4C0"/>
<path d="M22.5087 10.3913L32.1247 16.1067L33.7838 14.7373L34.8337 12.1009L41.1874 8.02532L33.5833 3.59631C31.4995 3.7291 29.4565 4.37367 27.4522 5.53072C25.2391 6.8081 23.7971 8.55093 22.5087 10.3913Z" fill="#E1FBF4"/>
<path d="M29.4551 30.2485L30.3694 30.4927L35.7777 29.4629L26.8533 24.2883C26.1326 24.6452 25.3608 24.9357 24.5371 25.1577C23.4596 25.4481 22.4229 25.5858 21.4249 25.5706L27.2772 28.9795L29.4551 30.2485Z" fill="#E1FBF4"/>
<path d="M40.262 17.4823L35.0577 14.415C35.203 14.3134 35.3586 14.2131 35.528 14.1156C36.7999 13.3811 38.3359 12.9661 40.0946 12.8818L40.2869 12.8728L41.9122 7.20512L42 6.89874L41.749 6.75281L33.7188 2.07483L33.6372 2.08036C31.5223 2.21522 29.4198 2.87777 27.3893 4.05003C25.0959 5.37376 23.2666 7.02184 21.9519 8.94725C20.6296 10.8851 19.9587 12.935 19.9587 15.0389C19.9587 16.1752 20.1212 17.0874 20.4421 17.7513C20.6171 18.113 20.7644 18.3468 21.0833 18.6214C21.1081 18.6497 21.1365 18.6788 21.1669 18.7099L29.5228 23.6348C29.5318 23.6403 29.5415 23.6451 29.5505 23.6514L30.0035 23.8844C30.0084 23.8865 30.0118 23.8893 30.0167 23.8913C30.691 24.1666 31.6571 24.2655 32.9746 24.1977C34.6801 24.0981 35.2859 24.114 35.4941 24.1452C35.7535 24.1846 35.9444 24.2586 36.046 24.3603C36.1387 24.4522 36.1857 24.6161 36.1857 24.8471C36.1857 25.278 36.019 25.7358 35.6905 26.2075C35.353 26.693 34.8074 27.155 34.0687 27.581C33.1925 28.0866 32.2159 28.487 31.1668 28.7699C30.1411 29.0465 29.1411 29.1786 28.1943 29.1717L20.4518 24.6618C20.3128 24.5809 20.1413 24.5809 20.0023 24.6618L19.8259 24.7641V30.3004L27.8561 34.9784L28.056 35.0946L28.3935 35.0759C29.2683 35.0289 30.1238 34.8719 30.9385 34.5966C31.8252 34.2965 32.9331 33.7646 34.2313 33.0149C35.7922 32.1138 37.1726 31.0107 38.3338 29.7367C39.4964 28.4614 40.3996 27.0803 41.0179 25.6328C41.6383 24.179 41.953 22.7239 41.953 21.3075C41.953 19.73 41.5975 18.5909 40.8962 17.9215C40.7164 17.7486 40.5055 17.6026 40.262 17.4823ZM27.8561 34.3559L20.3626 29.9913V25.2303L27.8561 29.595V34.3559ZM21.4367 18.2168C21.2071 18.0204 21.0923 17.8634 20.9249 17.5176C20.6393 16.9269 20.4947 16.0936 20.4947 15.0389C20.4947 13.045 21.1338 11.0974 22.3945 9.25018C23.6629 7.39116 25.4334 5.7984 27.6569 4.51479C29.5892 3.39924 31.5845 2.76227 33.5895 2.62119L40.8312 6.83995C38.9985 7.07717 37.1816 7.70998 35.4188 8.72733C33.1254 10.0517 31.2961 11.6991 29.9814 13.6252C28.6591 15.5631 27.9882 17.613 27.9882 19.7168C27.9882 20.8269 28.1445 21.7225 28.4516 22.3823L21.5826 18.3426L21.4367 18.2168ZM37.2211 17.0618C35.1041 17.1676 34.3641 17.0991 34.1151 17.0238C33.8357 16.9387 33.716 16.7651 33.716 16.4435C33.716 16.0922 33.8564 15.7083 34.1331 15.3031C34.2562 15.1225 34.4194 14.9469 34.6103 14.7747L38.4915 17.0639C38.1049 17.0369 37.6837 17.0355 37.2211 17.0618Z" fill="#09342E"/>
<path d="M11.8208 14.6156L11.771 14.5381C10.3152 12.9717 8.10622 10.5856 7.98796 10.4363C7.88975 10.2972 7.78809 10.1527 5.14133 10.5905L4.99471 10.6147L3.46143 14.6184L5.43249 21.1568L10.809 22.4556L13.9226 19.6926L11.8208 14.6156Z" fill="#09342E"/>
<path d="M6.28871 19.2728L11.4079 16.3625L12.8126 22.3746L7.92849 23.1222L5.63721 20.9396L6.28871 19.2728Z" fill="#147D6F"/>
<path d="M7.84202 23.3975L5.33289 21.0067L6.08052 19.0923L11.5815 15.9649L13.1286 22.5884L7.84202 23.3975ZM5.94219 20.8718L8.01492 22.847L12.4965 22.1609L11.2343 16.7596L6.49616 19.4526L5.94219 20.8718Z" fill="#09342E"/>
<path d="M10.5995 17.6337C10.6043 17.6766 8.11597 19.1456 8.11597 19.1456C8.11597 19.1456 9.61466 20.082 10.753 19.5349C11.8914 18.9872 11.3582 17.8488 11.3582 17.8488L10.5995 17.6337Z" fill="#E1FBF4"/>
<path d="M19.5342 41.5001L26.4716 37.401L19.9173 22.3013L12.9799 26.4004L19.5342 41.5001Z" fill="#F7CE00"/>
<path d="M19.5342 41.8017L19.3315 41.6848L12.6514 26.294L20.039 21.9286L26.8008 37.5076L19.5342 41.8017ZM13.3091 26.5077L19.6552 41.1281L26.1431 37.2952L19.797 22.6748L13.3091 26.5077Z" fill="#09342E"/>
<path d="M6.33444 24.4287V33.8787L0.258057 30.3709V4.39996L7.62636 8.65399C13.7387 12.1832 16.7956 16.5057 16.7956 21.6215C16.7956 24.63 15.523 26.222 12.98 26.3998L19.5343 41.4995L12.6412 37.52L7.87188 25.3167L6.33444 24.4287ZM6.33444 19.1532L7.47283 19.8102C9.59604 21.0357 10.6576 20.5654 10.6576 18.3979C10.6576 16.6102 9.61609 15.1142 7.53368 13.9122L6.33444 13.2199V19.1532Z" fill="#40C4AA"/>
<path d="M16.2761 24.9709L20.1159 22.7578L21.847 21.7598L22.0371 21.6291C23.1596 20.8801 23.7336 19.5204 23.7336 17.5224C23.7336 12.4066 20.6768 8.08411 14.5644 4.55487L7.19609 0.300842L0.258667 4.39996L7.62697 8.65399C13.7393 12.1832 16.7962 16.5057 16.7962 21.6215C16.7962 23.3339 16.3688 24.5712 15.5444 25.3665L15.5548 25.3866L16.2761 24.9709Z" fill="#F7CE00"/>
<path d="M13.2919 15.4897L20.232 11.3941C18.5867 9.50741 17.8384 8.22726 15.1184 6.66217L7.33441 2.16815L0.396973 6.26727L0.397669 6.26796L8.18163 10.7613C10.6085 12.334 11.7067 13.7898 13.2919 15.4897Z" fill="#E1FBF4"/>
<path d="M26.4717 37.401L21.1775 25.2033L14.4026 29.0257L13.3603 26.6245C14.3293 26.5014 15.1011 26.1563 15.6903 25.6086L21.9943 21.9735L22.1817 21.8449C23.3837 21.0419 23.9937 19.5882 23.9937 17.5224C23.9937 12.3312 20.8656 7.89254 14.6951 4.33011L7.19542 0L0 4.25195V30.5203L6.33645 34.1782L10.1852 31.9443L12.4343 37.6998L19.5356 41.8017L19.8648 41.6073L19.7604 41.3673L26.4717 37.401ZM7.19679 0.601688L14.4344 4.78033C18.9076 7.36277 21.7342 10.4051 22.8837 13.8555L16.3577 17.5687C15.1253 14.09 12.2524 11.0269 7.75629 8.4306L0.771824 4.39788L7.19679 0.601688ZM12.8499 37.3422L8.08067 25.139L6.07501 23.9805V33.4306L0.517328 30.2222V4.85019L7.49694 8.88014C13.4952 12.343 16.5362 16.6309 16.5362 21.6229C16.5362 21.9299 16.5161 22.2128 16.4891 22.4881C16.4815 22.5634 16.476 22.6423 16.4663 22.7156C16.4387 22.9307 16.3971 23.1306 16.3522 23.3249C16.3204 23.4556 16.2865 23.5836 16.2471 23.7053C16.236 23.7399 16.2222 23.771 16.2104 23.8049C16.0147 24.3616 15.7346 24.8236 15.3639 25.1812L15.3542 25.1929C14.7733 25.7462 13.9869 26.0705 12.9627 26.1425L12.5975 26.1681L18.9844 40.8832L12.8499 37.3422Z" fill="#09342E"/>
<path d="M7.66357 13.6881L6.07495 12.7711V19.3025L7.34266 20.0349C8.15321 20.5025 8.81992 20.7355 9.35798 20.7355C9.63324 20.7355 9.876 20.6747 10.0862 20.5529C10.6457 20.23 10.9168 19.5252 10.9168 18.3986C10.9168 16.5195 9.82206 14.9344 7.66357 13.6881ZM9.82689 20.1041C9.39118 20.3545 8.62212 20.1753 7.60201 19.5861L6.59365 19.0038V13.6694L7.40423 14.137C9.39119 15.2843 10.3981 16.718 10.3981 18.3986C10.3981 19.3108 10.2059 19.8849 9.82689 20.1041Z" fill="#09342E"/>
</svg>
