<svg width="135" height="85" viewBox="0 0 135 85" fill="none" xmlns="http://www.w3.org/2000/svg">
<path fill-rule="evenodd" clip-rule="evenodd" d="M124.643 33.3933C124.643 32.8621 124.618 32.3359 124.57 31.8156C124.404 30.0421 123.961 28.3371 123.279 26.7332C122.923 25.8969 122.502 25.0881 122.022 24.3115H9.10022V24.4369C9.34089 24.4148 9.58303 24.3971 9.82606 24.3828C9.34378 24.6859 9.12223 25.2308 9.38452 26.0177C9.6624 26.8514 10.7549 27.9565 13.9885 28.8026C13.5543 29.1805 13.1449 29.58 12.7627 29.9991C12.1875 30.6296 11.674 31.3046 11.2297 32.0171C11.086 32.2474 10.9496 32.4817 10.8208 32.7196C9.84757 34.5167 9.30313 36.5247 9.30313 38.6443C9.30313 46.1878 16.1917 52.3249 24.784 52.5453L24.783 52.5558C24.783 54.5141 25.7765 56.2032 27.2339 57.1108C27.5218 56.5704 27.8313 56.0448 28.1868 55.5554C27.9519 56.1417 27.7782 56.7425 27.6327 57.3475C28.2418 57.6482 28.9126 57.8244 29.6246 57.8244C30.4769 57.8244 31.2764 57.5841 31.9717 57.1643C34.006 66.3813 43.305 73.3458 54.4713 73.3458C62.3421 73.3458 69.2848 69.8852 73.4104 64.6152C74.453 65.1836 75.6122 65.5975 76.8366 65.8656C77.1431 65.0414 77.4289 64.2069 77.6847 63.3609C77.616 64.2308 77.5143 65.1008 77.3927 65.9707C78.1513 66.1027 78.9268 66.1962 79.7302 66.1962C83.8412 66.1962 87.4669 64.3814 89.6113 61.6227C88.2976 60.3755 87.2187 58.9514 86.4059 57.409C87.5162 58.726 88.8343 59.8382 90.2499 60.6978C90.3621 60.5154 90.4684 60.3293 90.5683 60.1406C91.0009 59.3232 91.3157 58.4486 91.4931 57.5335C91.6025 56.9687 91.6595 56.3885 91.6595 55.7967C93.8012 55.7967 95.6171 54.2826 96.2555 52.1853C96.298 52.0455 96.3353 51.9031 96.3672 51.7583C97.4576 52.0421 98.5865 52.2462 99.7402 52.3804C99.7289 52.3041 99.7204 52.228 99.7118 52.152C99.6998 52.046 99.6878 51.9395 99.6686 51.8332C99.2673 49.5079 98.5698 47.1909 97.5615 44.9955C98.9234 46.9976 100.021 49.197 100.842 51.5307C100.924 51.7561 100.991 51.9882 101.057 52.22C101.085 52.3164 101.113 52.4129 101.142 52.5087C101.645 52.539 102.151 52.5562 102.662 52.5562C114.801 52.5562 124.643 43.9773 124.643 33.3933ZM59.8867 53.9331C59.8293 53.8687 59.7719 53.8044 59.7101 53.7453C58.6352 52.7558 57.3152 51.9885 55.8653 51.6997C54.435 51.3909 52.8696 51.578 51.7021 52.3576C53.096 52.3233 54.3268 52.5925 55.4473 53.0739C56.5585 53.5697 57.573 54.2464 58.443 55.0905C59.3359 55.9106 60.0803 56.8929 60.7122 57.9656C61.3361 59.0497 61.8142 60.238 62.2091 61.5747C62.5885 60.2308 62.4897 58.7495 62.0344 57.3857C61.8213 56.7286 61.5179 56.1028 61.1488 55.5146C61.5198 54.6685 62.0803 53.8993 62.8276 53.3026C63.6945 52.6102 64.7745 52.1466 65.92 51.9407C68.2142 51.5238 70.7661 52.1279 72.6807 53.6964C70.9782 51.9021 68.4158 50.8825 65.8161 51.0218C64.5187 51.0903 63.2027 51.453 62.0384 52.162C61.2507 52.6403 60.5595 53.2951 59.9939 54.0508C59.9575 54.0124 59.9221 53.9727 59.8867 53.9331ZM39.3603 29.2197C40.2271 28.5287 41.3082 28.064 42.4537 27.8592C44.7468 27.4423 47.2987 28.0452 49.2131 29.6133C47.5106 27.8203 44.9482 26.8005 42.3485 26.9398C41.0513 27.0085 39.7354 27.3712 38.5711 28.0802C37.7832 28.5583 37.0919 29.2133 36.5276 29.969C36.4886 29.9283 36.4511 29.8863 36.4137 29.8443C36.3583 29.7822 36.3028 29.72 36.2428 29.6624C35.1679 28.674 33.8487 27.9057 32.3977 27.6168C30.9674 27.3091 29.402 27.4962 28.2346 28.2758C29.6295 28.2415 30.8592 28.5107 31.9798 28.9921C33.0909 29.4879 34.1054 30.1646 34.9765 31.0076C35.8683 31.8288 36.6127 32.81 37.2457 33.8827C37.8683 34.9681 38.3467 36.1552 38.7426 37.4918C39.1222 36.1488 39.0234 34.6664 38.567 33.3037C38.355 32.6457 38.0505 32.02 37.6814 31.4318C38.0526 30.5867 38.6129 29.8175 39.3603 29.2197Z" fill="#F1FCFF"/>
<path d="M76.8367 65.8657C75.6123 65.5975 74.4531 65.1836 73.4105 64.6152C69.2848 69.8853 62.3421 73.3459 54.4713 73.3459C43.305 73.3459 34.006 66.3814 31.9717 57.1643C31.2764 57.5842 30.477 57.8244 29.6246 57.8244C28.9127 57.8244 28.2421 57.6478 27.633 57.3472C27.4002 58.3109 27.2598 59.2889 27.212 60.2567C27.1342 61.8346 27.3159 63.3897 27.6995 64.8523L27.6767 64.8555C28.7484 69.4332 31.5258 73.5059 35.1714 76.4664C38.8024 79.4902 43.3447 81.3135 47.9965 82.0795C52.6751 82.7447 57.5316 82.3788 61.9649 80.7761C66.3412 79.2118 70.2985 76.5037 73.1706 72.9177C74.1664 71.6755 74.9991 70.1671 75.7142 68.6111C76.1194 67.7148 76.4917 66.797 76.8367 65.8657Z" fill="#D5F4FD"/>
<path d="M109.573 14.2306C109.573 14.5519 109.548 14.8677 109.505 15.1785C118.294 17.6869 124.643 24.8936 124.643 33.3933C124.643 43.9774 114.801 52.5563 102.662 52.5563C102.151 52.5563 101.645 52.5386 101.142 52.5083C101.4 53.3732 101.623 54.2537 101.788 55.1569C101.944 56.0197 102.017 56.9023 102.038 57.7971C107.469 59.0757 113.324 58.6631 118.52 56.5904C123.986 54.4116 128.742 50.231 131.092 44.8058C132.272 42.1073 132.772 39.1272 132.616 36.1678C132.434 33.2073 131.489 30.3072 130.015 27.7043C128.495 25.1255 126.462 22.8147 124.033 20.9956C123.414 20.558 122.815 20.0861 122.154 19.7097L121.18 19.113L120.168 18.5849C119.503 18.2075 118.789 17.9363 118.091 17.6214C117.382 17.321 116.578 17.058 115.862 16.7753L115.885 15.6308C115.851 15.2765 115.84 14.9283 115.778 14.5831C115.646 13.8961 115.469 13.2161 115.158 12.5925C114.579 11.3296 113.69 10.2183 112.592 9.37533C110.569 7.78393 107.961 7.05831 105.424 7.18718C105.389 7.3233 105.354 7.45963 105.314 7.59149C107.867 8.96783 109.573 11.4218 109.573 14.2306Z" fill="#D5F4FD"/>
<path d="M99.7404 52.3805C98.5866 52.2463 97.4578 52.0417 96.3673 51.7579C95.8581 54.0739 93.9443 55.7963 91.6597 55.7963C91.6597 57.5686 91.1483 59.237 90.2501 60.6974C90.3706 60.7702 90.4871 60.8545 90.6096 60.924C91.3881 61.3648 92.2104 61.6859 93.0275 61.9103C93.595 62.0642 94.1647 62.1297 94.7241 62.1474L95.1689 62.1525C95.2709 62.1514 95.3748 62.1525 95.4755 62.1495C96.41 62.1433 97.3279 61.7847 98.0556 61.1412C98.8008 60.4894 99.3455 59.5726 99.5783 58.5686L99.8008 57.6123C99.9079 56.8607 99.9858 56.0978 99.9764 55.3182C99.963 54.3472 99.8849 53.3617 99.7404 52.3805Z" fill="#D5F4FD"/>
<path d="M89.9027 61.9095C89.8009 61.818 89.7113 61.7162 89.6115 61.6226C87.467 64.3814 83.8413 66.1962 79.7302 66.1962C78.9267 66.1962 78.1512 66.1028 77.3925 65.9707C77.2511 66.9779 77.0795 67.9852 76.8653 68.9914C76.5848 70.2471 76.2438 71.5017 75.7636 72.7481C77.4245 73.5277 79.2459 73.9819 81.094 74.0527C83.2083 74.1255 85.3278 73.7491 87.2509 72.9156C89.1822 72.111 90.8839 70.7867 92.1188 69.1548C92.7529 68.344 93.1956 67.4179 93.5542 66.4729C93.8068 65.7556 93.9483 65.0104 94.021 64.2558C93.4441 64.0864 92.8881 63.8762 92.3684 63.605C91.4619 63.1288 90.6334 62.5632 89.9027 61.9095Z" fill="#D5F4FD"/>
<path d="M13.9886 28.8026C10.7549 27.9566 9.66245 26.8514 9.38457 26.0178C9.12227 25.2309 9.34383 24.6859 9.8261 24.3829C9.30075 24.4136 8.7795 24.461 8.26841 24.5328L7.79861 24.6356C6.94626 24.8216 6.12293 25.173 5.45471 25.7105C4.78628 26.2385 4.26548 26.9537 4.09395 27.754C3.91302 28.5543 4.08563 29.4025 4.53772 30.0959C4.99302 30.7913 5.68535 31.3392 6.46387 31.7029L6.75809 31.8401L9.47109 32.5679L6.4131 32.5845C3.99836 34.6406 2.16161 37.3962 1.42874 40.4636C1.25528 41.2464 1.13559 42.0405 1.09207 42.8399C1.05027 43.4853 1.0975 44.1285 1.14465 44.7708C1.15598 44.9253 1.16732 45.0796 1.17741 45.234C1.39887 46.8171 1.87699 48.3524 2.58682 49.7786C4.05149 52.6122 6.42248 54.9479 9.22509 56.4698C12.016 58.0341 15.2124 58.7785 18.389 58.848L19.2623 58.8679L19.2727 59.7565C19.2926 61.4842 20.15 63.1763 21.5388 64.0807C22.6469 64.849 24.0792 64.9945 25.3132 64.5505C25.3527 63.0007 25.5803 61.4789 26.0179 60.0454C26.3317 59.0215 26.7403 58.0382 27.234 57.1109C25.7766 56.2033 24.783 54.5142 24.783 52.5558L24.7841 52.5454C16.1917 52.325 9.30318 46.1879 9.30318 38.6444C9.30318 34.7988 11.0953 31.3206 13.9886 28.8026Z" fill="#D5F4FD"/>
<path d="M103.474 11.3681C104.225 10.2143 104.894 8.98747 105.314 7.5915C105.353 7.45944 105.389 7.32331 105.424 7.1872C105.467 7.02099 105.524 6.86397 105.558 6.69243L104.238 6.61541C104.25 6.77436 104.236 6.93971 104.238 7.10186C104.254 8.48545 103.936 9.96569 103.474 11.3681Z" fill="#003242"/>
<path d="M93.1647 17.2107C93.569 16.6703 94.0627 16.2015 94.6272 15.8595C95.4597 15.3532 96.4017 15.0934 97.3287 15.0445C99.1894 14.9447 101.022 15.6733 102.239 16.957C100.87 15.8354 99.0438 15.4029 97.4036 15.7012C96.5845 15.8478 95.8111 16.1806 95.1915 16.6754C94.6562 17.1025 94.256 17.6523 93.9899 18.2574C94.2541 18.6784 94.4723 19.1264 94.624 19.5962C94.9505 20.5713 95.0213 21.6316 94.7488 22.5921C94.4672 21.6359 94.1252 20.7876 93.6782 20.0112C93.2259 19.244 92.6938 18.5412 92.0555 17.9541C91.4329 17.3509 90.7073 16.8666 89.9121 16.5122C89.1108 16.1681 88.2302 15.9748 87.2335 15.9997C88.0681 15.4427 89.1876 15.3074 90.2114 15.5289C91.249 15.7356 92.1926 16.2846 92.9609 16.9914L93.1647 17.2107Z" fill="#003242"/>
<path d="M36.5279 29.9694C36.4889 29.9287 36.4514 29.8867 36.4139 29.8447C36.3585 29.7826 36.3031 29.7205 36.2431 29.6629C35.1682 28.6742 33.849 27.9061 32.398 27.6172C30.9677 27.3096 29.4021 27.4967 28.2349 28.2763C29.63 28.2419 30.8597 28.5112 31.9801 28.9925C33.0912 29.4883 34.1059 30.1649 34.9768 31.008C35.8686 31.8292 36.613 32.8105 37.246 33.8832C37.8686 34.9683 38.3467 36.1556 38.7429 37.4923C39.1225 36.1492 39.0237 34.6671 38.5673 33.3042C38.3553 32.6462 38.0506 32.0204 37.6817 31.4322C38.0529 30.5871 38.6128 29.8178 39.3604 29.22C40.2272 28.5287 41.3083 28.064 42.4538 27.8594C44.7469 27.4425 47.2988 28.0455 49.2134 29.614C47.5109 27.8208 44.9485 26.801 42.3488 26.9403C41.0516 27.009 39.7354 27.3717 38.5714 28.0807C37.7835 28.5588 37.0922 29.2137 36.5279 29.9694Z" fill="#003242"/>
<path fill-rule="evenodd" clip-rule="evenodd" d="M51.7019 52.3577C53.0959 52.3233 54.3266 52.5926 55.4471 53.0739C56.5582 53.5697 57.5727 54.2465 58.4428 55.0905C59.3357 55.9106 60.08 56.8929 60.712 57.9656C61.3356 59.0497 61.8138 60.2381 62.2089 61.5747C62.5882 60.2306 62.4897 58.7495 62.0341 57.3857C61.821 56.7289 61.5176 56.1032 61.1486 55.5147C61.1485 55.5149 61.1486 55.5146 61.1486 55.5147C61.5196 54.6686 62.08 53.8991 62.8276 53.3024C63.6945 52.61 64.7745 52.1464 65.9199 51.9405C68.2141 51.5236 70.766 52.1277 72.6807 53.6962C70.9781 51.9019 68.4157 50.8823 65.816 51.0216C64.5186 51.0901 63.2027 51.4528 62.0384 52.1618C61.2505 52.6401 60.5592 53.2949 59.9938 54.0506C59.9939 54.0505 59.9938 54.0507 59.9938 54.0506C59.9574 54.0121 59.9218 53.9729 59.8864 53.9333C59.829 53.869 59.7716 53.8046 59.7099 53.7455C58.6352 52.756 57.315 51.9888 55.8648 51.6999C54.4347 51.391 52.8694 51.5781 51.7019 52.3577ZM59.2755 55.1878C59.2756 55.1876 59.2754 55.1879 59.2755 55.1878L60.9719 55.9221C60.9718 55.9222 60.9719 55.9221 60.9719 55.9221L59.2755 55.1878Z" fill="#003242"/>
<path d="M0.0356919 42.7706C0.104392 41.91 0.255231 41.0596 0.464104 40.2249C0.695805 39.3007 1.02757 38.4099 1.43038 37.5535C1.59253 37.2096 1.763 36.8697 1.94904 36.539C2.87307 34.8966 4.09239 33.4288 5.49988 32.1909C4.83443 31.7815 4.23896 31.2419 3.80543 30.5651C3.24602 29.6983 3.02562 28.5871 3.27098 27.5673C3.50481 26.5404 4.16301 25.6776 4.94879 25.0675C5.36652 24.7384 5.8263 24.4786 6.30833 24.2758C7.241 23.9925 8.19911 23.8549 9.26076 23.941C10.0467 24.0367 10.8183 24.1763 11.5875 24.3323C10.4742 24.3385 9.34831 24.3811 8.26832 24.5328L7.79897 24.6356C6.94663 24.8217 6.12351 25.1731 5.45507 25.7105C4.78664 26.2385 4.26584 26.9535 4.09431 27.754C3.91338 28.5543 4.08599 29.4026 4.53808 30.096C4.99338 30.7913 5.68571 31.3392 6.46423 31.703L6.75845 31.8401L6.29056 31.7145L6.15338 32.5854L6.41324 32.5843C3.99851 34.6404 2.16176 37.3961 1.42889 40.4634C1.25543 41.2462 1.13595 42.0406 1.09222 42.8398C1.05051 43.4837 1.09757 44.1255 1.14456 44.7664C1.15599 44.9223 1.16741 45.0781 1.17756 45.2338C1.3988 46.8171 1.87693 48.3522 2.58697 49.7784C4.05164 52.6122 6.42263 54.9478 9.22523 56.4696C12.0161 58.0339 15.2126 58.7783 18.3892 58.8479L19.2624 58.8677L19.2729 59.7563C19.2927 61.4841 20.1502 63.1762 21.5389 64.0806C22.6471 64.8486 24.0795 64.9944 25.3133 64.5504C25.3115 64.6209 25.3087 64.6913 25.306 64.7616C25.3006 64.8968 25.2953 65.0319 25.2967 65.1678L27.6771 64.855C28.749 69.4327 31.5264 73.5054 35.1717 76.4659C38.8026 79.4898 43.3451 81.3129 47.9968 82.079C52.6755 82.7445 57.532 82.3784 61.9653 80.7757C66.3416 79.2114 70.2988 76.5035 73.171 72.9172L72.9463 73.2093L74.9504 74.5741C75.2704 73.9693 75.5294 73.3591 75.7643 72.7478C77.4253 73.5274 79.2467 73.9819 81.0947 74.0525C83.2091 74.1252 85.3285 73.7489 87.2517 72.9153C89.1829 72.1107 90.8846 70.7865 92.1195 69.1545C92.7536 68.3438 93.1963 67.4176 93.555 66.4727C93.8078 65.7556 93.949 65.0102 94.0218 64.2555C94.4551 64.3833 94.8991 64.4904 95.3533 64.5704L95.476 62.1495C96.4105 62.1433 97.3283 61.7847 98.0561 61.1412C98.8013 60.4896 99.346 59.5729 99.5788 58.5686L99.8013 57.6123C99.7926 57.6738 99.7841 57.7353 99.7756 57.7968C99.7338 58.0973 99.6921 58.398 99.636 58.6913L102.041 59C102.052 58.5957 102.049 58.1954 102.039 57.7973C107.469 59.0759 113.325 58.6633 118.521 56.5906C123.987 54.4118 128.742 50.2312 131.093 44.806C132.272 42.1075 132.772 39.1274 132.616 36.168C132.434 33.2075 131.489 30.3074 130.016 27.7045C128.496 25.1257 126.463 22.8149 124.033 20.9958C123.875 20.8839 123.718 20.7698 123.562 20.6557C123.105 20.3231 122.647 19.9901 122.155 19.7099L121.181 19.1132L120.169 18.5851C119.694 18.3156 119.194 18.1003 118.692 17.8845C118.492 17.7981 118.291 17.7117 118.092 17.6216C117.679 17.447 117.235 17.285 116.795 17.1243C116.478 17.0088 116.163 16.8938 115.863 16.7755L115.886 15.6311C115.876 15.5225 115.867 15.4146 115.859 15.3071L115.859 15.3064L115.859 15.3058C115.84 15.0628 115.822 14.8223 115.779 14.5833C115.647 13.8963 115.469 13.2165 115.158 12.5927C114.579 11.3296 113.691 10.2185 112.593 9.37555C110.569 7.78415 107.961 7.05853 105.425 7.18739C105.441 7.12288 105.46 7.05974 105.479 6.9966C105.508 6.89724 105.538 6.79742 105.559 6.69263L104.239 6.61561C104.246 6.71291 104.244 6.81262 104.241 6.91253V6.91313C104.241 6.93938 104.24 6.96565 104.24 6.99189C104.239 7.00017 104.239 7.00845 104.239 7.01672C104.239 7.0252 104.239 7.03368 104.239 7.04216C104.239 7.05813 104.239 7.07408 104.239 7.09L104.218 6.66553C104.134 4.88169 103.236 3.15737 101.789 2.21243C101.074 1.73836 100.242 1.46804 99.4002 1.45566C98.6486 1.42238 97.9084 1.61568 97.2443 1.95875L97.001 2.08143L96.8056 2.19792L95.9937 1.12394C96.4547 0.762391 96.9388 0.472091 97.4334 0.253053C98.0894 0.0536095 98.7786 -0.0358498 99.4602 0.0131823C100.319 0.0526505 101.158 0.299929 101.907 0.699113C102.13 0.817525 102.348 0.946602 102.554 1.09211C103.458 1.71681 104.158 2.58878 104.647 3.54418C104.829 3.92054 104.965 4.31438 105.077 4.71463C105.202 5.16267 105.285 5.61904 105.323 6.07945C107.648 6.05663 109.972 6.69284 111.905 7.95056C112.308 8.21256 112.7 8.4912 113.065 8.80611C114.148 9.72928 115.021 10.9019 115.564 12.2136L115.644 12.3862C115.933 13.0691 116.079 13.803 116.172 14.5306C116.201 14.7851 116.205 15.0441 116.209 15.3001C116.211 15.4102 116.213 15.5199 116.216 15.6283L116.084 16.6315C116.324 16.7005 116.558 16.7622 116.789 16.8232C117.272 16.9506 117.743 17.0749 118.231 17.2562C118.396 17.3202 118.563 17.3816 118.73 17.443C118.79 17.4652 118.851 17.4875 118.912 17.5098C119.413 17.6938 119.914 17.8809 120.393 18.119L121.452 18.6076L122.474 19.1731C122.992 19.4391 123.477 19.7595 123.963 20.0803C124.128 20.1894 124.294 20.2988 124.46 20.4059L124.547 20.4714C126.203 21.6139 127.694 22.9911 129.016 24.5275C129.722 25.3495 130.396 26.2019 130.989 27.1156C131.674 28.2112 132.256 29.3765 132.734 30.5865C133.422 32.333 133.885 34.1727 134.066 36.0511C134.269 38.3952 134.083 40.7839 133.494 43.0749C133.285 43.8886 133.028 44.6912 132.715 45.4749C132.211 46.7503 131.577 47.9726 130.844 49.1328C129.86 50.6869 128.693 52.1245 127.365 53.3926C126.734 53.9988 126.066 54.5642 125.378 55.1005C124.019 56.1596 122.551 57.0715 121.013 57.8479C120.471 58.1223 119.927 58.3956 119.368 58.6337C118.287 59.09 117.17 59.457 116.041 59.7813C113.803 60.4237 111.495 60.8052 109.166 60.9174C106.676 61.0369 104.172 60.8466 101.721 60.3435C101.309 61.3902 100.672 62.3569 99.8141 63.1241C99.6893 63.2374 99.5574 63.3445 99.4222 63.4484C98.6281 64.0626 97.6791 64.5064 96.677 64.7112C96.6272 65.203 96.5513 65.6914 96.4453 66.1748C96.3578 66.5708 96.2582 66.9638 96.1261 67.3483C95.6853 68.5719 95.1124 69.7579 94.3299 70.788C92.7946 72.8618 90.7071 74.4905 88.3767 75.4926C87.225 76.0362 85.9901 76.3565 84.7542 76.6163C83.5056 76.819 82.2438 76.924 80.9829 76.8783L80.9381 76.8743C79.6367 76.8203 78.3416 76.6091 77.0826 76.2547C76.2874 76.0303 75.5162 75.7307 74.7615 75.3878C73.2939 77.0789 71.6327 78.5935 69.8011 79.8617C67.6492 81.3242 65.3083 82.4885 62.8635 83.3387C57.9634 85.0455 52.6789 85.3832 47.5947 84.5985C42.5316 83.7118 37.6033 81.666 33.6501 78.3044C30.0201 75.2524 27.2199 71.1351 25.9434 66.526C25.2387 66.7599 24.4964 66.8857 23.7563 66.8471C22.5568 66.8055 21.3791 66.4001 20.4165 65.7183C18.7034 64.5271 17.693 62.5833 17.4957 60.5927C14.3263 60.3202 11.2017 59.4222 8.47103 57.786C5.4907 56.0429 2.9742 53.4575 1.46494 50.3319C0.732076 48.7612 0.253952 47.0772 0.0617213 45.358C0.0555497 45.2152 0.0486078 45.0724 0.0416671 44.9296L0.0416346 44.929C0.00659675 44.2085 -0.0283988 43.4888 0.0356919 42.7706Z" fill="#003242"/>
<path d="M94.9729 2.08881C95.2955 1.72479 95.6378 1.40304 95.9937 1.12394L96.8049 2.1975L96.8278 2.22758C95.355 3.04366 94.0774 4.50001 93.1097 6.09141C93.3548 5.18082 93.7043 4.29114 94.1481 3.42834C94.3854 2.96955 94.6578 2.5204 94.9729 2.08881Z" fill="#003242"/>
<path d="M101.788 55.1568C101.623 54.2535 101.4 53.373 101.142 52.5083C101.044 52.1818 100.959 51.8492 100.842 51.5303C100.021 49.1966 98.9234 46.9971 97.5617 44.995C98.57 47.1904 99.2675 49.5075 99.6688 51.8328C99.7021 52.0159 99.7136 52.1976 99.7405 52.3805C99.8849 53.3617 99.963 54.3472 99.9765 55.3181C99.9858 56.0977 99.9084 56.8607 99.8013 57.6123C99.7505 57.974 99.7036 58.338 99.636 58.6913L102.041 59C102.052 58.5957 102.049 58.1954 102.039 57.7973C102.017 56.9023 101.944 56.0196 101.788 55.1568Z" fill="#003242"/>
<path d="M77.3926 65.9706C77.5143 65.1006 77.616 64.2305 77.6847 63.3605C77.4289 64.2066 77.143 65.0413 76.8364 65.8657C76.4914 66.797 76.1191 67.7148 75.7138 68.6109C74.9986 70.1669 74.1659 71.6753 73.1702 72.9174L72.9455 73.2095L74.9495 74.5743C75.2698 73.9695 75.5286 73.3591 75.7635 72.748C76.2437 71.5016 76.5847 70.2471 76.8652 68.9913C77.0797 67.9851 77.2512 66.9779 77.3926 65.9706Z" fill="#003242"/>
<path d="M27.212 60.2567C27.2598 59.2889 27.4002 58.3109 27.6329 57.3472C27.7784 56.7423 27.9521 56.1413 28.187 55.555C27.8316 56.0446 27.5218 56.5706 27.2338 57.1112C26.7401 58.0384 26.3315 59.0218 26.0176 60.0456C25.58 61.4792 25.3524 63.001 25.3129 64.5508C25.3078 64.7567 25.2942 64.9615 25.2963 65.1683L27.6767 64.8555L27.6995 64.8523C27.3159 63.3895 27.1341 61.8346 27.212 60.2567Z" fill="#003242"/>
<path d="M95.1687 62.1527C95.0211 62.1538 94.8734 62.1527 94.7239 62.1476C94.1647 62.1299 93.595 62.0644 93.0273 61.9106C92.2104 61.6861 91.3881 61.365 90.6094 60.9242C90.4867 60.8547 90.3702 60.7704 90.2499 60.6977C88.8341 59.8381 87.5159 58.7258 86.4059 57.4088C87.2187 58.9514 88.2977 60.3755 89.6115 61.6228C89.7114 61.7164 89.8008 61.8182 89.9027 61.9097C90.6335 62.5634 91.4619 63.129 92.3685 63.605C92.8882 63.8764 93.4442 64.0863 94.0211 64.2557C94.4546 64.3835 94.8984 64.4906 95.3526 64.5707L95.4753 62.1497C95.3746 62.1527 95.2707 62.1517 95.1687 62.1527Z" fill="#003242"/>
<path d="M6.75845 31.8401L6.29056 31.7145L6.15338 32.5854L6.41324 32.5843L9.47115 32.5681L6.75845 31.8401Z" fill="#003242"/>
</svg>
