<svg width="46" height="46" viewBox="0 0 46 46" fill="none" xmlns="http://www.w3.org/2000/svg">
<g clip-path="url(#clip0_230_5467)">
<path fill-rule="evenodd" clip-rule="evenodd" d="M27.234 7.48081L23.1429 0L19.0518 7.48081L11.5717 11.572L11.5714 11.5714L7.4804 19.0522L0 23.1435L7.4804 27.2335L11.5714 34.7143L15.6625 27.2335L23.1423 23.1438L19.0518 30.6237L11.5714 34.715L19.0518 38.8049L23.1429 46.2857L27.234 38.8049L34.7143 34.715L27.234 30.6237L23.1434 23.1438L30.6233 27.2335L34.7143 34.7143L38.8054 27.2335L46.2857 23.1435L38.8054 19.0522L34.7143 11.5714L34.714 11.572L27.234 7.48081ZM34.7138 11.5724L27.234 15.6621L23.1429 23.1429L19.0518 15.6621L11.572 11.5724L15.6625 19.0522L23.1426 23.1434L23.1429 23.1429L23.1431 23.1434L30.6233 19.0522L34.7138 11.5724Z" fill="#09342E"/>
</g>
<defs>
<clipPath id="clip0_230_5467">
<rect width="46" height="46" fill="white"/>
</clipPath>
</defs>
</svg>
