<svg width="148" height="64" viewBox="0 0 148 64" fill="none" xmlns="http://www.w3.org/2000/svg">
<path d="M32.1776 20.7121L22.5273 22.8096L19.4674 15.8998L17.7519 23.8489L8.50419 25.8605L16.7028 28.7053L15.0717 36.2712L21.5417 30.3846L26.6684 32.1632L24.6342 27.5713L32.1776 20.7121Z" fill="#FFFBD1"/>
<path d="M122.29 22.861L122.645 14.4172L116.954 21.9041L105.221 19.8005L112.168 28.1972L107.805 33.9379L115.2 31.8612L121.584 39.5774L121.99 29.9569L137.532 25.594L122.29 22.861Z" fill="#FFFBD1"/>
<path d="M124.506 21.0838L125.072 7.68776L116.041 19.565L99.8452 16.6623L109.437 28.2535L102.237 37.7242L114.438 34.299L123.487 45.236L124.063 31.5975L147.093 25.1324L124.506 21.0838ZM121.584 39.5774L115.2 31.8623L107.804 33.9388L112.168 28.1983L105.221 19.8015L116.954 21.9041L122.646 14.4174L122.29 22.8621L137.532 25.5941L121.99 29.9569L121.584 39.5774Z" fill="#35290F"/>
<path d="M39.5237 16.9233L23.7769 20.3479L18.7621 9.02151L15.9494 22.0518L0.612063 25.3886L14.2115 30.1076L11.569 42.3504L22.0419 32.8244L30.6219 35.8038L27.2176 28.1175L39.5237 16.9233ZM21.5417 30.3847L15.0714 36.2703L16.7027 28.7053L8.50415 25.8606L17.7506 23.8482L19.4661 15.8992L22.5263 22.81L32.1764 20.7115L24.6331 27.5717L26.6673 32.1635L21.5417 30.3847Z" fill="#35290F"/>
<mask id="path-5-outside-1_257_5758" maskUnits="userSpaceOnUse" x="45" y="2" width="52" height="62" fill="black">
<rect fill="white" x="45" y="2" width="52" height="62"/>
<path fill-rule="evenodd" clip-rule="evenodd" d="M62.6601 49.1098C63.0155 50.6437 63.4234 52.0879 63.8811 53.4228C65.872 59.2301 68.6358 62.3463 71.6551 62.2169C74.6554 62.0883 77.3691 58.776 79.3047 52.9079C79.7471 51.5667 80.1409 50.1227 80.4837 48.595C81.8901 48.9972 83.2476 49.31 84.5397 49.5271C90.1374 50.4678 93.983 49.4806 95.4161 46.7627C96.8449 44.0532 95.6329 40.0828 91.9848 35.5487C91.1452 34.5051 90.1959 33.4523 89.1503 32.4016C90.1959 31.3261 91.1452 30.2507 91.9849 29.1872C95.6328 24.5668 96.8448 20.5675 95.4161 17.8919C93.983 15.2081 90.1374 14.312 84.5397 15.3852C83.2476 15.633 81.8901 15.9779 80.4837 16.4134C80.1409 14.8938 79.7471 13.4592 79.3047 12.1284C77.3691 6.3064 74.6554 3.05834 71.6551 3.00078C68.6358 2.94283 65.872 6.1246 63.8811 11.9789C63.4234 13.3247 63.0155 14.7786 62.6601 16.3209C61.1968 15.8612 59.7753 15.492 58.4134 15.221C52.4286 14.0303 48.2318 14.9087 46.6495 17.713C45.0622 20.5265 46.4093 24.7395 50.4212 29.5381C51.3368 30.6332 52.3663 31.7327 53.4939 32.824C52.3663 33.942 51.3368 35.0658 50.4212 36.1826C46.4092 41.0764 45.0621 45.3213 46.6494 48.0971C48.2317 50.8639 52.4285 51.6429 58.4135 50.3103C59.7754 50.0071 61.1969 49.6042 62.6601 49.1098ZM65.5338 48.0434C65.8955 49.6891 66.3183 51.2299 66.7987 52.6407C68.4505 57.4915 70.5964 60.2173 72.6833 60.1323C74.7613 60.0476 76.879 57.173 78.4964 52.2585C78.8995 51.0336 79.2606 49.7174 79.5776 48.3256C77.0485 47.5453 74.377 46.488 71.6554 45.1879C69.5895 46.2783 67.5351 47.2365 65.5338 48.0434ZM80.6954 47.609C81.9773 47.9722 83.2146 48.2568 84.3934 48.4575C89.0837 49.2563 92.3259 48.6265 93.3236 46.7386C94.3191 44.8549 93.1364 41.6113 90.0648 37.8173C89.1706 36.7128 88.1456 35.5962 87.0073 34.4824C85.4499 35.9144 83.7357 37.3328 81.8966 38.7096C81.666 41.8542 81.261 44.8554 80.6954 47.609ZM80.9139 39.4325C80.6787 42.2282 80.3011 44.8913 79.7917 47.3421C77.5419 46.6516 75.1682 45.7297 72.7413 44.6032C74.1356 43.8375 75.5319 43.0134 76.9172 42.1367C78.298 41.2628 79.6336 40.3585 80.9139 39.4325ZM82.0922 34.7378C83.0396 33.9837 83.9455 33.2206 84.8043 32.4531C83.9455 31.706 83.0396 30.9643 82.0922 30.2326C82.1114 30.9782 82.1211 31.7294 82.1211 32.4848C82.1211 33.2403 82.1114 33.9917 82.0922 34.7378ZM81.1479 29.5169C81.1822 30.4995 81.1995 31.4934 81.1995 32.4957C81.1995 33.498 81.1822 34.4924 81.1479 35.4759C79.3649 36.8444 77.4485 38.1775 75.4314 39.4463C73.4047 40.7211 71.3578 41.88 69.3325 42.9037C68.4933 42.4566 67.6517 41.9872 66.8105 41.4965C65.9676 41.0047 65.1394 40.4999 64.3284 39.9839C64.12 37.641 64.0124 35.197 64.0124 32.6993C64.0124 30.2017 64.12 27.7552 64.3284 25.4074C65.1394 24.8722 65.9676 24.3478 66.8106 23.836C67.6517 23.3253 68.4933 22.836 69.3325 22.369C71.3578 23.3447 73.4047 24.4551 75.4313 25.6819C77.4484 26.9029 79.3649 28.1907 81.1479 29.5169ZM81.8966 26.2655C83.7358 27.5986 85.45 28.9765 87.0074 30.3715C88.1457 29.2308 89.1707 28.09 90.0648 26.9642C93.1365 23.0974 94.319 19.8259 93.3235 17.9657C92.3258 16.1014 89.0837 15.5483 84.3933 16.4584C83.2145 16.6871 81.9773 17.001 80.6955 17.3946C81.261 20.1347 81.666 23.1262 81.8966 26.2655ZM79.7918 17.6828C80.3011 20.1215 80.6787 22.7757 80.9139 25.5658C79.6335 24.6701 78.2979 23.7974 76.9171 22.9563C75.5318 22.1124 74.1357 21.3214 72.7414 20.5887C75.1683 19.4047 77.542 18.4266 79.7918 17.6828ZM79.5777 16.7043C79.2606 15.32 78.8995 14.0124 78.4964 12.797C76.879 7.92076 74.7613 5.09639 72.6833 5.06099C70.5964 5.02547 68.4505 7.80196 66.7987 12.692C66.3183 14.1141 65.8955 15.665 65.5338 17.3192C67.5351 18.0787 69.5895 18.9883 71.6554 20.0297C74.377 18.6652 77.0486 17.5445 79.5777 16.7043ZM62.038 19.415C60.4713 18.9087 58.9539 18.5083 57.509 18.224C52.4965 17.2373 48.9713 17.7806 47.8764 19.7258C46.779 21.6755 48.082 25.1063 51.4349 29.1137C52.2695 30.1112 53.2045 31.1138 54.2268 32.1113C56.283 30.1494 58.6324 28.2139 61.1889 26.3743C61.3706 23.9508 61.6558 21.6155 62.038 19.415ZM64.4503 24.1528C64.5844 22.8844 64.7486 21.6483 64.9416 20.4523C66.028 20.8761 67.1303 21.3448 68.2415 21.8555C67.6062 22.2165 66.9703 22.5897 66.3349 22.9747C65.6985 23.3603 65.0699 23.7533 64.4503 24.1528ZM61.1029 27.6586C58.8493 29.3228 56.7778 31.0565 54.9546 32.8067C56.7778 34.5137 58.8493 36.1984 61.1029 37.8091C61.0047 36.1508 60.9546 34.4548 60.9546 32.7355C60.9546 31.0163 61.0047 29.3192 61.1029 27.6586ZM61.1889 39.0913C58.6324 37.3123 56.283 35.4324 54.2268 33.5193C53.2045 34.541 52.2695 35.5658 51.4349 36.5831C48.082 40.6699 46.779 44.1316 47.8764 46.0553C48.9712 47.9746 52.4965 48.4343 57.509 47.3289C58.9539 47.0103 60.4713 46.574 62.038 46.0306C61.6558 43.8391 61.3706 41.5105 61.1889 39.0913ZM64.4503 41.2356C64.5845 42.5008 64.7486 43.733 64.9416 44.9245C66.0281 44.475 67.1304 43.9801 68.2416 43.443C67.6063 43.0971 66.9703 42.7389 66.3348 42.3689C65.6984 41.9984 65.0699 41.6203 64.4503 41.2356ZM71.6554 38.6449C74.8129 38.5875 77.3573 35.855 77.3573 32.5413C77.3573 29.2276 74.8129 26.5554 71.6554 26.5728C68.4768 26.5903 65.8845 29.3234 65.8845 32.6772C65.8845 36.031 68.4768 38.7027 71.6554 38.6449Z"/>
</mask>
<path fill-rule="evenodd" clip-rule="evenodd" d="M62.6601 49.1098C63.0155 50.6437 63.4234 52.0879 63.8811 53.4228C65.872 59.2301 68.6358 62.3463 71.6551 62.2169C74.6554 62.0883 77.3691 58.776 79.3047 52.9079C79.7471 51.5667 80.1409 50.1227 80.4837 48.595C81.8901 48.9972 83.2476 49.31 84.5397 49.5271C90.1374 50.4678 93.983 49.4806 95.4161 46.7627C96.8449 44.0532 95.6329 40.0828 91.9848 35.5487C91.1452 34.5051 90.1959 33.4523 89.1503 32.4016C90.1959 31.3261 91.1452 30.2507 91.9849 29.1872C95.6328 24.5668 96.8448 20.5675 95.4161 17.8919C93.983 15.2081 90.1374 14.312 84.5397 15.3852C83.2476 15.633 81.8901 15.9779 80.4837 16.4134C80.1409 14.8938 79.7471 13.4592 79.3047 12.1284C77.3691 6.3064 74.6554 3.05834 71.6551 3.00078C68.6358 2.94283 65.872 6.1246 63.8811 11.9789C63.4234 13.3247 63.0155 14.7786 62.6601 16.3209C61.1968 15.8612 59.7753 15.492 58.4134 15.221C52.4286 14.0303 48.2318 14.9087 46.6495 17.713C45.0622 20.5265 46.4093 24.7395 50.4212 29.5381C51.3368 30.6332 52.3663 31.7327 53.4939 32.824C52.3663 33.942 51.3368 35.0658 50.4212 36.1826C46.4092 41.0764 45.0621 45.3213 46.6494 48.0971C48.2317 50.8639 52.4285 51.6429 58.4135 50.3103C59.7754 50.0071 61.1969 49.6042 62.6601 49.1098ZM65.5338 48.0434C65.8955 49.6891 66.3183 51.2299 66.7987 52.6407C68.4505 57.4915 70.5964 60.2173 72.6833 60.1323C74.7613 60.0476 76.879 57.173 78.4964 52.2585C78.8995 51.0336 79.2606 49.7174 79.5776 48.3256C77.0485 47.5453 74.377 46.488 71.6554 45.1879C69.5895 46.2783 67.5351 47.2365 65.5338 48.0434ZM80.6954 47.609C81.9773 47.9722 83.2146 48.2568 84.3934 48.4575C89.0837 49.2563 92.3259 48.6265 93.3236 46.7386C94.3191 44.8549 93.1364 41.6113 90.0648 37.8173C89.1706 36.7128 88.1456 35.5962 87.0073 34.4824C85.4499 35.9144 83.7357 37.3328 81.8966 38.7096C81.666 41.8542 81.261 44.8554 80.6954 47.609ZM80.9139 39.4325C80.6787 42.2282 80.3011 44.8913 79.7917 47.3421C77.5419 46.6516 75.1682 45.7297 72.7413 44.6032C74.1356 43.8375 75.5319 43.0134 76.9172 42.1367C78.298 41.2628 79.6336 40.3585 80.9139 39.4325ZM82.0922 34.7378C83.0396 33.9837 83.9455 33.2206 84.8043 32.4531C83.9455 31.706 83.0396 30.9643 82.0922 30.2326C82.1114 30.9782 82.1211 31.7294 82.1211 32.4848C82.1211 33.2403 82.1114 33.9917 82.0922 34.7378ZM81.1479 29.5169C81.1822 30.4995 81.1995 31.4934 81.1995 32.4957C81.1995 33.498 81.1822 34.4924 81.1479 35.4759C79.3649 36.8444 77.4485 38.1775 75.4314 39.4463C73.4047 40.7211 71.3578 41.88 69.3325 42.9037C68.4933 42.4566 67.6517 41.9872 66.8105 41.4965C65.9676 41.0047 65.1394 40.4999 64.3284 39.9839C64.12 37.641 64.0124 35.197 64.0124 32.6993C64.0124 30.2017 64.12 27.7552 64.3284 25.4074C65.1394 24.8722 65.9676 24.3478 66.8106 23.836C67.6517 23.3253 68.4933 22.836 69.3325 22.369C71.3578 23.3447 73.4047 24.4551 75.4313 25.6819C77.4484 26.9029 79.3649 28.1907 81.1479 29.5169ZM81.8966 26.2655C83.7358 27.5986 85.45 28.9765 87.0074 30.3715C88.1457 29.2308 89.1707 28.09 90.0648 26.9642C93.1365 23.0974 94.319 19.8259 93.3235 17.9657C92.3258 16.1014 89.0837 15.5483 84.3933 16.4584C83.2145 16.6871 81.9773 17.001 80.6955 17.3946C81.261 20.1347 81.666 23.1262 81.8966 26.2655ZM79.7918 17.6828C80.3011 20.1215 80.6787 22.7757 80.9139 25.5658C79.6335 24.6701 78.2979 23.7974 76.9171 22.9563C75.5318 22.1124 74.1357 21.3214 72.7414 20.5887C75.1683 19.4047 77.542 18.4266 79.7918 17.6828ZM79.5777 16.7043C79.2606 15.32 78.8995 14.0124 78.4964 12.797C76.879 7.92076 74.7613 5.09639 72.6833 5.06099C70.5964 5.02547 68.4505 7.80196 66.7987 12.692C66.3183 14.1141 65.8955 15.665 65.5338 17.3192C67.5351 18.0787 69.5895 18.9883 71.6554 20.0297C74.377 18.6652 77.0486 17.5445 79.5777 16.7043ZM62.038 19.415C60.4713 18.9087 58.9539 18.5083 57.509 18.224C52.4965 17.2373 48.9713 17.7806 47.8764 19.7258C46.779 21.6755 48.082 25.1063 51.4349 29.1137C52.2695 30.1112 53.2045 31.1138 54.2268 32.1113C56.283 30.1494 58.6324 28.2139 61.1889 26.3743C61.3706 23.9508 61.6558 21.6155 62.038 19.415ZM64.4503 24.1528C64.5844 22.8844 64.7486 21.6483 64.9416 20.4523C66.028 20.8761 67.1303 21.3448 68.2415 21.8555C67.6062 22.2165 66.9703 22.5897 66.3349 22.9747C65.6985 23.3603 65.0699 23.7533 64.4503 24.1528ZM61.1029 27.6586C58.8493 29.3228 56.7778 31.0565 54.9546 32.8067C56.7778 34.5137 58.8493 36.1984 61.1029 37.8091C61.0047 36.1508 60.9546 34.4548 60.9546 32.7355C60.9546 31.0163 61.0047 29.3192 61.1029 27.6586ZM61.1889 39.0913C58.6324 37.3123 56.283 35.4324 54.2268 33.5193C53.2045 34.541 52.2695 35.5658 51.4349 36.5831C48.082 40.6699 46.779 44.1316 47.8764 46.0553C48.9712 47.9746 52.4965 48.4343 57.509 47.3289C58.9539 47.0103 60.4713 46.574 62.038 46.0306C61.6558 43.8391 61.3706 41.5105 61.1889 39.0913ZM64.4503 41.2356C64.5845 42.5008 64.7486 43.733 64.9416 44.9245C66.0281 44.475 67.1304 43.9801 68.2416 43.443C67.6063 43.0971 66.9703 42.7389 66.3348 42.3689C65.6984 41.9984 65.0699 41.6203 64.4503 41.2356ZM71.6554 38.6449C74.8129 38.5875 77.3573 35.855 77.3573 32.5413C77.3573 29.2276 74.8129 26.5554 71.6554 26.5728C68.4768 26.5903 65.8845 29.3234 65.8845 32.6772C65.8845 36.031 68.4768 38.7027 71.6554 38.6449Z" fill="#35290F"/>
<path d="M63.8811 53.4228L64.8271 53.0985L64.8271 53.0985L63.8811 53.4228ZM62.6601 49.1098L63.6343 48.8841L63.3853 47.8093L62.3401 48.1624L62.6601 49.1098ZM71.6551 62.2169L71.698 63.216L71.698 63.216L71.6551 62.2169ZM79.3047 52.9079L78.355 52.5947L78.355 52.5947L79.3047 52.9079ZM80.4837 48.595L80.7587 47.6335L79.7399 47.3422L79.5079 48.3761L80.4837 48.595ZM84.5397 49.5271L84.7054 48.5409L84.7054 48.5409L84.5397 49.5271ZM95.4161 46.7627L96.3007 47.2292L96.3007 47.2292L95.4161 46.7627ZM91.9848 35.5487L91.2057 36.1756L91.2057 36.1756L91.9848 35.5487ZM89.1503 32.4016L88.4333 31.7045L87.7476 32.4098L88.4415 33.107L89.1503 32.4016ZM91.9849 29.1872L92.7697 29.8069L92.7697 29.8069L91.9849 29.1872ZM95.4161 17.8919L94.5339 18.363L94.5339 18.363L95.4161 17.8919ZM84.5397 15.3852L84.3514 14.4031L84.3514 14.4031L84.5397 15.3852ZM80.4837 16.4134L79.5082 16.6335L79.7462 17.6887L80.7795 17.3687L80.4837 16.4134ZM79.3047 12.1284L78.3557 12.4439L78.3557 12.4439L79.3047 12.1284ZM71.6551 3.00078L71.636 4.00059L71.636 4.00059L71.6551 3.00078ZM63.8811 11.9789L64.8279 12.3009L64.8279 12.3009L63.8811 11.9789ZM62.6601 16.3209L62.3604 17.2749L63.3918 17.5989L63.6346 16.5454L62.6601 16.3209ZM58.4134 15.221L58.2183 16.2018L58.2183 16.2018L58.4134 15.221ZM46.6495 17.713L45.7786 17.2216L45.7786 17.2217L46.6495 17.713ZM50.4212 29.5381L49.654 30.1795L49.654 30.1795L50.4212 29.5381ZM53.4939 32.824L54.198 33.5341L54.9229 32.8153L54.1893 32.1054L53.4939 32.824ZM50.4212 36.1826L51.1945 36.8166L51.1945 36.8166L50.4212 36.1826ZM46.6494 48.0971L45.7814 48.5935L45.7814 48.5935L46.6494 48.0971ZM58.4135 50.3103L58.1962 49.3342L58.1962 49.3342L58.4135 50.3103ZM65.5338 48.0434L65.1598 47.1159L64.3756 47.4322L64.5571 48.2581L65.5338 48.0434ZM66.7987 52.6407L67.7453 52.3184L67.7453 52.3183L66.7987 52.6407ZM72.6833 60.1323L72.6426 59.1331L72.6426 59.1331L72.6833 60.1323ZM78.4964 52.2585L77.5465 51.9459L77.5465 51.9459L78.4964 52.2585ZM79.5776 48.3256L80.5527 48.5477L80.7586 47.6434L79.8724 47.37L79.5776 48.3256ZM71.6554 45.1879L72.0865 44.2856L71.6331 44.069L71.1887 44.3035L71.6554 45.1879ZM84.3934 48.4575L84.2255 49.4433L84.2255 49.4433L84.3934 48.4575ZM80.6954 47.609L79.7159 47.4078L79.529 48.3178L80.4228 48.5711L80.6954 47.609ZM93.3236 46.7386L92.4394 46.2713L92.4394 46.2714L93.3236 46.7386ZM90.0648 37.8173L89.2876 38.4466L89.2876 38.4466L90.0648 37.8173ZM87.0073 34.4824L87.7067 33.7677L87.0287 33.1043L86.3305 33.7463L87.0073 34.4824ZM81.8966 38.7096L81.2973 37.909L80.9326 38.182L80.8993 38.6364L81.8966 38.7096ZM79.7917 47.3421L79.4983 48.2981L80.5475 48.6201L80.7708 47.5456L79.7917 47.3421ZM80.9139 39.4325L81.9104 39.5164L82.093 37.3457L80.3279 38.6222L80.9139 39.4325ZM72.7413 44.6032L72.26 43.7267L70.5275 44.678L72.3203 45.5102L72.7413 44.6032ZM76.9172 42.1367L77.452 42.9817L77.452 42.9817L76.9172 42.1367ZM84.8043 32.4531L85.4706 33.1988L86.3163 32.443L85.4606 31.6986L84.8043 32.4531ZM82.0922 34.7378L81.0925 34.7121L81.0373 36.8556L82.7149 35.5202L82.0922 34.7378ZM82.0922 30.2326L82.7034 29.4412L81.0383 28.1552L81.0925 30.2584L82.0922 30.2326ZM81.1479 29.5169L82.1473 29.4821L82.1305 29.0016L81.7447 28.7146L81.1479 29.5169ZM81.1479 35.4759L81.7567 36.2692L82.1308 35.982L82.1473 35.5107L81.1479 35.4759ZM75.4314 39.4463L75.9639 40.2927L75.9639 40.2927L75.4314 39.4463ZM69.3325 42.9037L68.8623 43.7863L69.3204 44.0303L69.7836 43.7962L69.3325 42.9037ZM66.8105 41.4965L66.3066 42.3602L66.3066 42.3602L66.8105 41.4965ZM64.3284 39.9839L63.3323 40.0725L63.376 40.5632L63.7916 40.8277L64.3284 39.9839ZM64.3284 25.4074L63.7776 24.5727L63.3749 24.8384L63.3323 25.319L64.3284 25.4074ZM66.8106 23.836L67.3295 24.6908L67.3295 24.6908L66.8106 23.836ZM69.3325 22.369L69.7665 21.4681L69.2994 21.2431L68.8463 21.4952L69.3325 22.369ZM75.4313 25.6819L74.9135 26.5374L74.9135 26.5374L75.4313 25.6819ZM81.8966 26.2655L80.8993 26.3387L80.9333 26.8023L81.3097 27.0751L81.8966 26.2655ZM87.0074 30.3715L86.3401 31.1164L87.0459 31.7486L87.7152 31.0779L87.0074 30.3715ZM90.0648 26.9642L89.2818 26.3422L89.2818 26.3422L90.0648 26.9642ZM93.3235 17.9657L94.2052 17.4939L94.2052 17.4939L93.3235 17.9657ZM84.3933 16.4584L84.5838 17.4401L84.5838 17.4401L84.3933 16.4584ZM80.6955 17.3946L80.402 16.4386L79.5322 16.7057L79.7161 17.5967L80.6955 17.3946ZM80.9139 25.5658L80.3408 26.3852L82.0897 27.6086L81.9104 25.4818L80.9139 25.5658ZM79.7918 17.6828L80.7706 17.4783L80.5416 16.3816L79.4778 16.7333L79.7918 17.6828ZM76.9171 22.9563L76.3969 23.8103L76.3969 23.8103L76.9171 22.9563ZM72.7414 20.5887L72.3029 19.69L70.5286 20.5557L72.2763 21.474L72.7414 20.5887ZM79.5777 16.7043L79.8929 17.6533L80.7553 17.3668L80.5524 16.4811L79.5777 16.7043ZM78.4964 12.797L77.5472 13.1119L77.5472 13.1119L78.4964 12.797ZM72.6833 5.06099L72.7004 4.06113L72.7004 4.06113L72.6833 5.06099ZM66.7987 12.692L67.7461 13.0121L67.7461 13.0121L66.7987 12.692ZM65.5338 17.3192L64.5569 17.1056L64.3726 17.9482L65.179 18.2542L65.5338 17.3192ZM71.6554 20.0297L71.2053 20.9227L71.6542 21.149L72.1036 20.9236L71.6554 20.0297ZM62.038 19.415L63.0233 19.5861L63.1719 18.7305L62.3455 18.4635L62.038 19.415ZM57.509 18.224L57.3159 19.2052L57.3159 19.2052L57.509 18.224ZM47.8764 19.7258L48.7479 20.2163L48.7479 20.2163L47.8764 19.7258ZM51.4349 29.1137L52.2019 28.472L52.2019 28.472L51.4349 29.1137ZM54.2268 32.1113L53.5284 32.827L54.219 33.5008L54.9171 32.8348L54.2268 32.1113ZM61.1889 26.3743L61.773 27.186L62.1513 26.9138L62.1861 26.449L61.1889 26.3743ZM64.9416 20.4523L65.305 19.5206L64.1517 19.0707L63.9544 20.2929L64.9416 20.4523ZM64.4503 24.1528L63.4559 24.0476L63.2361 26.1254L64.9922 24.9932L64.4503 24.1528ZM68.2415 21.8555L68.7355 22.725L70.4313 21.7614L68.6591 20.9469L68.2415 21.8555ZM66.3349 22.9747L65.8167 22.1194L65.8167 22.1194L66.3349 22.9747ZM54.9546 32.8067L54.2621 32.0853L53.5011 32.8158L54.2711 33.5367L54.9546 32.8067ZM61.1029 27.6586L62.1011 27.7177L62.2272 25.5853L60.5089 26.8542L61.1029 27.6586ZM61.1029 37.8091L60.5214 38.6227L62.2249 39.8402L62.1012 37.75L61.1029 37.8091ZM61.1889 39.0913L62.1861 39.0165L62.1505 38.5422L61.7601 38.2705L61.1889 39.0913ZM54.2268 33.5193L54.908 32.7872L54.202 32.1304L53.5199 32.812L54.2268 33.5193ZM51.4349 36.5831L50.6618 35.9488L50.6618 35.9488L51.4349 36.5831ZM47.8764 46.0553L47.0078 46.5508L47.0078 46.5508L47.8764 46.0553ZM57.509 47.3289L57.2937 46.3524L57.2937 46.3524L57.509 47.3289ZM62.038 46.0306L62.3657 46.9754L63.1693 46.6966L63.0232 45.8588L62.038 46.0306ZM64.4503 41.2356L64.9779 40.3861L63.2403 39.307L63.4559 41.341L64.4503 41.2356ZM64.9416 44.9245L63.9545 45.0845L64.1566 46.3316L65.324 45.8485L64.9416 44.9245ZM68.2416 43.443L68.6767 44.3434L70.43 43.496L68.7198 42.5648L68.2416 43.443ZM66.3348 42.3689L66.838 41.5047L66.838 41.5047L66.3348 42.3689ZM71.6554 38.6449L71.6372 37.6451L71.6372 37.6451L71.6554 38.6449ZM71.6554 26.5728L71.6609 27.5728L71.6609 27.5728L71.6554 26.5728ZM64.8271 53.0985C64.3818 51.7999 63.983 50.389 63.6343 48.8841L61.6859 49.3355C62.048 50.8984 62.465 52.3759 62.9352 53.7471L64.8271 53.0985ZM71.6123 61.2179C70.4994 61.2656 69.3223 60.7295 68.1314 59.3835C66.934 58.0302 65.7993 55.9344 64.8271 53.0985L62.9352 53.7471C63.9538 56.7186 65.1964 59.0845 66.6335 60.7088C68.0771 62.3403 69.7916 63.2977 71.698 63.216L71.6123 61.2179ZM78.355 52.5947C77.409 55.4627 76.2954 57.632 75.1063 59.0801C73.9177 60.5278 72.73 61.1699 71.6123 61.2179L71.698 63.216C73.5806 63.1353 75.2499 62.057 76.652 60.3493C78.0538 58.6421 79.2648 56.2212 80.2543 53.2212L78.355 52.5947ZM79.5079 48.3761C79.1714 49.8759 78.786 51.2881 78.355 52.5947L80.2543 53.2212C80.7082 51.8453 81.1104 50.3695 81.4594 48.8139L79.5079 48.3761ZM84.7054 48.5409C83.4546 48.3307 82.1337 48.0268 80.7587 47.6335L80.2087 49.5565C81.6464 49.9676 83.0406 50.2892 84.374 50.5133L84.7054 48.5409ZM94.5316 46.2963C93.9798 47.3428 92.9356 48.1292 91.2927 48.5478C89.6343 48.9704 87.4246 48.9979 84.7054 48.5409L84.374 50.5133C87.2526 50.997 89.7646 51.0012 91.7866 50.4859C93.8243 49.9666 95.4194 48.9006 96.3007 47.2292L94.5316 46.2963ZM91.2057 36.1756C92.9816 38.3828 94.1172 40.3965 94.648 42.1324C95.1771 43.8627 95.0868 45.2433 94.5316 46.2963L96.3007 47.2292C97.1742 45.5726 97.1922 43.6133 96.5605 41.5475C95.9305 39.4872 94.6361 37.2487 92.7639 34.9218L91.2057 36.1756ZM88.4415 33.107C89.4652 34.1357 90.3906 35.1625 91.2057 36.1756L92.7639 34.9219C91.8998 33.8478 90.9265 32.7688 89.8591 31.6962L88.4415 33.107ZM91.2 28.5675C90.384 29.601 89.4578 30.6507 88.4333 31.7045L89.8673 33.0987C90.934 32.0015 91.9064 30.9004 92.7697 29.8069L91.2 28.5675ZM94.5339 18.363C95.085 19.3949 95.1782 20.7712 94.6473 22.5198C94.1154 24.2719 92.9777 26.3159 91.2 28.5676L92.7697 29.8069C94.6399 27.4381 95.9322 25.1722 96.5611 23.1008C97.191 21.0258 97.1759 19.0646 96.2982 17.4209L94.5339 18.363ZM84.728 16.3673C87.4489 15.8457 89.6582 15.8212 91.3144 16.204C92.9539 16.583 93.9881 17.3407 94.5339 18.363L96.2982 17.4209C95.4109 15.7593 93.8057 14.7271 91.7648 14.2554C89.7405 13.7875 87.2282 13.8515 84.3514 14.4031L84.728 16.3673ZM80.7795 17.3687C82.1553 16.9426 83.4767 16.6073 84.7281 16.3673L84.3514 14.4031C83.0185 14.6587 81.6249 15.0132 80.1879 15.4582L80.7795 17.3687ZM78.3557 12.4439C78.7865 13.7396 79.1718 15.142 79.5082 16.6335L81.4592 16.1934C81.1101 14.6456 80.7077 13.1788 80.2536 11.813L78.3557 12.4439ZM71.636 4.00059C72.7492 4.02195 73.9292 4.63187 75.1125 6.04494C76.2978 7.46048 77.4101 9.59948 78.3557 12.4439L80.2536 11.813C79.2637 8.83535 78.0513 6.4393 76.6459 4.76091C75.2384 3.08006 73.5613 2.03716 71.6743 2.00096L71.636 4.00059ZM64.8279 12.3009C65.8004 9.44092 66.9367 7.31404 68.1382 5.92765C69.3353 4.54623 70.5202 3.97918 71.636 4.00059L71.6743 2.00096C69.7707 1.96443 68.0641 2.9593 66.6268 4.61784C65.1937 6.27142 63.9527 8.66257 62.9344 11.6569L64.8279 12.3009ZM63.6346 16.5454C63.9834 15.0318 64.3824 13.6108 64.8279 12.3009L62.9344 11.6569C62.4645 13.0386 62.0476 14.5254 61.6857 16.0964L63.6346 16.5454ZM58.2183 16.2018C59.5408 16.4649 60.9273 16.8247 62.3604 17.2749L62.9598 15.3669C61.4664 14.8977 60.0098 14.519 58.6085 14.2402L58.2183 16.2018ZM47.5205 18.2044C48.1306 17.1231 49.2828 16.3283 51.0871 15.9473C52.9033 15.5638 55.3022 15.6216 58.2183 16.2018L58.6085 14.2402C55.5398 13.6297 52.8479 13.5314 50.6739 13.9905C48.488 14.4521 46.7507 15.4987 45.7786 17.2216L47.5205 18.2044ZM51.1884 28.8967C49.2312 26.5557 47.9753 24.416 47.3883 22.5771C46.8033 20.744 46.9051 19.2951 47.5205 18.2044L45.7786 17.2217C44.8066 18.9444 44.7884 21.0087 45.483 23.1852C46.1758 25.3557 47.5993 27.7219 49.654 30.1795L51.1884 28.8967ZM54.1893 32.1054C53.084 31.0356 52.0789 29.9619 51.1884 28.8967L49.654 30.1795C50.5946 31.3046 51.6486 32.4297 52.7984 33.5425L54.1893 32.1054ZM51.1945 36.8166C52.0859 35.7293 53.0919 34.6308 54.198 33.5341L52.7898 32.1138C51.6407 33.2532 50.5876 34.4023 49.6479 35.5486L51.1945 36.8166ZM47.5175 47.6007C46.9071 46.5332 46.8018 45.0893 47.3889 43.2361C47.9771 41.3793 49.2354 39.2064 51.1945 36.8166L49.6479 35.5486C47.595 38.0527 46.1738 40.4491 45.4822 42.6321C44.7896 44.8188 44.8044 46.8852 45.7814 48.5935L47.5175 47.6007ZM58.1962 49.3342C55.2781 49.9839 52.8791 50.0983 51.0647 49.7581C49.2626 49.4203 48.121 48.6559 47.5175 47.6007L45.7814 48.5935C46.7601 50.3051 48.5081 51.3137 50.6962 51.7239C52.872 52.1318 55.5639 51.9693 58.6308 51.2864L58.1962 49.3342ZM62.3401 48.1624C60.9063 48.6468 59.5192 49.0396 58.1962 49.3342L58.6308 51.2864C60.0315 50.9745 61.4874 50.5615 62.9802 50.0572L62.3401 48.1624ZM64.5571 48.2581C64.9256 49.9348 65.358 51.5122 65.8521 52.963L67.7453 52.3183C67.2786 50.9477 66.8653 49.4433 66.5105 47.8287L64.5571 48.2581ZM65.8521 52.963C66.6974 55.4454 67.6916 57.4558 68.7916 58.8554C69.8719 60.2298 71.2035 61.1934 72.7241 61.1314L72.6426 59.1331C72.0763 59.1562 71.2914 58.7994 70.3641 57.6195C69.4565 56.4648 68.5518 54.6868 67.7453 52.3184L65.8521 52.963ZM72.7241 61.1314C74.2195 61.0705 75.5129 60.0292 76.5672 58.6003C77.6447 57.14 78.6193 55.0839 79.4462 52.5711L77.5465 51.9459C76.7561 54.3475 75.8631 56.186 74.9579 57.4128C74.0296 58.671 73.2252 59.1094 72.6426 59.1331L72.7241 61.1314ZM79.4462 52.5711C79.8603 51.313 80.2295 49.9663 80.5527 48.5477L78.6026 48.1035C78.2917 49.4685 77.9387 50.7542 77.5465 51.9459L79.4462 52.5711ZM79.8724 47.37C77.3957 46.6059 74.7697 45.5673 72.0865 44.2856L71.2244 46.0903C73.9843 47.4086 76.7014 48.4847 79.2828 49.2812L79.8724 47.37ZM71.1887 44.3035C69.1505 45.3792 67.127 46.3228 65.1598 47.1159L65.9077 48.9709C67.9431 48.1502 70.0285 47.1773 72.1222 46.0723L71.1887 44.3035ZM84.5613 47.4717C83.422 47.2777 82.2199 47.0015 80.9681 46.6468L80.4228 48.5711C81.7348 48.9428 83.0071 49.2358 84.2255 49.4433L84.5613 47.4717ZM92.4394 46.2714C92.1412 46.8356 91.4291 47.3583 90.0537 47.6237C88.6925 47.8864 86.8397 47.8598 84.5613 47.4717L84.2255 49.4433C86.6374 49.8541 88.7509 49.912 90.4327 49.5875C92.1003 49.2657 93.5082 48.5295 94.2077 47.2058L92.4394 46.2714ZM89.2876 38.4466C90.7828 40.2934 91.7758 41.9561 92.28 43.3373C92.7926 44.7412 92.7456 45.692 92.4394 46.2713L94.2077 47.2059C94.897 45.9015 94.7565 44.2886 94.1587 42.6513C93.5526 40.9913 92.4184 39.1353 90.842 37.1881L89.2876 38.4466ZM86.308 35.1972C87.4224 36.2876 88.4207 37.3758 89.2876 38.4466L90.842 37.1881C89.9205 36.0498 88.8689 34.9048 87.7067 33.7677L86.308 35.1972ZM82.4958 39.5101C84.3598 38.1148 86.1002 36.675 87.6842 35.2186L86.3305 33.7463C84.7997 35.1538 83.1116 36.5509 81.2973 37.909L82.4958 39.5101ZM80.8993 38.6364C80.6715 41.7432 80.2718 44.7012 79.7159 47.4078L81.675 47.8101C82.2502 45.0096 82.6606 41.9653 82.8939 38.7827L80.8993 38.6364ZM80.7708 47.5456C81.2893 45.0509 81.6722 42.3474 81.9104 39.5164L79.9175 39.3487C79.6852 42.1089 79.3129 44.7318 78.8126 47.1386L80.7708 47.5456ZM80.0851 46.3861C77.8842 45.7106 75.5532 44.806 73.1624 43.6962L72.3203 45.5102C74.7831 46.6535 77.1995 47.5925 79.4983 48.2981L80.0851 46.3861ZM73.2227 45.4797C74.6354 44.704 76.0494 43.8693 77.452 42.9817L76.3825 41.2917C75.0143 42.1575 73.6359 42.9711 72.26 43.7267L73.2227 45.4797ZM77.452 42.9817C78.8499 42.097 80.2026 41.1811 81.4999 40.2428L80.3279 38.6222C79.0645 39.5359 77.746 40.4287 76.3824 41.2917L77.452 42.9817ZM84.1379 31.7074C83.294 32.4616 82.4027 33.2126 81.4694 33.9554L82.7149 35.5202C83.6765 34.7549 84.5969 33.9795 85.4706 33.1988L84.1379 31.7074ZM81.481 31.0241C82.4138 31.7445 83.3045 32.4738 84.1479 33.2076L85.4606 31.6986C84.5864 30.9381 83.6655 30.1841 82.7034 29.4412L81.481 31.0241ZM81.0925 30.2584C81.1115 30.9954 81.1211 31.7379 81.1211 32.4848H83.1211C83.1211 31.7208 83.1113 30.9611 83.0919 30.2068L81.0925 30.2584ZM81.1211 32.4848C81.1211 33.2317 81.1115 33.9746 81.0925 34.7121L83.0919 34.7636C83.1113 34.0089 83.1211 33.2488 83.1211 32.4848H81.1211ZM82.1995 32.4957C82.1995 31.4819 82.182 30.4764 82.1473 29.4821L80.1485 29.5518C80.1824 30.5227 80.1995 31.505 80.1995 32.4957H82.1995ZM82.1473 35.5107C82.182 34.5156 82.1995 33.5095 82.1995 32.4957H80.1995C80.1995 33.4865 80.1824 34.4693 80.1485 35.441L82.1473 35.5107ZM80.539 34.6826C78.7816 36.0315 76.8907 37.347 74.899 38.5998L75.9639 40.2927C78.0063 39.008 79.9483 37.6572 81.7567 36.2692L80.539 34.6826ZM74.899 38.5998C72.8977 39.8587 70.8779 41.0021 68.8814 42.0112L69.7836 43.7962C71.8377 42.7579 73.9118 41.5836 75.9639 40.2927L74.899 38.5998ZM69.8026 42.0211C68.9749 41.5802 68.1446 41.117 67.3144 40.6327L66.3066 42.3602C67.1587 42.8574 68.0116 43.3331 68.8623 43.7863L69.8026 42.0211ZM67.3144 40.6327C66.4825 40.1474 65.6653 39.6492 64.8652 39.1402L63.7916 40.8277C64.6135 41.3505 65.4527 41.862 66.3066 42.3602L67.3144 40.6327ZM63.0124 32.6993C63.0124 35.2254 63.1212 37.699 63.3323 40.0725L65.3245 39.8953C65.1188 37.5829 65.0124 35.1686 65.0124 32.6993H63.0124ZM63.3323 25.319C63.1212 27.6973 63.0124 30.1732 63.0124 32.6993H65.0124C65.0124 30.2301 65.1188 27.8132 65.3245 25.4958L63.3323 25.319ZM64.8791 26.2421C65.6796 25.7138 66.4973 25.1961 67.3295 24.6908L66.2916 22.9812C65.438 23.4994 64.5992 24.0306 63.7776 24.5727L64.8791 26.2421ZM67.3295 24.6908C68.16 24.1866 68.9907 23.7036 69.8187 23.2429L68.8463 21.4952C67.9959 21.9684 67.1434 22.4641 66.2916 22.9812L67.3295 24.6908ZM68.8985 23.27C70.8941 24.2314 72.9131 25.3265 74.9135 26.5374L75.9492 24.8265C73.8963 23.5837 71.8214 22.4581 69.7665 21.4681L68.8985 23.27ZM74.9135 26.5374C76.9044 27.7426 78.7945 29.0126 80.551 30.3193L81.7447 28.7146C79.9354 27.3687 77.9924 26.0633 75.9492 24.8265L74.9135 26.5374ZM81.3097 27.0751C83.1232 28.3896 84.8103 29.746 86.3401 31.1164L87.6746 29.6267C86.0896 28.2069 84.3483 26.8076 82.4835 25.4558L81.3097 27.0751ZM87.7152 31.0779C88.8766 29.9141 89.9273 28.7452 90.8479 27.5862L89.2818 26.3422C88.414 27.4347 87.4148 28.5475 86.2995 29.6652L87.7152 31.0779ZM90.8479 27.5862C92.4227 25.6036 93.5549 23.7237 94.1597 22.0528C94.755 20.4081 94.899 18.7902 94.2052 17.4939L92.4418 18.4376C92.7436 19.0014 92.7941 19.9493 92.2791 21.3721C91.7736 22.7687 90.7786 24.458 89.2818 26.3422L90.8479 27.5862ZM94.2052 17.4939C93.4984 16.1732 92.0781 15.4681 90.4101 15.1857C88.7268 14.9008 86.6134 15.009 84.2029 15.4767L84.5838 17.4401C86.8637 16.9977 88.7165 16.9275 90.0763 17.1577C91.4513 17.3904 92.1509 17.8939 92.4418 18.4376L94.2052 17.4939ZM84.2029 15.4767C82.9851 15.713 81.7133 16.036 80.402 16.4386L80.989 18.3505C82.2414 17.966 83.444 17.6612 84.5838 17.4401L84.2029 15.4767ZM79.7161 17.5967C80.2718 20.2895 80.6715 23.2375 80.8993 26.3387L82.8939 26.1922C82.6606 23.015 82.2501 19.98 81.6748 17.1924L79.7161 17.5967ZM81.9104 25.4818C81.6722 22.6562 81.2892 19.9614 80.7706 17.4783L78.8129 17.8872C79.313 20.2816 79.6853 22.8952 79.9175 25.6498L81.9104 25.4818ZM76.3969 23.8103C77.76 24.6406 79.0779 25.5018 80.3408 26.3852L81.4871 24.7463C80.1892 23.8384 78.8359 22.9542 77.4374 22.1023L76.3969 23.8103ZM72.2763 21.474C73.6515 22.1966 75.0293 22.9772 76.3969 23.8103L77.4374 22.1023C76.0343 21.2476 74.6198 20.4461 73.2066 19.7035L72.2763 21.474ZM79.4778 16.7333C77.1801 17.493 74.7648 18.4889 72.3029 19.69L73.1799 21.4875C75.5718 20.3205 77.9038 19.3602 80.1057 18.6322L79.4778 16.7333ZM80.5524 16.4811C80.2292 15.0697 79.8598 13.7312 79.4455 12.4822L77.5472 13.1119C77.9392 14.2936 78.2921 15.5704 78.6029 16.9276L80.5524 16.4811ZM79.4455 12.4822C78.6182 9.98801 77.6426 7.95181 76.5622 6.51318C75.504 5.10411 74.2023 4.08672 72.7004 4.06113L72.6663 6.06084C73.2423 6.07065 74.0385 6.48315 74.9629 7.71419C75.8652 8.91566 76.7571 10.7298 77.5472 13.1119L79.4455 12.4822ZM72.7004 4.06113C71.1848 4.03534 69.8618 5.0245 68.7861 6.41852C67.6892 7.84006 66.6963 9.87048 65.8513 12.372L67.7461 13.0121C68.5529 10.6235 69.4588 8.82065 70.3695 7.64031C71.3016 6.43245 72.095 6.05112 72.6663 6.06084L72.7004 4.06113ZM65.8513 12.372C65.3575 13.8337 64.9253 15.4206 64.5569 17.1056L66.5107 17.5328C66.8656 15.9094 67.2791 14.3946 67.7461 13.0121L65.8513 12.372ZM65.179 18.2542C67.1453 19.0004 69.168 19.8957 71.2053 20.9227L72.1056 19.1367C70.0111 18.0809 67.9248 17.157 65.8886 16.3843L65.179 18.2542ZM72.1036 20.9236C74.788 19.5778 77.4151 18.4765 79.8929 17.6533L79.2624 15.7553C76.6821 16.6125 73.9661 17.7526 71.2072 19.1358L72.1036 20.9236ZM62.3455 18.4635C60.7464 17.9467 59.1906 17.5357 57.7021 17.2428L57.3159 19.2052C58.7171 19.4809 60.1962 19.8707 61.7305 20.3666L62.3455 18.4635ZM57.7022 17.2428C55.1318 16.7369 52.8714 16.6073 51.07 16.8873C49.2906 17.1639 47.7701 17.8759 47.005 19.2353L48.7479 20.2163C49.0776 19.6305 49.8671 19.0983 51.3772 18.8636C52.8652 18.6323 54.8737 18.7244 57.3159 19.2052L57.7022 17.2428ZM47.005 19.2353C46.2433 20.5886 46.4003 22.285 47.0518 24.0027C47.7131 25.7464 48.9506 27.7028 50.668 29.7554L52.2019 28.472C50.5663 26.5172 49.4759 24.7545 48.9218 23.2935C48.3579 21.8066 48.4122 20.8127 48.7479 20.2163L47.005 19.2353ZM50.668 29.7554C51.5265 30.7816 52.4848 31.8088 53.5284 32.827L54.9251 31.3955C53.9242 30.4189 53.0125 29.4409 52.2019 28.472L50.668 29.7554ZM54.9171 32.8348C56.9365 30.908 59.2498 29.0017 61.773 27.186L60.6048 25.5626C58.015 27.4262 55.6294 29.3908 53.5365 31.3877L54.9171 32.8348ZM62.1861 26.449C62.3655 24.0552 62.6471 21.7522 63.0233 19.5861L61.0528 19.2439C60.6646 21.4788 60.3756 23.8464 60.1917 26.2996L62.1861 26.449ZM63.9544 20.2929C63.7583 21.5078 63.5918 22.762 63.4559 24.0476L65.4448 24.2579C65.5771 23.0068 65.7388 21.7887 65.9288 20.6116L63.9544 20.2929ZM68.6591 20.9469C67.531 20.4284 66.4106 19.9519 65.305 19.5206L64.5782 21.3839C65.6455 21.8002 66.7297 22.2613 67.8239 22.7642L68.6591 20.9469ZM66.8531 23.83C67.4806 23.4498 68.1084 23.0813 68.7355 22.725L67.7475 20.9861C67.104 21.3517 66.46 21.7297 65.8167 22.1194L66.8531 23.83ZM64.9922 24.9932C65.6039 24.5988 66.2246 24.2108 66.8531 23.83L65.8167 22.1194C65.1723 22.5099 64.5359 22.9078 63.9084 23.3123L64.9922 24.9932ZM55.6471 33.5281C57.4361 31.8108 59.4741 30.1045 61.6969 28.4631L60.5089 26.8542C58.2245 28.541 56.1196 30.3022 54.2621 32.0853L55.6471 33.5281ZM61.6844 36.9955C59.4626 35.4075 57.4257 33.7504 55.638 32.0767L54.2711 33.5367C56.1299 35.2769 58.236 36.9892 60.5214 38.6227L61.6844 36.9955ZM62.1012 37.75C62.0042 36.1117 61.9546 34.4354 61.9546 32.7355H59.9546C59.9546 34.4742 60.0053 36.1899 60.1047 37.8682L62.1012 37.75ZM61.9546 32.7355C61.9546 31.0357 62.0042 29.3582 62.1011 27.7177L60.1046 27.5996C60.0053 29.2802 59.9546 30.997 59.9546 32.7355H61.9546ZM61.7601 38.2705C59.2381 36.5154 56.9261 34.6649 54.908 32.7872L53.5457 34.2515C55.6399 36.2 58.0268 38.1091 60.6177 39.9121L61.7601 38.2705ZM53.5199 32.812C52.4771 33.8542 51.5196 34.9033 50.6618 35.9488L52.208 37.2174C53.0195 36.2282 53.932 35.2278 54.9337 34.2267L53.5199 32.812ZM50.6618 35.9488C48.946 38.0402 47.7107 40.0228 47.0507 41.7785C46.402 43.5044 46.2409 45.2065 47.0078 46.5508L48.745 45.5598C48.4145 44.9804 48.3562 43.9898 48.9229 42.4822C49.4783 41.0044 50.5709 39.2128 52.208 37.2174L50.6618 35.9488ZM47.0078 46.5508C47.7809 47.9061 49.3144 48.5835 51.093 48.8178C52.8954 49.0552 55.1555 48.872 57.7244 48.3055L57.2937 46.3524C54.85 46.8913 52.8413 47.0308 51.3542 46.8349C49.8433 46.6359 49.0667 46.1238 48.745 45.5598L47.0078 46.5508ZM57.7244 48.3055C59.2123 47.9774 60.7674 47.5298 62.3657 46.9754L61.7104 45.0858C60.1753 45.6182 58.6956 46.0433 57.2937 46.3524L57.7244 48.3055ZM63.0232 45.8588C62.647 43.702 62.3655 41.4059 62.1861 39.0165L60.1917 39.1662C60.3756 41.6151 60.6647 43.9763 61.0529 46.2024L63.0232 45.8588ZM63.4559 41.341C63.5919 42.6235 63.7584 43.874 63.9545 45.0845L65.9288 44.7646C65.7388 43.5921 65.577 42.3781 65.4447 41.1301L63.4559 41.341ZM65.324 45.8485C66.4291 45.3913 67.549 44.8884 68.6767 44.3434L67.8065 42.5427C66.7118 43.0717 65.627 43.5587 64.5593 44.0005L65.324 45.8485ZM68.7198 42.5648C68.0929 42.2234 67.4653 41.8699 66.838 41.5047L65.8317 43.2331C66.4753 43.6079 67.1196 43.9707 67.7634 44.3213L68.7198 42.5648ZM66.838 41.5047C66.2097 41.139 65.5894 40.7658 64.9779 40.3861L63.9228 42.0851C64.5504 42.4749 65.1871 42.8578 65.8317 43.2331L66.838 41.5047ZM76.3573 32.5413C76.3573 35.3579 74.2027 37.5985 71.6372 37.6451L71.6735 39.6448C75.4231 39.5766 78.3573 36.3521 78.3573 32.5413H76.3573ZM71.6609 27.5728C74.2152 27.5587 76.3573 29.732 76.3573 32.5413H78.3573C78.3573 28.7232 75.4105 25.552 71.6498 25.5728L71.6609 27.5728ZM66.8845 32.6772C66.8845 29.8263 69.0786 27.587 71.6609 27.5728L71.6498 25.5728C67.8751 25.5936 64.8845 28.8205 64.8845 32.6772H66.8845ZM71.6372 37.6451C69.0655 37.6918 66.8845 35.5204 66.8845 32.6772H64.8845C64.8845 36.5416 67.888 39.7136 71.6735 39.6448L71.6372 37.6451Z" fill="#35290F" mask="url(#path-5-outside-1_257_5758)"/>
<mask id="path-7-outside-2_257_5758" maskUnits="userSpaceOnUse" x="43" y="0" width="52" height="62" fill="black">
<rect fill="white" x="43" width="52" height="62"/>
<path fill-rule="evenodd" clip-rule="evenodd" d="M60.6601 47.1098C61.0155 48.6437 61.4234 50.0879 61.8811 51.4228C63.872 57.2301 66.6358 60.3463 69.6551 60.2169C72.6554 60.0883 75.3691 56.776 77.3047 50.9079C77.7471 49.5667 78.1409 48.1227 78.4837 46.595C79.8901 46.9972 81.2476 47.31 82.5397 47.5271C88.1374 48.4678 91.983 47.4806 93.4161 44.7627C94.8449 42.0532 93.6329 38.0828 89.9848 33.5487C89.1452 32.5051 88.1959 31.4523 87.1503 30.4016C88.1959 29.3261 89.1452 28.2507 89.9849 27.1872C93.6328 22.5668 94.8448 18.5675 93.4161 15.8919C91.983 13.2081 88.1374 12.312 82.5397 13.3852C81.2476 13.633 79.8901 13.9779 78.4837 14.4134C78.1409 12.8938 77.7471 11.4592 77.3047 10.1284C75.3691 4.3064 72.6554 1.05834 69.6551 1.00078C66.6358 0.942833 63.872 4.1246 61.8811 9.97889C61.4234 11.3247 61.0155 12.7786 60.6601 14.3209C59.1968 13.8612 57.7753 13.492 56.4134 13.221C50.4286 12.0303 46.2318 12.9087 44.6495 15.713C43.0622 18.5265 44.4093 22.7395 48.4212 27.5381C49.3368 28.6332 50.3663 29.7327 51.4939 30.824C50.3663 31.942 49.3368 33.0658 48.4212 34.1826C44.4092 39.0764 43.0621 43.3213 44.6494 46.0971C46.2317 48.8639 50.4285 49.6429 56.4135 48.3103C57.7754 48.0071 59.1969 47.6042 60.6601 47.1098ZM63.5338 46.0434C63.8955 47.6891 64.3183 49.2299 64.7987 50.6407C66.4505 55.4915 68.5964 58.2173 70.6833 58.1323C72.7613 58.0476 74.879 55.173 76.4964 50.2585C76.8995 49.0336 77.2606 47.7174 77.5776 46.3256C75.0485 45.5453 72.377 44.488 69.6554 43.1879C67.5895 44.2783 65.5351 45.2365 63.5338 46.0434ZM78.6954 45.609C79.9773 45.9722 81.2146 46.2568 82.3934 46.4575C87.0837 47.2563 90.3259 46.6265 91.3236 44.7386C92.3191 42.8549 91.1364 39.6113 88.0648 35.8173C87.1706 34.7128 86.1456 33.5962 85.0073 32.4824C83.4499 33.9144 81.7357 35.3328 79.8966 36.7096C79.666 39.8542 79.261 42.8554 78.6954 45.609ZM78.9139 37.4325C78.6787 40.2282 78.3011 42.8913 77.7917 45.3421C75.5419 44.6516 73.1682 43.7297 70.7413 42.6032C72.1356 41.8375 73.5319 41.0134 74.9172 40.1367C76.298 39.2628 77.6336 38.3585 78.9139 37.4325ZM80.0922 32.7378C81.0396 31.9837 81.9455 31.2206 82.8043 30.4531C81.9455 29.706 81.0396 28.9643 80.0922 28.2326C80.1114 28.9782 80.1211 29.7294 80.1211 30.4848C80.1211 31.2403 80.1114 31.9917 80.0922 32.7378ZM79.1479 27.5169C79.1822 28.4995 79.1995 29.4934 79.1995 30.4957C79.1995 31.498 79.1822 32.4924 79.1479 33.4759C77.3649 34.8444 75.4485 36.1775 73.4314 37.4463C71.4047 38.7211 69.3578 39.88 67.3325 40.9037C66.4933 40.4566 65.6517 39.9872 64.8105 39.4965C63.9676 39.0047 63.1394 38.4999 62.3284 37.9839C62.12 35.641 62.0124 33.197 62.0124 30.6993C62.0124 28.2017 62.12 25.7552 62.3284 23.4074C63.1394 22.8722 63.9676 22.3478 64.8106 21.836C65.6517 21.3253 66.4933 20.836 67.3325 20.369C69.3578 21.3447 71.4047 22.4551 73.4313 23.6819C75.4484 24.9029 77.3649 26.1907 79.1479 27.5169ZM79.8966 24.2655C81.7358 25.5986 83.45 26.9765 85.0074 28.3715C86.1457 27.2308 87.1707 26.09 88.0648 24.9642C91.1365 21.0974 92.319 17.8259 91.3235 15.9657C90.3258 14.1014 87.0837 13.5483 82.3933 14.4584C81.2145 14.6871 79.9773 15.001 78.6955 15.3946C79.261 18.1347 79.666 21.1262 79.8966 24.2655ZM77.7918 15.6828C78.3011 18.1215 78.6787 20.7757 78.9139 23.5658C77.6335 22.6701 76.2979 21.7974 74.9171 20.9563C73.5318 20.1124 72.1357 19.3214 70.7414 18.5887C73.1683 17.4047 75.542 16.4266 77.7918 15.6828ZM77.5777 14.7043C77.2606 13.32 76.8995 12.0124 76.4964 10.797C74.879 5.92076 72.7613 3.09639 70.6833 3.06099C68.5964 3.02547 66.4505 5.80196 64.7987 10.692C64.3183 12.1141 63.8955 13.665 63.5338 15.3192C65.5351 16.0787 67.5895 16.9883 69.6554 18.0297C72.377 16.6652 75.0486 15.5445 77.5777 14.7043ZM60.038 17.415C58.4713 16.9087 56.9539 16.5083 55.509 16.224C50.4965 15.2373 46.9713 15.7806 45.8764 17.7258C44.779 19.6755 46.082 23.1063 49.4349 27.1137C50.2695 28.1112 51.2045 29.1138 52.2268 30.1113C54.283 28.1494 56.6324 26.2139 59.1889 24.3743C59.3706 21.9508 59.6558 19.6155 60.038 17.415ZM62.4503 22.1528C62.5844 20.8844 62.7486 19.6483 62.9416 18.4523C64.028 18.8761 65.1303 19.3448 66.2415 19.8555C65.6062 20.2165 64.9703 20.5897 64.3349 20.9747C63.6985 21.3603 63.0699 21.7533 62.4503 22.1528ZM59.1029 25.6586C56.8493 27.3228 54.7778 29.0565 52.9546 30.8067C54.7778 32.5137 56.8493 34.1984 59.1029 35.8091C59.0047 34.1508 58.9546 32.4548 58.9546 30.7355C58.9546 29.0163 59.0047 27.3192 59.1029 25.6586ZM59.1889 37.0913C56.6324 35.3123 54.283 33.4324 52.2268 31.5193C51.2045 32.541 50.2695 33.5658 49.4349 34.5831C46.082 38.6699 44.779 42.1316 45.8764 44.0553C46.9712 45.9746 50.4965 46.4343 55.509 45.3289C56.9539 45.0103 58.4713 44.574 60.038 44.0306C59.6558 41.8391 59.3706 39.5105 59.1889 37.0913ZM62.4503 39.2356C62.5845 40.5008 62.7486 41.733 62.9416 42.9245C64.0281 42.475 65.1304 41.9801 66.2416 41.443C65.6063 41.0971 64.9703 40.7389 64.3348 40.3689C63.6984 39.9984 63.0699 39.6203 62.4503 39.2356ZM69.6554 36.6449C72.8129 36.5875 75.3573 33.855 75.3573 30.5413C75.3573 27.2276 72.8129 24.5554 69.6554 24.5728C66.4768 24.5903 63.8845 27.3234 63.8845 30.6772C63.8845 34.031 66.4768 36.7027 69.6554 36.6449Z"/>
</mask>
<path fill-rule="evenodd" clip-rule="evenodd" d="M60.6601 47.1098C61.0155 48.6437 61.4234 50.0879 61.8811 51.4228C63.872 57.2301 66.6358 60.3463 69.6551 60.2169C72.6554 60.0883 75.3691 56.776 77.3047 50.9079C77.7471 49.5667 78.1409 48.1227 78.4837 46.595C79.8901 46.9972 81.2476 47.31 82.5397 47.5271C88.1374 48.4678 91.983 47.4806 93.4161 44.7627C94.8449 42.0532 93.6329 38.0828 89.9848 33.5487C89.1452 32.5051 88.1959 31.4523 87.1503 30.4016C88.1959 29.3261 89.1452 28.2507 89.9849 27.1872C93.6328 22.5668 94.8448 18.5675 93.4161 15.8919C91.983 13.2081 88.1374 12.312 82.5397 13.3852C81.2476 13.633 79.8901 13.9779 78.4837 14.4134C78.1409 12.8938 77.7471 11.4592 77.3047 10.1284C75.3691 4.3064 72.6554 1.05834 69.6551 1.00078C66.6358 0.942833 63.872 4.1246 61.8811 9.97889C61.4234 11.3247 61.0155 12.7786 60.6601 14.3209C59.1968 13.8612 57.7753 13.492 56.4134 13.221C50.4286 12.0303 46.2318 12.9087 44.6495 15.713C43.0622 18.5265 44.4093 22.7395 48.4212 27.5381C49.3368 28.6332 50.3663 29.7327 51.4939 30.824C50.3663 31.942 49.3368 33.0658 48.4212 34.1826C44.4092 39.0764 43.0621 43.3213 44.6494 46.0971C46.2317 48.8639 50.4285 49.6429 56.4135 48.3103C57.7754 48.0071 59.1969 47.6042 60.6601 47.1098ZM63.5338 46.0434C63.8955 47.6891 64.3183 49.2299 64.7987 50.6407C66.4505 55.4915 68.5964 58.2173 70.6833 58.1323C72.7613 58.0476 74.879 55.173 76.4964 50.2585C76.8995 49.0336 77.2606 47.7174 77.5776 46.3256C75.0485 45.5453 72.377 44.488 69.6554 43.1879C67.5895 44.2783 65.5351 45.2365 63.5338 46.0434ZM78.6954 45.609C79.9773 45.9722 81.2146 46.2568 82.3934 46.4575C87.0837 47.2563 90.3259 46.6265 91.3236 44.7386C92.3191 42.8549 91.1364 39.6113 88.0648 35.8173C87.1706 34.7128 86.1456 33.5962 85.0073 32.4824C83.4499 33.9144 81.7357 35.3328 79.8966 36.7096C79.666 39.8542 79.261 42.8554 78.6954 45.609ZM78.9139 37.4325C78.6787 40.2282 78.3011 42.8913 77.7917 45.3421C75.5419 44.6516 73.1682 43.7297 70.7413 42.6032C72.1356 41.8375 73.5319 41.0134 74.9172 40.1367C76.298 39.2628 77.6336 38.3585 78.9139 37.4325ZM80.0922 32.7378C81.0396 31.9837 81.9455 31.2206 82.8043 30.4531C81.9455 29.706 81.0396 28.9643 80.0922 28.2326C80.1114 28.9782 80.1211 29.7294 80.1211 30.4848C80.1211 31.2403 80.1114 31.9917 80.0922 32.7378ZM79.1479 27.5169C79.1822 28.4995 79.1995 29.4934 79.1995 30.4957C79.1995 31.498 79.1822 32.4924 79.1479 33.4759C77.3649 34.8444 75.4485 36.1775 73.4314 37.4463C71.4047 38.7211 69.3578 39.88 67.3325 40.9037C66.4933 40.4566 65.6517 39.9872 64.8105 39.4965C63.9676 39.0047 63.1394 38.4999 62.3284 37.9839C62.12 35.641 62.0124 33.197 62.0124 30.6993C62.0124 28.2017 62.12 25.7552 62.3284 23.4074C63.1394 22.8722 63.9676 22.3478 64.8106 21.836C65.6517 21.3253 66.4933 20.836 67.3325 20.369C69.3578 21.3447 71.4047 22.4551 73.4313 23.6819C75.4484 24.9029 77.3649 26.1907 79.1479 27.5169ZM79.8966 24.2655C81.7358 25.5986 83.45 26.9765 85.0074 28.3715C86.1457 27.2308 87.1707 26.09 88.0648 24.9642C91.1365 21.0974 92.319 17.8259 91.3235 15.9657C90.3258 14.1014 87.0837 13.5483 82.3933 14.4584C81.2145 14.6871 79.9773 15.001 78.6955 15.3946C79.261 18.1347 79.666 21.1262 79.8966 24.2655ZM77.7918 15.6828C78.3011 18.1215 78.6787 20.7757 78.9139 23.5658C77.6335 22.6701 76.2979 21.7974 74.9171 20.9563C73.5318 20.1124 72.1357 19.3214 70.7414 18.5887C73.1683 17.4047 75.542 16.4266 77.7918 15.6828ZM77.5777 14.7043C77.2606 13.32 76.8995 12.0124 76.4964 10.797C74.879 5.92076 72.7613 3.09639 70.6833 3.06099C68.5964 3.02547 66.4505 5.80196 64.7987 10.692C64.3183 12.1141 63.8955 13.665 63.5338 15.3192C65.5351 16.0787 67.5895 16.9883 69.6554 18.0297C72.377 16.6652 75.0486 15.5445 77.5777 14.7043ZM60.038 17.415C58.4713 16.9087 56.9539 16.5083 55.509 16.224C50.4965 15.2373 46.9713 15.7806 45.8764 17.7258C44.779 19.6755 46.082 23.1063 49.4349 27.1137C50.2695 28.1112 51.2045 29.1138 52.2268 30.1113C54.283 28.1494 56.6324 26.2139 59.1889 24.3743C59.3706 21.9508 59.6558 19.6155 60.038 17.415ZM62.4503 22.1528C62.5844 20.8844 62.7486 19.6483 62.9416 18.4523C64.028 18.8761 65.1303 19.3448 66.2415 19.8555C65.6062 20.2165 64.9703 20.5897 64.3349 20.9747C63.6985 21.3603 63.0699 21.7533 62.4503 22.1528ZM59.1029 25.6586C56.8493 27.3228 54.7778 29.0565 52.9546 30.8067C54.7778 32.5137 56.8493 34.1984 59.1029 35.8091C59.0047 34.1508 58.9546 32.4548 58.9546 30.7355C58.9546 29.0163 59.0047 27.3192 59.1029 25.6586ZM59.1889 37.0913C56.6324 35.3123 54.283 33.4324 52.2268 31.5193C51.2045 32.541 50.2695 33.5658 49.4349 34.5831C46.082 38.6699 44.779 42.1316 45.8764 44.0553C46.9712 45.9746 50.4965 46.4343 55.509 45.3289C56.9539 45.0103 58.4713 44.574 60.038 44.0306C59.6558 41.8391 59.3706 39.5105 59.1889 37.0913ZM62.4503 39.2356C62.5845 40.5008 62.7486 41.733 62.9416 42.9245C64.0281 42.475 65.1304 41.9801 66.2416 41.443C65.6063 41.0971 64.9703 40.7389 64.3348 40.3689C63.6984 39.9984 63.0699 39.6203 62.4503 39.2356ZM69.6554 36.6449C72.8129 36.5875 75.3573 33.855 75.3573 30.5413C75.3573 27.2276 72.8129 24.5554 69.6554 24.5728C66.4768 24.5903 63.8845 27.3234 63.8845 30.6772C63.8845 34.031 66.4768 36.7027 69.6554 36.6449Z" fill="#F9E68C"/>
<path d="M61.8811 51.4228L62.8271 51.0985L62.8271 51.0985L61.8811 51.4228ZM60.6601 47.1098L61.6343 46.8841L61.3853 45.8093L60.3401 46.1624L60.6601 47.1098ZM69.6551 60.2169L69.698 61.216L69.698 61.216L69.6551 60.2169ZM77.3047 50.9079L76.355 50.5947L76.355 50.5947L77.3047 50.9079ZM78.4837 46.595L78.7587 45.6335L77.7399 45.3422L77.5079 46.3761L78.4837 46.595ZM82.5397 47.5271L82.7054 46.5409L82.7054 46.5409L82.5397 47.5271ZM93.4161 44.7627L94.3007 45.2292L94.3007 45.2292L93.4161 44.7627ZM89.9848 33.5487L89.2057 34.1756L89.2057 34.1756L89.9848 33.5487ZM87.1503 30.4016L86.4333 29.7045L85.7476 30.4098L86.4415 31.107L87.1503 30.4016ZM89.9849 27.1872L90.7697 27.8069L90.7697 27.8069L89.9849 27.1872ZM93.4161 15.8919L92.5339 16.363L92.5339 16.363L93.4161 15.8919ZM82.5397 13.3852L82.3514 12.4031L82.3514 12.4031L82.5397 13.3852ZM78.4837 14.4134L77.5082 14.6335L77.7462 15.6887L78.7795 15.3687L78.4837 14.4134ZM77.3047 10.1284L76.3557 10.4439L76.3557 10.4439L77.3047 10.1284ZM69.6551 1.00078L69.636 2.00059L69.636 2.00059L69.6551 1.00078ZM61.8811 9.97889L62.8279 10.3009L62.8279 10.3009L61.8811 9.97889ZM60.6601 14.3209L60.3604 15.2749L61.3918 15.5989L61.6346 14.5454L60.6601 14.3209ZM56.4134 13.221L56.2183 14.2018L56.2183 14.2018L56.4134 13.221ZM44.6495 15.713L43.7786 15.2216L43.7786 15.2217L44.6495 15.713ZM48.4212 27.5381L47.654 28.1795L47.654 28.1795L48.4212 27.5381ZM51.4939 30.824L52.198 31.5341L52.9229 30.8153L52.1893 30.1054L51.4939 30.824ZM48.4212 34.1826L49.1945 34.8166L49.1945 34.8166L48.4212 34.1826ZM44.6494 46.0971L43.7814 46.5935L43.7814 46.5935L44.6494 46.0971ZM56.4135 48.3103L56.1962 47.3342L56.1962 47.3342L56.4135 48.3103ZM63.5338 46.0434L63.1598 45.1159L62.3756 45.4322L62.5571 46.2581L63.5338 46.0434ZM64.7987 50.6407L65.7453 50.3184L65.7453 50.3183L64.7987 50.6407ZM70.6833 58.1323L70.6426 57.1331L70.6426 57.1331L70.6833 58.1323ZM76.4964 50.2585L75.5465 49.9459L75.5465 49.9459L76.4964 50.2585ZM77.5776 46.3256L78.5527 46.5477L78.7586 45.6434L77.8724 45.37L77.5776 46.3256ZM69.6554 43.1879L70.0865 42.2856L69.6331 42.069L69.1887 42.3035L69.6554 43.1879ZM82.3934 46.4575L82.2255 47.4433L82.2255 47.4433L82.3934 46.4575ZM78.6954 45.609L77.7159 45.4078L77.529 46.3178L78.4228 46.5711L78.6954 45.609ZM91.3236 44.7386L90.4394 44.2713L90.4394 44.2714L91.3236 44.7386ZM88.0648 35.8173L87.2876 36.4466L87.2876 36.4466L88.0648 35.8173ZM85.0073 32.4824L85.7067 31.7677L85.0287 31.1043L84.3305 31.7463L85.0073 32.4824ZM79.8966 36.7096L79.2973 35.909L78.9326 36.182L78.8993 36.6364L79.8966 36.7096ZM77.7917 45.3421L77.4983 46.2981L78.5475 46.6201L78.7708 45.5456L77.7917 45.3421ZM78.9139 37.4325L79.9104 37.5164L80.093 35.3457L78.3279 36.6222L78.9139 37.4325ZM70.7413 42.6032L70.26 41.7267L68.5275 42.678L70.3203 43.5102L70.7413 42.6032ZM74.9172 40.1367L75.452 40.9817L75.452 40.9817L74.9172 40.1367ZM82.8043 30.4531L83.4706 31.1988L84.3163 30.443L83.4606 29.6986L82.8043 30.4531ZM80.0922 32.7378L79.0925 32.7121L79.0373 34.8556L80.7149 33.5202L80.0922 32.7378ZM80.0922 28.2326L80.7034 27.4412L79.0383 26.1552L79.0925 28.2584L80.0922 28.2326ZM79.1479 27.5169L80.1473 27.4821L80.1305 27.0016L79.7447 26.7146L79.1479 27.5169ZM79.1479 33.4759L79.7567 34.2692L80.1308 33.982L80.1473 33.5107L79.1479 33.4759ZM73.4314 37.4463L73.9639 38.2927L73.9639 38.2927L73.4314 37.4463ZM67.3325 40.9037L66.8623 41.7863L67.3204 42.0303L67.7836 41.7962L67.3325 40.9037ZM64.8105 39.4965L64.3066 40.3602L64.3066 40.3602L64.8105 39.4965ZM62.3284 37.9839L61.3323 38.0725L61.376 38.5632L61.7916 38.8277L62.3284 37.9839ZM62.3284 23.4074L61.7776 22.5727L61.3749 22.8384L61.3323 23.319L62.3284 23.4074ZM64.8106 21.836L65.3295 22.6908L65.3295 22.6908L64.8106 21.836ZM67.3325 20.369L67.7665 19.4681L67.2994 19.2431L66.8463 19.4952L67.3325 20.369ZM73.4313 23.6819L72.9135 24.5374L72.9135 24.5374L73.4313 23.6819ZM79.8966 24.2655L78.8993 24.3387L78.9333 24.8023L79.3097 25.0751L79.8966 24.2655ZM85.0074 28.3715L84.3401 29.1164L85.0459 29.7486L85.7152 29.0779L85.0074 28.3715ZM88.0648 24.9642L87.2818 24.3422L87.2818 24.3422L88.0648 24.9642ZM91.3235 15.9657L92.2052 15.4939L92.2052 15.4939L91.3235 15.9657ZM82.3933 14.4584L82.5838 15.4401L82.5838 15.4401L82.3933 14.4584ZM78.6955 15.3946L78.402 14.4386L77.5322 14.7057L77.7161 15.5967L78.6955 15.3946ZM78.9139 23.5658L78.3408 24.3852L80.0897 25.6086L79.9104 23.4818L78.9139 23.5658ZM77.7918 15.6828L78.7706 15.4783L78.5416 14.3816L77.4778 14.7333L77.7918 15.6828ZM74.9171 20.9563L74.3969 21.8103L74.3969 21.8103L74.9171 20.9563ZM70.7414 18.5887L70.3029 17.69L68.5286 18.5557L70.2763 19.474L70.7414 18.5887ZM77.5777 14.7043L77.8929 15.6533L78.7553 15.3668L78.5524 14.4811L77.5777 14.7043ZM76.4964 10.797L75.5472 11.1119L75.5472 11.1119L76.4964 10.797ZM70.6833 3.06099L70.7004 2.06113L70.7004 2.06113L70.6833 3.06099ZM64.7987 10.692L65.7461 11.0121L65.7461 11.0121L64.7987 10.692ZM63.5338 15.3192L62.5569 15.1056L62.3726 15.9482L63.179 16.2542L63.5338 15.3192ZM69.6554 18.0297L69.2053 18.9227L69.6542 19.149L70.1036 18.9236L69.6554 18.0297ZM60.038 17.415L61.0233 17.5861L61.1719 16.7305L60.3455 16.4635L60.038 17.415ZM55.509 16.224L55.3159 17.2052L55.3159 17.2052L55.509 16.224ZM45.8764 17.7258L46.7479 18.2163L46.7479 18.2163L45.8764 17.7258ZM49.4349 27.1137L50.2019 26.472L50.2019 26.472L49.4349 27.1137ZM52.2268 30.1113L51.5284 30.827L52.219 31.5008L52.9171 30.8348L52.2268 30.1113ZM59.1889 24.3743L59.773 25.186L60.1513 24.9138L60.1861 24.449L59.1889 24.3743ZM62.9416 18.4523L63.305 17.5206L62.1517 17.0707L61.9544 18.2929L62.9416 18.4523ZM62.4503 22.1528L61.4559 22.0476L61.2361 24.1254L62.9922 22.9932L62.4503 22.1528ZM66.2415 19.8555L66.7355 20.725L68.4313 19.7614L66.6591 18.9469L66.2415 19.8555ZM64.3349 20.9747L63.8167 20.1194L63.8167 20.1194L64.3349 20.9747ZM52.9546 30.8067L52.2621 30.0853L51.5011 30.8158L52.2711 31.5367L52.9546 30.8067ZM59.1029 25.6586L60.1011 25.7177L60.2272 23.5853L58.5089 24.8542L59.1029 25.6586ZM59.1029 35.8091L58.5214 36.6227L60.2249 37.8402L60.1012 35.75L59.1029 35.8091ZM59.1889 37.0913L60.1861 37.0165L60.1505 36.5422L59.7601 36.2705L59.1889 37.0913ZM52.2268 31.5193L52.908 30.7872L52.202 30.1304L51.5199 30.812L52.2268 31.5193ZM49.4349 34.5831L48.6618 33.9488L48.6618 33.9488L49.4349 34.5831ZM45.8764 44.0553L45.0078 44.5508L45.0078 44.5508L45.8764 44.0553ZM55.509 45.3289L55.2937 44.3524L55.2937 44.3524L55.509 45.3289ZM60.038 44.0306L60.3657 44.9754L61.1693 44.6966L61.0232 43.8588L60.038 44.0306ZM62.4503 39.2356L62.9779 38.3861L61.2403 37.307L61.4559 39.341L62.4503 39.2356ZM62.9416 42.9245L61.9545 43.0845L62.1566 44.3316L63.324 43.8485L62.9416 42.9245ZM66.2416 41.443L66.6767 42.3434L68.43 41.496L66.7198 40.5648L66.2416 41.443ZM64.3348 40.3689L64.838 39.5047L64.838 39.5047L64.3348 40.3689ZM69.6554 36.6449L69.6372 35.6451L69.6372 35.6451L69.6554 36.6449ZM69.6554 24.5728L69.6609 25.5728L69.6609 25.5728L69.6554 24.5728ZM62.8271 51.0985C62.3818 49.7999 61.983 48.389 61.6343 46.8841L59.6859 47.3355C60.048 48.8984 60.465 50.3759 60.9352 51.7471L62.8271 51.0985ZM69.6123 59.2179C68.4994 59.2656 67.3223 58.7295 66.1314 57.3835C64.934 56.0302 63.7993 53.9344 62.8271 51.0985L60.9352 51.7471C61.9538 54.7186 63.1964 57.0845 64.6335 58.7088C66.0771 60.3403 67.7916 61.2977 69.698 61.216L69.6123 59.2179ZM76.355 50.5947C75.409 53.4627 74.2954 55.632 73.1063 57.0801C71.9177 58.5278 70.73 59.1699 69.6123 59.2179L69.698 61.216C71.5806 61.1353 73.2499 60.057 74.652 58.3493C76.0538 56.6421 77.2648 54.2212 78.2543 51.2212L76.355 50.5947ZM77.5079 46.3761C77.1714 47.8759 76.786 49.2881 76.355 50.5947L78.2543 51.2212C78.7082 49.8453 79.1104 48.3695 79.4594 46.8139L77.5079 46.3761ZM82.7054 46.5409C81.4546 46.3307 80.1337 46.0268 78.7587 45.6335L78.2087 47.5565C79.6464 47.9676 81.0406 48.2892 82.374 48.5133L82.7054 46.5409ZM92.5316 44.2963C91.9798 45.3428 90.9356 46.1292 89.2927 46.5478C87.6343 46.9704 85.4246 46.9979 82.7054 46.5409L82.374 48.5133C85.2526 48.997 87.7646 49.0012 89.7866 48.4859C91.8243 47.9666 93.4194 46.9006 94.3007 45.2292L92.5316 44.2963ZM89.2057 34.1756C90.9816 36.3828 92.1172 38.3965 92.648 40.1324C93.1771 41.8627 93.0868 43.2433 92.5316 44.2963L94.3007 45.2292C95.1742 43.5726 95.1922 41.6133 94.5605 39.5475C93.9305 37.4872 92.6361 35.2487 90.7639 32.9218L89.2057 34.1756ZM86.4415 31.107C87.4652 32.1357 88.3906 33.1625 89.2057 34.1756L90.7639 32.9219C89.8998 31.8478 88.9265 30.7688 87.8591 29.6962L86.4415 31.107ZM89.2 26.5675C88.384 27.601 87.4578 28.6507 86.4333 29.7045L87.8673 31.0987C88.934 30.0015 89.9064 28.9004 90.7697 27.8069L89.2 26.5675ZM92.5339 16.363C93.085 17.3949 93.1782 18.7712 92.6473 20.5198C92.1154 22.2719 90.9777 24.3159 89.2 26.5676L90.7697 27.8069C92.6399 25.4381 93.9322 23.1722 94.5611 21.1008C95.191 19.0258 95.1759 17.0646 94.2982 15.4209L92.5339 16.363ZM82.728 14.3673C85.4489 13.8457 87.6582 13.8212 89.3144 14.204C90.9539 14.583 91.9881 15.3407 92.5339 16.363L94.2982 15.4209C93.4109 13.7593 91.8057 12.7271 89.7648 12.2554C87.7405 11.7875 85.2282 11.8515 82.3514 12.4031L82.728 14.3673ZM78.7795 15.3687C80.1553 14.9426 81.4767 14.6073 82.7281 14.3673L82.3514 12.4031C81.0185 12.6587 79.6249 13.0132 78.1879 13.4582L78.7795 15.3687ZM76.3557 10.4439C76.7865 11.7396 77.1718 13.142 77.5082 14.6335L79.4592 14.1934C79.1101 12.6456 78.7077 11.1788 78.2536 9.81295L76.3557 10.4439ZM69.636 2.00059C70.7492 2.02195 71.9292 2.63187 73.1125 4.04494C74.2978 5.46048 75.4101 7.59948 76.3557 10.4439L78.2536 9.81295C77.2637 6.83535 76.0513 4.4393 74.6459 2.76091C73.2384 1.08006 71.5613 0.0371633 69.6743 0.000961656L69.636 2.00059ZM62.8279 10.3009C63.8004 7.44092 64.9367 5.31404 66.1382 3.92765C67.3353 2.54623 68.5202 1.97918 69.636 2.00059L69.6743 0.000961783C67.7707 -0.0355704 66.0641 0.959296 64.6268 2.61784C63.1937 4.27142 61.9527 6.66257 60.9344 9.65693L62.8279 10.3009ZM61.6346 14.5454C61.9834 13.0318 62.3824 11.6108 62.8279 10.3009L60.9344 9.65693C60.4645 11.0386 60.0476 12.5254 59.6857 14.0964L61.6346 14.5454ZM56.2183 14.2018C57.5408 14.4649 58.9273 14.8247 60.3604 15.2749L60.9598 13.3669C59.4664 12.8977 58.0098 12.519 56.6085 12.2402L56.2183 14.2018ZM45.5205 16.2044C46.1306 15.1231 47.2828 14.3283 49.0871 13.9473C50.9033 13.5638 53.3022 13.6216 56.2183 14.2018L56.6085 12.2402C53.5398 11.6297 50.8479 11.5314 48.6739 11.9905C46.488 12.4521 44.7507 13.4987 43.7786 15.2216L45.5205 16.2044ZM49.1884 26.8967C47.2312 24.5557 45.9753 22.416 45.3883 20.5771C44.8033 18.744 44.9051 17.2951 45.5205 16.2044L43.7786 15.2217C42.8066 16.9444 42.7884 19.0087 43.483 21.1852C44.1758 23.3557 45.5993 25.7219 47.654 28.1795L49.1884 26.8967ZM52.1893 30.1054C51.084 29.0356 50.0789 27.9619 49.1884 26.8967L47.654 28.1795C48.5946 29.3046 49.6486 30.4297 50.7984 31.5425L52.1893 30.1054ZM49.1945 34.8166C50.0859 33.7293 51.0919 32.6308 52.198 31.5341L50.7898 30.1138C49.6407 31.2532 48.5876 32.4023 47.6479 33.5486L49.1945 34.8166ZM45.5175 45.6007C44.9071 44.5332 44.8018 43.0893 45.3889 41.2361C45.9771 39.3793 47.2354 37.2064 49.1945 34.8166L47.6479 33.5486C45.595 36.0527 44.1738 38.4491 43.4822 40.6321C42.7896 42.8188 42.8044 44.8852 43.7814 46.5935L45.5175 45.6007ZM56.1962 47.3342C53.2781 47.9839 50.8791 48.0983 49.0647 47.7581C47.2626 47.4203 46.121 46.6559 45.5175 45.6007L43.7814 46.5935C44.7601 48.3051 46.5081 49.3137 48.6962 49.7239C50.872 50.1318 53.5639 49.9693 56.6308 49.2864L56.1962 47.3342ZM60.3401 46.1624C58.9063 46.6468 57.5192 47.0396 56.1962 47.3342L56.6308 49.2864C58.0315 48.9745 59.4874 48.5615 60.9802 48.0572L60.3401 46.1624ZM62.5571 46.2581C62.9256 47.9348 63.358 49.5122 63.8521 50.963L65.7453 50.3183C65.2786 48.9477 64.8653 47.4433 64.5105 45.8287L62.5571 46.2581ZM63.8521 50.963C64.6974 53.4454 65.6916 55.4558 66.7916 56.8554C67.8719 58.2298 69.2035 59.1934 70.7241 59.1314L70.6426 57.1331C70.0763 57.1562 69.2914 56.7994 68.3641 55.6195C67.4565 54.4648 66.5518 52.6868 65.7453 50.3184L63.8521 50.963ZM70.7241 59.1314C72.2195 59.0705 73.5129 58.0292 74.5672 56.6003C75.6447 55.14 76.6193 53.0839 77.4462 50.5711L75.5465 49.9459C74.7561 52.3475 73.8631 54.186 72.9579 55.4128C72.0296 56.671 71.2252 57.1094 70.6426 57.1331L70.7241 59.1314ZM77.4462 50.5711C77.8603 49.313 78.2295 47.9663 78.5527 46.5477L76.6026 46.1035C76.2917 47.4685 75.9387 48.7542 75.5465 49.9459L77.4462 50.5711ZM77.8724 45.37C75.3957 44.6059 72.7697 43.5673 70.0865 42.2856L69.2244 44.0903C71.9843 45.4086 74.7014 46.4847 77.2828 47.2812L77.8724 45.37ZM69.1887 42.3035C67.1505 43.3792 65.127 44.3228 63.1598 45.1159L63.9077 46.9709C65.9431 46.1502 68.0285 45.1773 70.1222 44.0723L69.1887 42.3035ZM82.5613 45.4717C81.422 45.2777 80.2199 45.0015 78.9681 44.6468L78.4228 46.5711C79.7348 46.9428 81.0071 47.2358 82.2255 47.4433L82.5613 45.4717ZM90.4394 44.2714C90.1412 44.8356 89.4291 45.3583 88.0537 45.6237C86.6925 45.8864 84.8397 45.8598 82.5613 45.4717L82.2255 47.4433C84.6374 47.8541 86.7509 47.912 88.4327 47.5875C90.1003 47.2657 91.5082 46.5295 92.2077 45.2058L90.4394 44.2714ZM87.2876 36.4466C88.7828 38.2934 89.7758 39.9561 90.28 41.3373C90.7926 42.7412 90.7456 43.692 90.4394 44.2713L92.2077 45.2059C92.897 43.9015 92.7565 42.2886 92.1587 40.6513C91.5526 38.9913 90.4184 37.1353 88.842 35.1881L87.2876 36.4466ZM84.308 33.1972C85.4224 34.2876 86.4207 35.3758 87.2876 36.4466L88.842 35.1881C87.9205 34.0498 86.8689 32.9048 85.7067 31.7677L84.308 33.1972ZM80.4958 37.5101C82.3598 36.1148 84.1002 34.675 85.6842 33.2186L84.3305 31.7463C82.7997 33.1538 81.1116 34.5509 79.2973 35.909L80.4958 37.5101ZM78.8993 36.6364C78.6715 39.7432 78.2718 42.7012 77.7159 45.4078L79.675 45.8101C80.2502 43.0096 80.6606 39.9653 80.8939 36.7827L78.8993 36.6364ZM78.7708 45.5456C79.2893 43.0509 79.6722 40.3474 79.9104 37.5164L77.9175 37.3487C77.6852 40.1089 77.3129 42.7318 76.8126 45.1386L78.7708 45.5456ZM78.0851 44.3861C75.8842 43.7106 73.5532 42.806 71.1624 41.6962L70.3203 43.5102C72.7831 44.6535 75.1995 45.5925 77.4983 46.2981L78.0851 44.3861ZM71.2227 43.4797C72.6354 42.704 74.0494 41.8693 75.452 40.9817L74.3825 39.2917C73.0143 40.1575 71.6359 40.9711 70.26 41.7267L71.2227 43.4797ZM75.452 40.9817C76.8499 40.097 78.2026 39.1811 79.4999 38.2428L78.3279 36.6222C77.0645 37.5359 75.746 38.4287 74.3824 39.2917L75.452 40.9817ZM82.1379 29.7074C81.294 30.4616 80.4027 31.2126 79.4694 31.9554L80.7149 33.5202C81.6765 32.7549 82.5969 31.9795 83.4706 31.1988L82.1379 29.7074ZM79.481 29.0241C80.4138 29.7445 81.3045 30.4738 82.1479 31.2076L83.4606 29.6986C82.5864 28.9381 81.6655 28.1841 80.7034 27.4412L79.481 29.0241ZM79.0925 28.2584C79.1115 28.9954 79.1211 29.7379 79.1211 30.4848H81.1211C81.1211 29.7208 81.1113 28.9611 81.0919 28.2068L79.0925 28.2584ZM79.1211 30.4848C79.1211 31.2317 79.1115 31.9746 79.0925 32.7121L81.0919 32.7636C81.1113 32.0089 81.1211 31.2488 81.1211 30.4848H79.1211ZM80.1995 30.4957C80.1995 29.4819 80.182 28.4764 80.1473 27.4821L78.1485 27.5518C78.1824 28.5227 78.1995 29.505 78.1995 30.4957H80.1995ZM80.1473 33.5107C80.182 32.5156 80.1995 31.5095 80.1995 30.4957H78.1995C78.1995 31.4865 78.1824 32.4693 78.1485 33.441L80.1473 33.5107ZM78.539 32.6826C76.7816 34.0315 74.8907 35.347 72.899 36.5998L73.9639 38.2927C76.0063 37.008 77.9483 35.6572 79.7567 34.2692L78.539 32.6826ZM72.899 36.5998C70.8977 37.8587 68.8779 39.0021 66.8814 40.0112L67.7836 41.7962C69.8377 40.7579 71.9118 39.5836 73.9639 38.2927L72.899 36.5998ZM67.8026 40.0211C66.9749 39.5802 66.1446 39.117 65.3144 38.6327L64.3066 40.3602C65.1587 40.8574 66.0116 41.3331 66.8623 41.7863L67.8026 40.0211ZM65.3144 38.6327C64.4825 38.1474 63.6653 37.6492 62.8652 37.1402L61.7916 38.8277C62.6135 39.3505 63.4527 39.862 64.3066 40.3602L65.3144 38.6327ZM61.0124 30.6993C61.0124 33.2254 61.1212 35.699 61.3323 38.0725L63.3245 37.8953C63.1188 35.5829 63.0124 33.1686 63.0124 30.6993H61.0124ZM61.3323 23.319C61.1212 25.6973 61.0124 28.1732 61.0124 30.6993H63.0124C63.0124 28.2301 63.1188 25.8132 63.3245 23.4958L61.3323 23.319ZM62.8791 24.2421C63.6796 23.7138 64.4973 23.1961 65.3295 22.6908L64.2916 20.9812C63.438 21.4994 62.5992 22.0306 61.7776 22.5727L62.8791 24.2421ZM65.3295 22.6908C66.16 22.1866 66.9907 21.7036 67.8187 21.2429L66.8463 19.4952C65.9959 19.9684 65.1434 20.4641 64.2916 20.9812L65.3295 22.6908ZM66.8985 21.27C68.8941 22.2314 70.9131 23.3265 72.9135 24.5374L73.9492 22.8265C71.8963 21.5837 69.8214 20.4581 67.7665 19.4681L66.8985 21.27ZM72.9135 24.5374C74.9044 25.7426 76.7945 27.0126 78.551 28.3193L79.7447 26.7146C77.9354 25.3687 75.9924 24.0633 73.9492 22.8265L72.9135 24.5374ZM79.3097 25.0751C81.1232 26.3896 82.8103 27.746 84.3401 29.1164L85.6746 27.6267C84.0896 26.2069 82.3483 24.8076 80.4835 23.4558L79.3097 25.0751ZM85.7152 29.0779C86.8766 27.9141 87.9273 26.7452 88.8479 25.5862L87.2818 24.3422C86.414 25.4347 85.4148 26.5475 84.2995 27.6652L85.7152 29.0779ZM88.8479 25.5862C90.4227 23.6036 91.5549 21.7237 92.1597 20.0528C92.755 18.4081 92.899 16.7902 92.2052 15.4939L90.4418 16.4376C90.7436 17.0014 90.7941 17.9493 90.2791 19.3721C89.7736 20.7687 88.7786 22.458 87.2818 24.3422L88.8479 25.5862ZM92.2052 15.4939C91.4984 14.1732 90.0781 13.4681 88.4101 13.1857C86.7268 12.9008 84.6134 13.009 82.2029 13.4767L82.5838 15.4401C84.8637 14.9977 86.7165 14.9275 88.0763 15.1577C89.4513 15.3904 90.1509 15.8939 90.4418 16.4376L92.2052 15.4939ZM82.2029 13.4767C80.9851 13.713 79.7133 14.036 78.402 14.4386L78.989 16.3505C80.2414 15.966 81.444 15.6612 82.5838 15.4401L82.2029 13.4767ZM77.7161 15.5967C78.2718 18.2895 78.6715 21.2375 78.8993 24.3387L80.8939 24.1922C80.6606 21.015 80.2501 17.98 79.6748 15.1924L77.7161 15.5967ZM79.9104 23.4818C79.6722 20.6562 79.2892 17.9614 78.7706 15.4783L76.8129 15.8872C77.313 18.2816 77.6853 20.8952 77.9175 23.6498L79.9104 23.4818ZM74.3969 21.8103C75.76 22.6406 77.0779 23.5018 78.3408 24.3852L79.4871 22.7463C78.1892 21.8384 76.8359 20.9542 75.4374 20.1023L74.3969 21.8103ZM70.2763 19.474C71.6515 20.1966 73.0293 20.9772 74.3969 21.8103L75.4374 20.1023C74.0343 19.2476 72.6198 18.4461 71.2066 17.7035L70.2763 19.474ZM77.4778 14.7333C75.1801 15.493 72.7648 16.4889 70.3029 17.69L71.1799 19.4875C73.5718 18.3205 75.9038 17.3602 78.1057 16.6322L77.4778 14.7333ZM78.5524 14.4811C78.2292 13.0697 77.8598 11.7312 77.4455 10.4822L75.5472 11.1119C75.9392 12.2936 76.2921 13.5704 76.6029 14.9276L78.5524 14.4811ZM77.4455 10.4822C76.6182 7.98801 75.6426 5.95181 74.5622 4.51318C73.504 3.10411 72.2023 2.08672 70.7004 2.06113L70.6663 4.06084C71.2423 4.07065 72.0385 4.48315 72.9629 5.71419C73.8652 6.91566 74.7571 8.72978 75.5472 11.1119L77.4455 10.4822ZM70.7004 2.06113C69.1848 2.03534 67.8618 3.0245 66.7861 4.41852C65.6892 5.84006 64.6963 7.87048 63.8513 10.372L65.7461 11.0121C66.5529 8.62352 67.4588 6.82065 68.3695 5.64031C69.3016 4.43245 70.095 4.05112 70.6663 4.06084L70.7004 2.06113ZM63.8513 10.372C63.3575 11.8337 62.9253 13.4206 62.5569 15.1056L64.5107 15.5328C64.8656 13.9094 65.2791 12.3946 65.7461 11.0121L63.8513 10.372ZM63.179 16.2542C65.1453 17.0004 67.168 17.8957 69.2053 18.9227L70.1056 17.1367C68.0111 16.0809 65.9248 15.157 63.8886 14.3843L63.179 16.2542ZM70.1036 18.9236C72.788 17.5778 75.4151 16.4765 77.8929 15.6533L77.2624 13.7553C74.6821 14.6125 71.9661 15.7526 69.2072 17.1358L70.1036 18.9236ZM60.3455 16.4635C58.7464 15.9467 57.1906 15.5357 55.7021 15.2428L55.3159 17.2052C56.7171 17.4809 58.1962 17.8707 59.7305 18.3666L60.3455 16.4635ZM55.7022 15.2428C53.1318 14.7369 50.8714 14.6073 49.07 14.8873C47.2906 15.1639 45.7701 15.8759 45.005 17.2353L46.7479 18.2163C47.0776 17.6305 47.8671 17.0983 49.3772 16.8636C50.8652 16.6323 52.8737 16.7244 55.3159 17.2052L55.7022 15.2428ZM45.005 17.2353C44.2433 18.5886 44.4003 20.285 45.0518 22.0027C45.7131 23.7464 46.9506 25.7028 48.668 27.7554L50.2019 26.472C48.5663 24.5172 47.4759 22.7545 46.9218 21.2935C46.3579 19.8066 46.4122 18.8127 46.7479 18.2163L45.005 17.2353ZM48.668 27.7554C49.5265 28.7816 50.4848 29.8088 51.5284 30.827L52.9251 29.3955C51.9242 28.4189 51.0125 27.4409 50.2019 26.472L48.668 27.7554ZM52.9171 30.8348C54.9365 28.908 57.2498 27.0017 59.773 25.186L58.6048 23.5626C56.015 25.4262 53.6294 27.3908 51.5365 29.3877L52.9171 30.8348ZM60.1861 24.449C60.3655 22.0552 60.6471 19.7522 61.0233 17.5861L59.0528 17.2439C58.6646 19.4788 58.3756 21.8464 58.1917 24.2996L60.1861 24.449ZM61.9544 18.2929C61.7583 19.5078 61.5918 20.762 61.4559 22.0476L63.4448 22.2579C63.5771 21.0068 63.7388 19.7887 63.9288 18.6116L61.9544 18.2929ZM66.6591 18.9469C65.531 18.4284 64.4106 17.9519 63.305 17.5206L62.5782 19.3839C63.6455 19.8002 64.7297 20.2613 65.8239 20.7642L66.6591 18.9469ZM64.8531 21.83C65.4806 21.4498 66.1084 21.0813 66.7355 20.725L65.7475 18.9861C65.104 19.3517 64.46 19.7297 63.8167 20.1194L64.8531 21.83ZM62.9922 22.9932C63.6039 22.5988 64.2246 22.2108 64.8531 21.83L63.8167 20.1194C63.1723 20.5099 62.5359 20.9078 61.9084 21.3123L62.9922 22.9932ZM53.6471 31.5281C55.4361 29.8108 57.4741 28.1045 59.6969 26.4631L58.5089 24.8542C56.2245 26.541 54.1196 28.3022 52.2621 30.0853L53.6471 31.5281ZM59.6844 34.9955C57.4626 33.4075 55.4257 31.7504 53.638 30.0767L52.2711 31.5367C54.1299 33.2769 56.236 34.9892 58.5214 36.6227L59.6844 34.9955ZM60.1012 35.75C60.0042 34.1117 59.9546 32.4354 59.9546 30.7355H57.9546C57.9546 32.4742 58.0053 34.1899 58.1047 35.8682L60.1012 35.75ZM59.9546 30.7355C59.9546 29.0357 60.0042 27.3582 60.1011 25.7177L58.1046 25.5996C58.0053 27.2802 57.9546 28.997 57.9546 30.7355H59.9546ZM59.7601 36.2705C57.2381 34.5154 54.9261 32.6649 52.908 30.7872L51.5457 32.2515C53.6399 34.2 56.0268 36.1091 58.6177 37.9121L59.7601 36.2705ZM51.5199 30.812C50.4771 31.8542 49.5196 32.9033 48.6618 33.9488L50.208 35.2174C51.0195 34.2282 51.932 33.2278 52.9337 32.2267L51.5199 30.812ZM48.6618 33.9488C46.946 36.0402 45.7107 38.0228 45.0507 39.7785C44.402 41.5044 44.2409 43.2065 45.0078 44.5508L46.745 43.5598C46.4145 42.9804 46.3562 41.9898 46.9229 40.4822C47.4783 39.0044 48.5709 37.2128 50.208 35.2174L48.6618 33.9488ZM45.0078 44.5508C45.7809 45.9061 47.3144 46.5835 49.093 46.8178C50.8954 47.0552 53.1555 46.872 55.7244 46.3055L55.2937 44.3524C52.85 44.8913 50.8413 45.0308 49.3542 44.8349C47.8433 44.6359 47.0667 44.1238 46.745 43.5598L45.0078 44.5508ZM55.7244 46.3055C57.2123 45.9774 58.7674 45.5298 60.3657 44.9754L59.7104 43.0858C58.1753 43.6182 56.6956 44.0433 55.2937 44.3524L55.7244 46.3055ZM61.0232 43.8588C60.647 41.702 60.3655 39.4059 60.1861 37.0165L58.1917 37.1662C58.3756 39.6151 58.6647 41.9763 59.0529 44.2024L61.0232 43.8588ZM61.4559 39.341C61.5919 40.6235 61.7584 41.874 61.9545 43.0845L63.9288 42.7646C63.7388 41.5921 63.577 40.3781 63.4447 39.1301L61.4559 39.341ZM63.324 43.8485C64.4291 43.3913 65.549 42.8884 66.6767 42.3434L65.8065 40.5427C64.7118 41.0717 63.627 41.5587 62.5593 42.0005L63.324 43.8485ZM66.7198 40.5648C66.0929 40.2234 65.4653 39.8699 64.838 39.5047L63.8317 41.2331C64.4753 41.6079 65.1196 41.9707 65.7634 42.3213L66.7198 40.5648ZM64.838 39.5047C64.2097 39.139 63.5894 38.7658 62.9779 38.3861L61.9228 40.0851C62.5504 40.4749 63.1871 40.8578 63.8317 41.2331L64.838 39.5047ZM74.3573 30.5413C74.3573 33.3579 72.2027 35.5985 69.6372 35.6451L69.6735 37.6448C73.4231 37.5766 76.3573 34.3521 76.3573 30.5413H74.3573ZM69.6609 25.5728C72.2152 25.5587 74.3573 27.732 74.3573 30.5413H76.3573C76.3573 26.7232 73.4105 23.552 69.6498 23.5728L69.6609 25.5728ZM64.8845 30.6772C64.8845 27.8263 67.0786 25.587 69.6609 25.5728L69.6498 23.5728C65.8751 23.5936 62.8845 26.8205 62.8845 30.6772H64.8845ZM69.6372 35.6451C67.0655 35.6918 64.8845 33.5204 64.8845 30.6772H62.8845C62.8845 34.5416 65.888 37.7136 69.6735 37.6448L69.6372 35.6451Z" fill="#35290F" mask="url(#path-7-outside-2_257_5758)"/>
</svg>
