<svg width="354" height="201" viewBox="0 0 354 201" fill="none" xmlns="http://www.w3.org/2000/svg">
<path d="M68.2987 86.4186V90.1773C68.2987 93.2265 69.9341 96.042 72.5818 97.5545L94.0576 109.81C99.9154 113.153 107.111 113.122 112.941 109.729L153.136 86.3304C155.749 84.8092 157.357 82.0127 157.357 78.9895V77.0945C157.357 74.125 155.804 71.37 153.266 69.8315L146.747 65.8808C144.923 64.775 142.749 64.3977 140.659 64.82L75.1066 78.0931C74.4906 78.2177 73.8918 78.4097 73.3173 78.6676C70.2646 80.0364 68.2987 83.0718 68.2987 86.4186Z" fill="#FEF2A4"/>
<path d="M68.5467 118.245L7.39523 82.7313C5.53492 81.6567 5.53492 78.9726 7.39523 77.898L33.36 62.6157L97.6247 99.9258C99.485 101 99.485 103.684 97.6247 104.759L74.7714 118.245C72.8453 119.356 70.4728 119.356 68.5467 118.245Z" fill="#FEF2A4"/>
<path d="M155.221 109.623L137.066 99.1428C135.355 98.1547 135.365 95.6818 137.085 94.7092L191.317 64.875L208.17 74.6057C212.04 76.8398 212.015 82.4329 208.129 84.6341L200.622 88.8843L162.4 109.654C160.171 110.916 157.44 110.905 155.221 109.623Z" fill="#FEF2A4"/>
<path d="M214.525 100.242L205.762 95.137C200.697 92.1553 200.762 84.8075 205.88 81.9158L226.689 70.1604C236.293 64.7352 255.231 58.6887 264.724 64.3077L277.835 72.4412C286.967 78.0308 286.79 90.2777 277.409 95.4381L275.203 96.6512C254.666 108.254 234.869 112.176 214.525 100.242Z" fill="#FEF2A4"/>
<path d="M264.126 96.3884L299.208 76.1586L285.088 68.1636L304.904 57L351.481 83.3732C353.653 84.6036 353.65 87.7341 351.475 88.9593L341.508 94.5731C338.466 96.2881 334.747 96.2829 331.708 94.5627L328.642 92.8253C326.581 91.6589 324.056 91.6676 322.004 92.8512L290.086 111.257C286.994 113.04 283.185 113.033 280.099 111.238L264.114 101.94C261.984 100.699 261.989 97.6188 264.126 96.3884Z" fill="#FEF2A4"/>
<path d="M71.4188 82.0511L71.4794 60.7397L101.116 77.8512L101.054 99.1625L71.4188 82.0511Z" fill="#40C4AA"/>
<path d="M120.342 65.3721L120.28 86.6835L101.848 76.0287L105.386 56.7368L120.342 65.3721Z" fill="#40C4AA"/>
<path d="M120.28 87.4542L101.109 76.3719L104.903 55.6904L121.011 64.9903L120.946 87.07L120.28 87.4542ZM102.587 75.6884L119.619 85.5333L119.676 65.7586L105.87 57.7878L102.587 75.6884Z" fill="#09342E"/>
<path d="M124.061 45.9531L140.211 55.2772L140.15 76.5886L119.685 64.6791L124.061 45.9531Z" fill="#40C4AA"/>
<path d="M140.15 77.3592L118.927 65.0067L123.618 44.9292L140.879 54.8953L140.82 76.9733L140.15 77.3592ZM120.446 64.3526L139.487 75.4349L139.544 55.6636L124.506 46.9816L120.446 64.3526Z" fill="#09342E"/>
<path d="M115.675 50.0293L113.536 55.4527L124.728 74.6512V45.5697L124.061 45.1855L115.675 50.0293Z" fill="#09342E"/>
<path d="M95.4334 61.7153L93.6976 65.9049L106.052 83.8729V56.3524L105.386 55.9683L95.4334 61.7153Z" fill="#09342E"/>
<path d="M101.116 77.8508L71.4812 60.7393L121.402 31.9175L151.037 49.0289L140.212 55.2778L124.063 45.9538L116.21 50.4877L131.167 59.123L120.342 65.372L105.386 56.7366L95.9629 62.1774L112.112 71.5015L101.116 77.8508Z" fill="#F7CE00"/>
<path d="M140.012 59.5176L150.836 53.2686L121.201 36.1572L71.2805 64.9791L100.917 82.0905L111.911 75.7412L95.7622 66.4172L99.4188 64.3059L95.4334 61.7153L105.386 55.9683L106.052 56.3524V61.4765L120.144 69.6117L130.966 63.3628L116.009 54.7275L119.74 52.573L117.678 51.4014L115.675 50.0291L124.061 45.1854L124.728 45.5695V50.6936L140.012 59.5176Z" fill="#FFFCE8"/>
<path d="M121.4 31.1494L70.8166 60.3537L70.7526 82.4335L101.054 99.929L112.714 93.1973L112.778 71.1176L97.2936 62.1777L105.386 57.5053L119.674 65.7564L119.614 87.0678L120.28 87.4537L131.769 80.8206L131.833 58.7409L117.541 50.4897L124.061 46.7241L139.544 55.6623L139.484 76.9702L140.15 77.3578L151.639 70.723L151.703 48.6433L121.4 31.1494ZM100.391 98.0099L72.0851 81.6668L72.1422 61.8922L99.4377 77.652L100.45 78.2369L100.391 98.0099ZM124.061 45.1857L114.877 50.4897L129.834 59.1251L120.342 64.6056L105.386 55.9703L94.6303 62.1812L110.78 71.5052L101.116 77.0844L98.1485 75.3712L72.8119 60.7431L121.4 32.6913L149.704 49.0326L140.211 54.5132L124.061 45.1857Z" fill="#09342E"/>
<path d="M44.8073 36.571L44.6828 36.3772C41.04 32.4575 35.5127 26.4872 35.2168 26.1134C34.9711 25.7656 34.7167 25.4039 28.094 26.4993L27.7271 26.5599L23.8905 36.5779L28.8225 52.9383L42.2756 56.1882L50.0664 49.2748L44.8073 36.571Z" fill="#09342E"/>
<path d="M30.9648 48.2244L43.7741 40.9424L47.2888 55.9858L35.0679 57.8565L29.3346 52.395L30.9648 48.2244Z" fill="#40C4AA"/>
<path d="M34.8516 58.5457L28.5732 52.5633L30.444 47.7732L44.2085 39.9478L48.0797 56.521L34.8516 58.5457ZM30.0979 52.2258L35.2842 57.1682L46.498 55.4515L43.3398 41.9361L31.484 48.6748L30.0979 52.2258Z" fill="#09342E"/>
<path d="M41.7512 44.1235C41.7633 44.2308 35.5369 47.9065 35.5369 47.9065C35.5369 47.9065 39.2869 50.2496 42.1353 48.8808C44.9838 47.5102 43.6495 44.6617 43.6495 44.6617L41.7512 44.1235Z" fill="#FFFCE8"/>
<path d="M64.1078 103.842L81.4667 93.5852L65.0665 55.8027L47.7076 66.0595L64.1078 103.842Z" fill="#F7CE00"/>
<path d="M64.1078 104.597L63.6008 104.304L46.8856 65.7932L65.3711 54.8701L82.2904 93.8519L64.1078 104.597ZM48.5314 66.3279L64.4107 102.911L80.6447 93.3206L64.7654 56.7373L48.5314 66.3279Z" fill="#09342E"/>
<path d="M31.0791 61.1252V84.7711L15.8748 75.9939V11.0093L34.3117 21.6537C49.6061 30.4846 57.255 41.3004 57.255 54.101C57.255 61.6288 54.0708 65.6125 47.7077 66.0572L64.1079 103.84L46.8598 93.8823L34.9261 63.3472L31.0791 61.1252ZM31.0791 47.9248L33.9276 49.5688C39.2403 52.6353 41.8966 51.4585 41.8966 46.0351C41.8966 41.5617 39.2904 37.8185 34.0798 34.8109L31.0791 33.0786V47.9248Z" fill="#40C4AA"/>
<path d="M55.9553 62.4824L65.5632 56.9448L69.8947 54.4476L70.3706 54.1205C73.1793 52.2464 74.6156 48.8442 74.6156 43.8447C74.6156 31.044 66.9667 20.2282 51.6723 11.3974L33.2353 0.75293L15.8765 11.0097L34.3134 21.6542C49.6078 30.4851 57.2567 41.3008 57.2567 54.1015C57.2567 58.3863 56.1872 61.4822 54.1245 63.4723L54.1504 63.5225L55.9553 62.4824Z" fill="#F7CE00"/>
<path d="M48.4882 38.7581L65.8539 28.51C61.737 23.7891 59.8646 20.5859 53.0585 16.6697L33.5814 5.4248L16.2225 15.6816L16.2243 15.6833L35.7013 26.9266C41.7737 30.8618 44.5218 34.5045 48.4882 38.7581Z" fill="#FFFCE8"/>
<path d="M81.4668 93.5849L68.2196 63.0637L51.2674 72.6283L48.6595 66.6199C51.084 66.3119 53.0152 65.4484 54.4896 64.0778L70.2633 54.9822L70.7323 54.6603C73.74 52.6512 75.2663 49.0136 75.2663 43.8445C75.2663 30.8552 67.4392 19.7487 51.9994 10.8348L33.2336 0L15.2292 10.6392V76.368L31.0843 85.5207L40.7147 79.9311L46.3423 94.3325L64.1114 104.596L64.9351 104.11L64.6738 103.509L81.4668 93.5849ZM33.2371 1.50555L51.347 11.9614C62.54 18.4231 69.6127 26.0357 72.4888 34.6693L56.1596 43.9605C53.0758 35.2559 45.8872 27.5914 34.6371 21.0951L17.1605 11.0044L33.2371 1.50555ZM47.3824 93.4379L35.4487 62.9028L30.4302 60.0041V83.65L16.5237 75.6221V12.1362L33.9881 22.2199C48.9969 30.8846 56.6061 41.6139 56.6061 54.1048C56.6061 54.8732 56.5559 55.5809 56.4884 56.2697C56.4694 56.4583 56.4555 56.6556 56.4313 56.839C56.3621 57.3772 56.2582 57.8773 56.1458 58.3636C56.0662 58.6907 55.9813 59.0108 55.8827 59.3154C55.855 59.4019 55.8204 59.4798 55.791 59.5646C55.3013 60.9577 54.6004 62.1137 53.6728 63.0083L53.6486 63.0378C52.195 64.4222 50.2274 65.2338 47.6645 65.4138L46.7507 65.4778L62.7321 102.298L47.3824 93.4379Z" fill="#09342E"/>
<path d="M34.4051 34.2502L30.4301 31.9556V48.2986L33.6021 50.1312C35.6303 51.3011 37.2985 51.8843 38.6449 51.8843C39.3336 51.8843 39.941 51.732 40.4671 51.4274C41.8671 50.6193 42.5455 48.8559 42.5455 46.0368C42.5455 41.335 39.8061 37.3686 34.4051 34.2502ZM39.8182 50.3043C38.7279 50.9308 36.8036 50.4825 34.2511 49.0081L31.7279 47.551V34.2035L33.7562 35.3734C38.728 38.2443 41.2476 41.8317 41.2476 46.0368C41.2476 48.3194 40.7665 49.7557 39.8182 50.3043Z" fill="#09342E"/>
<path d="M138.885 89.6459L155.898 99.4043L172.726 29.8944L155.711 20.1343L138.885 89.6459Z" fill="#40C4AA"/>
<path d="M174.304 9.40186L191.317 19.1603L172.726 29.8947L155.711 20.1346L174.304 9.40186Z" fill="#F7CE00"/>
<path d="M174.43 13.9448L191.443 23.7032L172.852 34.4377L155.839 24.6775L174.43 13.9448Z" fill="#FFFCE8"/>
<path d="M186.357 25.728L178.784 28.0694L171.869 68.0912L192.04 58.1321L186.357 25.728Z" fill="#40C4AA"/>
<path d="M193.117 77.9187L179.212 69.6848L192.336 64.4448L193.117 77.9187Z" fill="#40C4AA"/>
<path d="M193.116 78.6734L177.748 69.5708L192.931 63.5088L193.803 78.2753L193.116 78.6734ZM180.677 69.7975L192.396 76.7386L191.739 65.3812L180.677 69.7975Z" fill="#09342E"/>
<path d="M187.683 56.6955L171.869 46.7139L173.472 68.091L189.308 65.381L187.683 56.6955Z" fill="#40C4AA"/>
<path d="M187.676 59.0639L171.86 49.0806L173.463 70.4577L189.299 67.7495L187.676 59.0639Z" fill="#FFFCE8"/>
<path d="M172.876 68.8502L171.125 45.4761L188.268 56.297L190.066 65.9084L172.876 68.8502ZM172.613 47.949L174.065 67.3308L188.548 64.8527L187.098 57.0931L172.613 47.949Z" fill="#09342E"/>
<path d="M191.852 18.7193L174.302 8.65283L155.147 19.7126L138.14 89.9667L155.9 100.154L171.786 90.9825L174.397 78.315L190.164 69.2108L192.556 78.341L193.117 78.6733L209.143 69.4167L191.852 18.7193ZM170.72 35.4188L155.471 98.4133L139.63 89.3264L156.139 21.1299L171.98 30.2169L170.72 35.4188ZM177.634 61.7487C179.603 51.9921 180.902 45.3434 181.496 41.9723C181.769 40.4252 182.003 39.065 182.2 37.8935C182.411 38.8141 182.659 39.8559 182.944 41.0153C183.68 44.0143 184.315 46.4907 184.834 48.3666L186.932 56.3807L177.634 61.7487ZM182.96 23.236L172.724 29.1457L157.013 20.1331L174.304 10.1497L190.015 19.1623L182.96 23.236Z" fill="#09342E"/>
<path d="M273.742 67.5005L274.332 66.9329L258.468 43.0655L236.404 40.2534C236.404 40.2534 216.576 49.266 216.503 49.4823C216.43 49.6986 210.662 63.6155 210.662 63.6155L211.969 64.3198L224.398 74.1371C225.533 73.2683 226.857 72.384 228.421 71.4807C233.253 68.6928 237.984 67.0471 242.611 66.5453C247.242 66.0451 251.233 66.7633 254.588 68.6998C256.802 69.9769 258.563 71.3509 259.872 72.8219C261.182 74.2928 262.348 75.8451 263.371 77.4804L278.79 73.5643C277.466 71.4046 275.78 69.385 273.742 67.5005Z" fill="#40C4AA"/>
<path d="M263.07 78.2248L262.819 77.825C261.817 76.2243 260.661 74.6876 259.385 73.253C258.129 71.8409 256.405 70.498 254.263 69.2607C251.048 67.4038 247.151 66.7082 242.681 67.191C238.162 67.6807 233.474 69.3143 228.745 72.0434C227.272 72.8948 225.941 73.7722 224.792 74.653L224.392 74.9593L211.568 64.8288L209.839 63.9082L210.064 63.3665C211.64 59.5628 215.761 49.6141 215.892 49.2628C216.01 48.9132 216.05 48.7921 236.136 39.6635L236.304 39.5874L258.844 42.4601L275.173 67.0248L274.683 67.4955C276.543 69.2866 278.108 71.2092 279.343 73.2218L279.439 74.0663L263.07 78.2248ZM245.361 65.7425C248.952 65.7425 252.154 66.5438 254.912 68.1358C257.175 69.4424 259.006 70.8735 260.356 72.3895C261.574 73.7566 262.687 75.2154 263.667 76.7348L277.76 73.1543C276.552 71.3373 275.055 69.5981 273.302 67.9766L272.797 67.5094L273.493 66.8397L258.094 43.6714L236.506 40.9199C229.233 44.2269 218.49 49.1503 217.026 49.9238C216.408 51.4467 212.921 59.8657 211.488 63.3215L212.279 63.7472L224.41 73.3153C225.507 72.5037 226.746 71.6972 228.099 70.9168C232.986 68.096 237.846 66.4071 242.544 65.8983C243.504 65.7962 244.446 65.7425 245.361 65.7425Z" fill="#09342E"/>
<path d="M229.421 88.9762V77.3402L225.44 73.3704L214.726 62.6896L209.507 57.4859L200.473 56.4009V78.8042C200.473 78.8042 200.501 78.8267 200.506 78.8302C200.508 83.641 204.227 88.22 211.748 92.5619C217.245 95.7357 223.134 98.0234 229.42 99.4251L241.343 92.5411C238.249 91.7987 235.297 90.9888 232.49 90.1097C231.42 89.7775 230.42 89.3777 229.421 88.9762Z" fill="#40C4AA"/>
<path d="M229.527 100.116L229.28 100.06C222.963 98.6517 216.955 96.3189 211.424 93.1261C203.908 88.7877 200.022 84.0824 199.864 79.14L199.859 79.1366L199.826 78.806V55.6689L209.808 56.8682L230.071 77.0703V88.5368C230.877 88.8586 231.765 89.203 232.685 89.492C235.468 90.3625 238.432 91.1775 241.495 91.9113L241.994 92.9167L229.527 100.116ZM201.126 78.4928L201.159 78.832C201.16 83.3902 204.834 87.8203 212.075 92.0013C217.42 95.0868 223.219 97.3521 229.318 98.7382L239.623 92.7887C237.09 92.1518 234.63 91.4614 232.299 90.7311C231.171 90.378 230.114 89.9523 229.183 89.5785L228.776 89.4141V77.6085L209.211 58.1021L201.128 57.1312V78.4928H201.126Z" fill="#09342E"/>
<path d="M254.588 46.6111C251.233 44.6746 247.242 43.9565 242.611 44.4566C237.984 44.9585 233.253 46.6042 228.421 49.3921C218.379 55.191 217.176 60.2944 224.818 64.7055C227.127 66.038 229.686 67.1438 232.493 68.0229C235.3 68.902 238.252 69.7136 241.346 70.4543L229.423 77.3383C223.138 75.9366 217.249 73.6488 211.751 70.475C203.874 65.9272 200.118 61.1215 200.49 56.058C200.857 50.9945 205.36 45.9691 214.001 40.9817C219.403 37.8633 225.168 35.7088 231.296 34.5199C237.423 33.3311 243.497 33.2047 249.518 34.1392C255.54 35.0737 261.131 37.0309 266.297 40.0143C271.937 43.2712 276.102 47.0905 278.79 51.4739L263.371 55.3901C262.346 53.7547 261.182 52.2024 259.872 50.7315C258.563 49.2623 256.802 47.89 254.588 46.6111Z" fill="#F7CE00"/>
<path d="M266.297 44.7027C261.131 41.7211 255.54 39.7638 249.518 38.8276C243.497 37.8931 237.423 38.0212 231.295 39.2083C225.168 40.3972 219.403 42.5517 214.001 45.6701C206.881 49.7801 202.617 53.9178 201.115 58.0797V64.782C202.468 68.378 205.997 71.8408 211.751 75.1617C217.249 78.3355 223.138 80.6232 229.423 82.0249L241.346 75.1409C238.252 74.3985 235.3 73.5886 232.493 72.7095C229.686 71.8304 227.127 70.7229 224.818 69.3904C217.178 64.9793 218.379 59.876 228.423 54.077C233.254 51.2891 237.986 49.6434 242.613 49.1415C247.244 48.6397 251.235 49.3579 254.59 51.296C256.803 52.5732 258.565 53.9472 259.873 55.4181C261.183 56.8891 262.35 58.4414 263.374 60.0767L278.793 56.1605C276.102 51.7806 271.937 47.9596 266.297 44.7027Z" fill="#FFFCE8"/>
<path d="M279.075 50.7332C276.336 46.4467 272.157 42.65 266.622 39.4537C261.41 36.446 255.689 34.4421 249.618 33.5007C243.553 32.5593 237.345 32.6891 231.173 33.8866C225.002 35.0841 219.116 37.2836 213.677 40.4228C204.881 45.5019 200.227 50.7471 199.845 56.0131C199.456 61.3206 203.353 66.3754 211.427 71.0392C216.809 74.1455 222.646 76.4211 228.774 77.8401V99.7036L229.529 100.115L241.995 92.9182L241.997 69.9455C241.997 69.9455 235.397 68.2548 232.689 67.4068C229.939 66.545 227.4 65.4479 225.145 64.1465C222.075 62.3745 220.518 60.509 220.518 58.6019C220.518 56.0182 223.287 53.1092 228.748 49.9562C233.478 47.2272 238.166 45.5936 242.684 45.1038C247.152 44.6193 251.049 45.3184 254.267 47.1735C256.411 48.4109 258.132 49.7538 259.389 51.1659C260.626 52.5555 261.744 54.0455 262.724 55.5943L262.72 77.4785L263.07 78.2243L279.437 74.0676L279.439 51.2939L279.075 50.7332ZM260.356 50.3023C259.008 48.7864 257.177 47.3553 254.914 46.0504C251.451 44.0517 247.292 43.3006 242.542 43.8129C237.844 44.3234 232.985 46.0124 228.098 48.8314C222.122 52.2821 219.218 55.4766 219.218 58.6019C219.218 61.0056 220.994 63.2484 224.495 65.2696C226.833 66.6194 229.459 67.7547 232.299 68.6459C234.632 69.3762 237.089 70.0666 239.623 70.7035L229.318 76.653C223.219 75.2686 217.42 73.0033 212.075 69.9161C204.467 65.524 200.786 60.8776 201.138 56.11C201.487 51.2974 205.924 46.3983 214.324 41.5476C219.639 38.4794 225.389 36.3301 231.418 35.162C234.796 34.5079 238.181 34.1791 241.549 34.1791C244.19 34.1791 246.818 34.3815 249.419 34.7847C255.332 35.7019 260.901 37.6522 265.973 40.5803C271.17 43.581 275.13 47.1061 277.76 51.069L263.667 54.6494C262.685 53.1283 261.573 51.6694 260.356 50.3023Z" fill="#09342E"/>
<path d="M242.612 44.457L242.61 66.5454L233.519 68.6636L223.642 64.1919L220.037 59.8656L220.983 55.4337L225.228 51.142L233.736 46.7431L242.612 44.457Z" fill="#09342E"/>
<path d="M246.734 44.2334V66.2197L252.358 67.1057V45.1471L246.734 44.2334Z" fill="#09342E"/>
<path d="M259.305 69.7837V91.8704L274.207 100.475V78.3879L259.305 69.7837Z" fill="#40C4AA"/>
<path d="M288.804 37.2031V52.7536L302.273 44.9784L288.804 37.2031Z" fill="#40C4AA"/>
<path d="M317.172 53.5806V75.6672L330.603 83.4217V61.335L317.172 53.5806Z" fill="#40C4AA"/>
<path d="M274.207 78.3875L259.307 69.7851L302.272 44.9797L288.805 37.2045L300.99 30.1699L342.787 54.3021L330.603 61.3366L317.172 53.5839L274.207 78.3875Z" fill="#F7CE00"/>
<path d="M274.134 82.8211L259.234 74.2186L302.2 49.4133L288.733 41.6381L300.917 34.6035L342.715 58.7356L330.53 65.7702L317.099 58.0175L274.134 82.8211Z" fill="#FFFCE8"/>
<path d="M300.988 29.4189L288.155 36.8291V52.3795L258.656 69.4096V92.2456L274.205 101.224L317.171 76.4165L330.601 84.171L343.435 76.7626V53.9266L300.988 29.4189ZM289.453 38.326L300.973 44.9781L289.453 51.6302V38.326ZM273.558 99.3494L259.956 91.4963V70.9082L273.558 78.7614V99.3494ZM329.954 82.2968L317.821 75.2934V54.7053L329.954 61.7105V82.2968ZM317.172 52.8312L274.207 77.6365L260.605 69.7834L288.156 53.8764L303.57 44.9764L290.103 37.2011L300.99 30.9159L341.49 54.2987L330.603 60.5839L317.172 52.8312Z" fill="#09342E"/>
<path d="M278.207 157.167C276.344 158.184 275.184 160.14 275.184 162.263V164.978C275.184 167.065 276.304 168.991 278.117 170.024L319.987 193.878C324.656 196.538 330.391 196.503 335.027 193.786L347.16 186.676C348.939 185.634 350.031 183.727 350.031 181.666V175.079C350.031 173.075 348.998 171.213 347.298 170.153L338.192 164.468C337.488 164.028 336.699 163.744 335.875 163.637L281.751 156.506C280.528 156.346 279.287 156.577 278.207 157.167Z" fill="#FEF2A4"/>
<path d="M269.776 188.003L253.994 179.17C252.483 178.298 252.483 176.118 253.994 175.246L272.386 164.515L290.695 174.808C292.205 175.68 292.205 177.86 290.695 178.733L274.831 188.003C273.268 188.906 271.34 188.906 269.776 188.003Z" fill="#FEF2A4"/>
<path d="M257.662 181.081L241.88 172.248C240.369 171.376 240.369 169.195 241.88 168.323L260.272 157.592L278.581 167.885C280.092 168.758 280.092 170.938 278.581 171.81L262.717 181.081C261.155 181.984 259.227 181.984 257.662 181.081Z" fill="#FEF2A4"/>
<path d="M103.225 197.1L54.9231 168.523C53.2618 167.565 53.2618 165.164 54.9231 164.206L76.7692 151.62L108.851 171.102L128.251 160.76L146.291 171.263C147.953 172.222 147.953 174.622 146.291 175.58L108.786 197.1C107.065 198.093 104.946 198.093 103.225 197.1Z" fill="#FEF2A4"/>
<path d="M37.857 197.636L1.42612 176.385C-0.434194 175.312 -0.434194 172.627 1.42612 171.552L21.2267 160.12L60.7692 183.167C62.6295 184.242 62.6295 186.926 60.7692 188.001L44.0818 197.636C42.154 198.747 39.7814 198.747 37.857 197.636Z" fill="#FEF2A4"/>
<path d="M131.551 178.781V182.963C131.551 185.73 133.018 188.29 135.406 189.688L147.213 196.598C152.08 199.445 158.104 199.443 162.966 196.593L174.038 190.104C176.02 188.942 177.236 186.817 177.236 184.523V180.35C177.236 178.807 178.934 177.867 180.242 178.686L181.9 179.724C184.461 181.33 187.699 181.397 190.326 179.902L196.554 176.358C198.425 175.294 199.579 173.307 199.579 171.156V165.817C199.579 163.509 198.453 161.346 196.563 160.02L185.269 152.106L161.835 151.066L137.803 169.387L135.024 171.592C132.829 173.333 131.551 175.981 131.551 178.781Z" fill="#FEF2A4"/>
<path d="M236.869 199.711L195.561 175.752C193.445 174.53 193.445 171.474 195.561 170.252L218.094 157.242L262.944 183.245C265.061 184.467 265.061 187.523 262.944 188.745L243.952 199.709C241.761 200.976 239.061 200.976 236.869 199.711Z" fill="#FEF2A4"/>
<path d="M297.509 134.068L296.639 148.613L305.279 143.528L306.82 131.763L301.789 127.384L297.509 134.068Z" fill="#09342E"/>
<path d="M311.31 176.363L309.144 165.593L294.85 157.34L292.623 165.575L279.562 158.035L293.915 115.314L309.774 124.47L324.308 183.87L311.31 176.363ZM306.676 152.91L304.781 143.476C304.34 141.369 303.803 138.66 303.172 135.355C302.54 132.048 302.139 130.624 301.938 129.234C301.758 130.311 301.386 131.127 300.855 133.531C300.323 135.935 299.143 140.593 297.319 147.509L306.676 152.91Z" fill="#40C4AA"/>
<path d="M293.917 115.314L312.369 104.549L328.228 113.705L309.775 124.471L293.917 115.314Z" fill="#F7CE00"/>
<path d="M293.917 118.384L312.369 107.62L328.228 116.776L309.775 127.54L293.917 118.384Z" fill="#FFFCE8"/>
<path d="M297.317 147.507L307.746 154.152L304.712 143.153L297.317 147.507Z" fill="#40C4AA"/>
<path d="M299.32 148.597L307.296 153.202L305.266 145.098L299.32 148.597Z" fill="#FFFCE8"/>
<path d="M325.011 184.166L343.463 173.4L328.929 114.002L328.759 113.306L328.226 113L312.368 103.844L293.915 114.608L293.412 114.902L293.18 115.592L278.827 158.314L291.911 165.869L292.615 166.276L293.143 165.985L301.057 161.629L308.599 165.983L310.765 176.756L323.779 184.268L324.312 184.576L325.011 184.166ZM312.371 105.254L327.013 113.708L309.774 123.764L295.133 115.31L312.371 105.254ZM323.377 182.626L311.854 175.972L309.687 165.199L302.308 160.939L294.469 156.414L292.242 164.647L280.301 157.753L294.258 116.212L309.244 124.864L321.029 173.025L323.377 182.626Z" fill="#09342E"/>
<path d="M303.769 135.239C303.139 131.948 302.852 130.444 302.656 129.079L301.318 128.207C301.142 129.26 300.784 131.007 300.256 133.396C299.733 135.762 298.546 140.455 296.725 147.35L296.606 147.801L307.538 154.112L305.375 143.35C304.94 141.265 304.399 138.536 303.769 135.239ZM298.027 147.211C299.808 140.459 300.927 136.023 301.45 133.661C301.606 132.952 301.747 132.304 301.872 131.714C302.064 132.78 302.296 134.028 302.571 135.468C303.203 138.771 303.744 141.507 304.182 143.596L305.812 151.707L298.027 147.211Z" fill="#09342E"/>
<path d="M253.305 170.955V108.772L267.928 117.216V179.397L253.305 170.955Z" fill="#40C4AA"/>
<path d="M253.305 108.773L266.663 101.096L281.286 109.539L267.928 117.216L253.305 108.773Z" fill="#F7CE00"/>
<path d="M253.515 112.359L266.663 104.807L281.286 113.25L267.803 120.577L253.515 112.359Z" fill="#FFFCE8"/>
<path d="M266.665 100.383L252.687 108.416V171.312L267.928 180.112L281.905 172.079V109.183L266.665 100.383ZM267.31 178.328L253.923 170.599V109.844L267.31 117.573V178.328ZM254.544 108.775L266.663 101.811L280.049 109.539L267.93 116.503L254.544 108.775Z" fill="#09342E"/>
<path d="M55.1238 154.758V132.671L106.747 162.476V184.563L55.1238 154.758Z" fill="#40C4AA"/>
<path d="M137.396 144.782L106.747 162.476L55.1238 132.671L85.7731 114.975L96.9661 121.437L80.2648 131.079L88.3862 135.767L103.854 126.838L115.047 133.3L99.5792 142.229L109.325 147.855L126.027 138.213L137.396 144.782Z" fill="#F7CE00"/>
<path d="M137.396 148.891L106.747 166.586L55.1238 136.781L85.7731 119.085L96.9661 125.547L80.2648 135.189L88.3862 139.877L103.854 130.948L115.047 137.409L99.5792 146.339L109.325 151.965L126.027 142.322L137.396 148.891Z" fill="#FFFCE8"/>
<path d="M126.027 137.466L115.694 143.431V132.929L103.852 126.092L97.6149 129.693V121.064L85.773 114.227L54.4747 132.297V155.133L106.747 185.313L138.045 167.243V144.406L126.027 137.466ZM106.098 183.439L55.7726 154.384V133.794L106.098 162.85V183.439ZM56.4216 132.671L85.773 115.726L95.6681 121.438L78.9668 131.081L88.3861 136.52L103.853 127.59L113.749 133.303L98.2812 142.232L109.325 148.609L126.027 138.967L136.098 144.783L106.747 161.728L56.4216 132.671Z" fill="#09342E"/>
<path d="M46.5407 133.234C41.9963 128.214 36.7287 119.604 35.23 117.631L10.9041 127.307L14.1384 138.495L19.0358 144.96V154.28C21.886 157.496 24.6323 160.181 27.273 162.334C29.7494 164.357 32.8021 166.423 36.386 168.529L37.8292 183.308L54.7434 172.28C55.1812 172.053 55.5862 171.779 55.9738 171.478L56.0863 171.406L56.0828 171.39C56.486 171.063 56.8702 170.71 57.2146 170.298C59.0541 168.112 59.9731 164.928 59.9731 160.744C59.9731 156.191 58.9953 151.847 57.0346 147.717C55.0739 143.584 51.5765 138.756 46.5407 133.234Z" fill="#F7CE00"/>
<path d="M37.2858 184.436L35.7716 168.921C32.2569 166.841 29.2596 164.795 26.8629 162.838C24.2117 160.675 21.4152 157.94 18.5512 154.711L18.3868 154.526V145.176L13.5154 138.675L10.1166 126.921L35.448 116.846L35.7474 117.237C36.1817 117.81 36.9137 118.905 37.8378 120.295C40.2087 123.853 43.7909 129.228 47.0235 132.798C52.0801 138.344 55.6449 143.269 57.6195 147.436C59.6096 151.633 60.6202 156.11 60.6202 160.742C60.6202 165.063 59.6424 168.419 57.7094 170.715C57.4499 171.025 57.1505 171.328 56.7992 171.632L56.813 171.688L56.4392 171.947C55.9149 172.344 55.4788 172.627 55.0392 172.854L37.2858 184.436ZM19.6847 154.035C22.4449 157.132 25.1341 159.756 27.6831 161.832C30.0955 163.802 33.1326 165.866 36.7148 167.971L36.9986 168.138L38.3709 182.182L54.3868 171.738C54.8108 171.515 55.1811 171.274 55.5722 170.968L55.6709 170.888C56.1 170.542 56.4323 170.222 56.7161 169.883C58.4449 167.827 59.3223 164.753 59.3223 160.746C59.3223 156.309 58.3549 152.017 56.4461 147.995C54.527 143.944 51.0331 139.124 46.0613 133.673L46.0596 133.672C42.7664 130.032 39.1513 124.609 36.758 121.018C36.0312 119.928 35.4255 119.021 35.0015 118.424L11.6914 127.694L14.7284 138.2L19.6847 144.742V154.035Z" fill="#09342E"/>
<path d="M1.73059 149.282L17.9248 139.684L32.2016 155.908L30.5784 170.943L14.7874 169.536L5.37854 158.071L1.73059 149.282Z" fill="#F7CE00"/>
<path d="M31.1546 171.645L14.4585 170.159L4.77792 158.32L1.08154 149.41V148.913L18.0562 138.854L32.8782 155.695L31.1546 171.645ZM15.1178 168.914L30.0037 170.24L31.5266 156.124L17.7949 140.518L2.54727 149.555L5.94257 157.737L15.1178 168.914Z" fill="#09342E"/>
<path d="M21.5036 120.522L42.635 128.87L42.6644 128.882L59.9696 117.633C53.6792 110.77 47.5116 105.594 41.4634 102.1C34.614 98.1459 29.2303 96.777 25.3124 97.9919C24.9317 98.1095 24.5856 98.2722 24.243 98.4366L24.2257 98.4262L24.153 98.4729C23.6321 98.7325 23.1441 99.0354 22.7097 99.4057L6.27148 110.028L7.86702 115.131L21.5036 120.522Z" fill="#F7CE00"/>
<path d="M42.7405 129.605L42.4324 129.487L7.33744 115.622L5.50134 109.754L22.3549 98.864C22.7322 98.5352 23.2479 98.2012 23.8605 97.8949L24.1996 97.6751L24.2619 97.7097C24.5354 97.5834 24.8157 97.4657 25.1168 97.3722C29.2043 96.1072 34.8078 97.5107 41.7852 101.538C47.8628 105.045 54.1412 110.313 60.4454 117.194L60.7275 117.503L60.4853 118.069L42.7405 129.605ZM21.7423 119.918L42.5934 128.153L58.9728 117.507C52.9333 111 46.937 106.008 41.1397 102.661C34.4841 98.819 29.2199 97.4605 25.5062 98.6113C25.1583 98.7203 24.84 98.8691 24.5267 99.0214L24.21 99.1737L24.2083 99.172C23.7532 99.4264 23.4227 99.6531 23.1302 99.9023L7.03805 110.308L8.39303 114.643L21.7423 119.918Z" fill="#09342E"/>
<path d="M42.6644 171.992C42.6644 176.176 41.7455 179.362 39.906 181.546C38.0664 183.73 35.4152 184.723 31.9507 184.523C28.4862 184.322 24.4212 182.875 19.7575 180.184C15.8673 177.938 12.6018 175.737 9.96619 173.584C7.32714 171.431 4.58078 168.745 1.72888 165.53V149.282C4.74172 152.806 7.87221 156.007 11.1239 158.883C14.3755 161.761 17.3607 163.983 20.0794 165.553C22.4242 166.906 24.1443 167.43 25.2363 167.12C26.33 166.814 26.8751 165.921 26.8751 164.443C26.8751 163.521 26.6553 162.586 26.2158 161.64C25.7745 160.693 25.0684 159.586 24.0959 158.317C23.1216 157.049 20.5293 154.105 16.3224 149.49C12.51 145.288 9.65121 141.701 7.74764 138.723C5.8406 135.746 4.4285 132.776 3.51132 129.816C2.59068 126.853 2.13035 123.71 2.13035 120.388C2.13035 114.172 4.09102 110.458 8.00546 109.241C11.9234 108.027 17.307 109.395 24.1564 113.35C30.2046 116.842 36.3739 122.02 42.6627 128.883L37.8259 140.168C32.3626 134.121 27.6452 129.951 23.6754 127.658C21.623 126.472 20.1295 126.027 19.1968 126.32C18.2657 126.612 17.7968 127.374 17.7968 128.604C17.7968 129.928 18.3903 131.454 19.5775 133.185C20.7629 134.915 23.9799 138.681 29.2304 144.482C34.2662 150.004 37.7653 154.832 39.7225 158.963C41.6866 163.094 42.6644 167.437 42.6644 171.992Z" fill="#40C4AA"/>
<path d="M42.0121 107.298C35.1627 103.344 29.7791 101.975 25.8612 103.19C25.4804 103.308 25.1343 103.47 24.7917 103.635L24.7743 103.624L24.6999 103.671C24.179 103.931 23.6911 104.234 23.2567 104.604L6.81848 115.226L6.8254 115.248C7.35667 114.92 7.92082 114.632 8.55592 114.435C12.4738 113.22 17.8574 114.589 24.7069 118.543C30.755 122.035 36.9243 127.213 43.2131 134.076L56.0796 125.715L58.5317 120.713C52.243 113.854 48.062 110.791 42.0121 107.298Z" fill="#FFFCE8"/>
<path d="M15.5245 148.591L3.55798 155.38C3.55798 155.38 4.14116 157.519 9.13545 161.629C14.1315 165.739 15.1109 165.753 15.1109 165.753L25.3158 159.784L15.5245 148.591Z" fill="#FFFCE8"/>
<path d="M54.2017 142.809L37.0782 153.187C35.1521 150.373 32.7017 147.322 29.7165 144.048C28.5571 142.767 27.5118 141.601 26.5514 140.517L33.1845 136.224C34.4357 137.47 35.7283 138.828 37.066 140.299L37.7185 141.014L55.6519 129.357L60.731 117.505L60.0751 116.79L42.7647 128.042C36.5867 121.364 30.4382 116.226 24.4817 112.788C17.5042 108.759 11.9008 107.355 7.81328 108.622C3.61157 109.927 1.48131 113.886 1.48131 120.388C1.48131 123.763 1.95546 127 2.88994 130.008C3.82097 133.012 5.27118 136.063 7.19898 139.074C9.10948 142.063 12.0167 145.714 15.8412 149.928C20.0221 154.514 22.6248 157.47 23.5801 158.714C24.5197 159.939 25.2068 161.017 25.6273 161.915C26.0236 162.772 26.2261 163.623 26.2261 164.445C26.2261 165.993 25.5598 166.358 25.0579 166.498C24.435 166.68 23.1197 166.558 20.4028 164.992C17.7309 163.449 14.7527 161.23 11.553 158.397C8.34803 155.561 5.20887 152.353 2.22199 148.86L1.8672 148.445L1.07983 148.912V165.774L1.24424 165.96C4.10652 169.189 6.90306 171.923 9.55595 174.086C12.2106 176.255 15.5349 178.496 19.4337 180.747C24.165 183.478 28.3632 184.968 31.9143 185.172C32.2154 185.189 32.5113 185.198 32.8003 185.198C36.0416 185.198 38.5976 184.113 40.4042 181.964C40.5842 181.749 40.7486 181.517 40.9113 181.283L40.9044 181.302L57.7095 170.715L58.9728 167.671L60.5198 158.302L57.8946 149.713L54.2017 142.809ZM40.8386 159.972C40.7971 159.873 40.759 159.773 40.7175 159.674L40.7815 159.766L40.8386 159.972ZM43.0225 167.761L43.0243 167.943C43.0052 167.796 42.9723 167.65 42.9515 167.505L43.0225 167.761ZM39.4109 181.129C37.6977 183.166 35.2698 184.066 31.9904 183.876C28.6436 183.682 24.6392 182.253 20.0844 179.622C16.2444 177.405 12.9806 175.204 10.3797 173.081C7.83059 171.002 5.14134 168.381 2.38116 165.283V151.018C5.06174 154.05 7.85307 156.854 10.6981 159.37C13.9635 162.26 17.011 164.53 19.7574 166.117C22.2839 167.578 24.1287 168.112 25.4145 167.747C26.3784 167.477 27.5274 166.685 27.5274 164.445C27.5274 163.433 27.2852 162.396 26.8075 161.369C26.3489 160.384 25.6117 159.224 24.615 157.925C23.6251 156.632 21.0691 153.732 16.8051 149.056C13.0308 144.896 10.1685 141.303 8.29609 138.375C6.43058 135.461 5.02886 132.517 4.13418 129.624C3.23777 126.739 2.78268 123.633 2.78268 120.388C2.78268 114.438 4.55472 110.995 8.20266 109.861C11.9181 108.709 17.1823 110.071 23.8362 113.911C29.7079 117.301 35.7855 122.38 41.9046 129.011L37.6302 138.984C32.4265 133.312 27.8458 129.314 24.0041 127.096C21.7683 125.805 20.1329 125.348 19.0063 125.699C18.1618 125.966 17.1529 126.684 17.1529 128.603C17.1529 130.053 17.7898 131.719 19.0478 133.55C20.2592 135.319 23.4347 139.036 28.7561 144.918C33.7279 150.369 37.2218 155.189 39.1409 159.24C41.0497 163.262 42.0171 167.552 42.0171 171.99C42.0154 176 41.1397 179.074 39.4109 181.129ZM42.9965 175.867C43.0277 175.687 43.0606 175.507 43.0865 175.322L43.09 175.626L42.9965 175.867Z" fill="#09342E"/>
<path d="M166.185 129.939L166.999 146.898L177.382 143.412L181.286 129.939L175.695 125.874L166.185 129.939Z" fill="#40C4AA"/>
<path d="M181.781 169.252L165.256 159.21L170.019 151.066L191.624 158.513L181.781 169.252Z" fill="#40C4AA"/>
<path d="M165.093 127.233C166.268 125.428 167.256 123.63 168.042 121.841L187.003 113.962L167.142 102.12C163.885 99.9412 158.207 101.189 150.103 105.868L133.771 115.298L157.238 131.989L165.093 127.233Z" fill="#F7CE00"/>
<path d="M133.772 172.859L154.333 185.098V127.54L133.772 115.298V172.859Z" fill="#40C4AA"/>
<path d="M165.093 130.921C166.268 129.117 167.256 127.319 168.042 125.529L187.003 117.65L167.142 105.808C163.885 103.631 158.207 104.877 150.103 109.556L133.771 118.986L157.005 132.86L165.093 130.921Z" fill="#FFFCE8"/>
<path d="M182.219 169.796L198.127 160.612L183.432 143.724C188.904 136.878 191.678 130.037 191.678 123.387C191.678 118.888 190.6 115.778 188.49 114.097L188.542 114.077L188.023 113.767C187.928 113.705 187.843 113.627 187.744 113.57C187.64 113.511 187.53 113.462 187.424 113.409L167.528 101.548C164.001 99.189 158.189 100.406 149.761 105.272L133.781 114.499L133.084 114.9V115.591V173.25L153.642 185.49L154.328 185.899L155.025 185.497L168.494 177.722V161.986L181.301 169.768L181.772 170.054L182.219 169.796ZM169.979 142.63L168.492 143.489V131.936L170.806 130.6C173.8 128.871 175.162 128.93 175.776 129.286C176.382 129.636 176.69 130.532 176.69 131.951C176.69 136.529 174.495 140.022 169.979 142.63ZM150.45 106.469C158.266 101.956 163.754 100.688 166.789 102.716L183.432 112.639C180.085 112.765 175.75 114.376 170.32 117.512L154.338 126.737L135.14 115.307L150.45 106.469ZM134.465 172.465V116.515L153.642 127.931V183.881L134.465 172.465ZM168.492 160.368V156.777L171.012 155.322L179.268 166.917L168.492 160.368Z" fill="#09342E"/>
<path d="M233.297 175.06L234.181 181.598L250.787 171.798C250.792 171.795 250.798 171.791 250.803 171.788L251.28 171.506L251.275 171.475C253.876 169.818 255.197 166.589 255.197 161.733C255.197 157.764 254.414 154.081 252.85 150.689C251.284 147.296 248.757 144.058 245.265 140.978L227.06 147.294L211.856 155.735L228.555 165.376L233.297 175.06Z" fill="#F7CE00"/>
<path d="M233.671 182.654L232.669 175.253L228.06 165.842L210.539 155.727L226.745 146.73L245.412 140.244L245.696 140.495C249.235 143.62 251.841 146.959 253.44 150.421C255.037 153.884 255.847 157.691 255.847 161.739C255.847 166.555 254.551 169.928 251.995 171.776L252 171.807L251.133 172.352L233.671 182.654ZM213.174 155.748L229.054 164.914L233.942 174.974L234.695 180.543L250.929 170.93C253.333 169.4 254.551 166.306 254.551 161.736C254.551 157.878 253.781 154.253 252.263 150.963C250.784 147.756 248.38 144.648 245.12 141.717L227.273 147.909L213.174 155.748Z" fill="#09342E"/>
<path d="M222.557 121.306H204.676V140.631H222.557V121.306Z" fill="#09342E"/>
<path d="M226.163 145.245H204.676V166.733H226.163V145.245Z" fill="#09342E"/>
<path d="M231.488 102.087L211.857 90.7524L194.5 101.009L211.857 115.461L230.308 139.186L233.529 150.163L238.675 147.123L246.719 142.37L250.168 140.334C250.358 140.238 250.541 140.126 250.721 140.007L250.782 139.97L250.78 139.967C251.086 139.757 251.382 139.526 251.659 139.243C253.276 137.599 254.084 134.953 254.084 131.311C254.084 125.77 252.23 120.618 248.52 115.854C244.813 111.091 239.134 106.5 231.488 102.087Z" fill="#F7CE00"/>
<path d="M233.141 151.146L229.72 139.488L211.345 115.859L193.851 101.312V100.638L211.854 90L231.812 101.524C239.496 105.959 245.291 110.647 249.033 115.454C252.816 120.312 254.733 125.647 254.733 131.311C254.733 135.113 253.854 137.935 252.122 139.699C251.962 139.862 251.793 140.014 251.604 140.164L251.108 140.531C250.877 140.68 250.671 140.805 250.459 140.914L233.141 151.146ZM195.622 101.1L212.271 114.963L230.93 139.005L233.915 149.18L249.836 139.777C250.04 139.671 250.202 139.573 250.36 139.467L250.362 139.469L250.414 139.432C250.729 139.216 250.978 139.012 251.198 138.79C252.682 137.28 253.435 134.762 253.435 131.313C253.435 125.945 251.609 120.879 248.008 116.254C244.369 111.578 238.701 107.001 231.163 102.648L211.861 91.5038L195.622 101.1Z" fill="#09342E"/>
<path d="M209.705 161.212L224.054 152.779L228.389 167.814L219.046 173.006L206.109 165.833L209.705 161.212Z" fill="#40C4AA"/>
<path d="M219.046 173.747L205.129 166.034L209.374 160.654L224.447 151.797L229.154 168.13L219.046 173.747ZM207.085 165.634L219.046 172.264L227.621 167.498L223.661 153.763L210.139 161.711L207.085 165.634Z" fill="#09342E"/>
<path d="M209.704 134.723L222.557 126.965L229.941 140.24L217.248 147.569L208.595 138.847L209.704 134.723Z" fill="#40C4AA"/>
<path d="M217.141 148.38L207.874 139.039L209.147 134.302L222.799 126.063L230.82 140.484L217.141 148.38ZM209.319 138.655L217.357 146.755L229.064 139.998L222.318 127.868L210.264 135.144L209.319 138.655Z" fill="#09342E"/>
<path d="M222.656 129.797L214.598 134.663C214.598 134.663 218.018 137.096 222.176 136.88C226.333 136.664 226.496 132.5 226.496 132.5L222.656 129.797Z" fill="#FFFCE8"/>
<path d="M224.528 155.213L215.085 161.13C215.085 161.13 220.602 165.435 224.765 163.163C228.929 160.892 224.528 155.213 224.528 155.213Z" fill="#FFFCE8"/>
<path d="M194.498 101.007L214.129 112.342C221.777 116.757 227.455 121.346 231.163 126.11C234.873 130.874 236.727 136.026 236.727 141.567C236.727 145.212 235.917 147.856 234.302 149.502C232.684 151.146 230.554 151.575 227.911 150.791V151.236C231.404 154.318 233.93 157.556 235.496 160.947C237.061 164.339 237.843 168.022 237.843 171.992C237.843 177.889 235.925 181.426 232.089 182.605C228.252 183.783 223.024 182.46 216.402 178.637L194.5 165.992V101.007H194.498ZM209.705 134.723L214.283 137.367C216.466 138.627 218.151 139.082 219.345 138.733C220.539 138.387 221.135 137.187 221.135 135.144C221.135 131.501 218.75 128.299 213.975 125.543L209.703 123.077L209.705 134.723ZM209.705 147.569V161.214L215.055 164.303C219.802 167.044 222.176 166.104 222.176 161.48C222.176 159.317 221.541 157.293 220.271 155.403C219.001 153.515 217.158 151.871 214.746 150.48L209.705 147.569Z" fill="#40C4AA"/>
<path d="M231.163 130.075C231.331 130.29 231.473 130.509 231.634 130.726L248.091 120.799C244.379 116.22 238.857 111.801 231.487 107.545L211.855 96.2104L195.779 105.709L214.129 116.305C221.777 120.72 227.454 125.311 231.163 130.075Z" fill="#FFFCE8"/>
<path d="M229.178 183.664C225.612 183.664 221.223 182.171 216.076 179.199L193.849 166.368V100.637L194.495 100.256L214.455 111.78C222.14 116.215 227.934 120.903 231.675 125.711C235.458 130.568 237.376 135.903 237.376 141.567C237.376 145.369 236.497 148.192 234.764 149.955C233.347 151.397 231.568 152.001 229.458 151.771C232.433 154.596 234.659 157.585 236.085 160.674C237.682 164.137 238.492 167.944 238.492 171.992C238.492 178.18 236.401 181.96 232.279 183.225C231.326 183.517 230.293 183.662 229.178 183.664ZM195.147 165.618L216.725 178.074C223.152 181.786 228.256 183.098 231.897 181.984C235.46 180.89 237.192 177.621 237.192 171.992C237.192 168.134 236.422 164.509 234.904 161.219C233.382 157.921 230.883 154.725 227.48 151.722L227.261 151.528V149.921L228.095 150.168C230.509 150.885 232.39 150.519 233.838 149.047C235.323 147.534 236.078 145.018 236.078 141.569C236.078 136.201 234.252 131.136 230.651 126.51C227.012 121.834 221.344 117.257 213.806 112.905L195.149 102.132V165.618H195.147ZM219.373 166.483C218.141 166.483 216.604 165.945 214.73 164.864L209.056 161.586V146.444L215.071 149.915C217.558 151.35 219.489 153.074 220.811 155.038C222.149 157.028 222.827 159.194 222.827 161.479C222.827 163.832 222.216 165.378 221.012 166.073C220.538 166.347 219.994 166.483 219.373 166.483ZM210.353 160.838L215.379 163.741C217.694 165.078 219.42 165.494 220.361 164.952C221.135 164.505 221.527 163.337 221.527 161.481C221.527 159.461 220.924 157.537 219.733 155.765C218.523 153.965 216.736 152.376 214.422 151.042L210.353 148.694V160.838ZM218.496 139.498C217.274 139.498 215.777 138.98 213.958 137.93L209.054 135.097V121.954L214.299 124.982C219.264 127.85 221.782 131.267 221.782 135.145C221.782 137.506 221.022 138.925 219.524 139.359C219.207 139.449 218.864 139.498 218.496 139.498ZM210.353 134.349L214.609 136.807C216.623 137.968 218.156 138.411 219.164 138.112C219.492 138.016 220.487 137.727 220.487 135.145C220.487 131.766 218.188 128.725 213.654 126.107L210.355 124.203L210.353 134.349Z" fill="#09342E"/>
<path d="M233.195 156.864L250.595 146.73L246.923 142.251L234.595 149.18L230.819 151.151L227.91 151.234L233.195 156.864Z" fill="#09342E"/>
<path d="M237.192 166.192L254.549 155.717L255.198 161.736L254.549 167.543L251.263 171.869L235.147 181.064C235.147 181.064 237.526 177.277 237.526 176.9C237.526 176.521 238.175 170.357 238.175 170.357L237.192 166.192Z" fill="#09342E"/>
</svg>
