<svg width="104" height="22" viewBox="0 0 104 22" fill="none" xmlns="http://www.w3.org/2000/svg">
<path d="M7.21154 9.8092C6.94318 9.55457 6.40903 5.97188 5.91926 6.00017C5.43204 6.02846 5.00477 9.58286 4.77826 9.8169C4.31961 10.2876 0.974132 10.6194 1.00015 11.0746C1.02898 11.5298 4.31425 11.7433 4.77826 12.1882C5.0387 12.4351 5.58331 16.0281 6.07053 15.9998C6.55775 15.9715 6.97456 12.43 7.21154 12.1857C7.65462 11.733 11.0261 11.3832 10.9998 10.9254C10.9713 10.4676 7.65718 10.2387 7.21154 9.81177V9.8092Z" fill="#7DD4C0" stroke="#09342E" stroke-miterlimit="10"/>
<path d="M28.3173 9.2138C27.9148 8.83186 27.1135 3.45781 26.3789 3.50025C25.6481 3.54269 25.0072 8.8743 24.6674 9.22536C23.9794 9.93136 18.9612 10.429 19.0002 11.1119C19.0435 11.7947 23.9714 12.1149 24.6674 12.7824C25.0581 13.1527 25.875 18.5422 26.6058 18.4998C27.3366 18.4573 27.9618 13.145 28.3173 12.7785C28.9819 12.0995 34.0392 11.5748 33.9998 10.8881C33.9569 10.2014 28.9858 9.85805 28.3173 9.21765V9.2138Z" fill="#7DD4C0" stroke="#09342E" stroke-miterlimit="10"/>
<path d="M54.4231 8.6184C53.8864 8.10914 52.8181 0.943753 51.8385 1.00033C50.8641 1.05691 50.0095 8.16573 49.5565 8.63381C48.6392 9.57515 41.9483 10.2387 42.0003 11.1492C42.058 12.0596 48.6285 12.4865 49.5565 13.3765C50.0774 13.8703 51.1666 21.0562 52.1411 20.9997C53.1155 20.9431 53.9491 13.86 54.4231 13.3713C55.3092 12.466 62.0522 11.7664 61.9997 10.8508C61.9426 9.93523 55.3144 9.4774 54.4231 8.62353V8.6184Z" fill="#7DD4C0" stroke="#09342E" stroke-miterlimit="10"/>
<path d="M79.3173 9.2138C78.9148 8.83186 78.1135 3.45781 77.3789 3.50025C76.6481 3.54269 76.0072 8.8743 75.6674 9.22536C74.9794 9.93136 69.9612 10.429 70.0002 11.1119C70.0435 11.7947 74.9714 12.1149 75.6674 12.7824C76.0581 13.1527 76.875 18.5422 77.6058 18.4998C78.3366 18.4573 78.9618 13.145 79.3173 12.7785C79.9819 12.0995 85.0392 11.5748 84.9998 10.8881C84.9569 10.2014 79.9858 9.85805 79.3173 9.21765V9.2138Z" fill="#7DD4C0" stroke="#09342E" stroke-miterlimit="10"/>
<path d="M99.2115 9.8092C98.9432 9.55457 98.409 5.97188 97.9193 6.00017C97.432 6.02846 97.0048 9.58286 96.7783 9.8169C96.3196 10.2876 92.9741 10.6194 93.0002 11.0746C93.029 11.5298 96.3143 11.7433 96.7783 12.1882C97.0387 12.4351 97.5833 16.0281 98.0705 15.9998C98.5577 15.9715 98.9746 12.43 99.2115 12.1857C99.6546 11.733 103.026 11.3832 103 10.9254C102.971 10.4676 99.6572 10.2387 99.2115 9.81177V9.8092Z" fill="#7DD4C0" stroke="#09342E" stroke-miterlimit="10"/>
</svg>
