<svg width="104" height="22" viewBox="0 0 104 22" fill="none" xmlns="http://www.w3.org/2000/svg">
<path d="M53.5825 5.77976C53.9196 7.19211 54.2123 8.41843 54.4231 8.6184V8.62353C54.838 9.02101 56.496 9.33267 58.1557 9.64463C60.0613 10.0028 61.9692 10.3614 61.9997 10.8508C62.0277 11.3396 60.119 11.7669 58.1986 12.1967C56.5218 12.572 54.8362 12.9493 54.4231 13.3713C54.241 13.5591 54.0058 14.7203 53.7299 16.0825C53.2878 18.2656 52.7411 20.9648 52.1411 20.9997C51.5463 21.0342 50.9088 18.3708 50.3839 16.1776C50.0488 14.7774 49.7595 13.5689 49.5565 13.3765C49.1189 12.9568 47.4268 12.6402 45.7544 12.3272C43.8802 11.9764 42.0308 11.6303 42.0003 11.1492C41.9728 10.6685 43.8246 10.2567 45.7141 9.83646C47.4037 9.46068 49.1235 9.0782 49.5565 8.63381C49.7281 8.4565 49.9573 7.32627 50.2289 5.98744C50.6742 3.79196 51.2332 1.03548 51.8385 1.00033C52.4334 0.965971 53.0611 3.59538 53.5825 5.77976Z" fill="#F9E68C"/>
<path d="M28.3173 9.2138C28.1592 9.06382 27.9397 8.14408 27.6868 7.08481C27.2958 5.44652 26.8251 3.47448 26.3789 3.50025C25.9249 3.52661 25.5056 5.59392 25.1717 7.24053C24.968 8.24467 24.7961 9.09237 24.6674 9.22536C24.3426 9.55865 23.0528 9.84551 21.7855 10.1273C20.3684 10.4425 18.9796 10.7514 19.0002 11.1119C19.0231 11.4727 20.4101 11.7323 21.8158 11.9954C23.0701 12.2301 24.3392 12.4676 24.6674 12.7824C24.8196 12.9267 25.0366 13.8331 25.2879 14.8832C25.6816 16.5281 26.1597 18.5256 26.6058 18.4998C27.0558 18.4736 27.4658 16.4494 27.7974 14.8121C28.0043 13.7904 28.1807 12.9193 28.3173 12.7785C28.6271 12.462 29.8913 12.179 31.1489 11.8975C32.5892 11.5752 34.0208 11.2547 33.9998 10.8881C33.9769 10.5211 32.546 10.2521 31.1168 9.98347C29.872 9.7495 28.6285 9.51576 28.3173 9.21765V9.2138Z" fill="#F9E68C"/>
<path d="M7.21154 9.8092C7.10616 9.70921 6.9598 9.09605 6.79123 8.38987C6.53053 7.29768 6.21671 5.98299 5.91926 6.00017C5.61661 6.01774 5.33709 7.39595 5.11445 8.4937C4.97868 9.16312 4.86406 9.72825 4.77826 9.8169C4.56174 10.0391 3.70184 10.2303 2.85703 10.4182C1.9123 10.6283 0.986415 10.8343 1.00015 11.0746C1.01538 11.3152 1.94008 11.4882 2.87722 11.6636C3.71339 11.8201 4.55946 11.9784 4.77826 12.1882C4.87974 12.2844 5.02437 12.8887 5.19195 13.5888C5.45442 14.6854 5.77317 16.0171 6.07053 15.9998C6.37054 15.9824 6.64385 14.6329 6.86492 13.5414C7.00287 12.8603 7.12048 12.2795 7.21154 12.1857C7.41808 11.9747 8.2609 11.786 9.09929 11.5984C10.0595 11.3834 11.0139 11.1698 10.9998 10.9254C10.9846 10.6807 10.0307 10.5014 9.07784 10.3223C8.248 10.1663 7.41898 10.0105 7.21154 9.81177V9.8092Z" fill="#F9E68C"/>
<path d="M79.3173 9.2138C79.1592 9.06382 78.9397 8.14408 78.6869 7.08481C78.2958 5.44653 77.8251 3.47448 77.3789 3.50025C76.9249 3.52661 76.5056 5.59394 76.1717 7.24056C75.968 8.24469 75.7961 9.09237 75.6674 9.22536C75.3426 9.55865 74.0528 9.84551 72.7855 10.1273C71.3684 10.4425 69.9796 10.7514 70.0002 11.1119C70.0231 11.4727 71.4101 11.7323 72.8158 11.9954C74.0701 12.2301 75.3392 12.4676 75.6674 12.7824C75.8196 12.9267 76.0366 13.8331 76.2879 14.8832C76.6816 16.5281 77.1597 18.5256 77.6058 18.4998C78.0558 18.4736 78.4658 16.4494 78.7974 14.8121C79.0043 13.7904 79.1807 12.9193 79.3173 12.7785C79.6271 12.462 80.8913 12.179 82.1489 11.8975C83.5892 11.5752 85.0208 11.2547 84.9998 10.8881C84.9769 10.5211 83.546 10.2521 82.1168 9.98347C80.872 9.7495 79.6285 9.51576 79.3173 9.21765V9.2138Z" fill="#F9E68C"/>
<path d="M98.7912 8.38986C98.9598 9.09605 99.1062 9.70921 99.2115 9.8092V9.81177C99.419 10.0105 100.248 10.1663 101.078 10.3223C102.031 10.5014 102.985 10.6807 103 10.9254C103.014 11.1698 102.059 11.3834 101.099 11.5984C100.261 11.786 99.4181 11.9747 99.2115 12.1857C99.1205 12.2795 99.0029 12.8602 98.8649 13.5414C98.6438 14.6329 98.3705 15.9824 98.0705 15.9998C97.7732 16.0171 97.4544 14.6854 97.1919 13.5888C97.0244 12.8887 96.8797 12.2844 96.7783 12.1882C96.5595 11.9784 95.7134 11.8201 94.8772 11.6636C93.9401 11.4882 93.0154 11.3152 93.0002 11.0746C92.9864 10.8343 93.9123 10.6283 94.857 10.4182C95.7018 10.2303 96.5617 10.0391 96.7783 9.8169C96.8641 9.72825 96.9787 9.16312 97.1144 8.4937C97.3371 7.39595 97.6166 6.01774 97.9193 6.00017C98.2167 5.98299 98.5305 7.29767 98.7912 8.38986Z" fill="#F9E68C"/>
<path d="M53.5825 5.77976C53.9196 7.19211 54.2123 8.41843 54.4231 8.6184V8.62353C54.838 9.02101 56.496 9.33267 58.1557 9.64463C60.0613 10.0028 61.9692 10.3614 61.9997 10.8508C62.0277 11.3396 60.119 11.7669 58.1986 12.1967C56.5218 12.572 54.8362 12.9493 54.4231 13.3713C54.241 13.5591 54.0058 14.7203 53.7299 16.0825C53.2878 18.2656 52.7411 20.9648 52.1411 20.9997C51.5463 21.0342 50.9088 18.3708 50.3839 16.1776C50.0488 14.7774 49.7595 13.5689 49.5565 13.3765C49.1189 12.9568 47.4268 12.6402 45.7544 12.3272C43.8802 11.9764 42.0308 11.6303 42.0003 11.1492C41.9728 10.6685 43.8246 10.2567 45.7141 9.83646C47.4037 9.46068 49.1235 9.0782 49.5565 8.63381C49.7281 8.4565 49.9573 7.32627 50.2289 5.98744C50.6742 3.79196 51.2332 1.03548 51.8385 1.00033C52.4334 0.965971 53.0611 3.59538 53.5825 5.77976Z" stroke="black" stroke-miterlimit="10"/>
<path d="M28.3173 9.2138C28.1592 9.06382 27.9397 8.14408 27.6868 7.08481C27.2958 5.44652 26.8251 3.47448 26.3789 3.50025C25.9249 3.52661 25.5056 5.59392 25.1717 7.24053C24.968 8.24467 24.7961 9.09237 24.6674 9.22536C24.3426 9.55865 23.0528 9.84551 21.7855 10.1273C20.3684 10.4425 18.9796 10.7514 19.0002 11.1119C19.0231 11.4727 20.4101 11.7323 21.8158 11.9954C23.0701 12.2301 24.3392 12.4676 24.6674 12.7824C24.8196 12.9267 25.0366 13.8331 25.2879 14.8832C25.6816 16.5281 26.1597 18.5256 26.6058 18.4998C27.0558 18.4736 27.4658 16.4494 27.7974 14.8121C28.0043 13.7904 28.1807 12.9193 28.3173 12.7785C28.6271 12.462 29.8913 12.179 31.1489 11.8975C32.5892 11.5752 34.0208 11.2547 33.9998 10.8881C33.9769 10.5211 32.546 10.2521 31.1168 9.98347C29.872 9.7495 28.6285 9.51576 28.3173 9.21765V9.2138Z" stroke="black" stroke-miterlimit="10"/>
<path d="M7.21154 9.8092C7.10616 9.70921 6.9598 9.09605 6.79123 8.38987C6.53053 7.29768 6.21671 5.98299 5.91926 6.00017C5.61661 6.01774 5.33709 7.39595 5.11445 8.4937C4.97868 9.16312 4.86406 9.72825 4.77826 9.8169C4.56174 10.0391 3.70184 10.2303 2.85703 10.4182C1.9123 10.6283 0.986415 10.8343 1.00015 11.0746C1.01538 11.3152 1.94008 11.4882 2.87722 11.6636C3.71339 11.8201 4.55946 11.9784 4.77826 12.1882C4.87974 12.2844 5.02437 12.8887 5.19195 13.5888C5.45442 14.6854 5.77317 16.0171 6.07053 15.9998C6.37054 15.9824 6.64385 14.6329 6.86492 13.5414C7.00287 12.8603 7.12048 12.2795 7.21154 12.1857C7.41808 11.9747 8.2609 11.786 9.09929 11.5984C10.0595 11.3834 11.0139 11.1698 10.9998 10.9254C10.9846 10.6807 10.0307 10.5014 9.07784 10.3223C8.248 10.1663 7.41898 10.0105 7.21154 9.81177V9.8092Z" stroke="black" stroke-miterlimit="10"/>
<path d="M79.3173 9.2138C79.1592 9.06382 78.9397 8.14408 78.6869 7.08481C78.2958 5.44653 77.8251 3.47448 77.3789 3.50025C76.9249 3.52661 76.5056 5.59394 76.1717 7.24056C75.968 8.24469 75.7961 9.09237 75.6674 9.22536C75.3426 9.55865 74.0528 9.84551 72.7855 10.1273C71.3684 10.4425 69.9796 10.7514 70.0002 11.1119C70.0231 11.4727 71.4101 11.7323 72.8158 11.9954C74.0701 12.2301 75.3392 12.4676 75.6674 12.7824C75.8196 12.9267 76.0366 13.8331 76.2879 14.8832C76.6816 16.5281 77.1597 18.5256 77.6058 18.4998C78.0558 18.4736 78.4658 16.4494 78.7974 14.8121C79.0043 13.7904 79.1807 12.9193 79.3173 12.7785C79.6271 12.462 80.8913 12.179 82.1489 11.8975C83.5892 11.5752 85.0208 11.2547 84.9998 10.8881C84.9769 10.5211 83.546 10.2521 82.1168 9.98347C80.872 9.7495 79.6285 9.51576 79.3173 9.21765V9.2138Z" stroke="black" stroke-miterlimit="10"/>
<path d="M98.7912 8.38986C98.9598 9.09605 99.1062 9.70921 99.2115 9.8092V9.81177C99.419 10.0105 100.248 10.1663 101.078 10.3223C102.031 10.5014 102.985 10.6807 103 10.9254C103.014 11.1698 102.059 11.3834 101.099 11.5984C100.261 11.786 99.4181 11.9747 99.2115 12.1857C99.1205 12.2795 99.0029 12.8602 98.8649 13.5414C98.6438 14.6329 98.3705 15.9824 98.0705 15.9998C97.7732 16.0171 97.4544 14.6854 97.1919 13.5888C97.0244 12.8887 96.8797 12.2844 96.7783 12.1882C96.5595 11.9784 95.7134 11.8201 94.8772 11.6636C93.9401 11.4882 93.0154 11.3152 93.0002 11.0746C92.9864 10.8343 93.9123 10.6283 94.857 10.4182C95.7018 10.2303 96.5617 10.0391 96.7783 9.8169C96.8641 9.72825 96.9787 9.16312 97.1144 8.4937C97.3371 7.39595 97.6166 6.01774 97.9193 6.00017C98.2167 5.98299 98.5305 7.29767 98.7912 8.38986Z" stroke="black" stroke-miterlimit="10"/>
</svg>
