<svg width="20" height="21" viewBox="0 0 20 21" fill="none" xmlns="http://www.w3.org/2000/svg">
<path fill-rule="evenodd" clip-rule="evenodd" d="M15.3203 18.4826C15.5887 18.6726 15.9345 18.7201 16.2428 18.6035C16.5512 18.486 16.7778 18.2226 16.8462 17.9035C17.5703 14.5001 19.327 5.88596 19.9862 2.79012C20.0362 2.55679 19.9528 2.31429 19.7695 2.15846C19.5862 2.00262 19.332 1.95762 19.1053 2.04179C15.6112 3.33512 4.85033 7.37262 0.451998 9.00012C0.172832 9.10346 -0.00883512 9.37179 0.000331545 9.66596C0.0103315 9.96096 0.208665 10.2168 0.494498 10.3026C2.467 10.8926 5.05616 11.7135 5.05616 11.7135C5.05616 11.7135 6.26616 15.3676 6.897 17.226C6.97616 17.4593 7.15866 17.6426 7.3995 17.706C7.6395 17.7685 7.89616 17.7026 8.07533 17.5335C9.08866 16.5768 10.6553 15.0976 10.6553 15.0976C10.6553 15.0976 13.632 17.2801 15.3203 18.4826ZM6.14533 11.2518L7.5445 15.8668L7.85533 12.9443C7.85533 12.9443 13.2612 8.06846 16.3428 5.28929C16.4328 5.20762 16.4453 5.07096 16.3703 4.97512C16.2962 4.87929 16.1595 4.85679 16.057 4.92179C12.4853 7.20262 6.14533 11.2518 6.14533 11.2518Z" fill="#09342E"/>
</svg>
