<svg width="20" height="21" viewBox="0 0 20 21" fill="none" xmlns="http://www.w3.org/2000/svg">
<path fill-rule="evenodd" clip-rule="evenodd" d="M9.19053 7.10647C9.19053 4.83845 11.0286 3 13.2956 3C14.6264 3 15.6891 3.62951 16.4012 4.54306C17.166 4.38658 17.8852 4.1036 18.5359 3.71753C18.2793 4.5196 17.7364 5.19394 17.0286 5.62069L17.0305 5.62483C17.7246 5.54057 18.385 5.35599 19 5.08347L18.9986 5.08569C18.5561 5.7483 17.9999 6.33325 17.3605 6.80982C17.3949 7.04139 17.4124 7.2745 17.4124 7.50626C17.4124 12.3461 13.7253 17.9753 6.94261 17.9753C4.86535 17.9753 2.93059 17.3666 1.30205 16.3218C0.996897 16.126 0.908243 15.72 1.10403 15.4148C1.12132 15.3878 1.14027 15.3626 1.16063 15.3389C1.2768 15.1467 1.4981 15.0295 1.73577 15.0575C2.93744 15.1991 4.1388 15.0526 5.19769 14.5901C4.14744 14.1269 3.33215 13.2293 2.97864 12.1264C2.91503 11.928 2.96067 11.7107 3.09874 11.5546C3.10353 11.5492 3.1084 11.5439 3.11335 11.5387C2.27212 10.7983 1.74146 9.71368 1.74146 8.50493V8.4605C1.74146 8.25115 1.85224 8.05743 2.03269 7.95128C2.09198 7.91639 2.15587 7.89268 2.22145 7.88017C1.93283 7.32344 1.76959 6.691 1.76959 6.02106C1.76959 5.4067 1.77311 4.63243 2.20569 3.93512C2.30267 3.7788 2.46074 3.68348 2.62988 3.6609C2.87865 3.58268 3.16092 3.65794 3.33579 3.87238C4.76858 5.62939 6.83684 6.84328 9.19092 7.16335L9.19053 7.10647ZM6.94261 16.6624C5.90888 16.6624 4.91622 16.4903 3.99018 16.1736C5.1162 15.9786 6.19667 15.535 7.12768 14.8054C7.32453 14.6511 7.40292 14.3896 7.32341 14.1525C7.2439 13.9154 7.02372 13.754 6.77368 13.7496C5.85086 13.7333 5.03348 13.2784 4.5225 12.5842C4.77242 12.564 5.01662 12.5211 5.25317 12.4572C5.51783 12.3856 5.69849 12.1414 5.68945 11.8673C5.6804 11.5933 5.48404 11.3615 5.21523 11.3076C4.19297 11.1023 3.36831 10.3512 3.05696 9.37187C3.32067 9.43556 3.59438 9.47344 3.87508 9.48263C4.13873 9.49125 4.37615 9.32406 4.45688 9.07293C4.5376 8.82179 4.44206 8.54757 4.22276 8.40096C3.45549 7.88801 2.95123 7.0124 2.95123 6.02106C2.95123 5.80121 2.95433 5.605 2.9675 5.42711C4.74993 7.2415 7.1888 8.41024 9.90282 8.54688C10.1081 8.55722 10.3064 8.47079 10.4386 8.31337C10.5708 8.15594 10.6216 7.94569 10.5759 7.74528C10.5287 7.53827 10.5035 7.32514 10.5035 7.10647C10.5035 5.5632 11.7541 4.31293 13.2956 4.31293C14.9161 4.31293 16.0995 5.81428 16.0995 7.50626C16.0995 11.7816 12.8495 16.6624 6.94261 16.6624Z" fill="#09342E"/>
</svg>
