<svg width="168" height="213" viewBox="0 0 168 213" fill="none" xmlns="http://www.w3.org/2000/svg">
<path d="M75.5883 102.844H83.8846V83.6287H75.5883V102.844Z" fill="#A7633D"/>
<path d="M49.2695 203.354C36.4607 174.822 29.4737 150.078 76.9269 155.318C93.2237 157.118 97.8867 155.902 106.621 161.724C115.354 167.545 152.618 210.63 152.618 210.63L149.706 210.921C149.706 210.921 112.444 170.46 93.8122 168.129C75.1799 165.8 50.7253 161.14 47.2321 173.95C44.457 184.125 52.7633 203.354 52.7633 203.354H49.2695Z" fill="#5E9534"/>
<path d="M149.45 206.992L147.929 207.144C147.929 207.144 112.802 167.736 94.17 165.405C75.5378 163.076 48.9482 157.362 45.4544 170.173C42.6799 180.348 50.9856 199.577 50.9856 199.577H47.6018C48.144 200.826 48.7007 202.086 49.2695 203.354H52.7632C52.7632 203.354 44.457 184.125 47.232 173.95C50.7252 161.14 75.1799 165.8 93.8122 168.129C112.444 170.46 149.706 210.921 149.706 210.921L152.618 210.63C152.618 210.63 151.429 209.254 149.45 206.992Z" fill="#48702A"/>
<path d="M54.2184 158.084C72.5596 148.04 53.7413 100.497 65.5726 96.9476C74.3064 94.3276 93.5205 97.8209 98.7606 103.498C104.001 109.176 107.057 160.704 118.848 175.114C118.848 175.114 76.0528 154.589 54.2184 158.084Z" fill="#5E9534"/>
<path d="M97.1966 102.832C100.885 107.253 103.378 139.496 109.335 160.342C110.806 165.489 113.982 166.746 112.089 160.688C105.571 139.829 102.822 107.897 98.7607 103.498C97.7414 102.394 96.1909 101.374 94.2955 100.466C95.4846 101.2 96.493 101.988 97.1966 102.832Z" fill="#48702A"/>
<path d="M62.1576 151.089C68.978 135.356 58.857 101.967 66.2592 96.7627C66.0258 96.8214 65.793 96.8814 65.5727 96.948C55.4659 99.98 67.7253 135.116 60.08 151.555C58.7753 154.359 60.9826 153.801 62.1576 151.089Z" fill="#48702A"/>
<path d="M65.006 115.344C58.2403 110.98 22.367 109.709 9.12524 83.7491L12.1726 80.2491C12.1726 80.2491 23.506 105.145 63.7435 99.6491L65.006 115.344Z" fill="#5E9534"/>
<path d="M50.1122 100.649L59.8003 107.342C61.3836 108.435 63.4403 108.567 65.1492 107.683C66.858 106.801 67.9408 105.045 67.9632 103.122L68.2815 96.4032L50.1122 100.649Z" fill="#48702A"/>
<path d="M63.7263 112.509C55.3003 108.6 23.0503 106.438 9.71066 83.0783L9.12524 83.749C21.6883 108.38 54.4951 111.606 63.6148 115.516L63.7263 112.509Z" fill="#48702A"/>
<path d="M94.8247 101.792C107.926 108.834 129.803 119.369 154.682 93.5569L155.834 96.8836C155.834 96.8836 133.595 128.833 95.6284 111.889L94.8247 101.792Z" fill="#5E9534"/>
<path d="M90.9481 98.7388L94.2356 110.856C94.7768 112.043 95.8648 112.888 97.1481 113.12C98.4315 113.352 99.746 112.94 100.668 112.019L105.948 107.239L90.9481 98.7388Z" fill="#48702A"/>
<path d="M155.281 95.2887C151.831 99.7341 131.537 122.494 99.9481 111.487L100.615 114.821C135.529 126.985 155.834 96.8834 155.834 96.8834L155.281 95.2887Z" fill="#48702A"/>
<path d="M90.4122 97.2801L95.2357 107.856C95.7769 109.043 96.8649 109.888 98.1477 110.12C99.431 110.352 100.747 109.94 101.668 109.019L107.115 103.572L90.4122 97.2801Z" fill="#F9E234"/>
<path d="M48.9456 98.6485L58.6337 105.342C60.217 106.435 62.2737 106.567 63.9826 105.683C65.6914 104.799 66.7742 103.045 66.7972 101.121L66.8685 95.0365L48.9456 98.6485Z" fill="#F9E234"/>
<path d="M127.873 192.873L131.949 178.608L156.402 211.214L167.466 212.961H148.542L127.873 192.873Z" fill="#F9E234"/>
<path d="M138.719 189.528C144.877 198.87 148.686 207.88 148.974 212.961H167.466L156.402 211.214L131.949 178.608L131.556 179.98C133.93 182.745 136.37 185.964 138.719 189.528Z" fill="#DFBE14"/>
<path d="M50.7253 184.429L32.6753 177.734L48.9789 211.214L40.2452 212.961H55.966L50.7253 184.429Z" fill="#F9E234"/>
<path d="M52.393 212.961H55.9659L50.7253 184.429L33.6337 178.089C43.9779 184.969 55.0231 203.436 52.393 212.961Z" fill="#DFBE14"/>
<path d="M9.61223 83.7486C4.64974 84.0846 -2.51173 82.1206 1.19609 74.4886C4.9039 66.8566 12.1862 76.2939 12.9596 82.7859L9.61223 83.7486Z" fill="#7BBE43"/>
<path d="M58.1149 154.905L114.448 167.238L111.115 158.405L59.7815 152.072L58.1149 154.905Z" fill="#48702A"/>
<path d="M56.8289 153.612C56.8289 153.612 115.912 165.838 115.613 164.966C115.316 164.092 113.227 150.118 113.227 150.118L58.619 148.372L56.8289 153.612Z" fill="#F9E234"/>
<path d="M61.7263 152.183C61.7263 150.93 61.7695 149.694 61.8518 148.474L58.619 148.371L56.8289 153.611C56.8289 153.611 58.7091 154.001 61.7867 154.633C61.7507 153.822 61.7263 153.007 61.7263 152.183Z" fill="#DFBE14"/>
<path d="M113.227 150.118L107.675 149.941C107.706 150.684 107.726 151.429 107.726 152.184C107.726 156.161 107.295 159.981 106.51 163.552C112.031 164.581 115.688 165.185 115.613 164.966C115.316 164.092 113.227 150.118 113.227 150.118Z" fill="#DFBE14"/>
<path d="M8.77832 84.0887L10.6934 89.082L16.9965 84.646L12.6356 80.3287L8.77832 84.0887Z" fill="#F9E234"/>
<path d="M87.4788 98.0567C87.571 97.3194 84.2017 96.2901 79.9549 95.7567C75.7085 95.2261 72.1908 95.3927 72.0992 96.1314C72.006 96.8687 75.3757 97.8994 79.6216 98.43C83.8694 98.9634 87.3872 98.7967 87.4788 98.0567Z" fill="#F9E234"/>
<path d="M100.56 106.071C100.391 104.997 99.4332 104.127 98.4206 104.127C97.4081 104.127 96.7242 104.997 96.8925 106.071C97.0613 107.146 98.019 108.017 99.0316 108.017C100.044 108.017 100.728 107.146 100.56 106.071Z" fill="#EE433F"/>
<path d="M64.1154 102.794C64.193 101.873 63.4337 101.128 62.4211 101.128C61.4091 101.128 60.5263 101.873 60.4487 102.794C60.3717 103.714 61.1305 104.461 62.143 104.461C63.1555 104.461 64.0378 103.714 64.1154 102.794Z" fill="#EE433F"/>
<path d="M89.7263 153.905C89.7263 152.218 88.2586 150.85 86.4482 150.85C84.6378 150.85 83.17 152.218 83.17 153.905C83.17 155.592 84.6378 156.961 86.4482 156.961C88.2586 156.961 89.7263 155.592 89.7263 153.905Z" fill="#EE433F"/>
<path d="M11.7998 76.8166C11.0248 74.8433 9.70547 73.5233 8.85287 73.8686C7.9987 74.214 7.9362 76.0966 8.71121 78.07C9.48569 80.0446 10.8055 81.3646 11.6581 81.018C12.5112 80.6713 12.5742 78.7913 11.7998 76.8166Z" fill="#A7633D"/>
<path d="M9.48313 77.806C10.2487 75.83 10.1706 73.9634 9.30969 73.642C8.44666 73.318 7.12636 74.662 6.36229 76.638C5.5951 78.6167 5.9748 79.1941 6.83677 79.5154C7.70032 79.8381 8.7175 79.7847 9.48313 77.806Z" fill="#A7633D"/>
<path d="M3.97367 74.5396C5.6617 75.4062 7.29034 75.4276 7.61014 74.5822C7.93096 73.7396 6.81951 72.3489 5.13254 71.4809C3.44295 70.6116 2.92211 70.9609 2.60232 71.8049C2.28358 72.6516 2.28462 73.6702 3.97367 74.5396Z" fill="#A7633D"/>
<path d="M2.42216 77.4287C4.11019 78.2967 5.73935 78.3167 6.05811 77.4714C6.37945 76.6274 5.26852 75.2394 3.58101 74.3701C1.89092 73.5007 1.37008 73.8487 1.05081 74.6941C0.73206 75.5407 0.733103 76.5594 2.42216 77.4287Z" fill="#A7633D"/>
<path d="M2.2107 81.2919C3.94663 82.0213 5.57319 81.9146 5.84091 81.0452C6.11018 80.1786 4.91747 78.8812 3.18205 78.1479C1.44299 77.4146 0.945073 77.8026 0.677365 78.6719C0.410177 79.5412 0.472677 80.5573 2.2107 81.2919Z" fill="#A7633D"/>
<path d="M155.949 98.1807C160.835 97.31 167.298 93.678 161.863 87.166C156.43 80.654 151.654 91.5673 152.474 98.0527L155.949 98.1807Z" fill="#7BBE43"/>
<path d="M152.155 91.9811C152.429 89.8784 153.389 88.2798 154.298 88.4091C155.209 88.5384 155.723 90.3518 155.45 92.4531C155.177 94.5558 154.218 96.1544 153.307 96.0238C152.397 95.8931 151.882 94.0824 152.155 91.9811Z" fill="#A7633D"/>
<path d="M154.638 92.3834C153.419 90.6487 153.045 88.8194 153.801 88.2994C154.558 87.778 156.162 88.7634 157.379 90.4967C158.599 92.2314 158.371 92.8847 157.614 93.4034C156.857 93.9234 155.858 94.118 154.638 92.3834Z" fill="#A7633D"/>
<path d="M159.186 87.8853C157.761 89.1333 156.187 89.5466 155.674 88.8026C155.159 88.0626 155.899 86.4466 157.325 85.196C158.751 83.9453 159.339 84.1586 159.854 84.9013C160.367 85.6453 160.613 86.6333 159.186 87.8853Z" fill="#A7633D"/>
<path d="M161.387 90.3143C159.961 91.5636 158.389 91.9756 157.875 91.233C157.361 90.4916 158.101 88.8756 159.526 87.625C160.953 86.3743 161.541 86.5863 162.054 87.3303C162.567 88.0756 162.813 89.0636 161.387 90.3143Z" fill="#A7633D"/>
<path d="M162.525 94.0114C161.019 95.1381 159.418 95.4248 158.949 94.6474C158.478 93.8701 159.321 92.3247 160.825 91.1941C162.331 90.0634 162.909 90.3208 163.377 91.0994C163.845 91.8781 164.03 92.8794 162.525 94.0114Z" fill="#A7633D"/>
<path d="M152.125 95.4382L147.662 98.3035L152.273 102.95L155.915 98.0409L152.125 95.4382Z" fill="#F9E234"/>
<path d="M75.1148 131.238L73.2815 117.071L92.1148 116.905L92.4482 132.071L75.1148 131.238Z" fill="#F9E234"/>
<path d="M77.2279 129.397L75.894 119.093L89.5924 118.972L89.8351 130.004L77.2279 129.397Z" fill="#5E9534"/>
<path d="M77.9481 120.572L83.7815 127.405L88.1148 120.405L77.9481 120.572Z" fill="#F9E234"/>
<path d="M91.0539 99.1279H91.0533L90.9481 98.7386L91.0539 99.1279ZM66.8497 96.6226L66.8684 95.0373L66.8503 96.6226H66.8497Z" fill="#AE9E97"/>
<path d="M80.2815 108.071C75.1394 108.071 70.2346 107.802 65.7555 107.315C67.1107 106.362 67.944 104.806 67.9632 103.122L68.2815 96.4033L66.8487 96.7393L66.8498 96.622H66.8503L66.8498 96.6273C68.3982 96.2966 70.184 96.1166 72.1127 96.0753C72.106 96.0926 72.1012 96.1113 72.0992 96.1313C72.006 96.8686 75.3758 97.8993 79.6216 98.4299C81.2987 98.6406 82.8627 98.742 84.146 98.742C86.1132 98.742 87.4231 98.5046 87.4788 98.0566C87.4799 98.0473 87.4804 98.0379 87.4804 98.0286C88.7231 98.3593 89.9211 98.7286 91.055 99.1326L91.0534 99.1273H91.0539L93.317 107.467C89.2482 107.858 84.8591 108.071 80.2815 108.071Z" fill="#425A23"/>
<path d="M105.017 105.669L107.115 103.572L105.017 105.669C105.017 105.669 105.017 105.669 105.017 105.669ZM51.07 100.426C48.0127 100.361 45.1763 100.1 42.5446 99.6823C42.5372 99.6716 42.5294 99.661 42.5227 99.649C45.182 100.072 48.0403 100.346 51.1351 100.41L51.4034 100.348H51.4039L51.07 100.426Z" fill="#AE9E97"/>
<path d="M58.157 106.206C50.0903 104.69 44.3315 102.369 42.5446 99.6821C45.1763 100.099 48.0127 100.361 51.07 100.426L50.1122 100.649L58.157 106.206Z" fill="#425A23"/>
<path d="M65.7555 107.315C63.0544 107.022 60.5075 106.649 58.157 106.206L50.1122 100.649L51.07 100.426L51.4039 100.347L58.6336 105.342C59.5195 105.954 60.5544 106.265 61.593 106.265C62.4107 106.265 63.2299 106.073 63.9826 105.683C65.6914 104.799 66.7742 103.045 66.7971 101.121L66.8487 96.7394L68.2815 96.4034L67.9632 103.122C67.944 104.806 67.1107 106.362 65.7555 107.315Z" fill="#34441C"/>
<path d="M93.3169 107.468L91.0539 99.1278L90.9481 98.7384L91.1227 98.8371L94.9804 107.296C94.432 107.356 93.8773 107.413 93.3169 107.468Z" fill="#34441C"/>
<path d="M94.9805 107.296L91.1228 98.8372L90.4122 97.2799L107.115 103.572L105.017 105.669C103.62 105.983 102.138 106.271 100.58 106.528C100.59 106.383 100.584 106.229 100.56 106.072C100.391 104.997 99.4332 104.128 98.4206 104.128C97.4081 104.128 96.7242 104.997 96.8925 106.072C96.9466 106.416 97.0816 106.739 97.2728 107.019C96.5222 107.117 95.7581 107.211 94.9805 107.296Z" fill="#AB8C1E"/>
<path d="M83.8845 96.4424C82.7445 96.1784 81.4007 95.9384 79.9549 95.7571C78.346 95.5571 76.8408 95.4544 75.5883 95.4477V87.8157C77.1273 87.7664 78.6913 87.737 80.2815 87.737C81.4971 87.737 82.6981 87.7544 83.8845 87.7837V96.4424Z" fill="#723D27"/>
<path d="M61.593 106.265C60.5545 106.265 59.5196 105.954 58.6337 105.342L51.404 100.347L48.9456 98.6487L66.8685 95.0367L66.8498 96.622L66.8488 96.7393L66.7972 101.121C66.7742 103.045 65.6914 104.799 63.9826 105.683C63.23 106.073 62.4108 106.265 61.593 106.265ZM62.4212 101.127C61.4092 101.127 60.5264 101.873 60.4488 102.794C60.3717 103.714 61.1305 104.461 62.143 104.461C63.1556 104.461 64.0378 103.714 64.1154 102.794C64.193 101.873 63.4337 101.127 62.4212 101.127Z" fill="#AB8C1E"/>
<path d="M84.146 98.7422C82.8626 98.7422 81.2986 98.6408 79.6216 98.4302C75.3757 97.8995 72.006 96.8688 72.0992 96.1315C72.1012 96.1115 72.106 96.0929 72.1126 96.0755C72.1164 96.0755 72.12 96.0755 72.123 96.0755C72.2798 95.6649 73.5544 95.4475 75.4377 95.4475C75.4872 95.4475 75.5377 95.4475 75.5882 95.4475C76.8408 95.4542 78.346 95.5569 79.9549 95.7569C81.4006 95.9382 82.7445 96.1782 83.8845 96.4422V96.4449C86.047 96.9489 87.4741 97.5462 87.4741 98.0262C87.4762 98.0275 87.4784 98.0275 87.4804 98.0288C87.4804 98.0382 87.4798 98.0475 87.4788 98.0569C87.423 98.5049 86.1132 98.7422 84.146 98.7422Z" fill="#AB8C1E"/>
<path d="M97.2728 107.019C97.0816 106.739 96.9466 106.416 96.8925 106.072C96.7242 104.997 97.4081 104.128 98.4206 104.128C99.4332 104.128 100.391 104.997 100.56 106.072C100.584 106.229 100.59 106.383 100.58 106.528C99.5122 106.705 98.4081 106.869 97.2728 107.019Z" fill="#A52E28"/>
<path d="M62.143 104.461C61.1305 104.461 60.3717 103.714 60.4487 102.794C60.5263 101.873 61.4091 101.128 62.4211 101.128C63.4337 101.128 64.193 101.873 64.1154 102.794C64.0378 103.714 63.1555 104.461 62.143 104.461Z" fill="#A52E28"/>
<path d="M127.466 63.2397L53.8408 48.9477L50.6721 86.1477C67.5716 84.701 89.1351 84.3117 106.324 93.957L127.466 63.2397Z" fill="#C4943E"/>
<path d="M34.9362 54.7874C38.1987 65.3634 72.9252 120.699 117.194 69.242C123.518 61.894 118.794 37.606 118.794 37.606L34.9362 54.7874Z" fill="#773C24"/>
<path d="M110.884 75.9307L68.0913 73.4867L67.2356 88.4693C71.7451 90.1933 76.7507 91.6427 81.9481 91.2947C90.8211 90.6973 100.485 85.9093 110.884 75.9307Z" fill="#A7633D"/>
<path d="M40.105 84.153L60.0357 91.9864L64.5545 90.3997L61.8081 68.6104L118.154 73.409L103.991 90.469L106.324 93.957C106.324 93.957 142.33 67.441 129.44 36.1023C116.551 4.76502 90.9576 2.06237 84.6628 0.953033C65.4493 -2.43763 0.598726 2.55704 40.105 84.153Z" fill="#F3D324"/>
<path d="M42.2826 69.4036C34.366 69.4036 27.9493 57.0183 27.9493 41.737C27.9493 26.4583 34.366 14.0703 42.2826 14.0703C50.1988 14.0703 56.6154 26.4583 56.6154 41.737C56.6154 57.0183 50.1988 69.4036 42.2826 69.4036ZM43.3936 12.0703C34.4952 12.0703 27.2821 25.4517 27.2821 41.9583C27.2821 58.4663 34.4952 71.8477 43.3936 71.8477C52.2909 71.8477 59.504 58.4663 59.504 41.9583C59.504 25.4517 52.2909 12.0703 43.3936 12.0703Z" fill="#D34C2B"/>
<path d="M83.305 57.7258L106.956 59.0498C110.324 35.7231 108.873 18.9071 104.18 6.9858C95.543 2.43914 87.7627 1.49914 84.6627 0.952471C82.446 0.560471 79.6159 0.284472 76.4143 0.220472C84.8367 12.4898 89.0898 30.4751 83.305 57.7258Z" fill="#F9F668"/>
<path d="M129.44 36.1023C123.251 21.0543 114.135 12.6197 105.63 7.78369C128.615 26.5157 125.726 61.6264 104.892 72.2797L118.154 73.409L103.991 90.469L106.324 93.957C106.324 93.957 142.33 67.441 129.44 36.1023Z" fill="#DFBE14"/>
<path d="M121.656 22.1493C133.282 42.9613 132.974 58.444 123.171 76.1826C135.307 63 135.503 35.0706 121.656 22.1493Z" fill="#D34C2B"/>
<path d="M128.092 52.6755L50.7695 46.0901C50.1727 54.9795 52.9711 61.1541 59.1793 65.5061L122.818 70.9248C126.733 63.1728 127.676 58.2221 128.092 52.6755Z" fill="#57453B"/>
<path d="M80.844 76.4418L93.9069 77.5538C93.9069 77.5538 81.6903 97.9231 80.844 76.4418Z" fill="#452119"/>
<path d="M81.5476 77.338L82.7945 84.302L86.7512 84.9727L92.0101 78.2286L81.5476 77.338Z" fill="#FEEFEB"/>
<path d="M126.118 54.13L52.4696 47.858C52.0013 55.13 54.7352 60.218 60.6925 63.8514L121.308 69.0127C124.944 62.71 125.786 58.6687 126.118 54.13Z" fill="#372A24"/>
<path d="M118.255 53.4608L88.306 50.9101L70.4274 64.6808L100.378 67.2314L118.255 53.4608Z" fill="#2B201B"/>
<path d="M109.097 62.912L103.81 66.9187L107.25 67.0293L112.438 63.0986L109.097 62.912Z" fill="#735D54"/>
<path d="M117.388 59.3467L122.974 55.1133L119.534 55.0027L114.047 59.1613L117.388 59.3467Z" fill="#735D54"/>
<path d="M92.8372 74.6276C92.8372 73.829 91.37 73.1823 89.5596 73.1823C87.7487 73.1823 86.2815 73.829 86.2815 74.6276C86.2815 75.4236 87.7487 76.0703 89.5596 76.0703C91.37 76.0703 92.8372 75.4236 92.8372 74.6276Z" fill="#773C24"/>
<path d="M93.5597 73.8486C93.5597 73.0513 92.092 72.4033 90.2816 72.4033C88.4712 72.4033 87.0034 73.0513 87.0034 73.8486C87.0034 74.646 88.4712 75.2939 90.2816 75.2939C92.092 75.2939 93.5597 74.646 93.5597 73.8486Z" fill="#A7633D"/>
<path d="M40.4482 24.9034C42.3883 20.5781 42.1846 16.7821 39.9946 16.4261C37.8045 16.0701 34.4555 19.2874 32.5165 23.6127C30.5769 27.9367 30.7799 31.7341 32.9711 32.0901C35.1613 32.4474 38.5091 29.2287 40.4482 24.9034Z" fill="#F9F668"/>
<path d="M31.7149 37.2698C31.755 35.7325 31.2185 34.6205 30.5185 34.7872C29.8179 34.9538 29.2185 36.3352 29.1799 37.8738C29.1403 39.4112 29.6758 40.5232 30.3763 40.3565C31.0769 40.1898 31.6758 38.8072 31.7149 37.2698Z" fill="#F9F668"/>
<path d="M60.0356 91.9863L57.2815 67.4036L61.808 68.6103L64.5544 90.3996L60.0356 91.9863Z" fill="#DFBE14"/>
<path d="M94.469 77.5805C94.469 77.3218 94.2122 77.1125 93.8961 77.1125C93.5794 77.1125 93.3231 77.3218 93.3231 77.5805C93.3231 77.8405 93.5794 78.0498 93.8961 78.0498C94.2122 78.0498 94.469 77.8405 94.469 77.5805Z" fill="#452119"/>
<path d="M81.4274 76.6023C81.4274 76.3436 81.1706 76.133 80.8544 76.133C80.5378 76.133 80.2815 76.3436 80.2815 76.6023C80.2815 76.861 80.5378 77.0703 80.8544 77.0703C81.1706 77.0703 81.4274 76.861 81.4274 76.6023Z" fill="#452119"/>
</svg>
