<svg width="438" height="245" viewBox="0 0 438 245" fill="none" xmlns="http://www.w3.org/2000/svg">
<path d="M128.839 192.447C129.212 192.515 129.583 192.594 129.947 192.696C129.887 192.623 129.837 192.542 129.778 192.468C129.465 192.453 129.152 192.443 128.839 192.447Z" fill="#FFFBE7"/>
<path d="M129.084 191.536C128.641 190.94 128.207 190.34 127.798 189.718C127.989 190.276 128.164 190.767 128.32 191.132C128.575 191.267 128.829 191.402 129.084 191.536Z" fill="#FFFBE7"/>
<path d="M111.337 226.07C112.31 226.377 113.399 226.332 114.384 226.019C113.17 220.057 112.794 213.872 113.715 207.761C113.949 206.229 114.309 204.71 114.763 203.213C115.218 201.718 115.791 200.24 116.575 198.849C116.634 198.745 116.701 198.644 116.762 198.541C116.459 198.94 116.169 199.348 115.91 199.779C119.842 193.304 120.31 187.086 122.149 180.066C122.342 180.081 122.53 180.128 122.713 180.2C122.018 178.556 121.389 176.877 120.882 175.151C120.228 172.893 119.68 170.567 119.671 168.103C119.679 166.876 119.814 165.593 120.355 164.34C120.357 164.335 120.361 164.33 120.363 164.325L118.284 163.555C113.082 161.631 109.696 162.725 108.644 164.662C107.006 167.688 110.595 172.438 112.611 173.719L117.151 176.606L111.855 175.662C108.72 175.103 104.857 175.074 101.087 175.688C97.24 176.314 93.49 177.609 90.71 179.703C88.068 181.692 86.441 184.259 85.849 187.338C85.776 187.717 85.712 188.1 85.671 188.495C85.497 190.615 85.607 192.765 86.062 194.86C86.517 196.97 87.32 199.017 88.421 200.912C90.626 204.707 93.96 207.872 97.834 210.125C93.796 208.182 90.145 205.262 87.525 201.482C86.219 199.595 85.19 197.492 84.521 195.262C83.934 193.319 83.639 191.286 83.579 189.243C83.104 189.13 82.654 189.03 82.195 188.927C80.303 188.5 78.536 188.148 76.906 187.901C73.622 187.405 70.836 187.314 68.427 187.784C65.62 188.332 63.317 189.637 61.338 191.969C57.057 197.013 57.021 202.213 61.495 210.974C62.021 212.004 62.595 213.072 63.247 214.206L64.203 215.87C64.486 215.588 64.783 215.334 65.066 215.112C65.635 214.649 66.245 214.258 66.866 213.881C68.138 213.185 69.512 212.647 70.952 212.381C72.393 212.137 73.874 212.106 75.3 212.368C78.154 212.931 80.664 214.472 82.486 216.508C80.104 215.157 77.602 214.218 75.087 214.012C72.575 213.88 70.081 214.462 67.91 215.729C66.838 216.336 65.736 217.096 65.072 217.946C64.335 218.862 63.841 220.015 63.508 221.213C62.861 223.639 63.133 226.309 63.947 228.917C62.347 226.713 61.46 223.803 61.888 220.896C62.076 219.444 62.604 218.03 63.46 216.754C63.509 216.681 63.567 216.612 63.621 216.542C63.658 216.494 63.693 216.446 63.731 216.399L61.952 215.73C54.779 213.034 51.942 212.71 48.176 215.947C47.136 216.84 46.59 218.109 46.553 219.719C46.484 222.748 48.21 226.121 49.234 227.237C49.283 227.29 49.331 227.344 49.376 227.386L52.608 230.427L52.359 230.354C58.178 233.475 63.877 237.037 69.782 240.703C70.462 241.125 71.155 241.568 71.835 242.039H77.203C77.128 241.845 77.068 241.646 76.971 241.461C75.563 238.777 72.239 235.543 70.093 233.375C72.146 235.45 74.264 237.569 76.926 238.763C79.589 239.957 82.96 240.037 85.219 238.189C87.504 236.32 88.077 232.949 87.391 230.078C87.324 229.799 87.24 229.527 87.155 229.256C85.325 227.318 84.286 224.77 83.298 222.287C84.82 224.475 86.363 226.726 87.155 229.256C87.211 229.315 87.26 229.378 87.317 229.435C89.253 231.392 92.307 232.519 94.828 231.412C98.047 230 98.929 225.93 99.393 222.446C100.125 216.948 100.857 211.449 101.589 205.951C101.883 211.049 103.319 216.078 105.759 220.563C106.351 221.651 107.047 222.73 107.87 223.663C107.868 223.633 107.864 223.603 107.862 223.573C107.868 223.608 107.876 223.642 107.882 223.677C108.84 224.758 109.969 225.638 111.337 226.07ZM69.003 195.459C65.823 198.025 63.94 202.125 64.066 206.209C61.838 203.675 61.008 199.983 61.938 196.74C62.628 194.333 65.889 189.463 68.875 189.657C73.506 189.957 71.067 193.794 69.003 195.459ZM54.263 220.029C53.93 221.311 52.506 222.202 51.208 221.941C50.89 221.877 50.585 221.754 50.313 221.577C49.213 220.86 48.865 219.206 49.584 218.107C50.303 217.008 51.958 216.664 53.056 217.385L52.526 216.872C53.786 217.276 54.596 218.747 54.263 220.029ZM67.348 229.784C64.872 227.513 63.679 215.949 69.422 217.242C73.165 218.084 64.232 226.926 67.348 229.784ZM99.727 198.636C95.36 198.005 91.82 193.771 91.97 189.362C92.319 179.12 103.91 179.897 110.793 181.935C113.565 182.756 116.63 184.499 116.826 187.383C117.011 190.103 114.55 192.182 112.334 193.771C108.577 196.466 104.303 199.297 99.727 198.636Z" fill="#FFFBE7"/>
<path d="M108.41 161.842C108.555 161.738 108.699 161.632 108.854 161.539C108.67 161.568 108.528 161.68 108.41 161.842Z" fill="#FFFBE7"/>
<path d="M52.362 230.352L49.109 229.398L48.352 229.176C37.127 225.882 24.189 223.455 22.821 225.091C22.657 225.287 22.611 225.478 22.662 225.75C23.057 227.827 28.048 231.237 31.1 232.898L36.79 235.994L30.409 234.877C30.202 234.842 10.494 231.533 3.52197 242.039H44.369H71.837C71.157 241.568 70.464 241.124 69.784 240.702C63.88 237.035 58.181 233.473 52.362 230.352Z" fill="#353535"/>
<path d="M353.03 221.127C354.107 217.978 354.334 216.667 355.368 213.764C355.263 217.231 355.377 220.924 355.877 223.433C356.474 226.428 356.67 227.592 358.487 229.392C360.234 231.123 361.716 231.346 364.125 230.852C366.534 230.359 367.595 228.877 368.707 226.422C368.245 228.166 368.408 230.351 368.578 232.575C369.804 231.654 371.215 231.158 372.611 230.094C376.759 226.932 379.031 221.145 377.602 216.059C376.593 216.189 375.699 216.385 375.15 216.541L372.087 217.411L374.014 214.877C378.299 209.243 377.739 207.342 376.563 205.442C375.973 204.49 373.668 202.692 369.993 201.921C365.655 201.008 358.489 201.292 349.019 207.809L342.53 212.274L347.606 206.25C355.631 196.724 358.198 189.038 354.471 185.69C351.323 182.863 344.012 187.242 341.458 189.167L337.576 192.094L339.885 187.815C345.993 176.495 354.834 153.429 344.572 147.158C335.671 141.717 328.385 150.698 326.715 153.009C327.203 153.928 327.602 154.879 327.845 155.866C328.147 157.099 328.319 158.344 328.321 159.579C328.328 162.045 327.899 164.46 327.093 166.716C327.558 164.371 327.613 161.961 327.263 159.666C327.09 158.517 326.759 157.411 326.335 156.372C325.916 155.348 325.31 154.441 324.651 153.613C322.888 151.533 317.82 148.17 311.391 147.511C308.682 159.473 307.307 170.307 309.844 173.092C312.844 176.383 317.606 175.842 324.408 171.434L327.328 169.541L325.963 172.742C324.4 176.403 322.981 180.489 324.298 183.041C325.067 184.532 326.768 185.546 329.497 186.142L331.941 186.675L323.913 192.029C323.945 192.231 323.973 192.491 324.113 192.822C324.802 194.452 325.319 195.842 326.946 196.801C329.147 198.099 332.171 197.808 334.084 196.114C332.191 198.094 332.044 201.498 333.761 203.633C335.477 205.768 338.834 206.356 341.174 204.932C340.709 207.104 340.244 209.276 339.779 211.447C342.477 215.203 343.969 220.157 344.439 225.383C344.515 224.72 344.591 224.056 344.667 223.393C344.541 225.189 347.208 225.669 348.526 225.261C348.9 225.145 349.264 224.987 349.622 224.808C349.736 223.615 349.832 222.418 349.889 221.219C349.943 222.356 349.962 223.496 349.965 224.637C351.354 223.849 352.524 222.605 353.03 221.127ZM370.569 204.789C376.991 207.344 372.22 213.773 366.427 212.662C362.881 211.982 359.335 211.302 355.789 210.622C358.302 206.634 365.753 202.873 370.569 204.789ZM352.615 190.997C357.508 193.969 349.236 202.17 346.327 203.216C348.072 202.589 347.183 187.699 352.615 190.997ZM324.053 165.198C323.94 166.306 323.5 167.635 322.402 167.824C321.278 168.019 320.423 166.873 319.863 165.879C318.357 163.201 311.019 153.746 316.91 152.554C322.938 151.335 324.433 161.478 324.053 165.198ZM335.072 174C333.875 174.569 332.341 174.595 331.311 173.76C329.863 172.585 329.972 170.383 330.213 168.533C330.605 165.526 330.996 162.52 331.388 159.513C331.66 157.427 331.941 155.306 332.807 153.39C333.673 151.473 335.225 149.755 337.257 149.211C348.459 146.208 340.678 167.789 337.985 171.352C337.186 172.41 336.269 173.431 335.072 174Z" fill="#FFFBE7"/>
<path d="M287.677 163.386C288.679 163.502 289.683 163.7 290.676 163.959L299.452 149.727C297.306 150.815 295.243 152.278 293.271 154.119L290.757 156.467L291.511 153.11C292.217 149.965 291.801 147.987 291.177 147.185C291.045 147.016 290.837 146.813 290.592 146.807C290.587 146.807 290.582 146.807 290.575 146.807C290.152 146.807 289.242 147.22 288.038 148.392C285.043 151.307 282.026 156.99 281.688 163.406C283.66 163.216 285.663 163.19 287.677 163.386Z" fill="#FFFBE7"/>
<path d="M322.724 208.054C322.205 208.219 321.757 208.354 321.345 208.453C320.146 211.626 318.506 214.606 316.354 217.165C317.993 213.856 319.283 210.44 320.153 206.964C320.543 205.215 320.847 203.463 320.959 201.703C321.023 199.949 321.001 198.191 320.642 196.493C320.315 194.794 319.83 193.087 318.984 191.682C318.158 190.255 316.87 189.311 315.328 189.132C313.768 188.995 312.079 189.656 310.593 190.586C309.742 191.108 308.945 191.733 308.177 192.409C307.578 192.936 306.995 193.491 306.425 194.067C306.812 193.402 307.252 192.765 307.726 192.15C307.123 191.828 306.482 191.573 305.822 191.372C304.332 191.336 302.843 191.073 301.358 190.889C300.621 190.942 299.893 191.058 299.189 191.235C299.127 191.342 299.073 191.453 299.01 191.558C296.599 195.625 293.537 199.234 290.013 202.272C291.56 200.538 293.001 198.723 294.299 196.818C295.414 195.232 296.427 193.581 297.316 191.877C297.483 191.557 297.653 191.238 297.811 190.914C297.83 190.875 297.846 190.835 297.865 190.796C297.782 190.805 297.699 190.805 297.616 190.817C297.717 190.803 297.817 190.753 297.916 190.685C299.843 186.687 301.106 182.256 300.376 178.042C300.042 175.94 299.222 173.793 298.104 171.989C296.97 170.164 295.391 168.701 293.555 167.647C291.706 166.599 289.58 166.021 287.398 165.749C285.214 165.452 282.965 165.496 280.711 165.642C280.48 165.675 277.2 166.16 274.763 167.243C274.367 167.419 273.991 167.609 273.656 167.818L270.741 169.633L271.63 167.61L272.123 166.49C274.053 162.098 275.925 155.879 273.884 151.193C272.845 148.81 270.844 147.084 267.941 146.06C264.971 145.521 261.837 145.89 258.957 147.039C258.633 147.167 258.314 147.306 257.997 147.451C255.474 148.601 253.162 150.267 251.134 152.241C248.862 154.485 246.984 157.151 245.464 160.03C243.997 162.939 242.906 166.046 242.045 169.248C242.465 165.967 243.222 162.697 244.475 159.574C245.735 156.457 247.53 153.529 249.799 150.974C251.409 149.142 253.309 147.535 255.433 146.261C256.284 145.75 257.167 145.288 258.088 144.894C260.964 143.68 264.245 143.199 267.399 143.773C268.971 135.582 267.499 130.909 262.411 127.809C256.93 124.47 240.675 123.552 224.447 135.063C223.502 135.734 222.557 136.439 221.614 137.196C221.778 137.168 221.937 137.13 222.103 137.109C223.727 136.937 225.451 137.042 226.976 137.721C230.097 138.964 232.109 142.015 232.424 145.026C231.234 142.24 229.052 140.031 226.417 139.281C223.784 138.489 220.985 139.206 218.393 140.416C217.077 140.987 215.819 141.722 214.606 142.52C213.378 143.299 212.218 144.189 211.102 145.133C208.877 147.036 206.894 149.227 205.375 151.863C206.075 148.883 207.83 146.168 209.964 143.937C212.101 141.68 214.655 139.823 217.51 138.485C217.992 138.273 218.487 138.08 218.988 137.899L219.629 136.245C219.634 136.231 219.639 136.217 219.645 136.203C221.138 132.338 222.356 127.438 222.213 126.013C220.943 126.327 217.137 129.083 213.599 134.358L210.19 139.441L211.688 133.506C214.379 122.85 216.527 112.472 214.058 108.713C213.516 107.886 212.747 107.402 211.71 107.233C206.09 106.322 189.302 121.116 181.906 135.333C181.805 135.527 181.699 135.72 181.602 135.914L181.379 136.357C181.705 136.208 182.04 136.073 182.384 135.953C182.42 135.941 182.453 135.923 182.489 135.911C182.659 135.856 182.837 135.814 183.012 135.769C183.982 135.515 185.017 135.402 186.057 135.559C187.274 135.752 188.467 136.287 189.335 137.119C191.096 138.777 191.813 140.996 192.05 143.112C190.986 141.253 189.844 139.466 188.303 138.415C186.768 137.36 184.927 137.342 183.146 137.93C181.362 138.522 179.65 139.607 178.113 140.897C177.351 141.552 176.609 142.251 175.952 143.028C175.28 143.8 174.678 144.628 174.321 145.645C174.21 144.55 174.608 143.446 175.084 142.461C175.586 141.474 176.216 140.552 176.953 139.722C177.857 138.707 178.898 137.783 180.085 137.048L179.65 135.783C179.444 135.184 179.082 134.134 178.615 133.037C177.812 131.151 176.697 129.127 175.519 129.018C174.844 128.953 173.48 129.464 171.199 133.279C171.064 133.504 170.928 133.736 170.787 133.985L170.779 133.999C169.577 136.131 168.592 138.421 167.862 140.805C167.491 142.011 167.18 143.24 166.958 144.488C166.759 145.734 166.554 147.007 166.723 148.278C166.378 147.034 166.404 145.719 166.43 144.432C166.479 143.139 166.62 141.849 166.828 140.566C167.158 138.51 167.687 136.479 168.38 134.486C168.457 134.266 168.526 134.044 168.607 133.824C157.975 125.509 141.612 120.222 126.833 129.868C113.909 138.302 113.876 152.1 119.575 162.034L119.649 162.163L120.622 163.858C120.834 163.473 121.092 163.107 121.402 162.775C121.424 162.752 121.442 162.726 121.464 162.703C121.492 162.674 121.512 162.641 121.541 162.613C122.107 162.087 122.566 161.816 123.125 161.46C124.208 160.809 125.544 160.322 126.966 160.383C128.395 160.433 129.691 161.068 130.713 161.828C132.766 163.391 134.153 165.377 135.432 167.36C136.073 168.373 136.673 169.402 137.247 170.441C137.475 168.336 137.773 166.245 138.157 164.154C138.455 162.539 138.84 160.935 139.325 159.345C139.827 157.763 140.397 156.174 141.394 154.709C141.886 154.003 142.602 153.259 143.499 152.916C144.291 152.573 145.156 152.333 146.054 152.281C146.951 152.237 147.865 152.403 148.667 152.766C149.472 153.126 150.176 153.628 150.801 154.188C152.055 155.309 153.051 156.622 153.981 157.959C154.914 159.295 155.733 160.7 156.537 162.108C155.595 160.788 154.621 159.492 153.614 158.235C152.599 156.989 151.517 155.782 150.272 154.833C149.041 153.874 147.585 153.275 146.144 153.446C145.425 153.53 144.717 153.764 144.041 154.102C143.423 154.378 142.992 154.883 142.59 155.513C141.81 156.768 141.31 158.283 140.903 159.799C140.496 161.324 140.213 162.894 139.95 164.468C139.442 167.616 139.144 170.837 138.972 174.012L138.77 177.74L137.044 174.426C135.986 172.395 134.886 170.389 133.662 168.494C132.429 166.627 131.107 164.756 129.469 163.502C128.653 162.887 127.769 162.472 126.869 162.436C125.968 162.383 125.034 162.699 124.129 163.2C123.706 163.446 123.169 163.78 122.888 164.041C122.568 164.332 122.303 164.702 122.103 165.135C121.696 165.999 121.529 167.059 121.5 168.134C121.456 170.3 121.833 172.55 122.382 174.744C122.944 176.941 123.646 179.12 124.465 181.259C124.67 181.791 124.894 182.317 125.11 182.845C125.68 183.891 126.183 185.114 126.627 186.324C127.502 188.196 128.475 190.023 129.56 191.789C130.063 192.055 130.566 192.321 131.068 192.587C130.704 192.535 130.338 192.498 129.972 192.474C130.032 192.568 130.083 192.667 130.144 192.76C131.179 193.07 132.168 193.508 133.059 194.082C134.379 194.923 135.567 195.929 136.593 197.067C137.63 198.193 138.542 199.425 139.27 200.755C137.407 198.393 135.18 196.273 132.55 194.991C129.972 193.601 126.976 193.394 124.335 194.298C123.703 194.606 123.028 194.851 122.437 195.195C121.854 195.539 121.299 195.943 120.808 196.426C119.809 197.375 119.001 198.547 118.344 199.808C117.01 202.332 116.261 205.202 115.812 208.094C115.679 208.938 115.577 209.787 115.491 210.638C116.759 217.027 119.196 222.483 124.918 226.298C131.136 229.564 139.226 226.152 143.306 220.435C147.386 214.718 148.349 207.388 148.721 200.374C149.968 205.87 154.083 210.613 159.312 212.691C159.685 212.657 160.061 212.646 160.44 212.687C162.319 212.889 163.169 213.614 164.996 212.567C168.927 210.316 171.721 205.599 173.302 201.507C174.917 197.324 175.639 192.877 176.154 188.408C176.153 187.104 176.282 185.799 176.568 184.53C176.437 185.821 176.304 187.115 176.154 188.408C176.156 191.796 177.116 195.179 179.092 197.92C181.829 201.717 186.532 204.117 191.197 203.744C195.863 203.371 200.254 200.065 201.574 195.574C200.936 197.686 200.366 199.845 199.936 202.025C201.071 201.448 202.272 200.994 203.531 200.782C207.374 200.076 211.188 201.264 214.238 203.185C210.793 202.053 207.18 201.493 203.895 202.399C202.304 202.841 200.842 203.598 199.507 204.564C198.972 208.378 198.96 212.22 199.883 215.947C201.541 222.644 206.895 228.82 213.756 229.544C218.475 230.042 223.171 227.938 226.791 224.871C229.323 222.726 231.411 220.136 233.354 217.434C234.31 215.749 235.16 214.002 235.898 212.222C238.755 205.33 240.153 197.937 241.534 190.605C242.545 194.325 242.142 198.261 241.807 202.102C241.472 205.942 241.228 209.92 242.526 213.55C243.824 217.18 247.066 220.391 250.921 220.445C255.087 220.504 258.41 217.077 260.869 213.713C267.26 204.972 271.656 194.78 273.628 184.133C272.329 193.315 271.031 202.498 269.733 211.68C269.191 215.512 268.859 219.995 271.664 222.661C274.849 225.689 280.09 224.478 283.99 222.453C293.799 217.362 301.402 208.182 304.579 197.597C302.581 204.102 300.482 210.62 297.935 216.93C297.88 217.351 297.848 217.769 297.875 218.174C298.006 220.155 298.943 222.187 300.657 223.16C301.414 221.667 302.151 220.164 302.832 218.633C302.263 220.215 301.633 221.776 300.982 223.329C303.246 224.37 306.047 223.327 307.785 221.522C309.553 219.685 310.493 217.229 311.496 214.885C312.499 212.541 313.149 209.564 313.879 206.08C313.746 209.354 313.311 212.542 312.997 215.224C312.92 215.885 312.847 216.524 312.791 217.116C312.507 220.111 313.521 223.42 316.047 225.054C319.079 227.015 322.439 225.656 325.132 222.25C322.041 226.353 320.521 230.996 322.678 235.209C324.835 239.422 330.01 241.842 334.626 240.795C334.625 241.207 334.623 241.62 334.62 242.035H340.435C344.343 230.684 342.699 217.121 336.563 210.865C331.175 205.377 325.885 207.052 322.724 208.054ZM152.507 139.449C151.762 141.922 149.067 143.132 146.757 144.289C141.916 146.712 137.6 150.179 134.19 154.385C130.766 151.661 124.919 153.075 123.118 157.063C120.491 150.739 121.714 142.987 126.162 137.779C130.119 133.146 136.188 131.018 142.185 131.17C146.371 131.276 154.248 133.668 152.507 139.449ZM123.229 210.014C122.129 209.556 121.156 208.795 120.454 207.831C116.303 202.125 124.24 194.214 129.912 197.968C136.229 202.149 130.308 212.957 123.229 210.014ZM239.621 134.111C241.84 131.305 245.483 129.9 249.055 129.698C256.717 129.265 265.587 133.967 256.841 140.585C251.921 144.307 247.001 148.03 242.082 151.752C241.319 152.329 240.396 152.939 239.479 152.666C238.386 152.34 238.024 151.003 237.839 149.878C236.952 144.495 236.237 138.39 239.621 134.111ZM191.56 130.483C191.463 130.278 191.375 130.039 191.311 129.715C191.012 128.21 191.985 126.244 193.162 124.522C193.394 123.839 193.809 123.217 194.267 122.651C194.95 121.807 196.048 120.702 197.315 119.784C199.288 117.986 201.489 116.434 203.682 114.902C204.923 114.035 206.189 113.156 207.634 112.707C208.734 112.365 209.969 112.311 211.038 112.694C211.138 112.665 211.238 112.628 211.338 112.601C211.331 112.671 211.323 112.742 211.315 112.812C211.548 112.916 211.775 113.034 211.985 113.185C212.121 116.932 212.108 121.08 210.102 124.11C210.1 124.132 210.097 124.155 210.095 124.177C210.272 124.957 210.22 125.769 209.846 126.496C209.929 125.723 210.012 124.95 210.095 124.177C210.091 124.162 210.092 124.147 210.089 124.132C209.795 124.573 209.46 124.99 209.075 125.379C207.459 127.012 205.232 127.857 203.078 128.655C200.553 129.591 198.029 130.527 195.504 131.463C194.812 131.72 194.09 131.98 193.355 131.911C192.19 131.801 191.662 131.267 191.56 130.483ZM268.235 181.395C266.771 186.863 262.755 191.916 257.269 193.306C253.478 194.266 249.257 193.34 246.217 190.88C243.177 188.42 241.39 184.485 241.539 180.578C238.628 186.402 235.58 192.402 230.574 196.566C228.223 198.522 225.312 199.955 222.311 200.586C223.408 202.35 224.246 204.247 224.773 206.224C223.367 204.324 222.016 202.477 220.508 200.809C218.994 199.154 217.352 197.659 215.496 196.508C213.664 195.32 211.626 194.487 209.473 193.927C207.313 193.375 205.041 193.137 202.687 192.986C204.024 192.557 205.425 192.32 206.846 192.239C206.401 191.188 206.02 190.108 205.763 189.006C204.817 184.939 204.964 180.707 205.117 176.534C200.762 180.815 194.251 182.782 188.254 181.628C182.257 180.474 176.941 176.232 174.485 170.641C171.377 173.479 169.418 177.319 167.154 180.868C164.89 184.416 162.049 187.902 158.079 189.302C154.11 190.702 148.859 189.142 147.538 185.146C149.067 188.356 146.491 192.454 143.041 193.315C139.591 194.176 135.908 192.454 133.477 189.859C131.045 187.265 129.616 183.913 128.235 180.636C127.267 178.339 126.298 176.042 125.33 173.745C124.595 172.003 123.345 167.795 126.298 167.08C128.247 166.608 129.061 168.837 130.101 170.078C133.878 174.586 137.948 178.868 141.905 183.223C141.638 179.555 141.381 175.785 142.462 172.27C143.544 168.754 146.283 165.498 149.916 164.918C154.671 164.158 158.862 168.009 161.744 171.866C160.349 168.657 158.928 165.326 158.976 161.828C159.024 158.33 160.965 154.601 164.322 153.617C168.299 152.452 172.601 155.85 173.392 159.919C173.237 151.893 181.463 145.094 189.449 145.91C197.434 146.726 203.908 154.16 204.569 162.16C207.845 155.441 215.865 151.4 223.215 152.767C230.565 154.133 236.597 160.785 237.24 168.233C237.383 169.892 237.417 171.837 238.771 172.807C239.972 173.667 241.739 173.261 242.83 172.266C243.921 171.27 244.484 169.834 244.955 168.434C246.144 164.902 247.007 161.196 248.996 158.044C250.985 154.893 254.466 152.331 258.172 152.725C263.56 153.299 266.406 159.334 267.666 164.604C268.983 170.107 269.699 175.928 268.235 181.395ZM281.016 181.825C276.194 178.607 267.891 173.994 276.986 169.771C280.948 167.932 286.955 167.247 290.971 169.282C294.914 171.28 296.77 176.251 294.92 180.4C292.123 186.674 285.488 184.809 281.016 181.825ZM338.267 231.014C337.024 231.403 336.074 229.911 335.625 228.688C334.544 225.743 333.462 222.797 332.381 219.852C331.673 217.923 329.907 213.965 331.456 212.017C332.808 210.317 335.029 210.579 336.336 212.053C338.897 214.942 338.986 224.361 339.367 228.024C339.487 229.173 339.369 230.669 338.267 231.014Z" fill="#FFFBE7"/>
<path d="M305.823 191.373C306.483 191.573 307.124 191.829 307.727 192.151C308.007 191.788 308.309 191.441 308.618 191.099C307.974 191.248 307.319 191.347 306.659 191.376C306.38 191.388 306.101 191.38 305.823 191.373Z" fill="#FFFBE7"/>
<path d="M299.459 190.738C299.368 190.903 299.284 191.073 299.19 191.236C299.893 191.059 300.622 190.943 301.359 190.89C300.725 190.811 300.091 190.757 299.459 190.738Z" fill="#FFFBE7"/>
<path d="M303.017 175.885C305.107 180.569 310.135 184.368 315.15 183.293C313.391 183.764 312.804 186.363 314.035 187.636C314.473 187.543 314.925 187.483 315.397 187.482C315.926 187.531 316.473 187.522 316.985 187.721C317.242 187.805 317.513 187.869 317.753 187.99L318.456 188.393C318.702 188.518 318.909 188.683 319.1 188.865L319.694 189.395C320.054 189.773 320.347 190.196 320.672 190.601C320.832 190.846 320.955 191.102 321.091 191.354L326.781 187.559C324.663 186.763 323.223 185.592 322.409 184.012C321.079 181.433 321.663 178.173 322.854 174.823C316.48 178.25 311.582 178.152 308.273 174.519C303.302 169.063 309.662 144.184 313.524 130.948L292.759 164.623C293.433 164.888 294.098 165.184 294.738 165.542C295.734 166.088 296.649 166.775 297.476 167.555C297.607 165.175 299.826 162.654 301.188 160.904C301.316 165.996 300.875 171.086 303.017 175.885Z" fill="#FFFBE7"/>
<path d="M44.432 219.669C44.483 217.463 45.299 215.617 46.795 214.333C48.121 213.194 49.379 212.435 50.658 211.987C50.526 211.943 50.391 211.904 50.268 211.85C51.228 210.466 51.768 209.043 51.953 207.347C52.416 203.104 51.943 198.761 50.577 194.717C52.163 195.316 54.096 194.844 55.226 193.58C56.357 192.316 56.612 190.343 55.84 188.833C56.787 189.867 57.734 190.901 58.68 191.936C58.997 191.487 59.339 191.04 59.718 190.593C60.056 190.195 60.405 189.829 60.761 189.483L53.729 178.341C54.188 182.409 54.051 187.26 50.993 188.053C49.257 188.503 47.918 188.462 46.916 188.223C48.099 193.164 50.063 204.312 45.275 209.477C41.954 213.061 38.499 213.322 35.948 212.747L46.08 226.205C45.164 224.382 44.379 221.984 44.432 219.669Z" fill="#FFFBE7"/>
<path d="M77.021 185.75C78.377 185.95 79.777 186.226 81.197 186.529C80.726 186.126 80.304 185.584 79.845 184.768C78.901 183.093 77.971 181.41 77.038 179.729C76.465 179.343 76.061 178.725 76.096 178.038C76.41 178.602 76.725 179.165 77.038 179.729C77.425 179.989 77.887 180.146 78.352 180.135C79.504 180.109 80.529 179.281 81.062 178.26C81.595 177.238 81.709 176.05 81.697 174.898C81.673 172.704 81.212 170.519 80.365 168.494C80.113 168.063 79.895 167.611 79.735 167.138C79.967 167.579 80.173 168.034 80.365 168.494C81.276 170.051 82.733 171.29 84.439 171.885C86.617 172.644 89.137 172.344 91.075 171.094C91.994 172.57 92.912 174.045 93.831 175.521C95.56 174.789 97.403 174.236 99.279 173.849C98.192 171.258 97.121 168.598 96.199 166.122C95.517 164.289 94.913 162.555 94.458 161.039C94.28 161.609 94.121 162.14 93.975 162.628C92.74 166.757 91.917 169.483 86.708 168.073C83.447 167.192 77.201 159.386 67.302 146.632C63.981 142.353 60.597 137.993 57.605 134.396C58.807 136.438 60.016 138.453 61.208 140.439C67.599 151.092 73.121 160.293 73.552 166.901C73.709 169.304 73.132 170.856 71.837 171.513C71.01 171.935 70.034 171.883 69.074 171.604C70.698 174.034 72.826 177.445 74.887 181.388C75.614 182.782 76.335 184.241 77.021 185.75Z" fill="#FFFBE7"/>
<path d="M258.196 123.539C257.838 122.197 260.137 119.774 260.835 118.708C262.081 116.807 263.328 114.906 264.574 113.005C263.784 114.555 264.999 116.558 266.651 117.101C268.304 117.644 270.127 117.082 271.641 116.226C272.305 115.852 272.925 115.406 273.516 114.925C274.278 114.069 275.064 113.234 275.9 112.449C275.219 113.375 274.408 114.199 273.516 114.925C270.184 118.669 267.584 123.055 265.906 127.779C266.914 128.699 267.709 129.691 268.323 130.741L291.512 90.9087C284.686 98.0837 274.978 107.793 271.98 108.278C271.1 108.423 270.29 108.167 269.643 107.543C267.839 105.803 267.568 100.967 267.704 96.8587L255.687 123.618C256.674 123.732 257.602 123.894 258.479 124.091C258.356 123.931 258.253 123.754 258.196 123.539Z" fill="#FFFBE7"/>
<path d="M161.202 126.74C161.444 124.797 161.351 122.804 160.879 120.912C161.187 121.238 161.49 121.569 161.83 121.865C163.646 123.448 166.057 124.517 168.442 124.182C171.742 123.719 174.103 120.812 175.848 117.973C179.238 112.458 181.653 106.346 182.946 100.003C183.027 101.804 183.122 103.627 183.646 105.352C184.17 107.077 185.176 108.722 186.715 109.661C188.646 110.84 191.083 110.746 193.316 110.38C197.877 109.632 202.273 107.894 206.114 105.322C205.843 106.084 205.39 106.741 204.853 107.343C207.543 105.784 209.934 104.947 211.731 105.108C215.077 95.1277 218.81 81.7837 221.214 72.8847C214.649 85.3997 204.319 103.649 199.903 103.649C198.936 103.649 198.064 103.265 197.311 102.509C193.369 98.5477 193.052 83.5167 193.094 66.6237C193.099 64.7797 193.107 62.9147 193.116 61.0377C193.138 56.6887 193.158 52.2547 193.119 48.0537C191.954 53.0767 190.324 59.9307 188.44 67.3737C187.488 71.1367 186.471 75.0487 185.415 78.9557C174.601 118.957 170.467 119.161 168.702 119.249C162.76 119.523 157.716 106.883 154.877 97.6777C155.421 104.313 156.74 114.18 159.854 126.088C160.311 126.293 160.752 126.523 161.202 126.74Z" fill="#FFFBE7"/>
<path d="M108.854 161.537C109.239 161.304 109.665 161.117 110.113 160.957C109.986 160.875 109.868 160.785 109.76 160.687C107.699 158.793 106.588 154.016 105.436 151.474C105.839 152.447 107.117 152.813 108.124 152.506C109.131 152.199 109.904 151.395 110.552 150.565C113.852 146.332 115.017 140.515 113.601 135.338C114.393 136.36 115.671 136.969 116.96 136.995C118.511 134.339 120.671 131.836 123.541 129.609C122.277 126.284 121.208 122.662 120.495 120.041C119.281 123.312 117.819 125.168 115.929 125.914C113.369 126.922 110.343 125.82 106.235 123.375C107.853 130.024 108.581 137.398 106.307 140.563C105.607 141.537 104.639 142.08 103.508 142.133C94.53 142.535 86.869 129.972 78.763 116.653C78.337 115.954 77.91 115.252 77.48 114.549C78.027 115.618 78.597 116.717 79.186 117.838C87.82 134.278 99.285 153.218 104.963 162.431C105.475 163.261 105.945 164.022 106.356 164.686C106.461 164.333 106.597 163.986 106.779 163.65C107.177 162.914 107.741 162.322 108.41 161.84C108.528 161.679 108.67 161.567 108.854 161.537Z" fill="#FFFBE7"/>
<path d="M352.755 203.072C360.459 199.062 366.489 199.017 370.429 199.843C374.528 200.703 377.369 202.713 378.367 204.325C380.161 207.221 379.915 209.902 377.275 213.951C379.567 213.644 382.737 213.628 384.616 215.345C386.82 217.36 387.233 220.218 385.863 223.882L406.523 215.855C398.386 214.636 381.641 211.323 379.76 204.508C378.138 198.627 385.446 189.752 390.69 184.322C388.055 185.561 384.82 187.042 381.556 188.436C367.355 194.501 364.564 193.915 363.659 192.379C361.683 189.018 368.411 178.364 374.064 170.435L356.823 185.154C359.689 188.971 358.244 195.284 352.755 203.072Z" fill="#FFFBE7"/>
<path d="M87.158 229.255C86.366 226.726 84.824 224.474 83.301 222.286C84.289 224.769 85.328 227.317 87.158 229.255Z" fill="#353535"/>
<path d="M176.153 188.406C176.302 187.113 176.436 185.819 176.567 184.528C176.28 185.798 176.152 187.102 176.153 188.406Z" fill="#353535"/>
<path d="M191.196 203.744C186.53 204.116 181.828 201.716 179.091 197.92C177.115 195.179 176.155 191.796 176.153 188.408C175.638 192.877 174.916 197.324 173.301 201.507C171.721 205.599 168.926 210.316 164.995 212.567C163.168 213.613 162.319 212.888 160.439 212.687C160.059 212.646 159.684 212.658 159.311 212.691C154.082 210.613 149.968 205.869 148.72 200.374C148.348 207.388 147.385 214.717 143.305 220.435C139.226 226.152 131.135 229.563 124.917 226.298C119.195 222.483 116.758 217.027 115.49 210.638C114.987 215.651 115.281 220.773 116.022 225.805C116.884 231.324 118.332 236.775 120.411 242.04H147.462C147.128 240.366 146.996 238.7 146.958 237.047C146.916 234.936 147.022 232.841 147.218 230.762C147.418 228.683 147.708 226.618 148.109 224.575C148.519 222.54 148.984 220.494 149.803 218.585C149.151 220.553 148.867 222.608 148.634 224.654C148.41 226.704 148.3 228.764 148.278 230.818C148.259 232.871 148.333 234.922 148.546 236.943C148.732 238.693 149.049 240.427 149.563 242.039H154.931C154.225 237.607 154.209 233.14 154.67 228.757C154.919 226.349 155.302 223.96 155.829 221.606C156.101 220.431 156.388 219.261 156.741 218.109C157.086 216.958 157.468 215.808 158.009 214.735C157.549 215.844 157.256 217.009 156.998 218.177C156.733 219.344 156.534 220.524 156.351 221.704C156.002 224.068 155.799 226.45 155.73 228.829C155.589 233.297 155.966 237.775 157.018 242.04H163.275C162.701 240.24 162.385 238.342 162.317 236.427C162.323 234.142 162.493 231.826 163.04 229.594C163.525 227.348 164.262 225.16 165.176 223.051C166.084 220.938 167.197 218.912 168.507 217C169.853 215.117 171.322 213.281 173.317 211.85C174.313 211.123 175.489 210.616 176.741 210.336C178.017 210.115 179.357 210.266 180.529 210.757C182.898 211.773 184.401 213.81 185.439 215.854C186.244 217.576 186.75 219.397 186.979 221.236C187.456 219.641 187.995 218.061 188.614 216.505C189.966 213.104 191.692 209.796 194.063 206.868C195.271 205.43 196.64 204.087 198.228 203.004C198.772 202.645 199.346 202.324 199.932 202.026C200.362 199.846 200.932 197.686 201.57 195.575C200.253 200.065 195.862 203.371 191.196 203.744Z" fill="#353535"/>
<path d="M297.872 218.176C297.845 217.771 297.878 217.353 297.932 216.932C300.478 210.622 302.577 204.104 304.576 197.599C301.4 208.184 293.796 217.364 283.987 222.455C280.087 224.48 274.846 225.691 271.661 222.663C268.857 219.996 269.188 215.513 269.73 211.682C271.028 202.5 272.327 193.317 273.625 184.135C271.653 194.782 267.257 204.974 260.866 213.715C258.407 217.078 255.084 220.505 250.918 220.447C247.063 220.393 243.821 217.182 242.523 213.552C241.225 209.922 241.469 205.944 241.804 202.104C242.139 198.264 242.542 194.327 241.531 190.607C240.15 197.939 238.752 205.332 235.895 212.224C235.157 214.004 234.308 215.751 233.351 217.436C231.408 220.139 229.32 222.728 226.788 224.873C223.168 227.94 218.471 230.044 213.753 229.546C206.892 228.822 201.538 222.646 199.88 215.949C198.958 212.222 198.97 208.379 199.504 204.566C198.093 205.587 196.824 206.84 195.704 208.218C193.483 210.892 191.742 214.007 190.122 217.183C188.518 220.377 187.087 223.686 185.565 226.994C185.911 225.187 186.342 223.397 186.857 221.628C186.294 219.755 185.552 217.961 184.535 216.36C183.367 214.553 181.805 212.941 179.94 212.299C179.009 212 178.05 211.969 177.114 212.154C176.191 212.417 175.28 212.836 174.49 213.477C172.863 214.713 171.469 216.426 170.253 218.208C168.998 219.978 167.925 221.896 167.008 223.882C166.03 225.844 165.295 227.916 164.645 230.008L164.197 231.593L163.854 233.201C163.719 233.736 163.631 234.277 163.569 234.823C163.502 235.367 163.404 235.913 163.36 236.46C163.188 238.309 163.251 240.168 163.489 242.04H287.11C288.85 240.743 290.399 239.086 291.833 237.342C293.351 235.5 294.708 233.503 295.997 231.463C297.29 229.424 298.49 227.317 299.623 225.175C299.975 224.51 300.311 223.835 300.651 223.163C298.94 222.19 298.003 220.157 297.872 218.176ZM179.24 227.626C178.467 229.131 177.185 230.459 175.549 230.89C173.913 231.321 171.941 230.637 171.235 229.099C169.709 225.771 173.803 217.399 177.656 216.646C183.425 215.518 180.739 224.707 179.24 227.626Z" fill="#353535"/>
<path d="M101.592 205.951C100.86 211.449 100.128 216.948 99.3959 222.446C98.9319 225.93 98.0499 230 94.8309 231.412C92.3099 232.518 89.2559 231.393 87.3199 229.436C87.2629 229.378 87.2129 229.314 87.1579 229.256C87.2429 229.528 87.3269 229.8 87.3939 230.078C88.0799 232.949 87.5069 236.32 85.2219 238.189C82.9629 240.037 79.5929 239.958 76.9289 238.764C74.2659 237.57 72.1479 235.449 70.0959 233.375C72.2409 235.543 75.5659 238.778 76.9739 241.462C77.0709 241.647 77.1319 241.846 77.2059 242.04H104.649C104.144 241.083 103.713 240.107 103.329 239.121C102.718 237.541 102.236 235.93 101.829 234.306C101.426 232.682 101.104 231.041 100.889 229.387C100.682 227.736 100.555 226.061 100.722 224.411C100.732 226.068 101.034 227.694 101.411 229.291C101.796 230.888 102.283 232.458 102.844 233.994C103.408 235.529 104.043 237.036 104.784 238.473C105.439 239.741 106.175 240.965 107.016 242.04H112.894C112.318 241.05 111.778 240.043 111.314 239.008C110.601 237.363 110.02 235.677 109.545 233.971C108.595 230.587 108.134 227.117 107.872 223.664C107.049 222.731 106.353 221.651 105.761 220.564C103.321 216.077 101.886 211.048 101.592 205.951Z" fill="#353535"/>
<path d="M322.677 235.211C320.52 230.998 322.039 226.356 325.131 222.253C322.438 225.659 319.078 227.018 316.046 225.057C313.52 223.424 312.506 220.114 312.79 217.119C312.846 216.527 312.918 215.888 312.996 215.227C313.31 212.545 313.744 209.357 313.878 206.083C313.148 209.567 312.498 212.544 311.495 214.888C310.492 217.232 309.552 219.688 307.784 221.525C306.046 223.33 303.245 224.372 300.981 223.331C300.691 224.023 300.407 224.718 300.105 225.406C299.125 227.636 298.075 229.839 296.919 231.995C295.766 234.152 294.538 236.281 293.108 238.301C292.192 239.593 291.208 240.854 290.106 242.039H297.815C299.853 240.344 301.531 238.118 303.01 235.788C304.567 233.341 305.868 230.705 307.04 228.016C308.222 225.329 309.268 222.574 310.201 219.779C311.135 216.984 311.993 214.157 312.708 211.291C312.165 214.196 311.478 217.073 310.709 219.932C309.94 222.791 309.056 225.625 308.025 228.414C307.002 231.205 305.843 233.961 304.384 236.594C303.333 238.484 302.169 240.349 300.72 242.039H334.621C334.624 241.624 334.626 241.21 334.627 240.799C330.009 241.844 324.833 239.424 322.677 235.211Z" fill="#353535"/>
<path d="M114.384 226.019C113.399 226.332 112.31 226.377 111.337 226.07C109.969 225.638 108.84 224.758 107.885 223.678C108.494 227.085 109.3 230.454 110.554 233.638C111.183 235.245 111.906 236.807 112.739 238.295C113.502 239.62 114.368 240.865 115.307 242.039H120.243C117.507 237.092 115.536 231.684 114.399 226.095C114.393 226.069 114.389 226.044 114.384 226.019Z" fill="#353535"/>
<path d="M354.739 242.039H360.907C361.313 241.645 361.726 241.267 362.135 240.91C364.677 238.693 365.488 236.005 367.435 233.655C367.791 233.225 368.174 232.878 368.577 232.575C368.407 230.351 368.244 228.167 368.706 226.422C367.595 228.877 366.533 230.359 364.124 230.852C361.715 231.346 360.233 231.122 358.486 229.392C356.669 227.592 356.473 226.428 355.876 223.433C355.376 220.925 355.262 217.232 355.367 213.764C354.333 216.667 354.106 217.978 353.029 221.127C352.523 222.605 351.353 223.849 349.96 224.637C349.965 227.241 349.839 229.851 349.54 232.455C349.165 235.684 348.487 238.903 347.419 242.039H352.593C353.626 240.154 354.439 238.097 355.051 235.966C355.723 233.612 356.213 231.182 356.469 228.716C356.566 231.197 356.428 233.696 356.089 236.187C355.818 238.151 355.388 240.112 354.739 242.039Z" fill="#353535"/>
<path d="M344.664 223.393C344.588 224.056 344.512 224.72 344.436 225.383C344.944 231.039 344.28 236.993 342.669 242.039H345.251C346.712 238.976 347.772 235.672 348.493 232.282C349.014 229.825 349.377 227.325 349.618 224.808C349.261 224.987 348.896 225.145 348.522 225.261C347.205 225.669 344.538 225.189 344.664 223.393Z" fill="#353535"/>
<path d="M47.367 140.439C47.197 140.238 47.035 140.031 46.864 139.831C44.803 137.406 42.683 135.027 40.395 132.776C41.982 135.565 43.736 138.226 45.551 140.841C45.747 141.127 45.955 141.403 46.154 141.687C47.779 144.01 49.466 146.287 51.179 148.542C53.133 151.049 55.106 153.542 57.178 155.958C59.239 158.383 61.359 160.763 63.645 163.015C62.056 160.227 60.301 157.567 58.487 154.952C56.684 152.329 54.782 149.781 52.861 147.248C51.07 144.949 49.253 142.668 47.367 140.439Z" fill="#353535"/>
<path d="M48.277 132.992C49.15 134.299 50.032 135.599 50.911 136.902C52.814 139.721 54.729 142.532 56.696 145.309C59.537 149.392 62.524 153.376 65.468 157.395C63.266 152.904 60.656 148.656 58.075 144.401C56.233 141.383 54.325 138.408 52.401 135.443C51.617 134.235 50.837 133.023 50.047 131.819C47.283 127.683 44.496 123.563 41.602 119.514C38.719 115.458 35.772 111.445 32.646 107.551C35.036 111.935 37.599 116.203 40.222 120.431C42.834 124.667 45.545 128.836 48.277 132.992Z" fill="#353535"/>
<path d="M53.431 82.7515C55.398 89.0135 57.739 95.1484 60.267 101.198C62.829 107.234 65.621 113.173 68.698 118.965C68.953 119.45 69.227 119.925 69.488 120.407C70.787 122.81 72.138 125.186 73.559 127.521C74.44 128.907 75.333 130.285 76.267 131.635L77.703 133.635L79.296 135.513C77.443 132.814 75.952 129.909 74.466 127.011C73.185 124.493 71.954 121.952 70.743 119.401C70.556 119.008 70.365 118.618 70.18 118.225C67.424 112.32 64.732 106.384 62.221 100.372C59.671 94.3774 57.264 88.3245 54.993 82.2205C54.226 80.1205 53.483 78.0114 52.759 75.8954C51.374 71.8464 50.089 67.7614 49.056 63.5864C49.545 67.7374 50.383 71.8444 51.439 75.8954C52.041 78.1984 52.711 80.4855 53.431 82.7515Z" fill="#353535"/>
<path d="M48.508 89.7197C49.446 92.2247 50.603 94.6277 51.695 97.0637C52.876 99.4527 54.056 101.846 55.326 104.187C56.589 106.533 57.925 108.835 59.262 111.137C60.658 113.403 62.02 115.689 63.496 117.903C64.543 119.505 65.617 121.088 66.708 122.661C68.65 125.459 70.664 128.207 72.812 130.854L67.671 121.867L64.91 117.04C62.291 112.44 59.677 107.842 57.193 103.181C54.665 98.5437 52.245 93.8497 50.024 89.0697C48.051 84.7767 46.18 80.4327 44.747 75.8957C44.582 75.3717 44.396 74.8557 44.244 74.3257C44.305 74.8517 44.384 75.3737 44.465 75.8957C45.206 80.6437 46.762 85.2507 48.508 89.7197Z" fill="#353535"/>
<path d="M101.812 75.8937C102.329 78.2437 102.874 80.5877 103.445 82.9247C104.5 87.1147 105.642 91.2817 106.887 95.4187C107.214 96.5057 107.544 97.5907 107.886 98.6727C108.695 101.277 109.571 103.862 110.484 106.434C111.427 108.994 112.356 111.568 113.539 114.036C112.089 108.779 110.843 103.485 109.481 98.2207L108.546 94.5017L105.505 82.4107C104.957 80.2407 104.424 78.0667 103.892 75.8937C103.134 72.7927 102.386 69.6897 101.65 66.5837C100.421 61.2927 99.249 56.0007 98.342 50.6177C98.373 56.0857 99.103 61.5347 100.032 66.9107C100.55 69.9217 101.156 72.9137 101.812 75.8937Z" fill="#353535"/>
<path d="M105.335 60.6085C105.891 63.6005 106.462 66.5915 107.068 69.5725C107.508 71.6825 107.967 73.7895 108.435 75.8935C109.289 79.7285 110.189 83.5535 111.167 87.3585C111.595 89.0555 112.041 90.7485 112.498 92.4395C113.629 96.6235 114.847 100.785 116.172 104.917C115.398 100.531 114.576 96.1615 113.725 91.7995C113.412 90.1965 113.109 88.5905 112.783 86.9915L110.522 75.8935L109.147 69.1445C107.899 63.2055 106.693 57.2595 105.507 51.3105C104.356 45.3545 103.137 39.4115 102.193 33.3955C102.32 39.4905 103 45.5655 103.88 51.5905C104.283 54.6105 104.837 57.6045 105.335 60.6085Z" fill="#353535"/>
<path d="M136.403 59.3106C136.822 64.8436 137.31 70.3706 137.844 75.8936C138.006 77.5736 138.154 79.2556 138.329 80.9346C138.497 82.5376 138.663 84.1406 138.844 85.7426C139.859 94.5296 140.905 103.334 142.713 112.009C142.207 107.614 141.837 103.213 141.52 98.8026L140.494 85.5866L140.097 80.2756L139.77 75.8936L138.519 59.1556C137.861 50.3456 137.262 41.5336 136.671 32.7196C136.115 23.9026 135.535 15.0896 135.217 6.24561C134.714 15.0856 134.744 23.9526 135.022 32.7976C135.277 41.6466 135.786 50.4836 136.403 59.3106Z" fill="#353535"/>
<path d="M171.3 75.8937C171.458 74.1737 171.613 72.4527 171.763 70.7317C171.954 68.5297 172.147 66.3277 172.328 64.1237C172.816 57.6977 173.279 51.2697 173.619 44.8317C173.988 38.3957 174.223 31.9497 174.322 25.4927C173.404 31.8847 172.621 38.2877 171.973 44.7007C171.295 51.1117 170.741 57.5327 170.212 63.9557C170.027 66.3827 169.853 68.8097 169.681 71.2377C169.571 72.7887 169.467 74.3407 169.364 75.8927C169.202 78.3437 169.047 80.7947 168.918 83.2477C168.548 89.6837 168.315 96.1297 168.218 102.587C169.138 96.1947 169.923 89.7927 170.57 83.3787C170.832 80.8857 171.07 78.3907 171.3 75.8937Z" fill="#353535"/>
<path d="M176.192 75.8935C176.581 73.7605 176.967 71.6265 177.336 69.4905C177.617 67.8645 177.915 66.2415 178.182 64.6145C179.362 57.5805 180.42 50.5295 181.452 43.4745C182.444 36.4135 183.412 29.3495 184.258 22.2685C185.133 15.1905 185.873 8.09452 186.48 0.978516C185.061 7.97752 183.775 14.9965 182.624 22.0345C181.443 29.0685 180.386 36.1195 179.352 43.1745C178.357 50.2345 177.389 57.2985 176.543 64.3805C176.32 66.1855 176.131 67.9945 175.925 69.8015C175.694 71.8305 175.479 73.8625 175.266 75.8955C174.925 79.1505 174.601 82.4075 174.323 85.6715C174.983 82.4165 175.596 79.1565 176.192 75.8935Z" fill="#353535"/>
<path d="M223.354 102.587C225.333 97.7813 227.111 92.9123 228.817 88.0203C230.231 83.9983 231.558 79.9492 232.863 75.8932C233.144 75.0192 233.432 74.1483 233.711 73.2743C234.733 69.9863 235.73 66.6903 236.704 63.3873C237.195 61.7223 237.691 60.0593 238.159 58.3873C239.568 53.4013 240.906 48.3942 242.044 43.3232C240.067 48.1302 238.291 52.9992 236.584 57.8912C235.943 59.7142 235.331 61.5473 234.718 63.3793C233.687 66.4583 232.676 69.5433 231.687 72.6363C231.349 73.7203 231.022 74.8082 230.687 75.8932C229.497 79.7572 228.326 83.6263 227.235 87.5223C225.827 92.5073 224.49 97.5163 223.354 102.587Z" fill="#353535"/>
<path d="M239.191 70.0694C238.505 72.0034 237.837 73.9444 237.189 75.8944C236.382 78.3244 235.61 80.7694 234.903 83.2384C236.135 80.8144 237.295 78.3614 238.417 75.8944C239.205 74.1614 239.978 72.4224 240.733 70.6764C241.772 68.2934 242.771 65.8934 243.753 63.4884C244.513 61.6274 245.265 59.7634 246.008 57.8954C247.675 53.5994 249.319 49.2934 250.848 44.9434C252.389 40.5974 253.861 36.2244 255.139 31.7754C253.044 35.9034 251.144 40.1074 249.312 44.3394C247.468 48.5664 245.74 52.8384 244.034 57.1194C243.218 59.2204 242.408 61.3244 241.614 63.4344C240.784 65.6364 239.972 67.8464 239.191 70.0694Z" fill="#353535"/>
<path d="M259.791 88.8186C261.503 84.6646 263.098 80.4677 264.669 76.2617C264.713 76.1397 264.756 76.0167 264.8 75.8947C266.09 72.3377 267.352 68.7716 268.551 65.1806C268.734 64.6336 268.929 64.0906 269.108 63.5416C270.515 59.2746 271.853 54.9827 272.994 50.6187C271.028 54.6797 269.259 58.8126 267.559 62.9706C267.284 63.6386 267.027 64.3126 266.758 64.9826C265.35 68.4796 263.998 71.9976 262.678 75.5266C262.634 75.6486 262.591 75.7716 262.546 75.8936C261.056 79.9906 259.59 84.0976 258.236 88.2446C256.829 92.5106 255.492 96.8036 254.353 101.169C256.322 97.1096 258.092 92.9766 259.791 88.8186Z" fill="#353535"/>
<path d="M270.257 71.5723C269.6 73.0063 268.97 74.4513 268.333 75.8933C266.867 79.2063 265.426 82.5313 264.012 85.8673C262.02 90.6693 260.052 95.4823 258.199 100.343C256.333 105.198 254.537 110.083 252.936 115.049C255.353 110.425 257.575 105.719 259.728 100.984C261.893 96.2543 263.944 91.4763 265.97 86.6893C267.455 83.1043 268.911 79.5073 270.333 75.8953C270.816 74.6673 271.311 73.4453 271.781 72.2123C272.592 70.1003 273.386 67.9813 274.162 65.8553C275.169 63.0913 276.141 60.3133 277.048 57.5083C275.635 60.2143 274.294 62.9504 272.989 65.7014C272.061 67.6504 271.151 69.6083 270.257 71.5723Z" fill="#353535"/>
<path d="M292.563 120.644C290.429 124.875 288.316 129.116 286.315 133.414C284.301 137.706 282.353 142.032 280.592 146.452C283.136 142.43 285.494 138.314 287.785 134.164C290.089 130.02 292.282 125.819 294.453 121.608C296.589 117.379 298.702 113.137 300.704 108.839C302.718 104.547 304.665 100.221 306.424 95.7993C303.877 99.8193 301.519 103.936 299.227 108.086C296.926 112.231 294.733 116.431 292.563 120.644Z" fill="#353535"/>
<path d="M298.321 129.434C300.679 126.155 302.856 122.773 304.968 119.355C307.092 115.944 309.107 112.47 311.102 108.986C313.062 105.482 314.999 101.964 316.828 98.3857C318.669 94.8137 320.444 91.2057 322.035 87.4927C319.674 90.7697 317.497 94.1517 315.385 97.5697C313.262 100.982 311.246 104.455 309.254 107.941C307.296 111.446 305.359 114.964 303.53 118.542C301.691 122.115 299.914 125.723 298.321 129.434Z" fill="#353535"/>
<path d="M312.728 118.017C310.5 121.49 308.292 124.976 306.189 128.529C304.074 132.075 302.022 135.662 300.145 139.362C302.759 136.14 305.198 132.804 307.574 129.427C309.962 126.058 312.245 122.621 314.509 119.171C316.739 115.7 318.947 112.214 321.051 108.661C323.166 105.115 325.218 101.528 327.093 97.8257C324.476 101.047 322.037 104.382 319.661 107.759C317.272 111.129 314.989 114.566 312.728 118.017Z" fill="#353535"/>
<path d="M359.074 148.514C357.572 150.456 356.127 152.444 354.849 154.559C356.813 152.993 358.61 151.3 360.35 149.561C362.1 147.831 363.752 146.023 365.387 144.199C366.991 142.35 368.574 140.484 370.065 138.536C371.566 136.597 373.01 134.607 374.3 132.473C372.348 134.021 370.551 135.712 368.81 137.453C367.059 139.186 365.401 141 363.763 142.832C362.156 144.69 360.567 146.563 359.074 148.514Z" fill="#353535"/>
<path d="M378.616 149.092C381.686 146.416 384.674 143.653 387.648 140.875C390.595 138.068 393.524 135.243 396.371 132.329C399.226 129.425 402.031 126.467 404.693 123.356C401.426 125.823 398.304 128.445 395.235 131.123C392.156 133.791 389.164 136.551 386.192 139.332C383.247 142.142 380.32 144.972 377.481 147.895C374.643 150.817 371.821 153.764 369.236 156.945C372.431 154.394 375.563 151.788 378.616 149.092Z" fill="#353535"/>
<path d="M375.622 156.995C372.327 159.951 369.047 162.924 365.85 165.99C362.644 169.047 359.488 172.158 356.47 175.426C360.071 172.815 363.533 170.047 366.946 167.224C370.368 164.411 373.707 161.505 377.031 158.581C380.328 155.627 383.607 152.654 386.805 149.588C390.011 146.532 393.167 143.419 396.183 140.149C392.58 142.758 389.117 145.525 385.705 148.349C382.283 151.163 378.943 154.069 375.622 156.995Z" fill="#353535"/>
<path d="M423.504 189.895C425.963 188.949 428.412 187.978 430.818 186.892C432.379 186.197 433.925 185.465 435.451 184.676C436.282 184.246 437.107 183.805 437.922 183.331C437.091 183.494 436.269 183.683 435.451 183.882C433.69 184.31 431.955 184.806 430.234 185.341C427.709 186.112 425.228 186.998 422.757 187.909C420.299 188.857 417.85 189.828 415.445 190.915C413.035 191.99 410.651 193.133 408.341 194.473C410.961 193.956 413.507 193.242 416.027 192.46C418.55 191.69 421.032 190.804 423.504 189.895Z" fill="#353535"/>
<path d="M406.938 202.566C409.34 201.914 411.702 201.144 414.056 200.351C416.397 199.521 418.729 198.666 421.021 197.694C423.317 196.734 425.589 195.704 427.791 194.473C425.299 194.868 422.877 195.462 420.479 196.128C418.077 196.781 415.715 197.551 413.362 198.346C411.022 199.179 408.69 200.034 406.398 201.006C404.102 201.966 401.83 202.996 399.627 204.224C402.118 203.826 404.54 203.231 406.938 202.566Z" fill="#353535"/>
<path d="M116.826 187.384C116.63 184.5 113.565 182.756 110.793 181.936C103.91 179.898 92.3191 179.121 91.9701 189.363C91.8201 193.773 95.3601 198.005 99.7271 198.636C104.303 199.297 108.577 196.467 112.334 193.773C114.55 192.183 117.011 190.104 116.826 187.384ZM99.2501 186.023C99.1471 187.126 98.511 188.11 97.779 188.942C97.09 189.726 96.167 190.469 95.127 190.374C93.591 190.234 92.804 188.258 93.29 186.793C93.776 185.328 95.069 184.305 96.297 183.371L96.1791 183.612C96.6241 183.302 97.2131 183.168 97.7311 183.342C98.7811 183.696 99.3521 184.92 99.2501 186.023Z" fill="#FFFBE7"/>
<path d="M68.875 189.657C65.889 189.463 62.628 194.333 61.938 196.74C61.008 199.983 61.838 203.675 64.066 206.209C63.94 202.125 65.822 198.025 69.003 195.459C71.067 193.794 73.506 189.957 68.875 189.657Z" fill="#FFFBE7"/>
<path d="M52.525 216.872L53.055 217.385C51.957 216.664 50.302 217.009 49.583 218.107C48.864 219.206 49.212 220.86 50.312 221.577C50.583 221.754 50.889 221.877 51.207 221.941C52.505 222.202 53.929 221.311 54.262 220.029C54.596 218.747 53.786 217.276 52.525 216.872Z" fill="#FFFBE7"/>
<path d="M69.422 217.242C63.679 215.949 64.872 227.514 67.348 229.784C64.232 226.926 73.165 218.084 69.422 217.242Z" fill="#FFFBE7"/>
<path d="M129.912 197.968C124.24 194.214 116.303 202.125 120.454 207.831C121.155 208.795 122.128 209.556 123.229 210.014C130.308 212.957 136.229 202.149 129.912 197.968Z" fill="#FFFBE7"/>
<path d="M142.184 131.171C136.187 131.019 130.118 133.147 126.161 137.78C121.713 142.987 120.49 150.74 123.117 157.064C124.918 153.076 130.765 151.662 134.189 154.386C137.598 150.18 141.914 146.713 146.756 144.29C149.066 143.134 151.761 141.924 152.506 139.45C154.248 133.669 146.371 131.277 142.184 131.171ZM131.647 143.467C130.012 145.812 128.378 148.156 126.744 150.5C126.224 151.245 125.613 152.052 124.718 152.21C123.633 152.402 122.594 151.481 122.29 150.423C121.987 149.364 122.242 148.23 122.573 147.179C123.629 143.821 126.16 138.27 129.685 136.765C134.956 134.515 133.681 140.549 131.647 143.467Z" fill="#FFFBE7"/>
<path d="M195.507 131.463C198.032 130.527 200.556 129.591 203.081 128.655C205.235 127.857 207.462 127.012 209.078 125.379C209.462 124.991 209.798 124.573 210.092 124.132C210.096 124.147 210.095 124.162 210.098 124.177C210.101 124.155 210.103 124.132 210.105 124.11C212.111 121.08 212.124 116.932 211.988 113.185C211.778 113.034 211.551 112.916 211.318 112.812C211.325 112.742 211.333 112.671 211.341 112.601C211.24 112.628 211.141 112.666 211.041 112.694C209.972 112.311 208.737 112.365 207.637 112.707C206.192 113.156 204.926 114.035 203.685 114.902C201.492 116.434 199.29 117.986 197.318 119.784C199.468 118.226 202.106 117.204 204.04 118.91C207.805 122.23 200.157 125.329 197.787 126.793C196.612 127.519 195.1 128.251 193.937 127.506C193.163 127.01 192.864 125.978 193.016 125.072C193.048 124.884 193.104 124.702 193.165 124.523C191.988 126.245 191.015 128.212 191.314 129.716C191.378 130.04 191.466 130.279 191.563 130.484C191.665 131.267 192.193 131.802 193.36 131.911C194.093 131.98 194.814 131.72 195.507 131.463Z" fill="#FFFBE7"/>
<path d="M210.097 124.178C210.014 124.951 209.931 125.724 209.848 126.497C210.221 125.77 210.274 124.958 210.097 124.178Z" fill="#FFFBE7"/>
<path d="M239.479 152.667C240.396 152.94 241.319 152.33 242.082 151.753C247.002 148.031 251.921 144.308 256.841 140.586C265.588 133.968 256.717 129.265 249.055 129.699C245.483 129.901 241.84 131.305 239.621 134.112C236.237 138.391 236.952 144.496 237.838 149.879C238.024 151.004 238.386 152.342 239.479 152.667ZM249.256 131.028L248.458 131.771C249.583 131.308 250.944 132.189 251.267 133.362C251.59 134.535 251.073 135.81 250.247 136.703C249.421 137.596 248.323 138.181 247.248 138.749C245.207 139.827 243.167 140.905 241.127 141.982C240.227 136.969 244.196 131.619 249.256 131.028Z" fill="#FFFBE7"/>
<path d="M294.92 180.4C296.769 176.252 294.914 171.28 290.971 169.282C286.955 167.247 280.947 167.932 276.986 169.771C267.891 173.994 276.194 178.607 281.016 181.825C285.488 184.809 292.123 186.674 294.92 180.4ZM291.35 180.28C289.865 181.188 287.655 180.629 286.848 179.086C286.041 177.544 286.908 175.354 288.574 174.851L286.396 175.395C287.768 173.351 291.373 173.528 292.539 175.695C293.363 177.228 292.835 179.372 291.35 180.28Z" fill="#FFFBE7"/>
<path d="M337.257 149.21C335.225 149.755 333.673 151.473 332.807 153.39C331.941 155.307 331.66 157.427 331.388 159.512C330.996 162.519 330.605 165.526 330.213 168.533C329.972 170.382 329.863 172.585 331.311 173.76C332.34 174.595 333.875 174.568 335.072 173.999C336.269 173.43 337.186 172.408 337.985 171.351C340.678 167.788 348.459 146.207 337.257 149.21ZM334.705 159.413C333.537 156.505 335.488 152.782 338.541 152.081C338.508 152.067 338.474 152.058 338.441 152.044L337.69 151.833C337.95 151.874 338.2 151.95 338.441 152.044L338.555 152.077C338.55 152.078 338.545 152.08 338.541 152.081C340.515 152.924 341.721 155.445 340.919 157.481C340.007 159.797 336.767 160.804 334.705 159.413Z" fill="#FFFBE7"/>
<path d="M177.656 216.646C173.803 217.399 169.709 225.771 171.235 229.099C171.94 230.637 173.913 231.32 175.549 230.89C177.185 230.459 178.467 229.131 179.24 227.626C180.739 224.707 183.425 215.518 177.656 216.646ZM178.005 223.371C176.626 224.093 174.624 223.527 174.099 222.062C173.894 221.489 174.015 220.864 174.32 220.342L173.954 220.509C173.95 218.561 176.374 217.069 178.112 217.951C180.098 218.957 179.978 222.339 178.005 223.371Z" fill="#FFFBE7"/>
<path d="M331.456 212.018C329.907 213.966 331.673 217.924 332.381 219.853C333.463 222.798 334.544 225.744 335.625 228.689C336.074 229.912 337.024 231.405 338.267 231.015C339.37 230.67 339.488 229.174 339.368 228.025C338.986 224.362 338.898 214.943 336.337 212.054C335.03 210.58 332.809 210.318 331.456 212.018Z" fill="#FFFBE7"/>
<path d="M370.569 204.788C365.752 202.872 358.302 206.633 355.789 210.621C359.335 211.301 362.881 211.981 366.427 212.661C372.22 213.773 376.991 207.343 370.569 204.788Z" fill="#FFFBE7"/>
<path d="M352.615 190.997C347.184 187.698 348.073 202.588 346.327 203.216C349.236 202.17 357.508 193.969 352.615 190.997Z" fill="#FFFBE7"/>
<path d="M316.912 152.554C311.021 153.746 318.359 163.201 319.865 165.879C320.424 166.873 321.279 168.019 322.404 167.824C323.501 167.634 323.942 166.306 324.055 165.198C324.433 161.478 322.938 151.335 316.912 152.554Z" fill="#FFFBE7"/>
<path d="M178.112 217.95C176.374 217.069 173.951 218.56 173.954 220.508L174.32 220.341C174.015 220.863 173.893 221.488 174.099 222.061C174.624 223.526 176.627 224.092 178.005 223.37C179.978 222.339 180.098 218.957 178.112 217.95Z" fill="#FFFBE7"/>
<path d="M338.441 152.045C338.474 152.058 338.508 152.068 338.541 152.082C338.546 152.081 338.551 152.079 338.555 152.078L338.441 152.045Z" fill="#FFFBE7"/>
<path d="M338.441 152.045C338.2 151.95 337.951 151.875 337.69 151.834L338.441 152.045Z" fill="#FFFBE7"/>
<path d="M340.919 157.483C341.721 155.447 340.514 152.925 338.541 152.082C335.488 152.782 333.537 156.505 334.705 159.413C336.767 160.804 340.007 159.798 340.919 157.483Z" fill="#FFFBE7"/>
<path d="M97.731 183.343C97.213 183.169 96.624 183.303 96.179 183.613L96.297 183.372C95.069 184.306 93.776 185.329 93.29 186.794C92.805 188.258 93.591 190.235 95.127 190.375C96.167 190.47 97.09 189.727 97.779 188.943C98.51 188.111 99.147 187.127 99.25 186.024C99.352 184.92 98.781 183.696 97.731 183.343Z" fill="#FFFBE7"/>
<path d="M258.173 152.723C254.467 152.329 250.987 154.89 248.997 158.042C247.008 161.193 246.145 164.9 244.956 168.432C244.485 169.832 243.922 171.268 242.831 172.264C241.74 173.259 239.973 173.665 238.772 172.805C237.419 171.836 237.384 169.89 237.241 168.231C236.598 160.783 230.565 154.131 223.216 152.765C215.866 151.399 207.847 155.439 204.57 162.158C203.909 154.158 197.435 146.724 189.45 145.908C181.465 145.092 173.238 151.891 173.393 159.917C172.602 155.849 168.3 152.45 164.323 153.615C160.965 154.599 159.025 158.328 158.977 161.826C158.928 165.325 160.349 168.656 161.745 171.864C158.863 168.007 154.672 164.156 149.917 164.916C146.285 165.496 143.545 168.752 142.463 172.268C141.381 175.783 141.638 179.552 141.906 183.221C137.948 178.866 133.879 174.585 130.102 170.076C129.062 168.835 128.248 166.606 126.299 167.078C123.346 167.793 124.597 172.001 125.331 173.743C126.299 176.04 127.268 178.337 128.236 180.634C129.617 183.911 131.046 187.262 133.478 189.857C135.91 192.451 139.593 194.174 143.042 193.313C146.492 192.452 149.068 188.355 147.539 185.144C148.86 189.14 154.111 190.7 158.08 189.3C162.049 187.9 164.891 184.414 167.155 180.866C169.418 177.318 171.378 173.478 174.486 170.639C176.942 176.23 182.258 180.473 188.255 181.626C194.252 182.78 200.763 180.813 205.118 176.532C204.965 180.705 204.817 184.937 205.764 189.004C206.021 190.107 206.402 191.186 206.847 192.237C207.814 192.182 208.79 192.187 209.765 192.3C212.177 192.56 214.549 193.412 216.632 194.713C218.7 196.041 220.464 197.792 221.81 199.781C221.989 200.042 222.145 200.315 222.312 200.583C225.313 199.952 228.224 198.519 230.575 196.563C235.581 192.399 238.629 186.399 241.54 180.575C241.392 184.483 243.179 188.418 246.218 190.877C249.258 193.337 253.479 194.264 257.27 193.303C262.757 191.913 266.773 186.859 268.236 181.392C269.699 175.925 268.983 170.104 267.667 164.599C266.407 159.332 263.561 153.297 258.173 152.723ZM156.24 182.824C152.653 183.428 148.842 180.477 148.638 176.845C148.434 173.213 152.019 169.824 155.62 170.337L152.983 170.727C157.482 170.105 162.19 173.293 163.283 177.702C161.395 179.993 159.167 182.331 156.24 182.824ZM165.757 160.424C164.875 161.673 162.694 161.622 161.868 160.335C161.7 160.073 161.618 159.779 161.581 159.479L161.572 159.492C161.566 159.462 161.572 159.433 161.568 159.403C161.56 159.318 161.556 159.234 161.558 159.148C161.557 159.018 161.566 158.89 161.59 158.763C161.6 158.708 161.615 158.656 161.629 158.602C161.655 158.507 161.677 158.413 161.716 158.321C161.991 157.558 162.598 156.91 163.4 156.752L163.332 156.854C163.664 156.754 164.015 156.723 164.363 156.8C165.854 157.133 166.638 159.175 165.757 160.424ZM185.753 159.441C183.724 160.933 180.941 162.298 178.828 160.926C176.624 159.496 176.899 156.068 178.309 153.851C184.165 144.645 195.595 152.201 185.753 159.441ZM223.589 161.825C222.684 162.932 221.309 163.523 219.989 164.073C217.657 165.045 215.325 166.017 212.994 166.989C211.992 167.407 210.866 167.828 209.854 167.437C208.111 166.763 208.024 164.277 208.718 162.542C209.876 159.65 212.387 157.334 215.363 156.415C218.406 155.474 227.837 156.627 223.589 161.825ZM259.117 163.772C257.952 166.197 255.883 168.046 253.867 169.827C252.785 170.783 251.292 171.796 250.026 171.103C248.689 170.371 248.84 168.433 249.179 166.946C249.78 164.306 250.413 161.59 251.974 159.377C256.289 153.26 262.224 157.304 259.117 163.772Z" fill="#FFFBE7"/>
<path d="M216.631 194.716C214.549 193.415 212.177 192.563 209.764 192.303C208.789 192.19 207.813 192.184 206.846 192.24C205.425 192.321 204.024 192.558 202.687 192.987C205.041 193.138 207.313 193.377 209.473 193.928C211.625 194.488 213.664 195.321 215.496 196.509C217.351 197.66 218.993 199.155 220.508 200.81C222.016 202.478 223.368 204.325 224.773 206.225C224.246 204.247 223.407 202.35 222.311 200.587C222.144 200.319 221.988 200.046 221.809 199.785C220.463 197.795 218.699 196.044 216.631 194.716Z" fill="#353535"/>
<path d="M129.684 136.764C126.159 138.269 123.629 143.82 122.572 147.178C122.241 148.229 121.986 149.363 122.289 150.422C122.592 151.481 123.632 152.401 124.717 152.209C125.612 152.051 126.223 151.244 126.743 150.499C128.377 148.155 130.012 145.81 131.646 143.466C133.681 140.548 134.956 134.514 129.684 136.764Z" fill="#FFFBE7"/>
<path d="M152.983 170.727L155.62 170.337C152.019 169.824 148.434 173.213 148.638 176.845C148.842 180.477 152.653 183.427 156.24 182.824C159.168 182.331 161.395 179.993 163.284 177.702C162.191 173.293 157.483 170.105 152.983 170.727Z" fill="#FFFBE7"/>
<path d="M193.315 110.379C191.083 110.745 188.645 110.839 186.714 109.66C185.175 108.72 184.17 107.076 183.645 105.351C183.12 103.626 183.025 101.803 182.945 100.002C181.652 106.345 179.238 112.457 175.847 117.972C174.102 120.811 171.741 123.718 168.441 124.181C166.055 124.516 163.644 123.447 161.829 121.864C161.49 121.568 161.186 121.237 160.878 120.911C161.35 122.803 161.443 124.796 161.201 126.739C164.225 128.201 167.05 129.945 169.566 131.875C171.758 128.305 173.734 126.723 175.714 126.903C178.022 127.116 179.574 129.689 180.833 132.846C186.612 122.593 197.011 111.886 204.851 107.343C205.388 106.741 205.842 106.083 206.112 105.322C202.272 107.893 197.876 109.631 193.315 110.379Z" fill="#FFFBE7"/>
<path d="M178.309 153.852C176.899 156.069 176.624 159.497 178.828 160.927C180.941 162.298 183.724 160.934 185.753 159.442C195.595 152.202 184.165 144.646 178.309 153.852Z" fill="#FFFBE7"/>
<path d="M215.363 156.416C212.387 157.336 209.875 159.652 208.718 162.543C208.024 164.278 208.111 166.764 209.854 167.438C210.866 167.829 211.993 167.408 212.994 166.99C215.326 166.018 217.657 165.046 219.989 164.074C221.309 163.524 222.684 162.933 223.589 161.826C227.837 156.628 218.406 155.475 215.363 156.416Z" fill="#FFFBE7"/>
<path d="M251.974 159.378C250.413 161.591 249.78 164.306 249.179 166.947C248.841 168.434 248.689 170.372 250.026 171.104C251.292 171.797 252.786 170.783 253.867 169.828C255.883 168.047 257.952 166.198 259.117 163.773C262.224 157.305 256.289 153.261 251.974 159.378Z" fill="#FFFBE7"/>
<path d="M247.248 138.748C248.324 138.18 249.421 137.595 250.247 136.702C251.073 135.809 251.59 134.533 251.267 133.361C250.944 132.188 249.583 131.307 248.458 131.77L249.256 131.027C244.196 131.619 240.227 136.968 241.127 141.982C243.167 140.904 245.208 139.826 247.248 138.748Z" fill="#FFFBE7"/>
<path d="M193.935 127.507C195.098 128.252 196.61 127.52 197.785 126.794C200.155 125.33 207.803 122.232 204.038 118.911C202.104 117.205 199.466 118.227 197.316 119.785C196.049 120.703 194.951 121.808 194.268 122.652C193.81 123.218 193.395 123.84 193.163 124.523C193.102 124.702 193.046 124.884 193.014 125.072C192.862 125.979 193.161 127.011 193.935 127.507Z" fill="#FFFBE7"/>
<path d="M286.396 175.396L288.574 174.852C286.908 175.355 286.041 177.545 286.848 179.087C287.655 180.629 289.865 181.189 291.35 180.281C292.835 179.373 293.363 177.229 292.538 175.696C291.372 173.529 287.768 173.352 286.396 175.396Z" fill="#FFFBE7"/>
<path d="M164.361 156.8C164.013 156.722 163.662 156.754 163.33 156.854L163.398 156.752C162.596 156.91 161.99 157.558 161.714 158.321C161.676 158.412 161.653 158.507 161.627 158.602C161.614 158.656 161.598 158.709 161.588 158.763C161.564 158.89 161.556 159.018 161.556 159.148C161.554 159.234 161.558 159.318 161.566 159.403C161.57 159.433 161.564 159.462 161.57 159.492L161.579 159.479C161.617 159.779 161.699 160.073 161.866 160.335C162.692 161.622 164.874 161.674 165.755 160.424C166.638 159.175 165.854 157.133 164.361 156.8Z" fill="#FFFBE7"/>
<path d="M275.901 112.448C275.065 113.233 274.279 114.068 273.517 114.924C274.409 114.199 275.22 113.375 275.901 112.448Z" fill="#FFFBE7"/>
<path d="M271.642 116.225C270.127 117.08 268.304 117.643 266.652 117.1C265 116.557 263.785 114.554 264.575 113.004C263.328 114.905 262.082 116.806 260.836 118.707C260.137 119.772 257.838 122.195 258.197 123.538C258.255 123.754 258.358 123.931 258.481 124.09C260.488 124.54 262.198 125.19 263.518 125.994C264.428 126.548 265.216 127.147 265.908 127.778C267.585 123.055 270.185 118.668 273.518 114.924C272.926 115.405 272.306 115.851 271.642 116.225Z" fill="#FFFBE7"/>
<path d="M305.823 191.372C306.102 191.379 306.38 191.386 306.658 191.374C307.318 191.345 307.974 191.247 308.617 191.097C309.044 190.624 309.491 190.168 309.983 189.746C311.12 188.815 312.472 187.968 314.035 187.636C312.803 186.363 313.391 183.764 315.15 183.293C310.135 184.367 305.107 180.568 303.017 175.885C300.876 171.086 301.316 165.996 301.189 160.906C299.827 162.656 297.608 165.178 297.477 167.557C298.49 168.512 299.368 169.608 300.066 170.788C300.706 171.86 301.213 172.995 301.614 174.152C302.009 175.299 302.337 176.501 302.486 177.741C302.648 178.972 302.646 180.215 302.52 181.431C302.413 182.651 302.169 183.846 301.843 185.006C301.275 187.022 300.456 188.936 299.46 190.737C300.092 190.756 300.726 190.81 301.36 190.888C302.844 191.073 304.332 191.337 305.823 191.372Z" fill="#FFFBE7"/>
<path d="M297.866 190.798C297.884 190.761 297.9 190.723 297.918 190.686C297.819 190.754 297.719 190.804 297.618 190.818C297.7 190.807 297.783 190.808 297.866 190.798Z" fill="#FFFBE7"/>
<path d="M113.601 135.338C115.016 140.515 113.852 146.332 110.552 150.565C109.905 151.396 109.131 152.199 108.124 152.506C107.117 152.813 105.839 152.447 105.436 151.474C106.589 154.016 107.7 158.793 109.76 160.687C109.868 160.786 109.987 160.875 110.113 160.957C111.871 160.328 114.079 160.256 116.554 160.823C113.1 153.452 112.526 144.589 116.96 136.995C115.671 136.969 114.393 136.36 113.601 135.338Z" fill="#FFFBE7"/>
<path d="M77.037 179.73C76.724 179.166 76.409 178.602 76.095 178.039C76.06 178.726 76.464 179.344 77.037 179.73Z" fill="#FFFBE7"/>
<path d="M84.437 171.886C82.731 171.291 81.274 170.051 80.363 168.494C81.21 170.518 81.672 172.703 81.695 174.898C81.707 176.051 81.593 177.239 81.06 178.261C80.527 179.283 79.503 180.11 78.35 180.136C77.885 180.146 77.423 179.989 77.036 179.729C77.969 181.41 78.899 183.094 79.843 184.769C80.302 185.585 80.724 186.125 81.195 186.529C82.032 186.708 82.869 186.887 83.727 187.089C84.39 183.412 86.306 180.36 89.433 178.005C90.755 177.009 92.244 176.19 93.828 175.52C92.909 174.044 91.991 172.568 91.072 171.092C89.136 172.344 86.615 172.645 84.437 171.886Z" fill="#FFFBE7"/>
<path d="M80.363 168.495C80.171 168.035 79.965 167.581 79.733 167.14C79.893 167.613 80.111 168.064 80.363 168.495Z" fill="#FFFBE7"/>
<path d="M55.227 193.581C54.096 194.845 52.164 195.318 50.578 194.718C51.944 198.762 52.417 203.105 51.954 207.348C51.769 209.044 51.229 210.467 50.269 211.851C50.391 211.905 50.527 211.944 50.659 211.988C53.401 211.027 56.237 211.502 60.031 212.781C55.752 204.73 54.259 198.2 58.682 191.938C57.735 190.904 56.788 189.869 55.842 188.835C56.613 190.344 56.357 192.317 55.227 193.581Z" fill="#FFFBE7"/>
<path d="M372.61 230.093C371.214 231.157 369.803 231.653 368.577 232.574C368.174 232.876 367.791 233.224 367.435 233.654C365.488 236.004 364.677 238.692 362.135 240.909C361.726 241.266 361.312 241.645 360.907 242.038H367.189H410.414C407.479 241.275 404.954 240.259 403.829 238.92C400.449 234.895 392.647 230.844 380.848 231.547L378.558 231.684L379.937 229.849C384.639 223.594 385.732 219.24 383.184 216.91C381.984 215.813 379.57 215.805 377.602 216.058C379.031 221.144 376.758 226.931 372.61 230.093Z" fill="#353535"/>
<path d="M333.759 203.632C332.042 201.497 332.189 198.093 334.082 196.113C332.169 197.807 329.146 198.098 326.944 196.8C325.317 195.841 324.8 194.45 324.111 192.821C323.971 192.489 323.943 192.229 323.911 192.028L321.974 193.32C322.291 194.235 322.523 195.168 322.727 196.1C323.091 198.014 323.099 199.956 322.963 201.865C322.785 203.267 322.535 204.653 322.173 206.003C325.581 204.923 331.829 203.013 338.077 209.383C338.697 210.015 339.251 210.717 339.777 211.448C340.242 209.276 340.707 207.104 341.172 204.933C338.832 206.354 335.475 205.767 333.759 203.632Z" fill="#353535"/>
<path d="M115.91 199.779C116.169 199.349 116.459 198.939 116.762 198.54C117.511 197.268 118.416 196.06 119.552 195.05C120.157 194.499 120.843 194.021 121.577 193.632C122.31 193.258 123.078 193.021 123.823 192.719C125.395 192.356 127.036 192.068 128.635 192.4C128.704 192.411 128.77 192.433 128.839 192.446C129.152 192.441 129.465 192.452 129.777 192.467C129.535 192.165 129.314 191.846 129.083 191.535C128.828 191.4 128.574 191.266 128.319 191.131C128.163 190.766 127.988 190.276 127.797 189.717C127.399 189.112 127.001 188.506 126.628 187.886C125.438 185.89 124.325 183.84 123.373 181.711C123.147 181.21 122.927 180.706 122.713 180.199C122.529 180.127 122.341 180.08 122.149 180.065C120.31 187.086 119.841 193.304 115.91 199.779Z" fill="#FFFBE7"/>
<path d="M126.627 186.323C126.183 185.113 125.679 183.889 125.11 182.844C125.586 184.014 126.09 185.175 126.627 186.323Z" fill="#353535"/>
<path d="M129.56 191.788C129.7 192.016 129.828 192.249 129.972 192.474C130.338 192.497 130.704 192.535 131.068 192.587C130.565 192.32 130.063 192.054 129.56 191.788Z" fill="#353535"/>
<path d="M425.156 244.162L425.221 242.041C418.699 241.64 407.565 240.068 405.454 237.555C401.962 233.396 394.272 229.2 382.906 229.349C383.54 228.418 384.083 227.526 384.556 226.666L389.909 224.586L415.201 214.76L410.886 214.287C403.364 213.463 383.477 209.997 381.807 203.942C380.124 197.84 392.122 185.519 396.887 181.287L402.897 175.949L395.707 179.543C382.763 186.015 367.589 192.278 365.456 191.236C364.244 188.692 372.748 175.25 381.419 164.126L387.857 155.865L355.303 183.658C351.956 181.386 346.872 183.45 343.534 185.318C346.736 178.702 352.605 164.88 351.294 154.846C352.263 153.542 353.23 152.237 354.188 150.925C356.689 147.436 359.168 143.931 361.547 140.354C363.937 136.785 366.265 133.171 368.423 129.434C365.549 132.653 362.846 135.996 360.204 139.383C357.551 142.762 354.999 146.214 352.468 149.681C351.885 150.495 351.31 151.316 350.731 152.132C349.894 149.317 348.303 146.949 345.676 145.344C335.93 139.391 327.838 148.139 325.359 151.296C322.87 148.981 317.971 146.109 311.872 145.42C313.652 137.898 315.89 130.094 317.968 123.682L320.691 115.279L301.348 146.647C298.781 147.562 296.308 148.912 293.982 150.719C294.082 148.661 293.696 146.966 292.85 145.879C292.267 145.13 291.484 144.705 290.648 144.682C290.623 144.681 290.599 144.681 290.575 144.681C289.112 144.681 287.585 145.865 286.554 146.868C283.199 150.135 279.813 156.528 279.545 163.681C278.518 163.866 276.765 164.234 275.076 164.835C276.71 160.357 277.792 154.848 275.829 150.344C275.298 149.127 274.564 148.059 273.652 147.13C275.151 144.145 276.633 141.152 278.101 138.152C280.634 132.885 283.143 127.605 285.54 122.272C287.965 116.952 290.265 111.572 292.443 106.132C289.522 111.211 286.723 116.35 284.049 121.549C281.348 126.735 278.757 131.975 276.191 137.226C274.818 140.085 273.456 142.95 272.11 145.822C271.317 145.261 270.438 144.769 269.455 144.363C270.204 140.597 270.563 136.649 269.397 133.115L302.71 75.8928L303.153 75.1318L302.46 75.8928L296.421 82.5217C286.245 93.6927 274.101 105.781 271.641 106.179C271.427 106.217 271.281 106.17 271.118 106.012C269.455 104.408 269.638 96.2477 270.299 90.9667L271.178 83.9388L253.439 123.44C245.071 123.071 233.779 125.674 222.779 133.629C223.783 130.454 224.92 125.986 223.917 124.566C223.588 124.102 223.027 123.848 222.428 123.858C220.685 123.879 217.724 126.061 214.923 129.195C217.4 118.585 218.247 111.224 215.832 107.547C215.296 106.731 214.595 106.135 213.769 105.716C216.852 96.5318 220.215 84.6597 222.602 75.8937C224.407 69.2637 225.656 64.4078 225.799 63.8478L225.871 63.5677L228.293 54.1168L223.82 63.1108C223.73 63.2928 223.637 63.4747 223.547 63.6567C221.503 67.7517 219.338 71.9068 217.176 75.8928C209.666 89.7378 202.188 101.525 199.901 101.525C199.654 101.525 199.273 101.472 198.814 101.011C196.147 98.3317 195.424 87.8338 195.258 75.8928C195.214 72.7578 195.209 69.5247 195.217 66.3057C195.222 64.5417 195.23 62.7827 195.238 61.0477C195.274 53.5647 195.312 45.8277 195.036 39.4277L194.684 31.2607L192.938 39.2468C192.903 39.4058 190.042 52.4538 186.148 67.7678C185.472 70.4248 184.759 73.1548 184.031 75.8928C183.808 76.7318 183.589 77.5678 183.362 78.4078C173.455 115.056 169.323 117.091 168.595 117.127C168.557 117.129 168.518 117.13 168.479 117.13C163.176 117.13 157.093 99.4188 154.486 88.1638L152.704 80.4728L152.391 88.3608C152.384 88.5338 151.887 103.244 157.396 125.08C155.579 124.4 153.704 123.838 151.786 123.417L151.713 123.026L150.697 117.016C149.414 108.991 148.248 100.946 147.21 92.8857C146.571 88.0487 145.987 83.2048 145.434 78.3568C145.34 77.5348 145.249 76.7128 145.157 75.8898C144.886 73.4838 144.621 71.0778 144.381 68.6688C143.999 64.6238 143.611 60.5778 143.326 56.5228C143.125 54.4968 143.066 52.4678 142.928 50.4368C142.851 49.4208 142.848 48.4058 142.82 47.3878L142.713 44.3317C142.048 52.4657 142.249 60.6587 142.736 68.7997C142.873 71.1657 143.059 73.5287 143.261 75.8887C143.35 76.9297 143.435 77.9718 143.533 79.0118C143.978 83.7358 144.51 88.4518 145.107 93.1588C146.186 101.246 147.446 109.311 149.068 117.312C149.468 119.248 149.879 121.187 150.314 123.122C142.385 121.702 133.815 122.769 125.671 128.084C125.554 128.16 125.445 128.24 125.33 128.317C123.647 123.753 122.23 118.476 121.616 115.863L120.622 111.631L119.553 115.845C118.333 120.66 116.933 123.231 115.148 123.935C112.99 124.788 109.705 123.124 105.1 120.168L102.735 118.649L103.505 121.352C105.844 129.559 106.287 136.948 104.581 139.321C104.26 139.768 103.886 139.987 103.407 140.009C103.299 140.014 103.191 140.017 103.083 140.017C95.469 140.017 87.899 127.579 80.576 115.547C80.075 114.724 79.57 113.896 79.064 113.068C76.408 108.724 73.68 104.363 70.884 100.539L65.761 93.5317L69.044 101.567C70.712 105.649 73.005 110.462 75.639 115.605C84.324 132.559 96.729 153.103 102.888 163.109C104.945 166.451 106.316 168.635 106.604 169.093C107.123 170.586 107.993 172.011 108.953 173.177C106.597 173.021 104.013 173.099 101.425 173.466C100.246 170.672 99.074 167.781 98.096 165.146C96.857 161.81 95.93 158.888 95.697 157.101L95.157 152.952L93.654 156.858C92.879 158.871 92.358 160.613 91.939 162.014C90.674 166.24 90.479 166.888 87.261 166.019C84.452 165.259 75.873 154.206 68.979 145.324C64.773 139.905 60.726 134.694 57.343 130.797C55.638 128.834 54.099 127.198 52.8 126.051L48.306 122.083L51.164 127.353C52.268 129.39 53.412 131.397 54.565 133.386C56.166 136.147 57.79 138.866 59.386 141.526C65.636 151.942 71.034 160.938 71.432 167.033C71.523 168.426 71.315 169.391 70.875 169.614C69.981 170.069 67.556 168.688 66.149 167.516L58.891 161.474L64.625 168.976C64.692 169.062 69.165 174.968 73.241 182.857C73.679 183.704 74.113 184.566 74.535 185.454C73.182 185.338 71.874 185.317 70.608 185.394C69.156 185.482 67.759 185.702 66.435 186.111C64.862 183.464 63.272 180.829 61.661 178.206C59.06 174.047 56.438 169.9 53.711 165.819C50.995 161.731 48.216 157.681 45.259 153.742C47.469 158.144 49.857 162.435 52.307 166.688C54.746 170.948 57.291 175.142 59.856 179.323C61.42 181.827 63.002 184.319 64.6 186.801C63.841 187.156 63.114 187.599 62.409 188.106L49.192 167.163L50.71 173.442C51.9 178.368 52.477 185.469 50.462 185.992C47.22 186.834 46.157 185.535 46.131 185.503L42.255 179.905L44.243 186.418C44.291 186.577 49.013 202.319 43.719 208.029C38.708 213.436 33.523 209.459 33.309 209.289L26.729 204.033L42.865 225.465C42.236 225.303 41.579 225.14 40.912 224.977C33.158 223.081 23.254 221.265 21.194 223.728C20.62 224.414 20.406 225.251 20.577 226.147C20.978 228.257 23.672 230.575 26.103 232.283C18.956 231.861 5.65 232.553 0.742001 242.637L0 244.163H45.112H74.5H77.675H334.586H342.306H358.995H364.347H425.156V244.162ZM374.065 170.433C368.412 178.361 361.684 189.016 363.66 192.377C364.564 193.913 367.356 194.498 381.557 188.434C384.821 187.039 388.056 185.558 390.691 184.32C385.448 189.751 378.14 198.626 379.761 204.506C381.642 211.321 398.386 214.634 406.524 215.853L385.864 223.88C387.234 220.216 386.821 217.359 384.617 215.343C382.738 213.626 379.568 213.642 377.276 213.949C379.916 209.9 380.162 207.219 378.368 204.323C377.369 202.712 374.528 200.702 370.43 199.841C366.491 199.015 360.46 199.061 352.756 203.07C358.245 195.282 359.69 188.969 356.825 185.151L374.065 170.433ZM288.038 148.391C289.242 147.219 290.152 146.806 290.575 146.806C290.581 146.806 290.586 146.806 290.592 146.806C290.837 146.813 291.045 147.015 291.177 147.184C291.801 147.986 292.217 149.964 291.511 153.109L290.757 156.466L293.271 154.118C295.243 152.277 297.306 150.814 299.452 149.726L290.676 163.958C289.683 163.7 288.679 163.502 287.677 163.385C285.663 163.189 283.659 163.216 281.688 163.404C282.026 156.989 285.043 151.307 288.038 148.391ZM267.705 96.8588C267.569 100.967 267.84 105.802 269.644 107.543C270.291 108.167 271.101 108.423 271.981 108.278C274.979 107.793 284.687 98.0838 291.513 90.9088L268.324 130.741C267.711 129.692 266.915 128.699 265.907 127.779C265.215 127.148 264.426 126.549 263.517 125.995C262.197 125.191 260.487 124.541 258.48 124.091C257.603 123.894 256.675 123.732 255.688 123.618L267.705 96.8588ZM154.876 97.6788C157.715 106.883 162.758 119.523 168.701 119.25C170.467 119.162 174.601 118.959 185.414 78.9567C186.47 75.0497 187.486 71.1378 188.439 67.3748C190.323 59.9318 191.953 53.0767 193.118 48.0547C193.157 52.2557 193.137 56.6908 193.115 61.0388C193.106 62.9158 193.097 64.7808 193.093 66.6248C193.051 83.5188 193.367 98.5488 197.31 102.51C198.063 103.266 198.935 103.65 199.902 103.65C204.318 103.65 214.648 85.4007 221.213 72.8857C218.809 81.7847 215.076 95.1288 211.73 105.109C209.933 104.948 207.542 105.785 204.852 107.344C197.012 111.887 186.613 122.594 180.834 132.847C179.575 129.689 178.023 127.117 175.715 126.904C173.736 126.724 171.759 128.307 169.567 131.876C167.052 129.946 164.226 128.203 161.202 126.74C160.752 126.523 160.311 126.293 159.853 126.09C156.739 114.181 155.42 104.314 154.876 97.6788ZM106.779 163.652C106.597 163.988 106.462 164.335 106.356 164.688C105.945 164.025 105.474 163.264 104.963 162.433C99.285 153.22 87.82 134.28 79.186 117.84C78.597 116.718 78.027 115.62 77.48 114.551C77.909 115.254 78.336 115.957 78.763 116.655C86.869 129.974 94.53 142.537 103.508 142.135C104.638 142.082 105.607 141.539 106.307 140.565C108.582 137.399 107.853 130.026 106.235 123.377C110.343 125.822 113.369 126.924 115.929 125.916C117.819 125.17 119.281 123.313 120.495 120.043C121.208 122.664 122.277 126.287 123.541 129.611C120.671 131.838 118.511 134.34 116.96 136.997C112.526 144.591 113.1 153.454 116.554 160.825C114.079 160.258 111.872 160.33 110.113 160.959C109.665 161.119 109.239 161.306 108.854 161.539C108.699 161.633 108.555 161.738 108.41 161.842C107.741 162.324 107.178 162.916 106.779 163.652ZM69.072 171.604C70.032 171.883 71.008 171.934 71.835 171.512C73.13 170.855 73.707 169.302 73.55 166.9C73.119 160.291 67.597 151.091 61.206 140.438C60.014 138.452 58.805 136.437 57.603 134.395C60.594 137.992 63.979 142.352 67.3 146.631C77.199 159.385 83.445 167.192 86.706 168.073C91.914 169.483 92.738 166.756 93.973 162.627C94.119 162.139 94.278 161.608 94.456 161.038C94.912 162.554 95.515 164.289 96.197 166.122C97.119 168.598 98.19 171.258 99.277 173.849C97.401 174.237 95.558 174.79 93.829 175.521C92.245 176.191 90.756 177.01 89.434 178.006C86.307 180.361 84.391 183.412 83.728 187.09C82.87 186.887 82.033 186.708 81.196 186.53C79.776 186.227 78.376 185.951 77.02 185.751C76.334 184.241 75.613 182.783 74.885 181.389C72.825 177.445 70.696 174.034 69.072 171.604ZM35.949 212.75C38.5 213.325 41.955 213.064 45.276 209.48C50.064 204.315 48.1 193.167 46.917 188.226C47.919 188.464 49.258 188.506 50.994 188.056C54.053 187.263 54.19 182.412 53.73 178.344L60.762 189.486C60.407 189.832 60.058 190.198 59.719 190.596C59.34 191.043 58.998 191.49 58.681 191.939C54.258 198.201 55.751 204.731 60.03 212.782C56.235 211.503 53.399 211.028 50.658 211.989C49.379 212.437 48.121 213.196 46.795 214.335C45.299 215.62 44.483 217.465 44.432 219.671C44.379 221.986 45.164 224.384 46.082 226.209L35.949 212.75ZM115.306 242.039C114.368 240.865 113.501 239.62 112.738 238.295C111.905 236.807 111.182 235.245 110.553 233.638C109.299 230.454 108.493 227.085 107.884 223.678C107.878 223.643 107.87 223.609 107.864 223.574C107.866 223.604 107.87 223.634 107.872 223.664C108.134 227.117 108.595 230.587 109.545 233.971C110.02 235.677 110.6 237.363 111.314 239.008C111.778 240.043 112.317 241.05 112.894 242.04H107.016C106.175 240.965 105.439 239.741 104.784 238.473C104.043 237.036 103.408 235.529 102.844 233.994C102.283 232.458 101.796 230.888 101.411 229.291C101.035 227.694 100.732 226.067 100.722 224.411C100.554 226.061 100.682 227.737 100.889 229.387C101.104 231.04 101.426 232.681 101.829 234.306C102.236 235.93 102.718 237.541 103.329 239.121C103.713 240.107 104.144 241.083 104.649 242.04H77.206H71.838H44.369H3.523C10.495 231.534 30.203 234.843 30.41 234.878L36.791 235.995L31.101 232.899C28.048 231.238 23.058 227.828 22.663 225.751C22.611 225.479 22.658 225.288 22.822 225.092C24.19 223.456 37.128 225.884 48.353 229.177L49.11 229.399L52.363 230.353L52.612 230.426L49.38 227.385C49.335 227.343 49.286 227.289 49.238 227.236C48.214 226.12 46.487 222.748 46.557 219.719C46.593 218.109 47.14 216.839 48.18 215.946C51.946 212.709 54.783 213.033 61.956 215.729L63.735 216.398C63.697 216.445 63.662 216.495 63.625 216.542C63.57 216.612 63.513 216.68 63.464 216.753C62.608 218.029 62.08 219.443 61.892 220.895C61.464 223.803 62.351 226.713 63.951 228.917C63.137 226.31 62.865 223.638 63.512 221.212C63.845 220.014 64.339 218.861 65.076 217.945C65.74 217.094 66.842 216.335 67.914 215.728C70.085 214.46 72.579 213.879 75.091 214.011C77.606 214.217 80.108 215.157 82.49 216.507C80.668 214.471 78.157 212.931 75.304 212.367C73.878 212.105 72.396 212.136 70.956 212.38C69.516 212.647 68.143 213.184 66.87 213.88C66.249 214.257 65.639 214.648 65.07 215.111C64.788 215.333 64.49 215.588 64.207 215.87L63.251 214.205C62.599 213.071 62.025 212.003 61.499 210.974C57.024 202.213 57.061 197.012 61.342 191.968C63.322 189.636 65.624 188.331 68.431 187.783C70.84 187.312 73.626 187.404 76.91 187.9C78.54 188.146 80.307 188.499 82.199 188.927C82.658 189.03 83.108 189.129 83.583 189.242C83.644 191.285 83.938 193.318 84.525 195.261C85.194 197.491 86.223 199.594 87.529 201.481C90.148 205.261 93.8 208.183 97.838 210.125C93.964 207.872 90.631 204.706 88.425 200.911C87.325 199.017 86.521 196.969 86.066 194.859C85.611 192.764 85.501 190.616 85.675 188.495C85.716 188.1 85.78 187.716 85.853 187.337C86.445 184.258 88.072 181.691 90.714 179.702C93.494 177.608 97.244 176.313 101.091 175.687C104.861 175.074 108.724 175.103 111.859 175.661L117.155 176.605L112.615 173.719C110.599 172.438 107.01 167.687 108.648 164.661C109.699 162.724 113.086 161.631 118.288 163.555L120.367 164.324C120.365 164.329 120.361 164.334 120.359 164.339C119.818 165.592 119.683 166.875 119.675 168.102C119.684 170.566 120.232 172.893 120.886 175.151C121.393 176.877 122.022 178.555 122.717 180.199C122.931 180.706 123.151 181.21 123.377 181.711C124.33 183.84 125.442 185.891 126.632 187.886C127.005 188.506 127.403 189.111 127.801 189.717C128.209 190.338 128.644 190.939 129.087 191.535C129.318 191.846 129.539 192.165 129.781 192.467C129.84 192.541 129.89 192.621 129.95 192.695C129.586 192.593 129.216 192.514 128.842 192.446C128.773 192.433 128.707 192.411 128.638 192.4C127.039 192.068 125.398 192.355 123.826 192.719C123.08 193.022 122.313 193.258 121.58 193.632C120.846 194.021 120.16 194.499 119.555 195.05C118.419 196.06 117.514 197.268 116.765 198.54C116.704 198.643 116.637 198.744 116.578 198.848C115.793 200.239 115.221 201.717 114.766 203.212C114.313 204.709 113.952 206.228 113.718 207.76C112.797 213.871 113.174 220.056 114.387 226.018C114.392 226.043 114.396 226.069 114.401 226.094C115.538 231.683 117.509 237.091 120.245 242.038L115.306 242.039ZM340.433 242.039H334.618H300.717C302.165 240.349 303.329 238.483 304.381 236.593C305.841 233.96 306.999 231.204 308.022 228.413C309.054 225.624 309.938 222.792 310.706 219.932C311.475 217.073 312.163 214.194 312.705 211.29C311.99 214.156 311.132 216.983 310.198 219.778C309.264 222.573 308.218 225.329 307.037 228.016C305.865 230.705 304.564 233.339 303.007 235.787C301.528 238.117 299.851 240.344 297.812 242.039H290.103C291.205 240.855 292.189 239.592 293.105 238.3C294.536 236.28 295.764 234.151 296.916 231.995C298.072 229.839 299.122 227.636 300.102 225.405C300.403 224.717 300.688 224.023 300.978 223.331C301.629 221.778 302.258 220.217 302.828 218.635C302.147 220.166 301.41 221.669 300.653 223.162C300.312 223.834 299.976 224.508 299.625 225.174C298.491 227.317 297.292 229.423 295.999 231.462C294.71 233.502 293.353 235.499 291.835 237.341C290.401 239.085 288.852 240.742 287.112 242.039H163.491C163.253 240.167 163.19 238.308 163.362 236.459C163.406 235.911 163.504 235.366 163.571 234.822C163.634 234.277 163.722 233.736 163.856 233.2L164.199 231.592L164.647 230.007C165.296 227.914 166.032 225.843 167.01 223.881C167.927 221.895 169.001 219.977 170.255 218.207C171.471 216.425 172.865 214.713 174.492 213.476C175.282 212.835 176.192 212.416 177.116 212.153C178.052 211.968 179.011 211.999 179.942 212.298C181.807 212.94 183.369 214.552 184.537 216.359C185.554 217.96 186.296 219.754 186.859 221.627C186.344 223.395 185.913 225.185 185.567 226.993C187.089 223.686 188.52 220.376 190.124 217.182C191.744 214.006 193.485 210.891 195.706 208.217C196.826 206.839 198.095 205.586 199.506 204.565C200.841 203.599 202.303 202.841 203.894 202.4C207.179 201.494 210.792 202.054 214.237 203.186C211.187 201.265 207.373 200.078 203.53 200.783C202.272 200.995 201.07 201.449 199.935 202.026C199.349 202.324 198.775 202.645 198.231 203.004C196.643 204.087 195.274 205.43 194.066 206.868C191.696 209.795 189.97 213.104 188.617 216.505C187.997 218.061 187.459 219.64 186.982 221.236C186.752 219.397 186.246 217.576 185.442 215.854C184.404 213.81 182.901 211.773 180.532 210.757C179.36 210.266 178.02 210.114 176.744 210.336C175.492 210.616 174.316 211.123 173.32 211.85C171.324 213.281 169.855 215.117 168.51 217C167.2 218.912 166.087 220.938 165.179 223.051C164.265 225.159 163.528 227.348 163.043 229.594C162.496 231.826 162.326 234.142 162.32 236.427C162.388 238.342 162.704 240.24 163.278 242.04H157.021C155.969 237.776 155.592 233.297 155.733 228.829C155.802 226.45 156.005 224.068 156.354 221.704C156.537 220.524 156.736 219.343 157.001 218.177C157.259 217.01 157.552 215.844 158.012 214.735C157.471 215.808 157.089 216.958 156.744 218.109C156.391 219.261 156.104 220.431 155.832 221.606C155.305 223.96 154.922 226.348 154.673 228.757C154.212 233.14 154.228 237.607 154.934 242.039H149.566C149.052 240.427 148.735 238.692 148.549 236.943C148.335 234.922 148.262 232.871 148.281 230.818C148.303 228.764 148.413 226.704 148.637 224.654C148.871 222.608 149.155 220.552 149.806 218.585C148.987 220.493 148.522 222.539 148.112 224.575C147.711 226.618 147.421 228.683 147.221 230.762C147.024 232.842 146.919 234.936 146.961 237.047C146.998 238.7 147.131 240.366 147.465 242.04H120.414C118.334 236.775 116.886 231.323 116.025 225.805C115.284 220.773 114.99 215.65 115.493 210.638C115.578 209.787 115.68 208.938 115.814 208.094C116.263 205.202 117.012 202.332 118.346 199.808C119.002 198.547 119.811 197.375 120.81 196.426C121.302 195.943 121.856 195.539 122.439 195.195C123.03 194.851 123.705 194.606 124.337 194.298C126.978 193.394 129.974 193.601 132.552 194.991C135.182 196.273 137.409 198.394 139.272 200.755C138.545 199.425 137.632 198.193 136.595 197.067C135.569 195.929 134.38 194.923 133.061 194.082C132.17 193.508 131.182 193.07 130.146 192.76C130.085 192.667 130.034 192.568 129.974 192.474C129.83 192.249 129.701 192.016 129.562 191.788C128.477 190.022 127.504 188.195 126.629 186.323C126.092 185.175 125.589 184.014 125.112 182.844C124.897 182.315 124.673 181.789 124.467 181.258C123.649 179.119 122.946 176.94 122.384 174.743C121.835 172.549 121.457 170.299 121.502 168.133C121.532 167.059 121.699 165.999 122.105 165.134C122.305 164.701 122.569 164.331 122.89 164.04C123.171 163.779 123.708 163.445 124.131 163.199C125.036 162.699 125.97 162.383 126.871 162.435C127.771 162.471 128.655 162.886 129.471 163.501C131.11 164.755 132.431 166.626 133.664 168.493C134.888 170.389 135.989 172.395 137.046 174.425L138.772 177.739L138.974 174.011C139.146 170.837 139.444 167.616 139.952 164.467C140.214 162.893 140.498 161.323 140.905 159.798C141.312 158.282 141.812 156.767 142.592 155.512C142.993 154.882 143.425 154.378 144.043 154.101C144.718 153.762 145.426 153.528 146.146 153.445C147.587 153.274 149.042 153.873 150.274 154.832C151.519 155.781 152.601 156.987 153.616 158.234C154.623 159.492 155.597 160.787 156.539 162.107C155.735 160.699 154.917 159.294 153.983 157.958C153.054 156.621 152.057 155.309 150.803 154.187C150.178 153.628 149.474 153.126 148.669 152.765C147.867 152.402 146.953 152.236 146.056 152.28C145.159 152.332 144.294 152.573 143.501 152.915C142.604 153.258 141.888 154.002 141.396 154.708C140.399 156.173 139.829 157.761 139.327 159.344C138.842 160.933 138.457 162.537 138.159 164.153C137.775 166.245 137.477 168.335 137.249 170.44C136.675 169.401 136.075 168.372 135.434 167.359C134.155 165.376 132.768 163.39 130.715 161.827C129.693 161.067 128.398 160.432 126.968 160.382C125.545 160.321 124.21 160.807 123.127 161.459C122.568 161.816 122.109 162.086 121.543 162.612C121.514 162.64 121.494 162.673 121.466 162.702C121.444 162.725 121.426 162.751 121.404 162.774C121.094 163.106 120.836 163.472 120.624 163.857L119.651 162.162L119.577 162.033C113.878 152.1 113.912 138.301 126.835 129.867C141.614 120.221 157.978 125.508 168.609 133.823C168.528 134.042 168.459 134.264 168.382 134.485C167.689 136.478 167.16 138.509 166.83 140.565C166.623 141.848 166.481 143.138 166.432 144.431C166.405 145.718 166.38 147.033 166.725 148.277C166.556 147.006 166.761 145.733 166.96 144.487C167.182 143.239 167.493 142.01 167.864 140.804C168.594 138.42 169.579 136.13 170.781 133.998L170.789 133.984C170.93 133.735 171.066 133.503 171.201 133.278C173.481 129.462 174.846 128.952 175.521 129.017C176.699 129.126 177.814 131.15 178.617 133.036C179.084 134.132 179.446 135.182 179.652 135.782L180.087 137.047C178.901 137.782 177.859 138.706 176.955 139.721C176.217 140.55 175.588 141.472 175.086 142.46C174.61 143.445 174.212 144.549 174.323 145.644C174.68 144.627 175.282 143.799 175.954 143.027C176.611 142.249 177.352 141.55 178.115 140.896C179.652 139.607 181.364 138.522 183.148 137.929C184.929 137.342 186.77 137.359 188.305 138.414C189.846 139.465 190.988 141.252 192.052 143.111C191.815 140.995 191.099 138.776 189.337 137.118C188.47 136.286 187.277 135.751 186.059 135.558C185.019 135.4 183.984 135.514 183.014 135.768C182.839 135.814 182.662 135.855 182.491 135.91C182.455 135.922 182.422 135.94 182.386 135.952C182.042 136.072 181.707 136.207 181.381 136.356L181.604 135.913C181.701 135.72 181.807 135.526 181.908 135.332C189.304 121.115 206.092 106.321 211.712 107.232C212.749 107.401 213.517 107.885 214.06 108.712C216.529 112.471 214.38 122.849 211.69 133.505L210.192 139.44L213.601 134.357C217.14 129.082 220.945 126.326 222.215 126.012C222.358 127.437 221.14 132.337 219.647 136.202C219.642 136.216 219.637 136.23 219.631 136.244L218.99 137.898C218.489 138.079 217.995 138.272 217.512 138.484C214.658 139.822 212.104 141.679 209.966 143.936C207.832 146.167 206.077 148.881 205.377 151.862C206.897 149.225 208.879 147.035 211.104 145.132C212.219 144.188 213.38 143.297 214.608 142.519C215.821 141.72 217.079 140.986 218.395 140.415C220.987 139.205 223.786 138.488 226.419 139.28C229.054 140.029 231.236 142.238 232.426 145.025C232.111 142.014 230.099 138.963 226.978 137.72C225.453 137.041 223.729 136.936 222.105 137.108C221.939 137.129 221.779 137.168 221.616 137.195C222.559 136.438 223.504 135.733 224.449 135.062C240.677 123.551 256.932 124.469 262.413 127.808C267.501 130.908 268.973 135.581 267.401 143.772C264.247 143.199 260.966 143.68 258.09 144.893C257.169 145.287 256.286 145.75 255.435 146.26C253.311 147.534 251.411 149.141 249.801 150.973C247.532 153.529 245.737 156.456 244.477 159.573C243.224 162.696 242.467 165.966 242.047 169.247C242.908 166.045 243.999 162.938 245.466 160.029C246.986 157.151 248.864 154.485 251.136 152.24C253.164 150.266 255.476 148.6 257.999 147.45C258.316 147.305 258.636 147.166 258.959 147.038C261.839 145.889 264.973 145.52 267.943 146.059C270.846 147.083 272.847 148.809 273.886 151.192C275.928 155.878 274.055 162.097 272.125 166.489L271.632 167.609L270.743 169.632L273.658 167.817C273.993 167.609 274.369 167.418 274.765 167.242C277.202 166.159 280.482 165.674 280.713 165.641C282.967 165.495 285.216 165.451 287.4 165.748C289.582 166.02 291.709 166.598 293.557 167.646C295.393 168.701 296.972 170.163 298.106 171.988C299.224 173.792 300.044 175.939 300.378 178.041C301.109 182.255 299.845 186.685 297.918 190.684C297.9 190.721 297.884 190.759 297.866 190.796C297.847 190.835 297.831 190.875 297.812 190.914C297.655 191.238 297.484 191.557 297.317 191.877C296.428 193.581 295.415 195.232 294.3 196.818C293.001 198.723 291.561 200.538 290.014 202.272C293.538 199.234 296.6 195.625 299.011 191.558C299.074 191.452 299.129 191.341 299.19 191.235C299.284 191.072 299.367 190.902 299.459 190.737C300.455 188.936 301.274 187.022 301.842 185.006C302.168 183.846 302.412 182.651 302.519 181.431C302.645 180.215 302.647 178.972 302.485 177.741C302.336 176.501 302.008 175.299 301.613 174.152C301.212 172.995 300.705 171.86 300.065 170.788C299.367 169.608 298.489 168.512 297.476 167.557C296.649 166.777 295.733 166.09 294.738 165.544C294.098 165.185 293.433 164.89 292.759 164.625L313.524 130.95C309.663 144.185 303.302 169.065 308.273 174.521C311.582 178.154 316.48 178.252 322.854 174.825C321.664 178.175 321.079 181.435 322.409 184.014C323.224 185.594 324.663 186.765 326.781 187.561L321.091 191.356C320.954 191.104 320.831 190.848 320.672 190.603C320.347 190.198 320.054 189.775 319.694 189.397L319.1 188.867C318.908 188.685 318.701 188.52 318.456 188.395L317.753 187.992C317.513 187.871 317.242 187.807 316.985 187.723C316.473 187.524 315.926 187.533 315.397 187.484C314.925 187.485 314.473 187.545 314.035 187.638C312.472 187.97 311.12 188.818 309.983 189.748C309.492 190.169 309.044 190.626 308.617 191.099C308.308 191.441 308.006 191.789 307.726 192.151C307.252 192.766 306.811 193.403 306.425 194.068C306.994 193.492 307.578 192.937 308.177 192.41C308.946 191.734 309.742 191.109 310.593 190.587C312.079 189.657 313.768 188.996 315.328 189.133C316.87 189.312 318.157 190.256 318.984 191.683C319.83 193.087 320.315 194.795 320.642 196.494C321 198.192 321.022 199.95 320.959 201.704C320.847 203.464 320.544 205.216 320.153 206.965C319.283 210.442 317.992 213.857 316.354 217.166C318.506 214.607 320.146 211.627 321.345 208.454C321.757 208.354 322.205 208.219 322.724 208.055C325.885 207.053 331.176 205.378 336.561 210.869C342.697 217.125 344.341 230.688 340.433 242.039ZM356.471 228.715C356.215 231.181 355.725 233.612 355.053 235.965C354.441 238.096 353.628 240.154 352.595 242.038H347.421C348.489 238.902 349.168 235.683 349.542 232.454C349.841 229.849 349.967 227.239 349.962 224.636C349.96 223.495 349.94 222.355 349.886 221.218C349.829 222.418 349.733 223.614 349.619 224.807C349.377 227.324 349.015 229.824 348.494 232.281C347.773 235.671 346.713 238.975 345.252 242.038H342.67C344.28 236.993 344.945 231.038 344.437 225.382C343.967 220.156 342.476 215.202 339.777 211.446C339.252 210.715 338.697 210.013 338.077 209.381C331.83 203.011 325.581 204.922 322.173 206.001C322.535 204.651 322.784 203.265 322.963 201.863C323.1 199.954 323.091 198.012 322.727 196.098C322.524 195.167 322.291 194.233 321.974 193.318L323.911 192.026L331.939 186.672L329.495 186.139C326.766 185.543 325.065 184.529 324.296 183.038C322.979 180.486 324.399 176.399 325.961 172.739L327.326 169.538L324.406 171.431C317.604 175.839 312.842 176.38 309.842 173.089C307.305 170.304 308.68 159.47 311.389 147.508C317.818 148.167 322.886 151.53 324.649 153.61C325.307 154.438 325.914 155.345 326.333 156.369C326.756 157.408 327.088 158.514 327.261 159.663C327.611 161.958 327.556 164.368 327.091 166.713C327.897 164.456 328.327 162.042 328.319 159.576C328.317 158.341 328.145 157.096 327.843 155.863C327.6 154.877 327.201 153.926 326.713 153.006C328.383 150.695 335.669 141.714 344.57 147.155C354.832 153.426 345.992 176.492 339.883 187.812L337.574 192.091L341.456 189.164C344.01 187.24 351.321 182.86 354.469 185.687C358.195 189.035 355.629 196.721 347.604 206.247L342.528 212.271L349.017 207.806C358.487 201.289 365.653 201.005 369.991 201.918C373.666 202.689 375.971 204.487 376.561 205.439C377.738 207.339 378.298 209.24 374.012 214.874L372.085 217.408L375.148 216.538C375.696 216.382 376.59 216.186 377.6 216.056C379.568 215.803 381.982 215.811 383.182 216.908C385.73 219.238 384.637 223.591 379.935 229.847L378.556 231.682L380.846 231.545C392.646 230.842 400.447 234.893 403.827 238.918C404.952 240.258 407.477 241.273 410.412 242.036H367.189H360.907H354.739C355.388 240.109 355.818 238.148 356.091 236.183C356.43 233.695 356.568 231.196 356.471 228.715Z" fill="#353535"/>
</svg>
